solid ASCII
  facet normal -2.076265e-14 -1.706285e-16 -1.000000e+00
    outer loop
      vertex   1.625000e-02 3.050000e-02 2.700000e-02
      vertex   4.625000e-02 4.000000e-02 2.700000e-02
      vertex   1.625000e-02 -3.050000e-02 2.700000e-02
    endloop
  endfacet
  facet normal -2.524023e-14 1.734723e-15 -1.000000e+00
    outer loop
      vertex   1.625000e-02 -3.050000e-02 2.700000e-02
      vertex   4.625000e-02 4.000000e-02 2.700000e-02
      vertex   4.625000e-02 -4.000000e-02 2.700000e-02
    endloop
  endfacet
  facet normal -1.441155e-14 3.593055e-14 -1.000000e+00
    outer loop
      vertex   1.625000e-02 -3.050000e-02 2.700000e-02
      vertex   4.625000e-02 -4.000000e-02 2.700000e-02
      vertex   1.375000e-02 -4.000000e-02 2.700000e-02
    endloop
  endfacet
  facet normal 6.938894e-14 2.191230e-15 -1.000000e+00
    outer loop
      vertex   1.375000e-02 3.050000e-02 2.700000e-02
      vertex   1.375000e-02 4.000000e-02 2.700000e-02
      vertex   1.625000e-02 3.050000e-02 2.700000e-02
    endloop
  endfacet
  facet normal -1.451830e-14 -1.988962e-14 -1.000000e+00
    outer loop
      vertex   1.625000e-02 3.050000e-02 2.700000e-02
      vertex   1.375000e-02 4.000000e-02 2.700000e-02
      vertex   4.625000e-02 4.000000e-02 2.700000e-02
    endloop
  endfacet
  facet normal 1.151856e-13 1.826025e-15 -1.000000e+00
    outer loop
      vertex   1.375000e-02 -4.000000e-02 2.700000e-02
      vertex   1.375000e-02 -3.050000e-02 2.700000e-02
      vertex   1.625000e-02 -3.050000e-02 2.700000e-02
    endloop
  endfacet
  facet normal 1.179878e-15 1.000000e+00 1.921357e-14
    outer loop
      vertex   4.919051e-02 4.000000e-02 1.018194e-01
      vertex   5.210271e-02 4.000000e-02 1.012794e-01
      vertex   4.625000e-02 4.000000e-02 1.020000e-01
    endloop
  endfacet
  facet normal -3.793965e-16 1.000000e+00 6.548308e-15
    outer loop
      vertex   4.625000e-02 4.000000e-02 1.020000e-01
      vertex   5.210271e-02 4.000000e-02 1.012794e-01
      vertex   5.495854e-02 4.000000e-02 1.003853e-01
    endloop
  endfacet
  facet normal -9.494090e-16 1.000000e+00 3.474138e-15
    outer loop
      vertex   4.625000e-02 4.000000e-02 1.020000e-01
      vertex   5.495854e-02 4.000000e-02 1.003853e-01
      vertex   5.773050e-02 4.000000e-02 9.914548e-02
    endloop
  endfacet
  facet normal -3.129290e-15 1.000000e+00 -5.293062e-15
    outer loop
      vertex   5.773050e-02 4.000000e-02 9.914548e-02
      vertex   6.039190e-02 4.000000e-02 9.757205e-02
      vertex   4.625000e-02 4.000000e-02 1.020000e-01
    endloop
  endfacet
  facet normal -5.559715e-16 1.000000e+00 2.925548e-15
    outer loop
      vertex   4.625000e-02 4.000000e-02 1.020000e-01
      vertex   6.039190e-02 4.000000e-02 9.757205e-02
      vertex   6.291711e-02 4.000000e-02 9.568011e-02
    endloop
  endfacet
  facet normal -7.869664e-16 1.000000e+00 2.316357e-15
    outer loop
      vertex   4.625000e-02 4.000000e-02 1.020000e-01
      vertex   6.291711e-02 4.000000e-02 9.568011e-02
      vertex   6.528180e-02 4.000000e-02 9.348789e-02
    endloop
  endfacet
  facet normal -9.371991e-16 1.000000e+00 1.980459e-15
    outer loop
      vertex   6.528180e-02 4.000000e-02 9.348789e-02
      vertex   6.746320e-02 4.000000e-02 9.101650e-02
      vertex   4.625000e-02 4.000000e-02 1.020000e-01
    endloop
  endfacet
  facet normal -1.032747e-15 1.000000e+00 1.795921e-15
    outer loop
      vertex   4.625000e-02 4.000000e-02 1.020000e-01
      vertex   6.746320e-02 4.000000e-02 9.101650e-02
      vertex   6.944031e-02 4.000000e-02 8.828975e-02
    endloop
  endfacet
  facet normal -3.226162e-15 1.000000e+00 -1.914148e-15
    outer loop
      vertex   4.625000e-02 4.000000e-02 1.020000e-01
      vertex   6.944031e-02 4.000000e-02 8.828975e-02
      vertex   7.119409e-02 4.000000e-02 8.533388e-02
    endloop
  endfacet
  facet normal 1.457083e-15 1.000000e+00 5.095239e-15
    outer loop
      vertex   7.119409e-02 4.000000e-02 8.533388e-02
      vertex   7.270764e-02 4.000000e-02 8.217738e-02
      vertex   4.625000e-02 4.000000e-02 1.020000e-01
    endloop
  endfacet
  facet normal -3.294245e-15 1.000000e+00 -1.246449e-15
    outer loop
      vertex   4.625000e-02 4.000000e-02 1.020000e-01
      vertex   7.270764e-02 4.000000e-02 8.217738e-02
      vertex   7.396639e-02 4.000000e-02 7.885063e-02
    endloop
  endfacet
  facet normal 1.435160e-15 1.000000e+00 4.415994e-15
    outer loop
      vertex   4.625000e-02 4.000000e-02 1.020000e-01
      vertex   7.396639e-02 4.000000e-02 7.885063e-02
      vertex   7.495821e-02 4.000000e-02 7.538568e-02
    endloop
  endfacet
  facet normal -3.265365e-15 1.000000e+00 -6.543451e-16
    outer loop
      vertex   7.495821e-02 4.000000e-02 7.538568e-02
      vertex   7.567356e-02 4.000000e-02 7.181589e-02
      vertex   4.625000e-02 4.000000e-02 1.020000e-01
    endloop
  endfacet
  facet normal 1.499276e-15 1.000000e+00 3.990240e-15
    outer loop
      vertex   4.625000e-02 4.000000e-02 1.020000e-01
      vertex   7.567356e-02 4.000000e-02 7.181589e-02
      vertex   7.610554e-02 4.000000e-02 6.817564e-02
    endloop
  endfacet
  facet normal -9.237775e-16 1.000000e+00 1.851498e-15
    outer loop
      vertex   4.625000e-02 4.000000e-02 1.020000e-01
      vertex   7.610554e-02 4.000000e-02 6.817564e-02
      vertex   7.625000e-02 4.000000e-02 6.450000e-02
    endloop
  endfacet
  facet normal -1.156482e-15 1.000000e+00 1.665335e-15
    outer loop
      vertex   4.625000e-02 4.000000e-02 1.020000e-01
      vertex   7.625000e-02 4.000000e-02 6.450000e-02
      vertex   4.625000e-02 4.000000e-02 2.700000e-02
    endloop
  endfacet
  facet normal -1.508686e-15 1.000000e+00 1.947098e-15
    outer loop
      vertex   4.625000e-02 4.000000e-02 2.700000e-02
      vertex   7.625000e-02 4.000000e-02 6.450000e-02
      vertex   7.610554e-02 4.000000e-02 6.082436e-02
    endloop
  endfacet
  facet normal 8.055478e-16 1.000000e+00 -9.559338e-17
    outer loop
      vertex   4.625000e-02 4.000000e-02 2.700000e-02
      vertex   7.610554e-02 4.000000e-02 6.082436e-02
      vertex   7.567356e-02 4.000000e-02 5.718411e-02
    endloop
  endfacet
  facet normal -1.619453e-15 1.000000e+00 2.268305e-15
    outer loop
      vertex   7.567356e-02 4.000000e-02 5.718411e-02
      vertex   7.495821e-02 4.000000e-02 5.361432e-02
      vertex   4.625000e-02 4.000000e-02 2.700000e-02
    endloop
  endfacet
  facet normal -1.869127e-15 1.000000e+00 2.537621e-15
    outer loop
      vertex   4.625000e-02 4.000000e-02 2.700000e-02
      vertex   7.495821e-02 4.000000e-02 5.361432e-02
      vertex   7.396639e-02 4.000000e-02 5.014937e-02
    endloop
  endfacet
  facet normal -2.180994e-15 1.000000e+00 2.911015e-15
    outer loop
      vertex   4.625000e-02 4.000000e-02 2.700000e-02
      vertex   7.396639e-02 4.000000e-02 5.014937e-02
      vertex   7.270764e-02 4.000000e-02 4.682262e-02
    endloop
  endfacet
  facet normal 0.000000e+00 1.000000e+00 0.000000e+00
    outer loop
      vertex   7.270764e-02 4.000000e-02 4.682262e-02
      vertex   7.119409e-02 4.000000e-02 4.366612e-02
      vertex   4.625000e-02 4.000000e-02 2.700000e-02
    endloop
  endfacet
  facet normal 0.000000e+00 1.000000e+00 0.000000e+00
    outer loop
      vertex   4.625000e-02 4.000000e-02 2.700000e-02
      vertex   7.119409e-02 4.000000e-02 4.366612e-02
      vertex   6.944031e-02 4.000000e-02 4.071025e-02
    endloop
  endfacet
  facet normal -2.633273e-15 1.000000e+00 4.454071e-15
    outer loop
      vertex   4.625000e-02 4.000000e-02 2.700000e-02
      vertex   6.944031e-02 4.000000e-02 4.071025e-02
      vertex   6.746320e-02 4.000000e-02 3.798350e-02
    endloop
  endfacet
  facet normal -6.024147e-16 1.000000e+00 5.317297e-16
    outer loop
      vertex   6.746320e-02 4.000000e-02 3.798350e-02
      vertex   6.528180e-02 4.000000e-02 3.551211e-02
      vertex   4.625000e-02 4.000000e-02 2.700000e-02
    endloop
  endfacet
  facet normal -7.044563e-16 1.000000e+00 7.598795e-16
    outer loop
      vertex   4.625000e-02 4.000000e-02 2.700000e-02
      vertex   6.528180e-02 4.000000e-02 3.551211e-02
      vertex   6.291711e-02 4.000000e-02 3.331989e-02
    endloop
  endfacet
  facet normal -3.658702e-15 1.000000e+00 8.550954e-15
    outer loop
      vertex   4.625000e-02 4.000000e-02 2.700000e-02
      vertex   6.291711e-02 4.000000e-02 3.331989e-02
      vertex   6.039190e-02 4.000000e-02 3.142795e-02
    endloop
  endfacet
  facet normal 8.492837e-16 1.000000e+00 -5.846556e-15
    outer loop
      vertex   6.039190e-02 4.000000e-02 3.142795e-02
      vertex   5.773050e-02 4.000000e-02 2.985452e-02
      vertex   4.625000e-02 4.000000e-02 2.700000e-02
    endloop
  endfacet
  facet normal -1.361040e-15 1.000000e+00 3.043082e-15
    outer loop
      vertex   4.625000e-02 4.000000e-02 2.700000e-02
      vertex   5.773050e-02 4.000000e-02 2.985452e-02
      vertex   5.495854e-02 4.000000e-02 2.861474e-02
    endloop
  endfacet
  facet normal -1.953833e-15 1.000000e+00 6.240112e-15
    outer loop
      vertex   4.625000e-02 4.000000e-02 2.700000e-02
      vertex   5.495854e-02 4.000000e-02 2.861474e-02
      vertex   5.210271e-02 4.000000e-02 2.772055e-02
    endloop
  endfacet
  facet normal -3.528270e-15 1.000000e+00 1.902853e-14
    outer loop
      vertex   5.210271e-02 4.000000e-02 2.772055e-02
      vertex   4.919051e-02 4.000000e-02 2.718057e-02
      vertex   4.625000e-02 4.000000e-02 2.700000e-02
    endloop
  endfacet
  facet normal -8.540177e-16 1.000000e+00 1.665335e-15
    outer loop
      vertex   4.625000e-02 4.000000e-02 1.020000e-01
      vertex   4.625000e-02 4.000000e-02 2.700000e-02
      vertex   1.375000e-02 4.000000e-02 1.020000e-01
    endloop
  endfacet
  facet normal -6.405133e-16 1.000000e+00 1.757853e-15
    outer loop
      vertex   1.375000e-02 4.000000e-02 1.020000e-01
      vertex   4.625000e-02 4.000000e-02 2.700000e-02
      vertex   1.375000e-02 4.000000e-02 2.700000e-02
    endloop
  endfacet
  facet normal -2.467703e-15 1.000000e+00 1.757853e-15
    outer loop
      vertex   1.375000e-02 4.000000e-02 1.020000e-01
      vertex   1.375000e-02 4.000000e-02 2.700000e-02
      vertex   1.080949e-02 4.000000e-02 1.018194e-01
    endloop
  endfacet
  facet normal 1.141785e-16 1.000000e+00 1.859325e-15
    outer loop
      vertex   1.080949e-02 4.000000e-02 1.018194e-01
      vertex   1.375000e-02 4.000000e-02 2.700000e-02
      vertex   1.080949e-02 4.000000e-02 2.718057e-02
    endloop
  endfacet
  facet normal 2.037946e-15 1.000000e+00 1.859325e-15
    outer loop
      vertex   1.080949e-02 4.000000e-02 1.018194e-01
      vertex   1.080949e-02 4.000000e-02 2.718057e-02
      vertex   7.897290e-03 4.000000e-02 1.012794e-01
    endloop
  endfacet
  facet normal -2.067866e-15 1.000000e+00 1.697960e-15
    outer loop
      vertex   7.897290e-03 4.000000e-02 1.012794e-01
      vertex   1.080949e-02 4.000000e-02 2.718057e-02
      vertex   7.897290e-03 4.000000e-02 2.772055e-02
    endloop
  endfacet
  facet normal -2.961375e-15 1.000000e+00 1.697960e-15
    outer loop
      vertex   7.897290e-03 4.000000e-02 1.012794e-01
      vertex   7.897290e-03 4.000000e-02 2.772055e-02
      vertex   5.041460e-03 4.000000e-02 1.003853e-01
    endloop
  endfacet
  facet normal -1.884835e-15 1.000000e+00 1.740270e-15
    outer loop
      vertex   5.041460e-03 4.000000e-02 1.003853e-01
      vertex   7.897290e-03 4.000000e-02 2.772055e-02
      vertex   5.041460e-03 4.000000e-02 2.861474e-02
    endloop
  endfacet
  facet normal -7.783482e-16 1.000000e+00 1.740270e-15
    outer loop
      vertex   5.041460e-03 4.000000e-02 1.003853e-01
      vertex   5.041460e-03 4.000000e-02 2.861474e-02
      vertex   2.269497e-03 4.000000e-02 9.914548e-02
    endloop
  endfacet
  facet normal -1.741830e-15 1.000000e+00 1.702404e-15
    outer loop
      vertex   2.269497e-03 4.000000e-02 9.914548e-02
      vertex   5.041460e-03 4.000000e-02 2.861474e-02
      vertex   2.269497e-03 4.000000e-02 2.985452e-02
    endloop
  endfacet
  facet normal -1.006471e-15 1.000000e+00 1.702404e-15
    outer loop
      vertex   2.269497e-03 4.000000e-02 9.914548e-02
      vertex   2.269497e-03 4.000000e-02 2.985452e-02
      vertex   -3.919021e-04 4.000000e-02 9.757205e-02
    endloop
  endfacet
  facet normal 1.054355e-15 1.000000e+00 1.783397e-15
    outer loop
      vertex   -3.919021e-04 4.000000e-02 9.757205e-02
      vertex   2.269497e-03 4.000000e-02 2.985452e-02
      vertex   -3.919021e-04 4.000000e-02 3.142795e-02
    endloop
  endfacet
  facet normal -1.336159e-15 1.000000e+00 1.783397e-15
    outer loop
      vertex   -3.919021e-04 4.000000e-02 9.757205e-02
      vertex   -3.919021e-04 4.000000e-02 3.142795e-02
      vertex   -2.917107e-03 4.000000e-02 9.568011e-02
    endloop
  endfacet
  facet normal -1.413987e-15 1.000000e+00 1.780339e-15
    outer loop
      vertex   -2.917107e-03 4.000000e-02 9.568011e-02
      vertex   -3.919021e-04 4.000000e-02 3.142795e-02
      vertex   -2.917107e-03 4.000000e-02 3.331989e-02
    endloop
  endfacet
  facet normal 1.283890e-15 1.000000e+00 1.780339e-15
    outer loop
      vertex   -2.917107e-03 4.000000e-02 9.568011e-02
      vertex   -2.917107e-03 4.000000e-02 3.331989e-02
      vertex   -5.281799e-03 4.000000e-02 9.348789e-02
    endloop
  endfacet
  facet normal -1.380984e-15 1.000000e+00 1.675605e-15
    outer loop
      vertex   -5.281799e-03 4.000000e-02 9.348789e-02
      vertex   -2.917107e-03 4.000000e-02 3.331989e-02
      vertex   -5.281799e-03 4.000000e-02 3.551211e-02
    endloop
  endfacet
  facet normal -1.898350e-15 1.000000e+00 1.675605e-15
    outer loop
      vertex   -5.281799e-03 4.000000e-02 9.348789e-02
      vertex   -5.281799e-03 4.000000e-02 3.551211e-02
      vertex   -7.463203e-03 4.000000e-02 9.101650e-02
    endloop
  endfacet
  facet normal -1.253884e-15 1.000000e+00 1.700933e-15
    outer loop
      vertex   -7.463203e-03 4.000000e-02 9.101650e-02
      vertex   -5.281799e-03 4.000000e-02 3.551211e-02
      vertex   -7.463203e-03 4.000000e-02 3.798350e-02
    endloop
  endfacet
  facet normal 1.163751e-15 1.000000e+00 1.700933e-15
    outer loop
      vertex   -7.463203e-03 4.000000e-02 9.101650e-02
      vertex   -7.463203e-03 4.000000e-02 3.798350e-02
      vertex   -9.440314e-03 4.000000e-02 8.828975e-02
    endloop
  endfacet
  facet normal -1.297138e-15 1.000000e+00 1.604217e-15
    outer loop
      vertex   -9.440314e-03 4.000000e-02 8.828975e-02
      vertex   -7.463203e-03 4.000000e-02 3.798350e-02
      vertex   -9.440314e-03 4.000000e-02 4.071025e-02
    endloop
  endfacet
  facet normal -2.703795e-15 1.000000e+00 1.604217e-15
    outer loop
      vertex   -9.440314e-03 4.000000e-02 8.828975e-02
      vertex   -9.440314e-03 4.000000e-02 4.071025e-02
      vertex   -1.119409e-02 4.000000e-02 8.533388e-02
    endloop
  endfacet
  facet normal -1.149817e-15 1.000000e+00 1.665291e-15
    outer loop
      vertex   -1.119409e-02 4.000000e-02 8.533388e-02
      vertex   -9.440314e-03 4.000000e-02 4.071025e-02
      vertex   -1.119409e-02 4.000000e-02 4.366612e-02
    endloop
  endfacet
  facet normal -3.472962e-15 1.000000e+00 1.665291e-15
    outer loop
      vertex   -1.119409e-02 4.000000e-02 8.533388e-02
      vertex   -1.119409e-02 4.000000e-02 4.366612e-02
      vertex   -1.270764e-02 4.000000e-02 8.217738e-02
    endloop
  endfacet
  facet normal -9.007268e-16 1.000000e+00 1.766383e-15
    outer loop
      vertex   -1.270764e-02 4.000000e-02 8.217738e-02
      vertex   -1.119409e-02 4.000000e-02 4.366612e-02
      vertex   -1.270764e-02 4.000000e-02 4.682262e-02
    endloop
  endfacet
  facet normal 8.441567e-16 1.000000e+00 1.766383e-15
    outer loop
      vertex   -1.270764e-02 4.000000e-02 8.217738e-02
      vertex   -1.270764e-02 4.000000e-02 4.682262e-02
      vertex   -1.396639e-02 4.000000e-02 7.885063e-02
    endloop
  endfacet
  facet normal 5.111643e-15 1.000000e+00 1.934102e-15
    outer loop
      vertex   -1.396639e-02 4.000000e-02 7.885063e-02
      vertex   -1.270764e-02 4.000000e-02 4.682262e-02
      vertex   -1.396639e-02 4.000000e-02 5.014937e-02
    endloop
  endfacet
  facet normal 2.392781e-16 1.000000e+00 1.934102e-15
    outer loop
      vertex   -1.396639e-02 4.000000e-02 7.885063e-02
      vertex   -1.396639e-02 4.000000e-02 5.014937e-02
      vertex   -1.495821e-02 4.000000e-02 7.538568e-02
    endloop
  endfacet
  facet normal -8.424977e-15 1.000000e+00 1.593584e-15
    outer loop
      vertex   -1.495821e-02 4.000000e-02 7.538568e-02
      vertex   -1.396639e-02 4.000000e-02 5.014937e-02
      vertex   -1.495821e-02 4.000000e-02 5.361432e-02
    endloop
  endfacet
  facet normal 1.747593e-15 1.000000e+00 1.593584e-15
    outer loop
      vertex   -1.495821e-02 4.000000e-02 7.538568e-02
      vertex   -1.495821e-02 4.000000e-02 5.361432e-02
      vertex   -1.567356e-02 4.000000e-02 7.181589e-02
    endloop
  endfacet
  facet normal 9.466254e-15 1.000000e+00 1.896938e-15
    outer loop
      vertex   -1.567356e-02 4.000000e-02 7.181589e-02
      vertex   -1.495821e-02 4.000000e-02 5.361432e-02
      vertex   -1.567356e-02 4.000000e-02 5.718411e-02
    endloop
  endfacet
  facet normal -1.598515e-14 1.000000e+00 1.896938e-15
    outer loop
      vertex   -1.567356e-02 4.000000e-02 7.181589e-02
      vertex   -1.567356e-02 4.000000e-02 5.718411e-02
      vertex   -1.610554e-02 4.000000e-02 6.817564e-02
    endloop
  endfacet
  facet normal -1.621757e-14 1.000000e+00 1.887804e-15
    outer loop
      vertex   -1.610554e-02 4.000000e-02 6.817564e-02
      vertex   -1.567356e-02 4.000000e-02 5.718411e-02
      vertex   -1.610554e-02 4.000000e-02 6.082436e-02
    endloop
  endfacet
  facet normal -1.360180e-28 1.000000e+00 1.887804e-15
    outer loop
      vertex   -1.610554e-02 4.000000e-02 6.817564e-02
      vertex   -1.610554e-02 4.000000e-02 6.082436e-02
      vertex   -1.625000e-02 4.000000e-02 6.450000e-02
    endloop
  endfacet
  facet normal 1.479689e-12 1.000000e+00 -3.679716e-16
    outer loop
      vertex   -1.625000e-02 3.050000e-02 6.450000e-02
      vertex   -1.610554e-02 3.050000e-02 6.082436e-02
      vertex   -1.625000e-02 3.050000e-02 -1.500000e-03
    endloop
  endfacet
  facet normal 1.673534e-15 1.000000e+00 3.057839e-15
    outer loop
      vertex   -1.625000e-02 3.050000e-02 -1.500000e-03
      vertex   -1.610554e-02 3.050000e-02 6.082436e-02
      vertex   -1.567356e-02 3.050000e-02 5.718411e-02
    endloop
  endfacet
  facet normal 5.377868e-15 1.000000e+00 3.021452e-15
    outer loop
      vertex   -1.625000e-02 3.050000e-02 -1.500000e-03
      vertex   -1.567356e-02 3.050000e-02 5.718411e-02
      vertex   -1.495821e-02 3.050000e-02 5.361432e-02
    endloop
  endfacet
  facet normal 3.697028e-15 1.000000e+00 3.060848e-15
    outer loop
      vertex   -1.495821e-02 3.050000e-02 5.361432e-02
      vertex   -1.396639e-02 3.050000e-02 5.014937e-02
      vertex   -1.625000e-02 3.050000e-02 -1.500000e-03
    endloop
  endfacet
  facet normal 2.694174e-15 1.000000e+00 3.105188e-15
    outer loop
      vertex   -1.625000e-02 3.050000e-02 -1.500000e-03
      vertex   -1.396639e-02 3.050000e-02 5.014937e-02
      vertex   -1.270764e-02 3.050000e-02 4.682262e-02
    endloop
  endfacet
  facet normal 3.986098e-15 1.000000e+00 3.010481e-15
    outer loop
      vertex   -1.625000e-02 3.050000e-02 -1.500000e-03
      vertex   -1.270764e-02 3.050000e-02 4.682262e-02
      vertex   -1.119409e-02 3.050000e-02 4.366612e-02
    endloop
  endfacet
  facet normal 3.237010e-15 1.000000e+00 3.094335e-15
    outer loop
      vertex   -1.119409e-02 3.050000e-02 4.366612e-02
      vertex   -9.440314e-03 3.050000e-02 4.071025e-02
      vertex   -1.625000e-02 3.050000e-02 -1.500000e-03
    endloop
  endfacet
  facet normal -2.262626e-16 1.000000e+00 3.653057e-15
    outer loop
      vertex   -1.625000e-02 3.050000e-02 -1.500000e-03
      vertex   -9.440314e-03 3.050000e-02 4.071025e-02
      vertex   -7.463203e-03 3.050000e-02 3.798350e-02
    endloop
  endfacet
  facet normal 1.989543e-15 1.000000e+00 3.159944e-15
    outer loop
      vertex   -1.625000e-02 3.050000e-02 -1.500000e-03
      vertex   -7.463203e-03 3.050000e-02 3.798350e-02
      vertex   -5.281799e-03 3.050000e-02 3.551211e-02
    endloop
  endfacet
  facet normal 1.575914e-15 1.000000e+00 3.282519e-15
    outer loop
      vertex   -5.281799e-03 3.050000e-02 3.551211e-02
      vertex   -2.917107e-03 3.050000e-02 3.331989e-02
      vertex   -1.625000e-02 3.050000e-02 -1.500000e-03
    endloop
  endfacet
  facet normal -9.405219e-16 1.000000e+00 4.246088e-15
    outer loop
      vertex   -1.625000e-02 3.050000e-02 -1.500000e-03
      vertex   -2.917107e-03 3.050000e-02 3.331989e-02
      vertex   -3.919021e-04 3.050000e-02 3.142795e-02
    endloop
  endfacet
  facet normal 7.308219e-16 1.000000e+00 3.441169e-15
    outer loop
      vertex   -1.625000e-02 3.050000e-02 -1.500000e-03
      vertex   -3.919021e-04 3.050000e-02 3.142795e-02
      vertex   2.269497e-03 3.050000e-02 2.985452e-02
    endloop
  endfacet
  facet normal -5.337611e-16 1.000000e+00 4.188093e-15
    outer loop
      vertex   -1.625000e-02 3.050000e-02 -1.500000e-03
      vertex   2.269497e-03 3.050000e-02 2.985452e-02
      vertex   1.625000e-02 3.050000e-02 -1.500000e-03
    endloop
  endfacet
  facet normal 9.093201e-16 1.000000e+00 4.831541e-15
    outer loop
      vertex   1.625000e-02 3.050000e-02 -1.500000e-03
      vertex   2.269497e-03 3.050000e-02 2.985452e-02
      vertex   5.041460e-03 3.050000e-02 2.861474e-02
    endloop
  endfacet
  facet normal 1.592402e-15 1.000000e+00 5.085780e-15
    outer loop
      vertex   1.625000e-02 3.050000e-02 -1.500000e-03
      vertex   5.041460e-03 3.050000e-02 2.861474e-02
      vertex   7.897290e-03 3.050000e-02 2.772055e-02
    endloop
  endfacet
  facet normal -2.867429e-15 1.000000e+00 3.810935e-15
    outer loop
      vertex   7.897290e-03 3.050000e-02 2.772055e-02
      vertex   1.080949e-02 3.050000e-02 2.718057e-02
      vertex   1.625000e-02 3.050000e-02 -1.500000e-03
    endloop
  endfacet
  facet normal -1.524861e-14 1.000000e+00 1.462307e-15
    outer loop
      vertex   1.625000e-02 3.050000e-02 -1.500000e-03
      vertex   1.080949e-02 3.050000e-02 2.718057e-02
      vertex   1.375000e-02 3.050000e-02 2.700000e-02
    endloop
  endfacet
  facet normal -3.747003e-14 1.000000e+00 -4.869399e-16
    outer loop
      vertex   1.625000e-02 3.050000e-02 -1.500000e-03
      vertex   1.375000e-02 3.050000e-02 2.700000e-02
      vertex   1.625000e-02 3.050000e-02 2.700000e-02
    endloop
  endfacet
  facet normal 1.579933e-14 -1.561251e-15 1.000000e+00
    outer loop
      vertex   4.625000e-02 4.000000e-02 1.020000e-01
      vertex   1.375000e-02 4.000000e-02 1.020000e-01
      vertex   4.625000e-02 -4.000000e-02 1.020000e-01
    endloop
  endfacet
  facet normal 1.537232e-14 -1.734723e-15 1.000000e+00
    outer loop
      vertex   4.625000e-02 -4.000000e-02 1.020000e-01
      vertex   1.375000e-02 4.000000e-02 1.020000e-01
      vertex   1.375000e-02 -4.000000e-02 1.020000e-01
    endloop
  endfacet
  facet normal -9.992286e-01 -1.127712e-15 3.927116e-02
    outer loop
      vertex   -1.625000e-02 -3.050000e-02 6.450000e-02
      vertex   -1.610554e-02 4.000000e-02 6.817564e-02
      vertex   -1.625000e-02 3.050000e-02 6.450000e-02
    endloop
  endfacet
  facet normal -9.992286e-01 9.622977e-14 3.927116e-02
    outer loop
      vertex   -1.625000e-02 3.050000e-02 6.450000e-02
      vertex   -1.610554e-02 4.000000e-02 6.817564e-02
      vertex   -1.625000e-02 4.000000e-02 6.450000e-02
    endloop
  endfacet
  facet normal -9.992286e-01 9.863923e-14 -3.927116e-02
    outer loop
      vertex   -1.625000e-02 3.050000e-02 6.450000e-02
      vertex   -1.625000e-02 4.000000e-02 6.450000e-02
      vertex   -1.610554e-02 3.050000e-02 6.082436e-02
    endloop
  endfacet
  facet normal -9.992286e-01 -2.108263e-15 -3.927116e-02
    outer loop
      vertex   -1.610554e-02 3.050000e-02 6.082436e-02
      vertex   -1.625000e-02 4.000000e-02 6.450000e-02
      vertex   -1.610554e-02 4.000000e-02 6.082436e-02
    endloop
  endfacet
  facet normal -9.930324e-01 2.650470e-16 -1.178419e-01
    outer loop
      vertex   -1.610554e-02 3.050000e-02 6.082436e-02
      vertex   -1.610554e-02 4.000000e-02 6.082436e-02
      vertex   -1.567356e-02 4.000000e-02 5.718411e-02
    endloop
  endfacet
  facet normal -9.992286e-01 -6.023649e-16 -3.927116e-02
    outer loop
      vertex   -1.610554e-02 -3.050000e-02 6.082436e-02
      vertex   -1.610554e-02 -4.000000e-02 6.082436e-02
      vertex   -1.625000e-02 -3.050000e-02 6.450000e-02
    endloop
  endfacet
  facet normal -9.992286e-01 -9.879540e-14 -3.927116e-02
    outer loop
      vertex   -1.625000e-02 -3.050000e-02 6.450000e-02
      vertex   -1.610554e-02 -4.000000e-02 6.082436e-02
      vertex   -1.625000e-02 -4.000000e-02 6.450000e-02
    endloop
  endfacet
  facet normal -9.992286e-01 -9.753330e-14 3.927116e-02
    outer loop
      vertex   -1.625000e-02 -3.050000e-02 6.450000e-02
      vertex   -1.625000e-02 -4.000000e-02 6.450000e-02
      vertex   -1.610554e-02 -4.000000e-02 6.817564e-02
    endloop
  endfacet
  facet normal -9.930324e-01 -1.807531e-15 -1.178419e-01
    outer loop
      vertex   -1.610554e-02 -3.050000e-02 6.082436e-02
      vertex   -1.567356e-02 -3.050000e-02 5.718411e-02
      vertex   -1.610554e-02 -4.000000e-02 6.082436e-02
    endloop
  endfacet
  facet normal -9.930324e-01 -3.587580e-16 -1.178419e-01
    outer loop
      vertex   -1.610554e-02 -4.000000e-02 6.082436e-02
      vertex   -1.567356e-02 -3.050000e-02 5.718411e-02
      vertex   -1.567356e-02 -4.000000e-02 5.718411e-02
    endloop
  endfacet
  facet normal -9.805072e-01 -1.581438e-15 -1.964834e-01
    outer loop
      vertex   -1.567356e-02 -4.000000e-02 5.718411e-02
      vertex   -1.567356e-02 -3.050000e-02 5.718411e-02
      vertex   -1.495821e-02 -3.050000e-02 5.361432e-02
    endloop
  endfacet
  facet normal -9.805072e-01 2.816325e-16 -1.964834e-01
    outer loop
      vertex   -1.567356e-02 -4.000000e-02 5.718411e-02
      vertex   -1.495821e-02 -3.050000e-02 5.361432e-02
      vertex   -1.495821e-02 -4.000000e-02 5.361432e-02
    endloop
  endfacet
  facet normal -9.613892e-01 -8.092263e-16 -2.751924e-01
    outer loop
      vertex   -1.495821e-02 -4.000000e-02 5.361432e-02
      vertex   -1.495821e-02 -3.050000e-02 5.361432e-02
      vertex   -1.396639e-02 -3.050000e-02 5.014937e-02
    endloop
  endfacet
  facet normal -9.613892e-01 -7.421638e-17 -2.751924e-01
    outer loop
      vertex   -1.495821e-02 -4.000000e-02 5.361432e-02
      vertex   -1.396639e-02 -3.050000e-02 5.014937e-02
      vertex   -1.396639e-02 -4.000000e-02 5.014937e-02
    endloop
  endfacet
  facet normal -9.352883e-01 -1.149267e-15 -3.538867e-01
    outer loop
      vertex   -1.396639e-02 -4.000000e-02 5.014937e-02
      vertex   -1.396639e-02 -3.050000e-02 5.014937e-02
      vertex   -1.270764e-02 -3.050000e-02 4.682262e-02
    endloop
  endfacet
  facet normal -9.352883e-01 4.762728e-16 -3.538867e-01
    outer loop
      vertex   -1.396639e-02 -4.000000e-02 5.014937e-02
      vertex   -1.270764e-02 -3.050000e-02 4.682262e-02
      vertex   -1.270764e-02 -4.000000e-02 4.682262e-02
    endloop
  endfacet
  facet normal -9.016983e-01 -4.696027e-16 -4.323657e-01
    outer loop
      vertex   -1.270764e-02 -4.000000e-02 4.682262e-02
      vertex   -1.270764e-02 -3.050000e-02 4.682262e-02
      vertex   -1.119409e-02 -3.050000e-02 4.366612e-02
    endloop
  endfacet
  facet normal -9.016983e-01 2.037611e-16 -4.323657e-01
    outer loop
      vertex   -1.270764e-02 -4.000000e-02 4.682262e-02
      vertex   -1.119409e-02 -3.050000e-02 4.366612e-02
      vertex   -1.119409e-02 -4.000000e-02 4.366612e-02
    endloop
  endfacet
  facet normal -8.600169e-01 -8.793092e-16 -5.102656e-01
    outer loop
      vertex   -1.119409e-02 -4.000000e-02 4.366612e-02
      vertex   -1.119409e-02 -3.050000e-02 4.366612e-02
      vertex   -9.440314e-03 -3.050000e-02 4.071025e-02
    endloop
  endfacet
  facet normal -8.600169e-01 1.297087e-15 -5.102656e-01
    outer loop
      vertex   -1.119409e-02 -4.000000e-02 4.366612e-02
      vertex   -9.440314e-03 -3.050000e-02 4.071025e-02
      vertex   -9.440314e-03 -4.000000e-02 4.071025e-02
    endloop
  endfacet
  facet normal -8.095805e-01 4.430346e-16 -5.870088e-01
    outer loop
      vertex   -9.440314e-03 -4.000000e-02 4.071025e-02
      vertex   -9.440314e-03 -3.050000e-02 4.071025e-02
      vertex   -7.463203e-03 -3.050000e-02 3.798350e-02
    endloop
  endfacet
  facet normal -8.095805e-01 9.265279e-16 -5.870088e-01
    outer loop
      vertex   -9.440314e-03 -4.000000e-02 4.071025e-02
      vertex   -7.463203e-03 -3.050000e-02 3.798350e-02
      vertex   -7.463203e-03 -4.000000e-02 3.798350e-02
    endloop
  endfacet
  facet normal -7.497222e-01 1.717770e-16 -6.617527e-01
    outer loop
      vertex   -7.463203e-03 -4.000000e-02 3.798350e-02
      vertex   -7.463203e-03 -3.050000e-02 3.798350e-02
      vertex   -5.281799e-03 -3.050000e-02 3.551211e-02
    endloop
  endfacet
  facet normal -7.497222e-01 6.491535e-16 -6.617527e-01
    outer loop
      vertex   -7.463203e-03 -4.000000e-02 3.798350e-02
      vertex   -5.281799e-03 -3.050000e-02 3.551211e-02
      vertex   -5.281799e-03 -4.000000e-02 3.551211e-02
    endloop
  endfacet
  facet normal -6.798569e-01 1.387886e-17 -7.333448e-01
    outer loop
      vertex   -5.281799e-03 -4.000000e-02 3.551211e-02
      vertex   -5.281799e-03 -3.050000e-02 3.551211e-02
      vertex   -2.917107e-03 -3.050000e-02 3.331989e-02
    endloop
  endfacet
  facet normal -6.798569e-01 1.244294e-15 -7.333448e-01
    outer loop
      vertex   -5.281799e-03 -4.000000e-02 3.551211e-02
      vertex   -2.917107e-03 -3.050000e-02 3.331989e-02
      vertex   -2.917107e-03 -4.000000e-02 3.331989e-02
    endloop
  endfacet
  facet normal -5.996010e-01 7.645993e-16 -8.002991e-01
    outer loop
      vertex   -2.917107e-03 -4.000000e-02 3.331989e-02
      vertex   -2.917107e-03 -3.050000e-02 3.331989e-02
      vertex   -3.919021e-04 -3.050000e-02 3.142795e-02
    endloop
  endfacet
  facet normal -5.996010e-01 1.808474e-15 -8.002991e-01
    outer loop
      vertex   -2.917107e-03 -4.000000e-02 3.331989e-02
      vertex   -3.919021e-04 -3.050000e-02 3.142795e-02
      vertex   -3.919021e-04 -4.000000e-02 3.142795e-02
    endloop
  endfacet
  facet normal -5.089187e-01 1.395380e-15 -8.608146e-01
    outer loop
      vertex   -3.919021e-04 -4.000000e-02 3.142795e-02
      vertex   -3.919021e-04 -3.050000e-02 3.142795e-02
      vertex   2.269497e-03 -3.050000e-02 2.985452e-02
    endloop
  endfacet
  facet normal -5.089187e-01 1.816841e-15 -8.608146e-01
    outer loop
      vertex   -3.919021e-04 -4.000000e-02 3.142795e-02
      vertex   2.269497e-03 -3.050000e-02 2.985452e-02
      vertex   2.269497e-03 -4.000000e-02 2.985452e-02
    endloop
  endfacet
  facet normal -4.082814e-01 1.435149e-15 -9.128561e-01
    outer loop
      vertex   2.269497e-03 -4.000000e-02 2.985452e-02
      vertex   2.269497e-03 -3.050000e-02 2.985452e-02
      vertex   5.041460e-03 -3.050000e-02 2.861474e-02
    endloop
  endfacet
  facet normal -4.082814e-01 1.526845e-15 -9.128561e-01
    outer loop
      vertex   2.269497e-03 -4.000000e-02 2.985452e-02
      vertex   5.041460e-03 -3.050000e-02 2.861474e-02
      vertex   5.041460e-03 -4.000000e-02 2.861474e-02
    endloop
  endfacet
  facet normal -2.988042e-01 1.324508e-15 -9.543145e-01
    outer loop
      vertex   5.041460e-03 -4.000000e-02 2.861474e-02
      vertex   5.041460e-03 -3.050000e-02 2.861474e-02
      vertex   7.897290e-03 -3.050000e-02 2.772055e-02
    endloop
  endfacet
  facet normal -2.988042e-01 2.055819e-15 -9.543145e-01
    outer loop
      vertex   5.041460e-03 -4.000000e-02 2.861474e-02
      vertex   7.897290e-03 -3.050000e-02 2.772055e-02
      vertex   7.897290e-03 -4.000000e-02 2.772055e-02
    endloop
  endfacet
  facet normal -1.823125e-01 1.835826e-15 -9.832406e-01
    outer loop
      vertex   7.897290e-03 -4.000000e-02 2.772055e-02
      vertex   7.897290e-03 -3.050000e-02 2.772055e-02
      vertex   1.080949e-02 -3.050000e-02 2.718057e-02
    endloop
  endfacet
  facet normal -1.823125e-01 1.143930e-15 -9.832406e-01
    outer loop
      vertex   7.897290e-03 -4.000000e-02 2.772055e-02
      vertex   1.080949e-02 -3.050000e-02 2.718057e-02
      vertex   1.080949e-02 -4.000000e-02 2.718057e-02
    endloop
  endfacet
  facet normal -6.129310e-02 1.115939e-15 -9.981198e-01
    outer loop
      vertex   1.080949e-02 -4.000000e-02 2.718057e-02
      vertex   1.080949e-02 -3.050000e-02 2.718057e-02
      vertex   1.375000e-02 -4.000000e-02 2.700000e-02
    endloop
  endfacet
  facet normal -6.129310e-02 1.777822e-15 -9.981198e-01
    outer loop
      vertex   1.375000e-02 -4.000000e-02 2.700000e-02
      vertex   1.080949e-02 -3.050000e-02 2.718057e-02
      vertex   1.375000e-02 -3.050000e-02 2.700000e-02
    endloop
  endfacet
  facet normal -9.992286e-01 -1.014614e-15 3.927116e-02
    outer loop
      vertex   -1.625000e-02 -3.050000e-02 6.450000e-02
      vertex   -1.610554e-02 -4.000000e-02 6.817564e-02
      vertex   -1.610554e-02 4.000000e-02 6.817564e-02
    endloop
  endfacet
  facet normal -9.930324e-01 -1.131431e-15 1.178419e-01
    outer loop
      vertex   -1.610554e-02 4.000000e-02 6.817564e-02
      vertex   -1.610554e-02 -4.000000e-02 6.817564e-02
      vertex   -1.567356e-02 -4.000000e-02 7.181589e-02
    endloop
  endfacet
  facet normal -9.930324e-01 -1.110554e-15 1.178419e-01
    outer loop
      vertex   -1.610554e-02 4.000000e-02 6.817564e-02
      vertex   -1.567356e-02 -4.000000e-02 7.181589e-02
      vertex   -1.567356e-02 4.000000e-02 7.181589e-02
    endloop
  endfacet
  facet normal -9.805072e-01 -1.208175e-15 1.964834e-01
    outer loop
      vertex   -1.567356e-02 4.000000e-02 7.181589e-02
      vertex   -1.567356e-02 -4.000000e-02 7.181589e-02
      vertex   -1.495821e-02 -4.000000e-02 7.538568e-02
    endloop
  endfacet
  facet normal -9.805072e-01 -1.276683e-15 1.964834e-01
    outer loop
      vertex   -1.567356e-02 4.000000e-02 7.181589e-02
      vertex   -1.495821e-02 -4.000000e-02 7.538568e-02
      vertex   -1.495821e-02 4.000000e-02 7.538568e-02
    endloop
  endfacet
  facet normal -9.613892e-01 -1.394642e-15 2.751924e-01
    outer loop
      vertex   -1.495821e-02 4.000000e-02 7.538568e-02
      vertex   -1.495821e-02 -4.000000e-02 7.538568e-02
      vertex   -1.396639e-02 -4.000000e-02 7.885063e-02
    endloop
  endfacet
  facet normal -9.613892e-01 -1.388078e-15 2.751924e-01
    outer loop
      vertex   -1.495821e-02 4.000000e-02 7.538568e-02
      vertex   -1.396639e-02 -4.000000e-02 7.885063e-02
      vertex   -1.396639e-02 4.000000e-02 7.885063e-02
    endloop
  endfacet
  facet normal -9.352883e-01 -1.485424e-15 3.538867e-01
    outer loop
      vertex   -1.396639e-02 4.000000e-02 7.885063e-02
      vertex   -1.396639e-02 -4.000000e-02 7.885063e-02
      vertex   -1.270764e-02 -4.000000e-02 8.217738e-02
    endloop
  endfacet
  facet normal -9.352883e-01 -1.544910e-15 3.538867e-01
    outer loop
      vertex   -1.396639e-02 4.000000e-02 7.885063e-02
      vertex   -1.270764e-02 -4.000000e-02 8.217738e-02
      vertex   -1.270764e-02 4.000000e-02 8.217738e-02
    endloop
  endfacet
  facet normal -9.016983e-01 -1.649448e-15 4.323657e-01
    outer loop
      vertex   -1.270764e-02 4.000000e-02 8.217738e-02
      vertex   -1.270764e-02 -4.000000e-02 8.217738e-02
      vertex   -1.119409e-02 -4.000000e-02 8.533388e-02
    endloop
  endfacet
  facet normal -9.016983e-01 -1.572781e-15 4.323657e-01
    outer loop
      vertex   -1.270764e-02 4.000000e-02 8.217738e-02
      vertex   -1.119409e-02 -4.000000e-02 8.533388e-02
      vertex   -1.119409e-02 4.000000e-02 8.533388e-02
    endloop
  endfacet
  facet normal -8.600169e-01 -1.654490e-15 5.102656e-01
    outer loop
      vertex   -1.119409e-02 4.000000e-02 8.533388e-02
      vertex   -1.119409e-02 -4.000000e-02 8.533388e-02
      vertex   -9.440314e-03 -4.000000e-02 8.828975e-02
    endloop
  endfacet
  facet normal -8.600169e-01 -1.654273e-15 5.102656e-01
    outer loop
      vertex   -1.119409e-02 4.000000e-02 8.533388e-02
      vertex   -9.440314e-03 -4.000000e-02 8.828975e-02
      vertex   -9.440314e-03 4.000000e-02 8.828975e-02
    endloop
  endfacet
  facet normal -8.095805e-01 -1.723997e-15 5.870088e-01
    outer loop
      vertex   -9.440314e-03 4.000000e-02 8.828975e-02
      vertex   -9.440314e-03 -4.000000e-02 8.828975e-02
      vertex   -7.463203e-03 -4.000000e-02 9.101650e-02
    endloop
  endfacet
  facet normal -8.095805e-01 -1.678670e-15 5.870088e-01
    outer loop
      vertex   -9.440314e-03 4.000000e-02 8.828975e-02
      vertex   -7.463203e-03 -4.000000e-02 9.101650e-02
      vertex   -7.463203e-03 4.000000e-02 9.101650e-02
    endloop
  endfacet
  facet normal -7.497222e-01 -1.740342e-15 6.617527e-01
    outer loop
      vertex   -7.463203e-03 4.000000e-02 9.101650e-02
      vertex   -7.463203e-03 -4.000000e-02 9.101650e-02
      vertex   -5.281799e-03 -4.000000e-02 9.348789e-02
    endloop
  endfacet
  facet normal -7.497222e-01 -1.740881e-15 6.617527e-01
    outer loop
      vertex   -7.463203e-03 4.000000e-02 9.101650e-02
      vertex   -5.281799e-03 -4.000000e-02 9.348789e-02
      vertex   -5.281799e-03 4.000000e-02 9.348789e-02
    endloop
  endfacet
  facet normal -6.798569e-01 -1.786214e-15 7.333448e-01
    outer loop
      vertex   -5.281799e-03 4.000000e-02 9.348789e-02
      vertex   -5.281799e-03 -4.000000e-02 9.348789e-02
      vertex   -2.917107e-03 -4.000000e-02 9.568011e-02
    endloop
  endfacet
  facet normal -6.798569e-01 -1.914311e-15 7.333448e-01
    outer loop
      vertex   -5.281799e-03 4.000000e-02 9.348789e-02
      vertex   -2.917107e-03 -4.000000e-02 9.568011e-02
      vertex   -2.917107e-03 4.000000e-02 9.568011e-02
    endloop
  endfacet
  facet normal -5.996010e-01 -1.953875e-15 8.002991e-01
    outer loop
      vertex   -2.917107e-03 4.000000e-02 9.568011e-02
      vertex   -2.917107e-03 -4.000000e-02 9.568011e-02
      vertex   -3.919021e-04 -4.000000e-02 9.757205e-02
    endloop
  endfacet
  facet normal -5.996010e-01 -1.956296e-15 8.002991e-01
    outer loop
      vertex   -2.917107e-03 4.000000e-02 9.568011e-02
      vertex   -3.919021e-04 -4.000000e-02 9.757205e-02
      vertex   -3.919021e-04 4.000000e-02 9.757205e-02
    endloop
  endfacet
  facet normal -5.089187e-01 -1.973661e-15 8.608146e-01
    outer loop
      vertex   -3.919021e-04 4.000000e-02 9.757205e-02
      vertex   -3.919021e-04 -4.000000e-02 9.757205e-02
      vertex   2.269497e-03 -4.000000e-02 9.914548e-02
    endloop
  endfacet
  facet normal -5.089187e-01 -1.989693e-15 8.608146e-01
    outer loop
      vertex   -3.919021e-04 4.000000e-02 9.757205e-02
      vertex   2.269497e-03 -4.000000e-02 9.914548e-02
      vertex   2.269497e-03 4.000000e-02 9.914548e-02
    endloop
  endfacet
  facet normal -4.082814e-01 -1.979733e-15 9.128561e-01
    outer loop
      vertex   2.269497e-03 4.000000e-02 9.914548e-02
      vertex   2.269497e-03 -4.000000e-02 9.914548e-02
      vertex   5.041460e-03 -4.000000e-02 1.003853e-01
    endloop
  endfacet
  facet normal -4.082814e-01 -1.814872e-15 9.128561e-01
    outer loop
      vertex   2.269497e-03 4.000000e-02 9.914548e-02
      vertex   5.041460e-03 -4.000000e-02 1.003853e-01
      vertex   5.041460e-03 4.000000e-02 1.003853e-01
    endloop
  endfacet
  facet normal -2.988042e-01 -1.775013e-15 9.543145e-01
    outer loop
      vertex   5.041460e-03 4.000000e-02 1.003853e-01
      vertex   5.041460e-03 -4.000000e-02 1.003853e-01
      vertex   7.897290e-03 -4.000000e-02 1.012794e-01
    endloop
  endfacet
  facet normal -2.988042e-01 -1.935337e-15 9.543145e-01
    outer loop
      vertex   5.041460e-03 4.000000e-02 1.003853e-01
      vertex   7.897290e-03 -4.000000e-02 1.012794e-01
      vertex   7.897290e-03 4.000000e-02 1.012794e-01
    endloop
  endfacet
  facet normal -1.823125e-01 -1.875641e-15 9.832406e-01
    outer loop
      vertex   7.897290e-03 4.000000e-02 1.012794e-01
      vertex   7.897290e-03 -4.000000e-02 1.012794e-01
      vertex   1.080949e-02 -4.000000e-02 1.018194e-01
    endloop
  endfacet
  facet normal -1.823125e-01 -1.709640e-15 9.832406e-01
    outer loop
      vertex   7.897290e-03 4.000000e-02 1.012794e-01
      vertex   1.080949e-02 -4.000000e-02 1.018194e-01
      vertex   1.080949e-02 4.000000e-02 1.018194e-01
    endloop
  endfacet
  facet normal -6.129310e-02 -1.616795e-15 9.981198e-01
    outer loop
      vertex   1.080949e-02 4.000000e-02 1.018194e-01
      vertex   1.080949e-02 -4.000000e-02 1.018194e-01
      vertex   1.375000e-02 4.000000e-02 1.020000e-01
    endloop
  endfacet
  facet normal -6.129310e-02 -1.789941e-15 9.981198e-01
    outer loop
      vertex   1.375000e-02 4.000000e-02 1.020000e-01
      vertex   1.080949e-02 -4.000000e-02 1.018194e-01
      vertex   1.375000e-02 -4.000000e-02 1.020000e-01
    endloop
  endfacet
  facet normal -9.930324e-01 -1.891080e-15 -1.178419e-01
    outer loop
      vertex   -1.610554e-02 3.050000e-02 6.082436e-02
      vertex   -1.567356e-02 4.000000e-02 5.718411e-02
      vertex   -1.567356e-02 3.050000e-02 5.718411e-02
    endloop
  endfacet
  facet normal -9.805072e-01 2.967918e-16 -1.964834e-01
    outer loop
      vertex   -1.567356e-02 3.050000e-02 5.718411e-02
      vertex   -1.567356e-02 4.000000e-02 5.718411e-02
      vertex   -1.495821e-02 4.000000e-02 5.361432e-02
    endloop
  endfacet
  facet normal -9.805072e-01 -1.959183e-15 -1.964834e-01
    outer loop
      vertex   -1.567356e-02 3.050000e-02 5.718411e-02
      vertex   -1.495821e-02 4.000000e-02 5.361432e-02
      vertex   -1.495821e-02 3.050000e-02 5.361432e-02
    endloop
  endfacet
  facet normal -9.613892e-01 1.885852e-16 -2.751924e-01
    outer loop
      vertex   -1.495821e-02 3.050000e-02 5.361432e-02
      vertex   -1.495821e-02 4.000000e-02 5.361432e-02
      vertex   -1.396639e-02 4.000000e-02 5.014937e-02
    endloop
  endfacet
  facet normal -9.613892e-01 -7.545332e-16 -2.751924e-01
    outer loop
      vertex   -1.495821e-02 3.050000e-02 5.361432e-02
      vertex   -1.396639e-02 4.000000e-02 5.014937e-02
      vertex   -1.396639e-02 3.050000e-02 5.014937e-02
    endloop
  endfacet
  facet normal -9.352883e-01 1.269212e-15 -3.538867e-01
    outer loop
      vertex   -1.396639e-02 3.050000e-02 5.014937e-02
      vertex   -1.396639e-02 4.000000e-02 5.014937e-02
      vertex   -1.270764e-02 4.000000e-02 4.682262e-02
    endloop
  endfacet
  facet normal -9.352883e-01 -1.378684e-15 -3.538867e-01
    outer loop
      vertex   -1.396639e-02 3.050000e-02 5.014937e-02
      vertex   -1.270764e-02 4.000000e-02 4.682262e-02
      vertex   -1.270764e-02 3.050000e-02 4.682262e-02
    endloop
  endfacet
  facet normal -9.016983e-01 4.587489e-16 -4.323657e-01
    outer loop
      vertex   -1.270764e-02 3.050000e-02 4.682262e-02
      vertex   -1.270764e-02 4.000000e-02 4.682262e-02
      vertex   -1.119409e-02 4.000000e-02 4.366612e-02
    endloop
  endfacet
  facet normal -9.016983e-01 -1.146156e-15 -4.323657e-01
    outer loop
      vertex   -1.270764e-02 3.050000e-02 4.682262e-02
      vertex   -1.119409e-02 4.000000e-02 4.366612e-02
      vertex   -1.119409e-02 3.050000e-02 4.366612e-02
    endloop
  endfacet
  facet normal -8.600169e-01 6.216888e-16 -5.102656e-01
    outer loop
      vertex   -1.119409e-02 3.050000e-02 4.366612e-02
      vertex   -1.119409e-02 4.000000e-02 4.366612e-02
      vertex   -9.440314e-03 4.000000e-02 4.071025e-02
    endloop
  endfacet
  facet normal -8.600169e-01 -1.011728e-15 -5.102656e-01
    outer loop
      vertex   -1.119409e-02 3.050000e-02 4.366612e-02
      vertex   -9.440314e-03 4.000000e-02 4.071025e-02
      vertex   -9.440314e-03 3.050000e-02 4.071025e-02
    endloop
  endfacet
  facet normal -8.095805e-01 8.436963e-16 -5.870088e-01
    outer loop
      vertex   -9.440314e-03 3.050000e-02 4.071025e-02
      vertex   -9.440314e-03 4.000000e-02 4.071025e-02
      vertex   -7.463203e-03 4.000000e-02 3.798350e-02
    endloop
  endfacet
  facet normal -8.095805e-01 -1.058889e-15 -5.870088e-01
    outer loop
      vertex   -9.440314e-03 3.050000e-02 4.071025e-02
      vertex   -7.463203e-03 4.000000e-02 3.798350e-02
      vertex   -7.463203e-03 3.050000e-02 3.798350e-02
    endloop
  endfacet
  facet normal -7.497222e-01 4.094021e-16 -6.617527e-01
    outer loop
      vertex   -7.463203e-03 3.050000e-02 3.798350e-02
      vertex   -7.463203e-03 4.000000e-02 3.798350e-02
      vertex   -5.281799e-03 4.000000e-02 3.551211e-02
    endloop
  endfacet
  facet normal -7.497222e-01 -7.032496e-16 -6.617527e-01
    outer loop
      vertex   -7.463203e-03 3.050000e-02 3.798350e-02
      vertex   -5.281799e-03 4.000000e-02 3.551211e-02
      vertex   -5.281799e-03 3.050000e-02 3.551211e-02
    endloop
  endfacet
  facet normal -6.798569e-01 5.308883e-16 -7.333448e-01
    outer loop
      vertex   -5.281799e-03 3.050000e-02 3.551211e-02
      vertex   -5.281799e-03 4.000000e-02 3.551211e-02
      vertex   -2.917107e-03 4.000000e-02 3.331989e-02
    endloop
  endfacet
  facet normal -6.798569e-01 -5.806704e-16 -7.333448e-01
    outer loop
      vertex   -5.281799e-03 3.050000e-02 3.551211e-02
      vertex   -2.917107e-03 4.000000e-02 3.331989e-02
      vertex   -2.917107e-03 3.050000e-02 3.331989e-02
    endloop
  endfacet
  facet normal -5.996010e-01 4.981620e-16 -8.002991e-01
    outer loop
      vertex   -2.917107e-03 3.050000e-02 3.331989e-02
      vertex   -2.917107e-03 4.000000e-02 3.331989e-02
      vertex   -3.919021e-04 4.000000e-02 3.142795e-02
    endloop
  endfacet
  facet normal -5.996010e-01 -8.194650e-16 -8.002991e-01
    outer loop
      vertex   -2.917107e-03 3.050000e-02 3.331989e-02
      vertex   -3.919021e-04 4.000000e-02 3.142795e-02
      vertex   -3.919021e-04 3.050000e-02 3.142795e-02
    endloop
  endfacet
  facet normal -5.089187e-01 2.397190e-16 -8.608146e-01
    outer loop
      vertex   -3.919021e-04 3.050000e-02 3.142795e-02
      vertex   -3.919021e-04 4.000000e-02 3.142795e-02
      vertex   2.269497e-03 4.000000e-02 2.985452e-02
    endloop
  endfacet
  facet normal -5.089187e-01 -3.460649e-16 -8.608146e-01
    outer loop
      vertex   -3.919021e-04 3.050000e-02 3.142795e-02
      vertex   2.269497e-03 4.000000e-02 2.985452e-02
      vertex   2.269497e-03 3.050000e-02 2.985452e-02
    endloop
  endfacet
  facet normal -4.082814e-01 6.104941e-16 -9.128561e-01
    outer loop
      vertex   2.269497e-03 3.050000e-02 2.985452e-02
      vertex   2.269497e-03 4.000000e-02 2.985452e-02
      vertex   5.041460e-03 4.000000e-02 2.861474e-02
    endloop
  endfacet
  facet normal -4.082814e-01 3.817113e-16 -9.128561e-01
    outer loop
      vertex   2.269497e-03 3.050000e-02 2.985452e-02
      vertex   5.041460e-03 4.000000e-02 2.861474e-02
      vertex   5.041460e-03 3.050000e-02 2.861474e-02
    endloop
  endfacet
  facet normal -2.988042e-01 1.227000e-15 -9.543145e-01
    outer loop
      vertex   5.041460e-03 3.050000e-02 2.861474e-02
      vertex   5.041460e-03 4.000000e-02 2.861474e-02
      vertex   7.897290e-03 4.000000e-02 2.772055e-02
    endloop
  endfacet
  facet normal -2.988042e-01 2.085613e-16 -9.543145e-01
    outer loop
      vertex   5.041460e-03 3.050000e-02 2.861474e-02
      vertex   7.897290e-03 4.000000e-02 2.772055e-02
      vertex   7.897290e-03 3.050000e-02 2.772055e-02
    endloop
  endfacet
  facet normal -1.823125e-01 8.632819e-16 -9.832406e-01
    outer loop
      vertex   7.897290e-03 3.050000e-02 2.772055e-02
      vertex   7.897290e-03 4.000000e-02 2.772055e-02
      vertex   1.080949e-02 4.000000e-02 2.718057e-02
    endloop
  endfacet
  facet normal -1.823125e-01 1.000939e-15 -9.832406e-01
    outer loop
      vertex   7.897290e-03 3.050000e-02 2.772055e-02
      vertex   1.080949e-02 4.000000e-02 2.718057e-02
      vertex   1.080949e-02 3.050000e-02 2.718057e-02
    endloop
  endfacet
  facet normal -6.129310e-02 1.312574e-15 -9.981198e-01
    outer loop
      vertex   1.080949e-02 3.050000e-02 2.718057e-02
      vertex   1.080949e-02 4.000000e-02 2.718057e-02
      vertex   1.375000e-02 3.050000e-02 2.700000e-02
    endloop
  endfacet
  facet normal -6.129310e-02 2.131148e-15 -9.981198e-01
    outer loop
      vertex   1.375000e-02 3.050000e-02 2.700000e-02
      vertex   1.080949e-02 4.000000e-02 2.718057e-02
      vertex   1.375000e-02 4.000000e-02 2.700000e-02
    endloop
  endfacet
  facet normal -4.708148e-15 -1.000000e+00 3.824210e-14
    outer loop
      vertex   4.919051e-02 -4.000000e-02 2.718057e-02
      vertex   5.210271e-02 -4.000000e-02 2.772055e-02
      vertex   4.625000e-02 -4.000000e-02 2.700000e-02
    endloop
  endfacet
  facet normal 0.000000e+00 -1.000000e+00 0.000000e+00
    outer loop
      vertex   4.625000e-02 -4.000000e-02 2.700000e-02
      vertex   5.210271e-02 -4.000000e-02 2.772055e-02
      vertex   5.495854e-02 -4.000000e-02 2.861474e-02
    endloop
  endfacet
  facet normal -1.772671e-15 -1.000000e+00 9.560301e-15
    outer loop
      vertex   4.625000e-02 -4.000000e-02 2.700000e-02
      vertex   5.495854e-02 -4.000000e-02 2.861474e-02
      vertex   5.773050e-02 -4.000000e-02 2.985452e-02
    endloop
  endfacet
  facet normal 2.935477e-15 -1.000000e+00 -9.375264e-15
    outer loop
      vertex   5.773050e-02 -4.000000e-02 2.985452e-02
      vertex   6.039190e-02 -4.000000e-02 3.142795e-02
      vertex   4.625000e-02 -4.000000e-02 2.700000e-02
    endloop
  endfacet
  facet normal 0.000000e+00 -1.000000e+00 0.000000e+00
    outer loop
      vertex   4.625000e-02 -4.000000e-02 2.700000e-02
      vertex   6.039190e-02 -4.000000e-02 3.142795e-02
      vertex   6.291711e-02 -4.000000e-02 3.331989e-02
    endloop
  endfacet
  facet normal 0.000000e+00 -1.000000e+00 0.000000e+00
    outer loop
      vertex   4.625000e-02 -4.000000e-02 2.700000e-02
      vertex   6.291711e-02 -4.000000e-02 3.331989e-02
      vertex   6.528180e-02 -4.000000e-02 3.551211e-02
    endloop
  endfacet
  facet normal 2.074874e-15 -1.000000e+00 -4.639108e-15
    outer loop
      vertex   6.528180e-02 -4.000000e-02 3.551211e-02
      vertex   6.746320e-02 -4.000000e-02 3.798350e-02
      vertex   4.625000e-02 -4.000000e-02 2.700000e-02
    endloop
  endfacet
  facet normal -2.633273e-15 -1.000000e+00 4.454071e-15
    outer loop
      vertex   4.625000e-02 -4.000000e-02 2.700000e-02
      vertex   6.746320e-02 -4.000000e-02 3.798350e-02
      vertex   6.944031e-02 -4.000000e-02 4.071025e-02
    endloop
  endfacet
  facet normal 2.137711e-15 -1.000000e+00 -3.615848e-15
    outer loop
      vertex   4.625000e-02 -4.000000e-02 2.700000e-02
      vertex   6.944031e-02 -4.000000e-02 4.071025e-02
      vertex   7.119409e-02 -4.000000e-02 4.366612e-02
    endloop
  endfacet
  facet normal 3.912943e-15 -1.000000e+00 -6.272828e-15
    outer loop
      vertex   7.119409e-02 -4.000000e-02 4.366612e-02
      vertex   7.270764e-02 -4.000000e-02 4.682262e-02
      vertex   4.625000e-02 -4.000000e-02 2.700000e-02
    endloop
  endfacet
  facet normal -1.098082e-15 -1.000000e+00 4.154832e-16
    outer loop
      vertex   4.625000e-02 -4.000000e-02 2.700000e-02
      vertex   7.270764e-02 -4.000000e-02 4.682262e-02
      vertex   7.396639e-02 -4.000000e-02 5.014937e-02
    endloop
  endfacet
  facet normal 1.211100e-15 -1.000000e+00 -2.349265e-15
    outer loop
      vertex   4.625000e-02 -4.000000e-02 2.700000e-02
      vertex   7.396639e-02 -4.000000e-02 5.014937e-02
      vertex   7.495821e-02 -4.000000e-02 5.361432e-02
    endloop
  endfacet
  facet normal 1.025751e-15 -1.000000e+00 -2.149333e-15
    outer loop
      vertex   7.495821e-02 -4.000000e-02 5.361432e-02
      vertex   7.567356e-02 -4.000000e-02 5.718411e-02
      vertex   4.625000e-02 -4.000000e-02 2.700000e-02
    endloop
  endfacet
  facet normal -1.342580e-15 -1.000000e+00 1.593223e-16
    outer loop
      vertex   4.625000e-02 -4.000000e-02 2.700000e-02
      vertex   7.567356e-02 -4.000000e-02 5.718411e-02
      vertex   7.610554e-02 -4.000000e-02 6.082436e-02
    endloop
  endfacet
  facet normal 1.022194e-15 -1.000000e+00 -1.927978e-15
    outer loop
      vertex   4.625000e-02 -4.000000e-02 2.700000e-02
      vertex   7.610554e-02 -4.000000e-02 6.082436e-02
      vertex   7.625000e-02 -4.000000e-02 6.450000e-02
    endloop
  endfacet
  facet normal 8.095376e-16 -1.000000e+00 -1.757853e-15
    outer loop
      vertex   4.625000e-02 -4.000000e-02 2.700000e-02
      vertex   7.625000e-02 -4.000000e-02 6.450000e-02
      vertex   4.625000e-02 -4.000000e-02 1.020000e-01
    endloop
  endfacet
  facet normal -1.801141e-15 -1.000000e+00 -3.846396e-15
    outer loop
      vertex   4.625000e-02 -4.000000e-02 1.020000e-01
      vertex   7.625000e-02 -4.000000e-02 6.450000e-02
      vertex   7.610554e-02 -4.000000e-02 6.817564e-02
    endloop
  endfacet
  facet normal 2.953675e-15 -1.000000e+00 3.505091e-16
    outer loop
      vertex   4.625000e-02 -4.000000e-02 1.020000e-01
      vertex   7.610554e-02 -4.000000e-02 6.817564e-02
      vertex   7.567356e-02 -4.000000e-02 7.181589e-02
    endloop
  endfacet
  facet normal 7.553576e-16 -1.000000e+00 -1.792417e-15
    outer loop
      vertex   7.567356e-02 -4.000000e-02 7.181589e-02
      vertex   7.495821e-02 -4.000000e-02 7.538568e-02
      vertex   4.625000e-02 -4.000000e-02 1.020000e-01
    endloop
  endfacet
  facet normal 7.629803e-16 -1.000000e+00 -1.784195e-15
    outer loop
      vertex   4.625000e-02 -4.000000e-02 1.020000e-01
      vertex   7.495821e-02 -4.000000e-02 7.538568e-02
      vertex   7.396639e-02 -4.000000e-02 7.885063e-02
    endloop
  endfacet
  facet normal 3.294245e-15 -1.000000e+00 1.246449e-15
    outer loop
      vertex   4.625000e-02 -4.000000e-02 1.020000e-01
      vertex   7.396639e-02 -4.000000e-02 7.885063e-02
      vertex   7.270764e-02 -4.000000e-02 8.217738e-02
    endloop
  endfacet
  facet normal -1.457083e-15 -1.000000e+00 -5.095239e-15
    outer loop
      vertex   7.270764e-02 -4.000000e-02 8.217738e-02
      vertex   7.119409e-02 -4.000000e-02 8.533388e-02
      vertex   4.625000e-02 -4.000000e-02 1.020000e-01
    endloop
  endfacet
  facet normal 6.275704e-16 -1.000000e+00 -1.975150e-15
    outer loop
      vertex   4.625000e-02 -4.000000e-02 1.020000e-01
      vertex   7.119409e-02 -4.000000e-02 8.533388e-02
      vertex   6.944031e-02 -4.000000e-02 8.828975e-02
    endloop
  endfacet
  facet normal 5.090297e-16 -1.000000e+00 -2.175657e-15
    outer loop
      vertex   4.625000e-02 -4.000000e-02 1.020000e-01
      vertex   6.944031e-02 -4.000000e-02 8.828975e-02
      vertex   6.746320e-02 -4.000000e-02 9.101650e-02
    endloop
  endfacet
  facet normal 3.347844e-16 -1.000000e+00 -2.512189e-15
    outer loop
      vertex   6.746320e-02 -4.000000e-02 9.101650e-02
      vertex   6.528180e-02 -4.000000e-02 9.348789e-02
      vertex   4.625000e-02 -4.000000e-02 1.020000e-01
    endloop
  endfacet
  facet normal 2.817825e-15 -1.000000e+00 3.039518e-15
    outer loop
      vertex   4.625000e-02 -4.000000e-02 1.020000e-01
      vertex   6.528180e-02 -4.000000e-02 9.348789e-02
      vertex   6.291711e-02 -4.000000e-02 9.568011e-02
    endloop
  endfacet
  facet normal 3.371739e-15 -1.000000e+00 4.500325e-15
    outer loop
      vertex   4.625000e-02 -4.000000e-02 1.020000e-01
      vertex   6.291711e-02 -4.000000e-02 9.568011e-02
      vertex   6.039190e-02 -4.000000e-02 9.757205e-02
    endloop
  endfacet
  facet normal -4.634044e-15 -1.000000e+00 -2.106838e-14
    outer loop
      vertex   6.039190e-02 -4.000000e-02 9.757205e-02
      vertex   5.773050e-02 -4.000000e-02 9.914548e-02
      vertex   4.625000e-02 -4.000000e-02 1.020000e-01
    endloop
  endfacet
  facet normal 1.361040e-15 -1.000000e+00 3.043082e-15
    outer loop
      vertex   4.625000e-02 -4.000000e-02 1.020000e-01
      vertex   5.773050e-02 -4.000000e-02 9.914548e-02
      vertex   5.495854e-02 -4.000000e-02 1.003853e-01
    endloop
  endfacet
  facet normal 1.953833e-15 -1.000000e+00 6.240112e-15
    outer loop
      vertex   4.625000e-02 -4.000000e-02 1.020000e-01
      vertex   5.495854e-02 -4.000000e-02 1.003853e-01
      vertex   5.210271e-02 -4.000000e-02 1.012794e-01
    endloop
  endfacet
  facet normal -1.179878e-15 -1.000000e+00 -1.921357e-14
    outer loop
      vertex   5.210271e-02 -4.000000e-02 1.012794e-01
      vertex   4.919051e-02 -4.000000e-02 1.018194e-01
      vertex   4.625000e-02 -4.000000e-02 1.020000e-01
    endloop
  endfacet
  facet normal 1.067522e-15 -1.000000e+00 -1.757853e-15
    outer loop
      vertex   4.625000e-02 -4.000000e-02 2.700000e-02
      vertex   4.625000e-02 -4.000000e-02 1.020000e-01
      vertex   1.375000e-02 -4.000000e-02 2.700000e-02
    endloop
  endfacet
  facet normal 8.540177e-16 -1.000000e+00 -1.665335e-15
    outer loop
      vertex   1.375000e-02 -4.000000e-02 2.700000e-02
      vertex   4.625000e-02 -4.000000e-02 1.020000e-01
      vertex   1.375000e-02 -4.000000e-02 1.020000e-01
    endloop
  endfacet
  facet normal -1.022658e-16 -1.000000e+00 -1.665335e-15
    outer loop
      vertex   1.375000e-02 -4.000000e-02 2.700000e-02
      vertex   1.375000e-02 -4.000000e-02 1.020000e-01
      vertex   1.080949e-02 -4.000000e-02 2.718057e-02
    endloop
  endfacet
  facet normal 1.027606e-16 -1.000000e+00 -1.673392e-15
    outer loop
      vertex   1.080949e-02 -4.000000e-02 2.718057e-02
      vertex   1.375000e-02 -4.000000e-02 1.020000e-01
      vertex   1.080949e-02 -4.000000e-02 1.018194e-01
    endloop
  endfacet
  facet normal 2.072422e-15 -1.000000e+00 -1.673392e-15
    outer loop
      vertex   1.080949e-02 -4.000000e-02 2.718057e-02
      vertex   1.080949e-02 -4.000000e-02 1.018194e-01
      vertex   7.897290e-03 -4.000000e-02 2.772055e-02
    endloop
  endfacet
  facet normal 2.697538e-15 -1.000000e+00 -1.697960e-15
    outer loop
      vertex   7.897290e-03 -4.000000e-02 2.772055e-02
      vertex   1.080949e-02 -4.000000e-02 1.018194e-01
      vertex   7.897290e-03 -4.000000e-02 1.012794e-01
    endloop
  endfacet
  facet normal -5.316462e-16 -1.000000e+00 -1.697960e-15
    outer loop
      vertex   7.897290e-03 -4.000000e-02 2.772055e-02
      vertex   7.897290e-03 -4.000000e-02 1.012794e-01
      vertex   5.041460e-03 -4.000000e-02 2.861474e-02
    endloop
  endfacet
  facet normal 5.448937e-16 -1.000000e+00 -1.740270e-15
    outer loop
      vertex   5.041460e-03 -4.000000e-02 2.861474e-02
      vertex   7.897290e-03 -4.000000e-02 1.012794e-01
      vertex   5.041460e-03 -4.000000e-02 1.003853e-01
    endloop
  endfacet
  facet normal -7.783482e-16 -1.000000e+00 -1.740270e-15
    outer loop
      vertex   5.041460e-03 -4.000000e-02 2.861474e-02
      vertex   5.041460e-03 -4.000000e-02 1.003853e-01
      vertex   2.269497e-03 -4.000000e-02 2.985452e-02
    endloop
  endfacet
  facet normal 8.062012e-16 -1.000000e+00 -1.802545e-15
    outer loop
      vertex   2.269497e-03 -4.000000e-02 2.985452e-02
      vertex   5.041460e-03 -4.000000e-02 1.003853e-01
      vertex   2.269497e-03 -4.000000e-02 9.914548e-02
    endloop
  endfacet
  facet normal 6.756031e-15 -1.000000e+00 -1.802545e-15
    outer loop
      vertex   2.269497e-03 -4.000000e-02 2.985452e-02
      vertex   2.269497e-03 -4.000000e-02 9.914548e-02
      vertex   -3.919021e-04 -4.000000e-02 3.142795e-02
    endloop
  endfacet
  facet normal 9.303133e-16 -1.000000e+00 -1.573586e-15
    outer loop
      vertex   -3.919021e-04 -4.000000e-02 3.142795e-02
      vertex   2.269497e-03 -4.000000e-02 9.914548e-02
      vertex   -3.919021e-04 -4.000000e-02 9.757205e-02
    endloop
  endfacet
  facet normal -1.178964e-15 -1.000000e+00 -1.573586e-15
    outer loop
      vertex   -3.919021e-04 -4.000000e-02 3.142795e-02
      vertex   -3.919021e-04 -4.000000e-02 9.757205e-02
      vertex   -2.917107e-03 -4.000000e-02 3.331989e-02
    endloop
  endfacet
  facet normal 1.250501e-15 -1.000000e+00 -1.669067e-15
    outer loop
      vertex   -2.917107e-03 -4.000000e-02 3.331989e-02
      vertex   -3.919021e-04 -4.000000e-02 9.757205e-02
      vertex   -2.917107e-03 -4.000000e-02 9.568011e-02
    endloop
  endfacet
  facet normal -1.547331e-15 -1.000000e+00 -1.669067e-15
    outer loop
      vertex   -2.917107e-03 -4.000000e-02 3.331989e-02
      vertex   -2.917107e-03 -4.000000e-02 9.568011e-02
      vertex   -5.281799e-03 -4.000000e-02 3.551211e-02
    endloop
  endfacet
  facet normal 1.664348e-15 -1.000000e+00 -1.795291e-15
    outer loop
      vertex   -5.281799e-03 -4.000000e-02 3.551211e-02
      vertex   -2.917107e-03 -4.000000e-02 9.568011e-02
      vertex   -5.281799e-03 -4.000000e-02 9.348789e-02
    endloop
  endfacet
  facet normal 1.146983e-15 -1.000000e+00 -1.795291e-15
    outer loop
      vertex   -5.281799e-03 -4.000000e-02 3.551211e-02
      vertex   -5.281799e-03 -4.000000e-02 9.348789e-02
      vertex   -7.463203e-03 -4.000000e-02 3.798350e-02
    endloop
  endfacet
  facet normal -1.253884e-15 -1.000000e+00 -1.700933e-15
    outer loop
      vertex   -7.463203e-03 -4.000000e-02 3.798350e-02
      vertex   -5.281799e-03 -4.000000e-02 9.348789e-02
      vertex   -7.463203e-03 -4.000000e-02 9.101650e-02
    endloop
  endfacet
  facet normal 4.673365e-15 -1.000000e+00 -1.700933e-15
    outer loop
      vertex   -7.463203e-03 -4.000000e-02 3.798350e-02
      vertex   -7.463203e-03 -4.000000e-02 9.101650e-02
      vertex   -9.440314e-03 -4.000000e-02 4.071025e-02
    endloop
  endfacet
  facet normal 5.923224e-15 -1.000000e+00 -1.750055e-15
    outer loop
      vertex   -9.440314e-03 -4.000000e-02 4.071025e-02
      vertex   -7.463203e-03 -4.000000e-02 9.101650e-02
      vertex   -9.440314e-03 -4.000000e-02 8.828975e-02
    endloop
  endfacet
  facet normal 1.006953e-15 -1.000000e+00 -1.750055e-15
    outer loop
      vertex   -9.440314e-03 -4.000000e-02 4.071025e-02
      vertex   -9.440314e-03 -4.000000e-02 8.828975e-02
      vertex   -1.119409e-02 -4.000000e-02 4.366612e-02
    endloop
  endfacet
  facet normal -1.149817e-15 -1.000000e+00 -1.665291e-15
    outer loop
      vertex   -1.119409e-02 -4.000000e-02 4.366612e-02
      vertex   -9.440314e-03 -4.000000e-02 8.828975e-02
      vertex   -1.119409e-02 -4.000000e-02 8.533388e-02
    endloop
  endfacet
  facet normal 1.111555e-15 -1.000000e+00 -1.665291e-15
    outer loop
      vertex   -1.119409e-02 -4.000000e-02 4.366612e-02
      vertex   -1.119409e-02 -4.000000e-02 8.533388e-02
      vertex   -1.270764e-02 -4.000000e-02 4.682262e-02
    endloop
  endfacet
  facet normal -1.310037e-15 -1.000000e+00 -1.570118e-15
    outer loop
      vertex   -1.270764e-02 -4.000000e-02 4.682262e-02
      vertex   -1.119409e-02 -4.000000e-02 8.533388e-02
      vertex   -1.270764e-02 -4.000000e-02 8.217738e-02
    endloop
  endfacet
  facet normal -4.149671e-15 -1.000000e+00 -1.570118e-15
    outer loop
      vertex   -1.270764e-02 -4.000000e-02 4.682262e-02
      vertex   -1.270764e-02 -4.000000e-02 8.217738e-02
      vertex   -1.396639e-02 -4.000000e-02 5.014937e-02
    endloop
  endfacet
  facet normal 5.111643e-15 -1.000000e+00 -1.934102e-15
    outer loop
      vertex   -1.396639e-02 -4.000000e-02 5.014937e-02
      vertex   -1.270764e-02 -4.000000e-02 8.217738e-02
      vertex   -1.396639e-02 -4.000000e-02 7.885063e-02
    endloop
  endfacet
  facet normal 2.392781e-16 -1.000000e+00 -1.934102e-15
    outer loop
      vertex   -1.396639e-02 -4.000000e-02 5.014937e-02
      vertex   -1.396639e-02 -4.000000e-02 7.885063e-02
      vertex   -1.495821e-02 -4.000000e-02 5.361432e-02
    endloop
  endfacet
  facet normal -8.424977e-15 -1.000000e+00 -1.593584e-15
    outer loop
      vertex   -1.495821e-02 -4.000000e-02 5.361432e-02
      vertex   -1.396639e-02 -4.000000e-02 7.885063e-02
      vertex   -1.495821e-02 -4.000000e-02 7.538568e-02
    endloop
  endfacet
  facet normal 1.144761e-14 -1.000000e+00 -1.593584e-15
    outer loop
      vertex   -1.495821e-02 -4.000000e-02 5.361432e-02
      vertex   -1.495821e-02 -4.000000e-02 7.538568e-02
      vertex   -1.567356e-02 -4.000000e-02 5.718411e-02
    endloop
  endfacet
  facet normal -4.966894e-15 -1.000000e+00 -9.484692e-16
    outer loop
      vertex   -1.567356e-02 -4.000000e-02 5.718411e-02
      vertex   -1.495821e-02 -4.000000e-02 7.538568e-02
      vertex   -1.567356e-02 -4.000000e-02 7.181589e-02
    endloop
  endfacet
  facet normal -7.992575e-15 -1.000000e+00 -9.484692e-16
    outer loop
      vertex   -1.567356e-02 -4.000000e-02 5.718411e-02
      vertex   -1.567356e-02 -4.000000e-02 7.181589e-02
      vertex   -1.610554e-02 -4.000000e-02 6.082436e-02
    endloop
  endfacet
  facet normal 1.590818e-14 -1.000000e+00 -1.887804e-15
    outer loop
      vertex   -1.610554e-02 -4.000000e-02 6.082436e-02
      vertex   -1.567356e-02 -4.000000e-02 7.181589e-02
      vertex   -1.610554e-02 -4.000000e-02 6.817564e-02
    endloop
  endfacet
  facet normal 4.533932e-29 -1.000000e+00 -1.887804e-15
    outer loop
      vertex   -1.610554e-02 -4.000000e-02 6.082436e-02
      vertex   -1.610554e-02 -4.000000e-02 6.817564e-02
      vertex   -1.625000e-02 -4.000000e-02 6.450000e-02
    endloop
  endfacet
  facet normal 6.129310e-02 1.789941e-15 -9.981198e-01
    outer loop
      vertex   4.625000e-02 -4.000000e-02 2.700000e-02
      vertex   4.625000e-02 4.000000e-02 2.700000e-02
      vertex   4.919051e-02 -4.000000e-02 2.718057e-02
    endloop
  endfacet
  facet normal 6.129310e-02 1.827912e-15 -9.981198e-01
    outer loop
      vertex   4.919051e-02 -4.000000e-02 2.718057e-02
      vertex   4.625000e-02 4.000000e-02 2.700000e-02
      vertex   4.919051e-02 4.000000e-02 2.718057e-02
    endloop
  endfacet
  facet normal 1.823125e-01 1.906423e-15 -9.832406e-01
    outer loop
      vertex   4.919051e-02 -4.000000e-02 2.718057e-02
      vertex   4.919051e-02 4.000000e-02 2.718057e-02
      vertex   5.210271e-02 4.000000e-02 2.772055e-02
    endloop
  endfacet
  facet normal 1.823125e-01 1.921446e-15 -9.832406e-01
    outer loop
      vertex   4.919051e-02 -4.000000e-02 2.718057e-02
      vertex   5.210271e-02 4.000000e-02 2.772055e-02
      vertex   5.210271e-02 -4.000000e-02 2.772055e-02
    endloop
  endfacet
  facet normal 2.988042e-01 1.981947e-15 -9.543145e-01
    outer loop
      vertex   5.210271e-02 -4.000000e-02 2.772055e-02
      vertex   5.210271e-02 4.000000e-02 2.772055e-02
      vertex   5.495854e-02 4.000000e-02 2.861474e-02
    endloop
  endfacet
  facet normal 2.988042e-01 1.956566e-15 -9.543145e-01
    outer loop
      vertex   5.210271e-02 -4.000000e-02 2.772055e-02
      vertex   5.495854e-02 4.000000e-02 2.861474e-02
      vertex   5.495854e-02 -4.000000e-02 2.861474e-02
    endloop
  endfacet
  facet normal 4.082814e-01 1.977269e-15 -9.128561e-01
    outer loop
      vertex   5.495854e-02 -4.000000e-02 2.861474e-02
      vertex   5.495854e-02 4.000000e-02 2.861474e-02
      vertex   5.773050e-02 4.000000e-02 2.985452e-02
    endloop
  endfacet
  facet normal 4.082814e-01 1.977008e-15 -9.128561e-01
    outer loop
      vertex   5.495854e-02 -4.000000e-02 2.861474e-02
      vertex   5.773050e-02 4.000000e-02 2.985452e-02
      vertex   5.773050e-02 -4.000000e-02 2.985452e-02
    endloop
  endfacet
  facet normal 5.089187e-01 1.972024e-15 -8.608146e-01
    outer loop
      vertex   5.773050e-02 -4.000000e-02 2.985452e-02
      vertex   5.773050e-02 4.000000e-02 2.985452e-02
      vertex   6.039190e-02 4.000000e-02 3.142795e-02
    endloop
  endfacet
  facet normal 5.089187e-01 1.934899e-15 -8.608146e-01
    outer loop
      vertex   5.773050e-02 -4.000000e-02 2.985452e-02
      vertex   6.039190e-02 4.000000e-02 3.142795e-02
      vertex   6.039190e-02 -4.000000e-02 3.142795e-02
    endloop
  endfacet
  facet normal 5.996010e-01 1.908369e-15 -8.002991e-01
    outer loop
      vertex   6.039190e-02 -4.000000e-02 3.142795e-02
      vertex   6.039190e-02 4.000000e-02 3.142795e-02
      vertex   6.291711e-02 4.000000e-02 3.331989e-02
    endloop
  endfacet
  facet normal 5.996010e-01 1.909318e-15 -8.002991e-01
    outer loop
      vertex   6.039190e-02 -4.000000e-02 3.142795e-02
      vertex   6.291711e-02 4.000000e-02 3.331989e-02
      vertex   6.291711e-02 -4.000000e-02 3.331989e-02
    endloop
  endfacet
  facet normal 6.798569e-01 1.861832e-15 -7.333448e-01
    outer loop
      vertex   6.291711e-02 -4.000000e-02 3.331989e-02
      vertex   6.291711e-02 4.000000e-02 3.331989e-02
      vertex   6.528180e-02 4.000000e-02 3.551211e-02
    endloop
  endfacet
  facet normal 6.798569e-01 1.927446e-15 -7.333448e-01
    outer loop
      vertex   6.291711e-02 -4.000000e-02 3.331989e-02
      vertex   6.528180e-02 4.000000e-02 3.551211e-02
      vertex   6.528180e-02 -4.000000e-02 3.551211e-02
    endloop
  endfacet
  facet normal 7.497222e-01 1.855636e-15 -6.617527e-01
    outer loop
      vertex   6.528180e-02 -4.000000e-02 3.551211e-02
      vertex   6.528180e-02 4.000000e-02 3.551211e-02
      vertex   6.746320e-02 4.000000e-02 3.798350e-02
    endloop
  endfacet
  facet normal 7.497222e-01 1.798696e-15 -6.617527e-01
    outer loop
      vertex   6.528180e-02 -4.000000e-02 3.551211e-02
      vertex   6.746320e-02 4.000000e-02 3.798350e-02
      vertex   6.746320e-02 -4.000000e-02 3.798350e-02
    endloop
  endfacet
  facet normal 8.095805e-01 1.720497e-15 -5.870088e-01
    outer loop
      vertex   6.746320e-02 -4.000000e-02 3.798350e-02
      vertex   6.746320e-02 4.000000e-02 3.798350e-02
      vertex   6.944031e-02 4.000000e-02 4.071025e-02
    endloop
  endfacet
  facet normal 8.095805e-01 1.769834e-15 -5.870088e-01
    outer loop
      vertex   6.746320e-02 -4.000000e-02 3.798350e-02
      vertex   6.944031e-02 4.000000e-02 4.071025e-02
      vertex   6.944031e-02 -4.000000e-02 4.071025e-02
    endloop
  endfacet
  facet normal 8.600169e-01 1.675374e-15 -5.102656e-01
    outer loop
      vertex   6.944031e-02 -4.000000e-02 4.071025e-02
      vertex   6.944031e-02 4.000000e-02 4.071025e-02
      vertex   7.119409e-02 4.000000e-02 4.366612e-02
    endloop
  endfacet
  facet normal 8.600169e-01 1.675837e-15 -5.102656e-01
    outer loop
      vertex   6.944031e-02 -4.000000e-02 4.071025e-02
      vertex   7.119409e-02 4.000000e-02 4.366612e-02
      vertex   7.119409e-02 -4.000000e-02 4.366612e-02
    endloop
  endfacet
  facet normal 9.016983e-01 1.569635e-15 -4.323657e-01
    outer loop
      vertex   7.119409e-02 -4.000000e-02 4.366612e-02
      vertex   7.119409e-02 4.000000e-02 4.366612e-02
      vertex   7.270764e-02 4.000000e-02 4.682262e-02
    endloop
  endfacet
  facet normal 9.016983e-01 1.569757e-15 -4.323657e-01
    outer loop
      vertex   7.119409e-02 -4.000000e-02 4.366612e-02
      vertex   7.270764e-02 4.000000e-02 4.682262e-02
      vertex   7.270764e-02 -4.000000e-02 4.682262e-02
    endloop
  endfacet
  facet normal 9.352883e-01 1.455824e-15 -3.538867e-01
    outer loop
      vertex   7.270764e-02 -4.000000e-02 4.682262e-02
      vertex   7.270764e-02 4.000000e-02 4.682262e-02
      vertex   7.396639e-02 4.000000e-02 5.014937e-02
    endloop
  endfacet
  facet normal 9.352883e-01 1.455609e-15 -3.538867e-01
    outer loop
      vertex   7.270764e-02 -4.000000e-02 4.682262e-02
      vertex   7.396639e-02 4.000000e-02 5.014937e-02
      vertex   7.396639e-02 -4.000000e-02 5.014937e-02
    endloop
  endfacet
  facet normal 9.613892e-01 1.335124e-15 -2.751924e-01
    outer loop
      vertex   7.396639e-02 -4.000000e-02 5.014937e-02
      vertex   7.396639e-02 4.000000e-02 5.014937e-02
      vertex   7.495821e-02 4.000000e-02 5.361432e-02
    endloop
  endfacet
  facet normal 9.613892e-01 1.335199e-15 -2.751924e-01
    outer loop
      vertex   7.396639e-02 -4.000000e-02 5.014937e-02
      vertex   7.495821e-02 4.000000e-02 5.361432e-02
      vertex   7.495821e-02 -4.000000e-02 5.361432e-02
    endloop
  endfacet
  facet normal 9.805072e-01 1.208341e-15 -1.964834e-01
    outer loop
      vertex   7.495821e-02 -4.000000e-02 5.361432e-02
      vertex   7.495821e-02 4.000000e-02 5.361432e-02
      vertex   7.567356e-02 4.000000e-02 5.718411e-02
    endloop
  endfacet
  facet normal 9.805072e-01 1.192346e-15 -1.964834e-01
    outer loop
      vertex   7.495821e-02 -4.000000e-02 5.361432e-02
      vertex   7.567356e-02 4.000000e-02 5.718411e-02
      vertex   7.567356e-02 -4.000000e-02 5.718411e-02
    endloop
  endfacet
  facet normal 9.930324e-01 1.065741e-15 -1.178419e-01
    outer loop
      vertex   7.567356e-02 -4.000000e-02 5.718411e-02
      vertex   7.567356e-02 4.000000e-02 5.718411e-02
      vertex   7.610554e-02 4.000000e-02 6.082436e-02
    endloop
  endfacet
  facet normal 9.930324e-01 1.065785e-15 -1.178419e-01
    outer loop
      vertex   7.567356e-02 -4.000000e-02 5.718411e-02
      vertex   7.610554e-02 4.000000e-02 6.082436e-02
      vertex   7.610554e-02 -4.000000e-02 6.082436e-02
    endloop
  endfacet
  facet normal 9.992286e-01 9.348173e-16 -3.927116e-02
    outer loop
      vertex   7.610554e-02 -4.000000e-02 6.082436e-02
      vertex   7.610554e-02 4.000000e-02 6.082436e-02
      vertex   7.625000e-02 -4.000000e-02 6.450000e-02
    endloop
  endfacet
  facet normal 9.992286e-01 9.348173e-16 -3.927116e-02
    outer loop
      vertex   7.625000e-02 -4.000000e-02 6.450000e-02
      vertex   7.610554e-02 4.000000e-02 6.082436e-02
      vertex   7.625000e-02 4.000000e-02 6.450000e-02
    endloop
  endfacet
  facet normal 9.992286e-01 7.985680e-16 3.927116e-02
    outer loop
      vertex   7.625000e-02 -4.000000e-02 6.450000e-02
      vertex   7.625000e-02 4.000000e-02 6.450000e-02
      vertex   7.610554e-02 -4.000000e-02 6.817564e-02
    endloop
  endfacet
  facet normal 9.992286e-01 7.985680e-16 3.927116e-02
    outer loop
      vertex   7.610554e-02 -4.000000e-02 6.817564e-02
      vertex   7.625000e-02 4.000000e-02 6.450000e-02
      vertex   7.610554e-02 4.000000e-02 6.817564e-02
    endloop
  endfacet
  facet normal 9.930324e-01 6.568951e-16 1.178419e-01
    outer loop
      vertex   7.610554e-02 -4.000000e-02 6.817564e-02
      vertex   7.610554e-02 4.000000e-02 6.817564e-02
      vertex   7.567356e-02 4.000000e-02 7.181589e-02
    endloop
  endfacet
  facet normal 9.930324e-01 6.570896e-16 1.178419e-01
    outer loop
      vertex   7.610554e-02 -4.000000e-02 6.817564e-02
      vertex   7.567356e-02 4.000000e-02 7.181589e-02
      vertex   7.567356e-02 -4.000000e-02 7.181589e-02
    endloop
  endfacet
  facet normal 9.805072e-01 5.096100e-16 1.964834e-01
    outer loop
      vertex   7.567356e-02 -4.000000e-02 7.181589e-02
      vertex   7.567356e-02 4.000000e-02 7.181589e-02
      vertex   7.495821e-02 4.000000e-02 7.538568e-02
    endloop
  endfacet
  facet normal 9.805072e-01 4.754845e-16 1.964834e-01
    outer loop
      vertex   7.567356e-02 -4.000000e-02 7.181589e-02
      vertex   7.495821e-02 4.000000e-02 7.538568e-02
      vertex   7.495821e-02 -4.000000e-02 7.538568e-02
    endloop
  endfacet
  facet normal 9.613892e-01 3.087511e-16 2.751924e-01
    outer loop
      vertex   7.495821e-02 -4.000000e-02 7.538568e-02
      vertex   7.495821e-02 4.000000e-02 7.538568e-02
      vertex   7.396639e-02 4.000000e-02 7.885063e-02
    endloop
  endfacet
  facet normal 9.613892e-01 3.569344e-16 2.751924e-01
    outer loop
      vertex   7.495821e-02 -4.000000e-02 7.538568e-02
      vertex   7.396639e-02 4.000000e-02 7.885063e-02
      vertex   7.396639e-02 -4.000000e-02 7.885063e-02
    endloop
  endfacet
  facet normal 9.352883e-01 1.973377e-16 3.538867e-01
    outer loop
      vertex   7.396639e-02 -4.000000e-02 7.885063e-02
      vertex   7.396639e-02 4.000000e-02 7.885063e-02
      vertex   7.270764e-02 4.000000e-02 8.217738e-02
    endloop
  endfacet
  facet normal 9.352883e-01 1.994392e-16 3.538867e-01
    outer loop
      vertex   7.396639e-02 -4.000000e-02 7.885063e-02
      vertex   7.270764e-02 4.000000e-02 8.217738e-02
      vertex   7.270764e-02 -4.000000e-02 8.217738e-02
    endloop
  endfacet
  facet normal 9.016983e-01 3.206362e-17 4.323657e-01
    outer loop
      vertex   7.270764e-02 -4.000000e-02 8.217738e-02
      vertex   7.270764e-02 4.000000e-02 8.217738e-02
      vertex   7.119409e-02 4.000000e-02 8.533388e-02
    endloop
  endfacet
  facet normal 9.016983e-01 3.024579e-17 4.323657e-01
    outer loop
      vertex   7.270764e-02 -4.000000e-02 8.217738e-02
      vertex   7.119409e-02 4.000000e-02 8.533388e-02
      vertex   7.119409e-02 -4.000000e-02 8.533388e-02
    endloop
  endfacet
  facet normal 8.600169e-01 -1.392240e-16 5.102656e-01
    outer loop
      vertex   7.119409e-02 -4.000000e-02 8.533388e-02
      vertex   7.119409e-02 4.000000e-02 8.533388e-02
      vertex   6.944031e-02 4.000000e-02 8.828975e-02
    endloop
  endfacet
  facet normal 8.600169e-01 -1.386262e-16 5.102656e-01
    outer loop
      vertex   7.119409e-02 -4.000000e-02 8.533388e-02
      vertex   6.944031e-02 4.000000e-02 8.828975e-02
      vertex   6.944031e-02 -4.000000e-02 8.828975e-02
    endloop
  endfacet
  facet normal 8.095805e-01 -3.160988e-16 5.870088e-01
    outer loop
      vertex   6.944031e-02 -4.000000e-02 8.828975e-02
      vertex   6.944031e-02 4.000000e-02 8.828975e-02
      vertex   6.746320e-02 4.000000e-02 9.101650e-02
    endloop
  endfacet
  facet normal 8.095805e-01 -3.175013e-16 5.870088e-01
    outer loop
      vertex   6.944031e-02 -4.000000e-02 8.828975e-02
      vertex   6.746320e-02 4.000000e-02 9.101650e-02
      vertex   6.746320e-02 -4.000000e-02 9.101650e-02
    endloop
  endfacet
  facet normal 7.497222e-01 -4.976777e-16 6.617527e-01
    outer loop
      vertex   6.746320e-02 -4.000000e-02 9.101650e-02
      vertex   6.746320e-02 4.000000e-02 9.101650e-02
      vertex   6.528180e-02 4.000000e-02 9.348789e-02
    endloop
  endfacet
  facet normal 7.497222e-01 -4.978534e-16 6.617527e-01
    outer loop
      vertex   6.746320e-02 -4.000000e-02 9.101650e-02
      vertex   6.528180e-02 4.000000e-02 9.348789e-02
      vertex   6.528180e-02 -4.000000e-02 9.348789e-02
    endloop
  endfacet
  facet normal 6.798569e-01 -6.824685e-16 7.333448e-01
    outer loop
      vertex   6.528180e-02 -4.000000e-02 9.348789e-02
      vertex   6.528180e-02 4.000000e-02 9.348789e-02
      vertex   6.291711e-02 4.000000e-02 9.568011e-02
    endloop
  endfacet
  facet normal 6.798569e-01 -6.829790e-16 7.333448e-01
    outer loop
      vertex   6.528180e-02 -4.000000e-02 9.348789e-02
      vertex   6.291711e-02 4.000000e-02 9.568011e-02
      vertex   6.291711e-02 -4.000000e-02 9.568011e-02
    endloop
  endfacet
  facet normal 5.996010e-01 -8.682266e-16 8.002991e-01
    outer loop
      vertex   6.291711e-02 -4.000000e-02 9.568011e-02
      vertex   6.291711e-02 4.000000e-02 9.568011e-02
      vertex   6.039190e-02 4.000000e-02 9.757205e-02
    endloop
  endfacet
  facet normal 5.996010e-01 -8.690921e-16 8.002991e-01
    outer loop
      vertex   6.291711e-02 -4.000000e-02 9.568011e-02
      vertex   6.039190e-02 4.000000e-02 9.757205e-02
      vertex   6.039190e-02 -4.000000e-02 9.757205e-02
    endloop
  endfacet
  facet normal 5.089187e-01 -1.051859e-15 8.608146e-01
    outer loop
      vertex   6.039190e-02 -4.000000e-02 9.757205e-02
      vertex   6.039190e-02 4.000000e-02 9.757205e-02
      vertex   5.773050e-02 4.000000e-02 9.914548e-02
    endloop
  endfacet
  facet normal 5.089187e-01 -1.051352e-15 8.608146e-01
    outer loop
      vertex   6.039190e-02 -4.000000e-02 9.757205e-02
      vertex   5.773050e-02 4.000000e-02 9.914548e-02
      vertex   5.773050e-02 -4.000000e-02 9.914548e-02
    endloop
  endfacet
  facet normal 4.082814e-01 -1.229425e-15 9.128561e-01
    outer loop
      vertex   5.773050e-02 -4.000000e-02 9.914548e-02
      vertex   5.773050e-02 4.000000e-02 9.914548e-02
      vertex   5.495854e-02 4.000000e-02 1.003853e-01
    endloop
  endfacet
  facet normal 4.082814e-01 -1.352873e-15 9.128561e-01
    outer loop
      vertex   5.773050e-02 -4.000000e-02 9.914548e-02
      vertex   5.495854e-02 4.000000e-02 1.003853e-01
      vertex   5.495854e-02 -4.000000e-02 1.003853e-01
    endloop
  endfacet
  facet normal 2.988042e-01 -1.535930e-15 9.543145e-01
    outer loop
      vertex   5.495854e-02 -4.000000e-02 1.003853e-01
      vertex   5.495854e-02 4.000000e-02 1.003853e-01
      vertex   5.210271e-02 4.000000e-02 1.012794e-01
    endloop
  endfacet
  facet normal 2.988042e-01 -1.535533e-15 9.543145e-01
    outer loop
      vertex   5.495854e-02 -4.000000e-02 1.003853e-01
      vertex   5.210271e-02 4.000000e-02 1.012794e-01
      vertex   5.210271e-02 -4.000000e-02 1.012794e-01
    endloop
  endfacet
  facet normal 1.823125e-01 -1.702272e-15 9.832406e-01
    outer loop
      vertex   5.210271e-02 -4.000000e-02 1.012794e-01
      vertex   5.210271e-02 4.000000e-02 1.012794e-01
      vertex   4.919051e-02 4.000000e-02 1.018194e-01
    endloop
  endfacet
  facet normal 1.823125e-01 -1.546987e-15 9.832406e-01
    outer loop
      vertex   5.210271e-02 -4.000000e-02 1.012794e-01
      vertex   4.919051e-02 4.000000e-02 1.018194e-01
      vertex   4.919051e-02 -4.000000e-02 1.018194e-01
    endloop
  endfacet
  facet normal 6.129310e-02 -1.678299e-15 9.981198e-01
    outer loop
      vertex   4.919051e-02 -4.000000e-02 1.018194e-01
      vertex   4.919051e-02 4.000000e-02 1.018194e-01
      vertex   4.625000e-02 -4.000000e-02 1.020000e-01
    endloop
  endfacet
  facet normal 6.129310e-02 -1.505152e-15 9.981198e-01
    outer loop
      vertex   4.625000e-02 -4.000000e-02 1.020000e-01
      vertex   4.919051e-02 4.000000e-02 1.018194e-01
      vertex   4.625000e-02 4.000000e-02 1.020000e-01
    endloop
  endfacet
  facet normal 5.337611e-17 -2.737166e-16 -1.000000e+00
    outer loop
      vertex   1.625000e-02 -3.050000e-02 -1.500000e-03
      vertex   -1.625000e-02 -3.050000e-02 -1.500000e-03
      vertex   1.625000e-02 3.050000e-02 -1.500000e-03
    endloop
  endfacet
  facet normal 6.672013e-18 -2.488333e-16 -1.000000e+00
    outer loop
      vertex   1.625000e-02 3.050000e-02 -1.500000e-03
      vertex   -1.625000e-02 -3.050000e-02 -1.500000e-03
      vertex   -1.625000e-02 3.050000e-02 -1.500000e-03
    endloop
  endfacet
  facet normal 1.067522e-15 -1.000000e+00 -6.052489e-15
    outer loop
      vertex   1.625000e-02 -3.050000e-02 -1.500000e-03
      vertex   2.269497e-03 -3.050000e-02 2.985452e-02
      vertex   -1.625000e-02 -3.050000e-02 -1.500000e-03
    endloop
  endfacet
  facet normal -1.409638e-15 -1.000000e+00 -4.589358e-15
    outer loop
      vertex   -1.625000e-02 -3.050000e-02 -1.500000e-03
      vertex   2.269497e-03 -3.050000e-02 2.985452e-02
      vertex   -3.919021e-04 -3.050000e-02 3.142795e-02
    endloop
  endfacet
  facet normal -1.890875e-15 -1.000000e+00 -4.357594e-15
    outer loop
      vertex   -1.625000e-02 -3.050000e-02 -1.500000e-03
      vertex   -3.919021e-04 -3.050000e-02 3.142795e-02
      vertex   -2.917107e-03 -3.050000e-02 3.331989e-02
    endloop
  endfacet
  facet normal 6.106227e-14 -1.000000e+00 -2.434700e-16
    outer loop
      vertex   1.625000e-02 -3.050000e-02 2.700000e-02
      vertex   1.375000e-02 -3.050000e-02 2.700000e-02
      vertex   1.625000e-02 -3.050000e-02 -1.500000e-03
    endloop
  endfacet
  facet normal 1.270321e-14 -1.000000e+00 -4.485493e-15
    outer loop
      vertex   1.625000e-02 -3.050000e-02 -1.500000e-03
      vertex   1.375000e-02 -3.050000e-02 2.700000e-02
      vertex   1.080949e-02 -3.050000e-02 2.718057e-02
    endloop
  endfacet
  facet normal 1.144446e-15 -1.000000e+00 -6.678113e-15
    outer loop
      vertex   1.625000e-02 -3.050000e-02 -1.500000e-03
      vertex   1.080949e-02 -3.050000e-02 2.718057e-02
      vertex   7.897290e-03 -3.050000e-02 2.772055e-02
    endloop
  endfacet
  facet normal -2.409018e-15 -1.000000e+00 -7.693873e-15
    outer loop
      vertex   7.897290e-03 -3.050000e-02 2.772055e-02
      vertex   5.041460e-03 -3.050000e-02 2.861474e-02
      vertex   1.625000e-02 -3.050000e-02 -1.500000e-03
    endloop
  endfacet
  facet normal -3.647267e-15 -1.000000e+00 -8.154742e-15
    outer loop
      vertex   1.625000e-02 -3.050000e-02 -1.500000e-03
      vertex   5.041460e-03 -3.050000e-02 2.861474e-02
      vertex   2.269497e-03 -3.050000e-02 2.985452e-02
    endloop
  endfacet
  facet normal -1.311173e-15 -1.000000e+00 -4.579568e-15
    outer loop
      vertex   -2.917107e-03 -3.050000e-02 3.331989e-02
      vertex   -5.281799e-03 -3.050000e-02 3.551211e-02
      vertex   -1.625000e-02 -3.050000e-02 -1.500000e-03
    endloop
  endfacet
  facet normal -3.023123e-15 -1.000000e+00 -4.072248e-15
    outer loop
      vertex   -1.625000e-02 -3.050000e-02 -1.500000e-03
      vertex   -5.281799e-03 -3.050000e-02 3.551211e-02
      vertex   -7.463203e-03 -3.050000e-02 3.798350e-02
    endloop
  endfacet
  facet normal -3.664600e-15 -1.000000e+00 -3.929491e-15
    outer loop
      vertex   -1.625000e-02 -3.050000e-02 -1.500000e-03
      vertex   -7.463203e-03 -3.050000e-02 3.798350e-02
      vertex   -9.440314e-03 -3.050000e-02 4.071025e-02
    endloop
  endfacet
  facet normal -4.435103e-15 -1.000000e+00 -3.805188e-15
    outer loop
      vertex   -9.440314e-03 -3.050000e-02 4.071025e-02
      vertex   -1.119409e-02 -3.050000e-02 4.366612e-02
      vertex   -1.625000e-02 -3.050000e-02 -1.500000e-03
    endloop
  endfacet
  facet normal -3.556345e-15 -1.000000e+00 -3.903556e-15
    outer loop
      vertex   -1.625000e-02 -3.050000e-02 -1.500000e-03
      vertex   -1.119409e-02 -3.050000e-02 4.366612e-02
      vertex   -1.270764e-02 -3.050000e-02 4.682262e-02
    endloop
  endfacet
  facet normal -6.910593e-15 -1.000000e+00 -3.657668e-15
    outer loop
      vertex   -1.625000e-02 -3.050000e-02 -1.500000e-03
      vertex   -1.270764e-02 -3.050000e-02 4.682262e-02
      vertex   -1.396639e-02 -3.050000e-02 5.014937e-02
    endloop
  endfacet
  facet normal -5.933024e-15 -1.000000e+00 -3.700890e-15
    outer loop
      vertex   -1.396639e-02 -3.050000e-02 5.014937e-02
      vertex   -1.495821e-02 -3.050000e-02 5.361432e-02
      vertex   -1.625000e-02 -3.050000e-02 -1.500000e-03
    endloop
  endfacet
  facet normal -8.471540e-15 -1.000000e+00 -3.641391e-15
    outer loop
      vertex   -1.625000e-02 -3.050000e-02 -1.500000e-03
      vertex   -1.495821e-02 -3.050000e-02 5.361432e-02
      vertex   -1.567356e-02 -3.050000e-02 5.718411e-02
    endloop
  endfacet
  facet normal -1.415224e-14 -1.000000e+00 -3.585591e-15
    outer loop
      vertex   -1.625000e-02 -3.050000e-02 -1.500000e-03
      vertex   -1.567356e-02 -3.050000e-02 5.718411e-02
      vertex   -1.610554e-02 -3.050000e-02 6.082436e-02
    endloop
  endfacet
  facet normal -1.425026e-12 -1.000000e+00 -3.154043e-16
    outer loop
      vertex   -1.610554e-02 -3.050000e-02 6.082436e-02
      vertex   -1.625000e-02 -3.050000e-02 6.450000e-02
      vertex   -1.625000e-02 -3.050000e-02 -1.500000e-03
    endloop
  endfacet
  facet normal 1.000000e+00 1.194400e-15 -8.521449e-16
    outer loop
      vertex   1.625000e-02 3.050000e-02 2.700000e-02
      vertex   1.625000e-02 -3.050000e-02 2.700000e-02
      vertex   1.625000e-02 3.050000e-02 -1.500000e-03
    endloop
  endfacet
  facet normal 1.000000e+00 1.194400e-15 -8.521449e-16
    outer loop
      vertex   1.625000e-02 3.050000e-02 -1.500000e-03
      vertex   1.625000e-02 -3.050000e-02 2.700000e-02
      vertex   1.625000e-02 -3.050000e-02 -1.500000e-03
    endloop
  endfacet
  facet normal -1.000000e+00 -1.194400e-15 4.395052e-31
    outer loop
      vertex   -1.625000e-02 3.050000e-02 -1.500000e-03
      vertex   -1.625000e-02 -3.050000e-02 -1.500000e-03
      vertex   -1.625000e-02 3.050000e-02 6.450000e-02
    endloop
  endfacet
  facet normal -1.000000e+00 -1.137524e-15 -5.256738e-17
    outer loop
      vertex   -1.625000e-02 3.050000e-02 6.450000e-02
      vertex   -1.625000e-02 -3.050000e-02 -1.500000e-03
      vertex   -1.625000e-02 -3.050000e-02 6.450000e-02
    endloop
  endfacet
endsolid
