solid ASCII
  facet normal -6.191928e-16 -1.445603e-16 -1.000000e+00
    outer loop
      vertex   -3.900000e-02 1.500000e-02 -3.500000e-03
      vertex   -9.583319e-03 1.500000e-02 -3.500000e-03
      vertex   -3.900000e-02 -1.500000e-02 -3.500000e-03
    endloop
  endfacet
  facet normal -8.845611e-16 1.156482e-16 -1.000000e+00
    outer loop
      vertex   -3.900000e-02 -1.500000e-02 -3.500000e-03
      vertex   -9.583319e-03 1.500000e-02 -3.500000e-03
      vertex   -9.583319e-03 -1.500000e-02 -3.500000e-03
    endloop
  endfacet
  facet normal 4.525372e-17 1.156482e-16 -1.000000e+00
    outer loop
      vertex   -9.583319e-03 -1.500000e-02 -3.500000e-03
      vertex   -9.583319e-03 1.500000e-02 -3.500000e-03
      vertex   9.583319e-03 1.500000e-02 -3.500000e-03
    endloop
  endfacet
  facet normal 6.788059e-17 1.011922e-16 -1.000000e+00
    outer loop
      vertex   -9.583319e-03 -1.500000e-02 -3.500000e-03
      vertex   9.583319e-03 1.500000e-02 -3.500000e-03
      vertex   9.583319e-03 -1.500000e-02 -3.500000e-03
    endloop
  endfacet
  facet normal -5.847371e-17 1.011922e-16 -1.000000e+00
    outer loop
      vertex   9.583319e-03 -1.500000e-02 -3.500000e-03
      vertex   9.583319e-03 1.500000e-02 -3.500000e-03
      vertex   1.700000e-02 1.500000e-02 -3.500000e-03
    endloop
  endfacet
  facet normal 2.748264e-15 -5.926972e-16 -1.000000e+00
    outer loop
      vertex   9.583319e-03 -1.500000e-02 -3.500000e-03
      vertex   1.700000e-02 1.500000e-02 -3.500000e-03
      vertex   1.700000e-02 -1.500000e-02 -3.500000e-03
    endloop
  endfacet
  facet normal 4.525372e-17 8.179238e-17 -1.000000e+00
    outer loop
      vertex   9.583319e-03 1.500000e-02 -3.500000e-03
      vertex   -9.583319e-03 1.500000e-02 -3.500000e-03
      vertex   7.616896e-03 1.608797e-02 -3.500000e-03
    endloop
  endfacet
  facet normal 2.846834e-17 3.471593e-16 -1.000000e+00
    outer loop
      vertex   7.616896e-03 1.608797e-02 -3.500000e-03
      vertex   -9.583319e-03 1.500000e-02 -3.500000e-03
      vertex   -7.616896e-03 1.608797e-02 -3.500000e-03
    endloop
  endfacet
  facet normal 2.846834e-17 7.147964e-17 -1.000000e+00
    outer loop
      vertex   7.616896e-03 1.608797e-02 -3.500000e-03
      vertex   -7.616896e-03 1.608797e-02 -3.500000e-03
      vertex   5.529059e-03 1.691950e-02 -3.500000e-03
    endloop
  endfacet
  facet normal 0.000000e+00 5.215473e-16 -1.000000e+00
    outer loop
      vertex   5.529059e-03 1.691950e-02 -3.500000e-03
      vertex   -7.616896e-03 1.608797e-02 -3.500000e-03
      vertex   -5.529059e-03 1.691950e-02 -3.500000e-03
    endloop
  endfacet
  facet normal 0.000000e+00 0.000000e+00 -1.000000e+00
    outer loop
      vertex   5.529059e-03 1.691950e-02 -3.500000e-03
      vertex   -5.529059e-03 1.691950e-02 -3.500000e-03
      vertex   3.353087e-03 1.748133e-02 -3.500000e-03
    endloop
  endfacet
  facet normal 6.466889e-17 -1.022377e-15 -1.000000e+00
    outer loop
      vertex   3.353087e-03 1.748133e-02 -3.500000e-03
      vertex   -5.529059e-03 1.691950e-02 -3.500000e-03
      vertex   -3.353087e-03 1.748133e-02 -3.500000e-03
    endloop
  endfacet
  facet normal 6.466889e-17 5.091432e-16 -1.000000e+00
    outer loop
      vertex   3.353087e-03 1.748133e-02 -3.500000e-03
      vertex   -3.353087e-03 1.748133e-02 -3.500000e-03
      vertex   1.123666e-03 1.776450e-02 -3.500000e-03
    endloop
  endfacet
  facet normal 0.000000e+00 1.531520e-15 -1.000000e+00
    outer loop
      vertex   1.123666e-03 1.776450e-02 -3.500000e-03
      vertex   -3.353087e-03 1.748133e-02 -3.500000e-03
      vertex   -1.123666e-03 1.776450e-02 -3.500000e-03
    endloop
  endfacet
  facet normal 6.788059e-17 1.226886e-16 -1.000000e+00
    outer loop
      vertex   -9.583319e-03 -1.500000e-02 -3.500000e-03
      vertex   9.583319e-03 -1.500000e-02 -3.500000e-03
      vertex   -7.616896e-03 -1.608797e-02 -3.500000e-03
    endloop
  endfacet
  facet normal 5.693669e-17 2.957051e-16 -1.000000e+00
    outer loop
      vertex   -7.616896e-03 -1.608797e-02 -3.500000e-03
      vertex   9.583319e-03 -1.500000e-02 -3.500000e-03
      vertex   7.616896e-03 -1.608797e-02 -3.500000e-03
    endloop
  endfacet
  facet normal 5.693669e-17 1.429593e-16 -1.000000e+00
    outer loop
      vertex   -7.616896e-03 -1.608797e-02 -3.500000e-03
      vertex   7.616896e-03 -1.608797e-02 -3.500000e-03
      vertex   -5.529059e-03 -1.691950e-02 -3.500000e-03
    endloop
  endfacet
  facet normal -3.272674e-31 1.043095e-15 -1.000000e+00
    outer loop
      vertex   -5.529059e-03 -1.691950e-02 -3.500000e-03
      vertex   7.616896e-03 -1.608797e-02 -3.500000e-03
      vertex   5.529059e-03 -1.691950e-02 -3.500000e-03
    endloop
  endfacet
  facet normal 0.000000e+00 0.000000e+00 -1.000000e+00
    outer loop
      vertex   -5.529059e-03 -1.691950e-02 -3.500000e-03
      vertex   5.529059e-03 -1.691950e-02 -3.500000e-03
      vertex   -3.353087e-03 -1.748133e-02 -3.500000e-03
    endloop
  endfacet
  facet normal 1.293378e-16 -2.044754e-15 -1.000000e+00
    outer loop
      vertex   -3.353087e-03 -1.748133e-02 -3.500000e-03
      vertex   5.529059e-03 -1.691950e-02 -3.500000e-03
      vertex   3.353087e-03 -1.748133e-02 -3.500000e-03
    endloop
  endfacet
  facet normal 1.293378e-16 1.018286e-15 -1.000000e+00
    outer loop
      vertex   -3.353087e-03 -1.748133e-02 -3.500000e-03
      vertex   3.353087e-03 -1.748133e-02 -3.500000e-03
      vertex   -1.123666e-03 -1.776450e-02 -3.500000e-03
    endloop
  endfacet
  facet normal 0.000000e+00 3.063040e-15 -1.000000e+00
    outer loop
      vertex   -1.123666e-03 -1.776450e-02 -3.500000e-03
      vertex   3.353087e-03 -1.748133e-02 -3.500000e-03
      vertex   1.123666e-03 -1.776450e-02 -3.500000e-03
    endloop
  endfacet
  facet normal -1.000000e+00 6.938894e-16 -1.452234e-16
    outer loop
      vertex   1.700000e-02 1.500000e-02 -3.500000e-03
      vertex   1.700000e-02 6.851553e-03 -4.243395e-02
      vertex   1.700000e-02 -1.500000e-02 -3.500000e-03
    endloop
  endfacet
  facet normal -1.000000e+00 7.595607e-16 -1.083656e-16
    outer loop
      vertex   1.700000e-02 -1.500000e-02 -3.500000e-03
      vertex   1.700000e-02 6.851553e-03 -4.243395e-02
      vertex   1.700000e-02 -6.851553e-03 -4.243395e-02
    endloop
  endfacet
  facet normal -1.000000e+00 7.595607e-16 -3.116617e-16
    outer loop
      vertex   1.700000e-02 -6.851553e-03 -4.243395e-02
      vertex   1.700000e-02 6.851553e-03 -4.243395e-02
      vertex   1.700000e-02 -7.771561e-18 -4.800000e-02
    endloop
  endfacet
  facet normal -1.000000e+00 2.770392e-15 2.163581e-15
    outer loop
      vertex   1.700000e-02 -6.851553e-03 -4.243395e-02
      vertex   1.700000e-02 -7.771561e-18 -4.800000e-02
      vertex   1.700000e-02 -1.355861e-03 -4.786743e-02
    endloop
  endfacet
  facet normal -1.000000e+00 -0.000000e+00 0.000000e+00
    outer loop
      vertex   1.700000e-02 6.444049e-03 -4.373391e-02
      vertex   1.700000e-02 5.792468e-03 -4.493031e-02
      vertex   1.700000e-02 6.851553e-03 -4.243395e-02
    endloop
  endfacet
  facet normal -1.000000e+00 0.000000e+00 0.000000e+00
    outer loop
      vertex   1.700000e-02 6.851553e-03 -4.243395e-02
      vertex   1.700000e-02 5.792468e-03 -4.493031e-02
      vertex   1.700000e-02 4.921492e-03 -4.597784e-02
    endloop
  endfacet
  facet normal -1.000000e+00 0.000000e+00 0.000000e+00
    outer loop
      vertex   1.700000e-02 6.851553e-03 -4.243395e-02
      vertex   1.700000e-02 4.921492e-03 -4.597784e-02
      vertex   1.700000e-02 3.864108e-03 -4.683684e-02
    endloop
  endfacet
  facet normal -1.000000e+00 4.500506e-15 -3.053684e-15
    outer loop
      vertex   1.700000e-02 3.864108e-03 -4.683684e-02
      vertex   1.700000e-02 2.660367e-03 -4.747475e-02
      vertex   1.700000e-02 6.851553e-03 -4.243395e-02
    endloop
  endfacet
  facet normal -1.000000e+00 -2.763463e-16 9.180419e-16
    outer loop
      vertex   1.700000e-02 6.851553e-03 -4.243395e-02
      vertex   1.700000e-02 2.660367e-03 -4.747475e-02
      vertex   1.700000e-02 1.355861e-03 -4.786743e-02
    endloop
  endfacet
  facet normal -1.000000e+00 -6.928268e-17 7.086074e-16
    outer loop
      vertex   1.700000e-02 6.851553e-03 -4.243395e-02
      vertex   1.700000e-02 1.355861e-03 -4.786743e-02
      vertex   1.700000e-02 -7.771561e-18 -4.800000e-02
    endloop
  endfacet
  facet normal -1.000000e+00 -2.763463e-16 -9.180419e-16
    outer loop
      vertex   1.700000e-02 -1.355861e-03 -4.786743e-02
      vertex   1.700000e-02 -2.660367e-03 -4.747475e-02
      vertex   1.700000e-02 -6.851553e-03 -4.243395e-02
    endloop
  endfacet
  facet normal -1.000000e+00 -6.520618e-16 -1.230431e-15
    outer loop
      vertex   1.700000e-02 -6.851553e-03 -4.243395e-02
      vertex   1.700000e-02 -2.660367e-03 -4.747475e-02
      vertex   1.700000e-02 -3.864108e-03 -4.683684e-02
    endloop
  endfacet
  facet normal -1.000000e+00 5.884797e-15 3.204959e-15
    outer loop
      vertex   1.700000e-02 -6.851553e-03 -4.243395e-02
      vertex   1.700000e-02 -3.864108e-03 -4.683684e-02
      vertex   1.700000e-02 -4.921492e-03 -4.597784e-02
    endloop
  endfacet
  facet normal -1.000000e+00 0.000000e+00 0.000000e+00
    outer loop
      vertex   1.700000e-02 -4.921492e-03 -4.597784e-02
      vertex   1.700000e-02 -5.792468e-03 -4.493031e-02
      vertex   1.700000e-02 -6.851553e-03 -4.243395e-02
    endloop
  endfacet
  facet normal -1.000000e+00 0.000000e+00 0.000000e+00
    outer loop
      vertex   1.700000e-02 -6.851553e-03 -4.243395e-02
      vertex   1.700000e-02 -5.792468e-03 -4.493031e-02
      vertex   1.700000e-02 -6.444049e-03 -4.373391e-02
    endloop
  endfacet
  facet normal 1.000000e+00 -9.251859e-16 1.936312e-16
    outer loop
      vertex   -3.900000e-02 1.500000e-02 -3.500000e-03
      vertex   -3.900000e-02 -1.500000e-02 -3.500000e-03
      vertex   -3.900000e-02 6.851553e-03 -4.243395e-02
    endloop
  endfacet
  facet normal 1.000000e+00 -1.012748e-15 1.444874e-16
    outer loop
      vertex   -3.900000e-02 6.851553e-03 -4.243395e-02
      vertex   -3.900000e-02 -1.500000e-02 -3.500000e-03
      vertex   -3.900000e-02 -6.851553e-03 -4.243395e-02
    endloop
  endfacet
  facet normal 1.000000e+00 -1.012748e-15 1.246647e-15
    outer loop
      vertex   -3.900000e-02 6.851553e-03 -4.243395e-02
      vertex   -3.900000e-02 -6.851553e-03 -4.243395e-02
      vertex   -3.900000e-02 9.270362e-17 -4.800000e-02
    endloop
  endfacet
  facet normal 1.000000e+00 -5.540784e-15 -4.327163e-15
    outer loop
      vertex   -3.900000e-02 9.270362e-17 -4.800000e-02
      vertex   -3.900000e-02 -6.851553e-03 -4.243395e-02
      vertex   -3.900000e-02 -1.355861e-03 -4.786743e-02
    endloop
  endfacet
  facet normal 1.000000e+00 5.526927e-16 1.836084e-15
    outer loop
      vertex   -3.900000e-02 -1.355861e-03 -4.786743e-02
      vertex   -3.900000e-02 -6.851553e-03 -4.243395e-02
      vertex   -3.900000e-02 -2.660367e-03 -4.747475e-02
    endloop
  endfacet
  facet normal 1.000000e+00 -9.001012e-15 -6.107368e-15
    outer loop
      vertex   -3.900000e-02 -2.660367e-03 -4.747475e-02
      vertex   -3.900000e-02 -6.851553e-03 -4.243395e-02
      vertex   -3.900000e-02 -3.864108e-03 -4.683684e-02
    endloop
  endfacet
  facet normal 1.000000e+00 0.000000e+00 0.000000e+00
    outer loop
      vertex   -3.900000e-02 -3.864108e-03 -4.683684e-02
      vertex   -3.900000e-02 -6.851553e-03 -4.243395e-02
      vertex   -3.900000e-02 -4.921492e-03 -4.597784e-02
    endloop
  endfacet
  facet normal 1.000000e+00 0.000000e+00 0.000000e+00
    outer loop
      vertex   -3.900000e-02 -4.921492e-03 -4.597784e-02
      vertex   -3.900000e-02 -6.851553e-03 -4.243395e-02
      vertex   -3.900000e-02 -5.792468e-03 -4.493031e-02
    endloop
  endfacet
  facet normal 1.000000e+00 0.000000e+00 0.000000e+00
    outer loop
      vertex   -3.900000e-02 -5.792468e-03 -4.493031e-02
      vertex   -3.900000e-02 -6.851553e-03 -4.243395e-02
      vertex   -3.900000e-02 -6.444049e-03 -4.373391e-02
    endloop
  endfacet
  facet normal 1.000000e+00 0.000000e+00 0.000000e+00
    outer loop
      vertex   -3.900000e-02 9.270362e-17 -4.800000e-02
      vertex   -3.900000e-02 1.355861e-03 -4.786743e-02
      vertex   -3.900000e-02 6.851553e-03 -4.243395e-02
    endloop
  endfacet
  facet normal 1.000000e+00 0.000000e+00 0.000000e+00
    outer loop
      vertex   -3.900000e-02 6.851553e-03 -4.243395e-02
      vertex   -3.900000e-02 1.355861e-03 -4.786743e-02
      vertex   -3.900000e-02 2.660367e-03 -4.747475e-02
    endloop
  endfacet
  facet normal 1.000000e+00 0.000000e+00 0.000000e+00
    outer loop
      vertex   -3.900000e-02 6.851553e-03 -4.243395e-02
      vertex   -3.900000e-02 2.660367e-03 -4.747475e-02
      vertex   -3.900000e-02 3.864108e-03 -4.683684e-02
    endloop
  endfacet
  facet normal 1.000000e+00 0.000000e+00 0.000000e+00
    outer loop
      vertex   -3.900000e-02 3.864108e-03 -4.683684e-02
      vertex   -3.900000e-02 4.921492e-03 -4.597784e-02
      vertex   -3.900000e-02 6.851553e-03 -4.243395e-02
    endloop
  endfacet
  facet normal 1.000000e+00 0.000000e+00 0.000000e+00
    outer loop
      vertex   -3.900000e-02 6.851553e-03 -4.243395e-02
      vertex   -3.900000e-02 4.921492e-03 -4.597784e-02
      vertex   -3.900000e-02 5.792468e-03 -4.493031e-02
    endloop
  endfacet
  facet normal 1.000000e+00 0.000000e+00 0.000000e+00
    outer loop
      vertex   -3.900000e-02 6.851553e-03 -4.243395e-02
      vertex   -3.900000e-02 5.792468e-03 -4.493031e-02
      vertex   -3.900000e-02 6.444049e-03 -4.373391e-02
    endloop
  endfacet
  facet normal 4.841177e-01 -8.750029e-01 0.000000e+00
    outer loop
      vertex   9.583319e-03 -1.500000e-02 -3.500000e-03
      vertex   9.583319e-03 -1.500000e-02 1.500000e-03
      vertex   7.616896e-03 -1.608797e-02 -3.500000e-03
    endloop
  endfacet
  facet normal 4.841177e-01 -8.750029e-01 -8.398103e-17
    outer loop
      vertex   7.616896e-03 -1.608797e-02 -3.500000e-03
      vertex   9.583319e-03 -1.500000e-02 1.500000e-03
      vertex   7.616896e-03 -1.608797e-02 1.500000e-03
    endloop
  endfacet
  facet normal 3.700064e-01 -9.290292e-01 -6.418588e-17
    outer loop
      vertex   7.616896e-03 -1.608797e-02 -3.500000e-03
      vertex   7.616896e-03 -1.608797e-02 1.500000e-03
      vertex   5.529059e-03 -1.691950e-02 -3.500000e-03
    endloop
  endfacet
  facet normal 3.700064e-01 -9.290292e-01 -6.446435e-16
    outer loop
      vertex   5.529059e-03 -1.691950e-02 -3.500000e-03
      vertex   7.616896e-03 -1.608797e-02 1.500000e-03
      vertex   5.529059e-03 -1.691950e-02 1.500000e-03
    endloop
  endfacet
  facet normal 2.499971e-01 -9.682466e-01 -6.718560e-16
    outer loop
      vertex   5.529059e-03 -1.691950e-02 -3.500000e-03
      vertex   5.529059e-03 -1.691950e-02 1.500000e-03
      vertex   3.353087e-03 -1.748133e-02 -3.500000e-03
    endloop
  endfacet
  facet normal 2.499971e-01 -9.682466e-01 6.284884e-16
    outer loop
      vertex   3.353087e-03 -1.748133e-02 -3.500000e-03
      vertex   5.529059e-03 -1.691950e-02 1.500000e-03
      vertex   3.353087e-03 -1.748133e-02 1.500000e-03
    endloop
  endfacet
  facet normal 1.260028e-01 -9.920299e-01 6.665010e-16
    outer loop
      vertex   3.353087e-03 -1.748133e-02 -3.500000e-03
      vertex   3.353087e-03 -1.748133e-02 1.500000e-03
      vertex   1.123666e-03 -1.776450e-02 -3.500000e-03
    endloop
  endfacet
  facet normal 1.260028e-01 -9.920299e-01 0.000000e+00
    outer loop
      vertex   1.123666e-03 -1.776450e-02 -3.500000e-03
      vertex   3.353087e-03 -1.748133e-02 1.500000e-03
      vertex   1.123666e-03 -1.776450e-02 1.500000e-03
    endloop
  endfacet
  facet normal 0.000000e+00 -1.000000e+00 0.000000e+00
    outer loop
      vertex   1.123666e-03 -1.776450e-02 -3.500000e-03
      vertex   1.123666e-03 -1.776450e-02 1.500000e-03
      vertex   -1.123666e-03 -1.776450e-02 -3.500000e-03
    endloop
  endfacet
  facet normal 0.000000e+00 -1.000000e+00 0.000000e+00
    outer loop
      vertex   -1.123666e-03 -1.776450e-02 -3.500000e-03
      vertex   1.123666e-03 -1.776450e-02 1.500000e-03
      vertex   -1.123666e-03 -1.776450e-02 1.500000e-03
    endloop
  endfacet
  facet normal -1.260028e-01 -9.920299e-01 2.732250e-17
    outer loop
      vertex   -1.123666e-03 -1.776450e-02 -3.500000e-03
      vertex   -1.123666e-03 -1.776450e-02 1.500000e-03
      vertex   -3.353087e-03 -1.748133e-02 -3.500000e-03
    endloop
  endfacet
  facet normal -1.260028e-01 -9.920299e-01 5.464501e-17
    outer loop
      vertex   -3.353087e-03 -1.748133e-02 -3.500000e-03
      vertex   -1.123666e-03 -1.776450e-02 1.500000e-03
      vertex   -3.353087e-03 -1.748133e-02 1.500000e-03
    endloop
  endfacet
  facet normal -2.499971e-01 -9.682466e-01 1.084190e-16
    outer loop
      vertex   -3.353087e-03 -1.748133e-02 -3.500000e-03
      vertex   -3.353087e-03 -1.748133e-02 1.500000e-03
      vertex   -5.529059e-03 -1.691950e-02 -3.500000e-03
    endloop
  endfacet
  facet normal -2.499971e-01 -9.682466e-01 1.734703e-16
    outer loop
      vertex   -5.529059e-03 -1.691950e-02 -3.500000e-03
      vertex   -3.353087e-03 -1.748133e-02 1.500000e-03
      vertex   -5.529059e-03 -1.691950e-02 1.500000e-03
    endloop
  endfacet
  facet normal -3.700064e-01 -9.290292e-01 2.567435e-16
    outer loop
      vertex   -5.529059e-03 -1.691950e-02 -3.500000e-03
      vertex   -5.529059e-03 -1.691950e-02 1.500000e-03
      vertex   -7.616896e-03 -1.608797e-02 -3.500000e-03
    endloop
  endfacet
  facet normal -3.700064e-01 -9.290292e-01 1.283718e-16
    outer loop
      vertex   -7.616896e-03 -1.608797e-02 -3.500000e-03
      vertex   -5.529059e-03 -1.691950e-02 1.500000e-03
      vertex   -7.616896e-03 -1.608797e-02 1.500000e-03
    endloop
  endfacet
  facet normal -4.841177e-01 -8.750029e-01 1.679621e-16
    outer loop
      vertex   -7.616896e-03 -1.608797e-02 -3.500000e-03
      vertex   -7.616896e-03 -1.608797e-02 1.500000e-03
      vertex   -9.583319e-03 -1.500000e-02 -3.500000e-03
    endloop
  endfacet
  facet normal -4.841177e-01 -8.750029e-01 0.000000e+00
    outer loop
      vertex   -9.583319e-03 -1.500000e-02 -3.500000e-03
      vertex   -7.616896e-03 -1.608797e-02 1.500000e-03
      vertex   -9.583319e-03 -1.500000e-02 1.500000e-03
    endloop
  endfacet
  facet normal 4.841177e-01 8.750029e-01 0.000000e+00
    outer loop
      vertex   9.583319e-03 1.500000e-02 1.500000e-03
      vertex   9.583319e-03 1.500000e-02 -3.500000e-03
      vertex   7.616896e-03 1.608797e-02 1.500000e-03
    endloop
  endfacet
  facet normal 4.841177e-01 8.750029e-01 0.000000e+00
    outer loop
      vertex   7.616896e-03 1.608797e-02 1.500000e-03
      vertex   9.583319e-03 1.500000e-02 -3.500000e-03
      vertex   7.616896e-03 1.608797e-02 -3.500000e-03
    endloop
  endfacet
  facet normal 3.700064e-01 9.290292e-01 0.000000e+00
    outer loop
      vertex   7.616896e-03 1.608797e-02 1.500000e-03
      vertex   7.616896e-03 1.608797e-02 -3.500000e-03
      vertex   5.529059e-03 1.691950e-02 1.500000e-03
    endloop
  endfacet
  facet normal 3.700064e-01 9.290292e-01 0.000000e+00
    outer loop
      vertex   5.529059e-03 1.691950e-02 1.500000e-03
      vertex   7.616896e-03 1.608797e-02 -3.500000e-03
      vertex   5.529059e-03 1.691950e-02 -3.500000e-03
    endloop
  endfacet
  facet normal 2.499971e-01 9.682466e-01 0.000000e+00
    outer loop
      vertex   5.529059e-03 1.691950e-02 1.500000e-03
      vertex   5.529059e-03 1.691950e-02 -3.500000e-03
      vertex   3.353087e-03 1.748133e-02 1.500000e-03
    endloop
  endfacet
  facet normal 2.499971e-01 9.682466e-01 -6.505138e-17
    outer loop
      vertex   3.353087e-03 1.748133e-02 1.500000e-03
      vertex   5.529059e-03 1.691950e-02 -3.500000e-03
      vertex   3.353087e-03 1.748133e-02 -3.500000e-03
    endloop
  endfacet
  facet normal 1.260028e-01 9.920299e-01 -3.278701e-17
    outer loop
      vertex   3.353087e-03 1.748133e-02 1.500000e-03
      vertex   3.353087e-03 1.748133e-02 -3.500000e-03
      vertex   1.123666e-03 1.776450e-02 1.500000e-03
    endloop
  endfacet
  facet normal 1.260028e-01 9.920299e-01 0.000000e+00
    outer loop
      vertex   1.123666e-03 1.776450e-02 1.500000e-03
      vertex   3.353087e-03 1.748133e-02 -3.500000e-03
      vertex   1.123666e-03 1.776450e-02 -3.500000e-03
    endloop
  endfacet
  facet normal 0.000000e+00 1.000000e+00 0.000000e+00
    outer loop
      vertex   1.123666e-03 1.776450e-02 1.500000e-03
      vertex   1.123666e-03 1.776450e-02 -3.500000e-03
      vertex   -1.123666e-03 1.776450e-02 1.500000e-03
    endloop
  endfacet
  facet normal 0.000000e+00 1.000000e+00 0.000000e+00
    outer loop
      vertex   -1.123666e-03 1.776450e-02 1.500000e-03
      vertex   1.123666e-03 1.776450e-02 -3.500000e-03
      vertex   -1.123666e-03 1.776450e-02 -3.500000e-03
    endloop
  endfacet
  facet normal -1.260028e-01 9.920299e-01 0.000000e+00
    outer loop
      vertex   -1.123666e-03 1.776450e-02 1.500000e-03
      vertex   -1.123666e-03 1.776450e-02 -3.500000e-03
      vertex   -3.353087e-03 1.748133e-02 1.500000e-03
    endloop
  endfacet
  facet normal -1.260028e-01 9.920299e-01 -6.009270e-16
    outer loop
      vertex   -3.353087e-03 1.748133e-02 1.500000e-03
      vertex   -1.123666e-03 1.776450e-02 -3.500000e-03
      vertex   -3.353087e-03 1.748133e-02 -3.500000e-03
    endloop
  endfacet
  facet normal -2.499971e-01 9.682466e-01 -4.983857e-16
    outer loop
      vertex   -3.353087e-03 1.748133e-02 1.500000e-03
      vertex   -3.353087e-03 1.748133e-02 -3.500000e-03
      vertex   -5.529059e-03 1.691950e-02 1.500000e-03
    endloop
  endfacet
  facet normal -2.499971e-01 9.682466e-01 0.000000e+00
    outer loop
      vertex   -5.529059e-03 1.691950e-02 1.500000e-03
      vertex   -3.353087e-03 1.748133e-02 -3.500000e-03
      vertex   -5.529059e-03 1.691950e-02 -3.500000e-03
    endloop
  endfacet
  facet normal -3.700064e-01 9.290292e-01 0.000000e+00
    outer loop
      vertex   -5.529059e-03 1.691950e-02 1.500000e-03
      vertex   -5.529059e-03 1.691950e-02 -3.500000e-03
      vertex   -7.616896e-03 1.608797e-02 1.500000e-03
    endloop
  endfacet
  facet normal -3.700064e-01 9.290292e-01 0.000000e+00
    outer loop
      vertex   -7.616896e-03 1.608797e-02 1.500000e-03
      vertex   -5.529059e-03 1.691950e-02 -3.500000e-03
      vertex   -7.616896e-03 1.608797e-02 -3.500000e-03
    endloop
  endfacet
  facet normal -4.841177e-01 8.750029e-01 0.000000e+00
    outer loop
      vertex   -7.616896e-03 1.608797e-02 1.500000e-03
      vertex   -7.616896e-03 1.608797e-02 -3.500000e-03
      vertex   -9.583319e-03 1.500000e-02 1.500000e-03
    endloop
  endfacet
  facet normal -4.841177e-01 8.750029e-01 0.000000e+00
    outer loop
      vertex   -9.583319e-03 1.500000e-02 1.500000e-03
      vertex   -7.616896e-03 1.608797e-02 -3.500000e-03
      vertex   -9.583319e-03 1.500000e-02 -3.500000e-03
    endloop
  endfacet
  facet normal -1.000000e+00 1.519121e-15 -3.179354e-16
    outer loop
      vertex   -4.400000e-02 6.851553e-03 -4.243395e-02
      vertex   -4.400000e-02 -6.851553e-03 -4.243395e-02
      vertex   -4.400000e-02 1.500000e-02 -3.500000e-03
    endloop
  endfacet
  facet normal -1.000000e+00 1.156482e-15 -1.144053e-16
    outer loop
      vertex   -4.400000e-02 1.500000e-02 -3.500000e-03
      vertex   -4.400000e-02 -6.851553e-03 -4.243395e-02
      vertex   -4.400000e-02 -1.500000e-02 -3.500000e-03
    endloop
  endfacet
  facet normal -1.000000e+00 1.156482e-15 0.000000e+00
    outer loop
      vertex   -4.400000e-02 1.500000e-02 -3.500000e-03
      vertex   -4.400000e-02 -1.500000e-02 -3.500000e-03
      vertex   -4.400000e-02 -1.500000e-02 1.500000e-03
    endloop
  endfacet
  facet normal -1.000000e+00 -0.000000e+00 0.000000e+00
    outer loop
      vertex   -4.400000e-02 6.444049e-03 -4.373391e-02
      vertex   -4.400000e-02 5.792468e-03 -4.493031e-02
      vertex   -4.400000e-02 6.851553e-03 -4.243395e-02
    endloop
  endfacet
  facet normal -1.000000e+00 1.626723e-14 -6.901419e-15
    outer loop
      vertex   -4.400000e-02 6.851553e-03 -4.243395e-02
      vertex   -4.400000e-02 5.792468e-03 -4.493031e-02
      vertex   -4.400000e-02 4.921492e-03 -4.597784e-02
    endloop
  endfacet
  facet normal -1.000000e+00 -2.852804e-15 3.511674e-15
    outer loop
      vertex   -4.400000e-02 6.851553e-03 -4.243395e-02
      vertex   -4.400000e-02 4.921492e-03 -4.597784e-02
      vertex   -4.400000e-02 3.864108e-03 -4.683684e-02
    endloop
  endfacet
  facet normal -1.000000e+00 -1.304124e-15 2.460863e-15
    outer loop
      vertex   -4.400000e-02 3.864108e-03 -4.683684e-02
      vertex   -4.400000e-02 2.660367e-03 -4.747475e-02
      vertex   -4.400000e-02 6.851553e-03 -4.243395e-02
    endloop
  endfacet
  facet normal -1.000000e+00 -5.526927e-16 1.836084e-15
    outer loop
      vertex   -4.400000e-02 6.851553e-03 -4.243395e-02
      vertex   -4.400000e-02 2.660367e-03 -4.747475e-02
      vertex   -4.400000e-02 1.355861e-03 -4.786743e-02
    endloop
  endfacet
  facet normal -1.000000e+00 -1.385654e-16 1.417215e-15
    outer loop
      vertex   -4.400000e-02 6.851553e-03 -4.243395e-02
      vertex   -4.400000e-02 1.355861e-03 -4.786743e-02
      vertex   -4.400000e-02 9.825474e-17 -4.800000e-02
    endloop
  endfacet
  facet normal -1.000000e+00 1.519121e-15 -6.233235e-16
    outer loop
      vertex   -4.400000e-02 6.851553e-03 -4.243395e-02
      vertex   -4.400000e-02 9.825474e-17 -4.800000e-02
      vertex   -4.400000e-02 -6.851553e-03 -4.243395e-02
    endloop
  endfacet
  facet normal -1.000000e+00 -2.771307e-16 -2.834429e-15
    outer loop
      vertex   -4.400000e-02 -6.851553e-03 -4.243395e-02
      vertex   -4.400000e-02 9.825474e-17 -4.800000e-02
      vertex   -4.400000e-02 -1.355861e-03 -4.786743e-02
    endloop
  endfacet
  facet normal -1.000000e+00 -1.105385e-15 -3.672168e-15
    outer loop
      vertex   -4.400000e-02 -6.851553e-03 -4.243395e-02
      vertex   -4.400000e-02 -1.355861e-03 -4.786743e-02
      vertex   -4.400000e-02 -2.660367e-03 -4.747475e-02
    endloop
  endfacet
  facet normal -1.000000e+00 1.800202e-14 1.221474e-14
    outer loop
      vertex   -4.400000e-02 -2.660367e-03 -4.747475e-02
      vertex   -4.400000e-02 -3.864108e-03 -4.683684e-02
      vertex   -4.400000e-02 -6.851553e-03 -4.243395e-02
    endloop
  endfacet
  facet normal -1.000000e+00 0.000000e+00 0.000000e+00
    outer loop
      vertex   -4.400000e-02 -6.851553e-03 -4.243395e-02
      vertex   -4.400000e-02 -3.864108e-03 -4.683684e-02
      vertex   -4.400000e-02 -4.921492e-03 -4.597784e-02
    endloop
  endfacet
  facet normal -1.000000e+00 0.000000e+00 0.000000e+00
    outer loop
      vertex   -4.400000e-02 -6.851553e-03 -4.243395e-02
      vertex   -4.400000e-02 -4.921492e-03 -4.597784e-02
      vertex   -4.400000e-02 -5.792468e-03 -4.493031e-02
    endloop
  endfacet
  facet normal -1.000000e+00 0.000000e+00 0.000000e+00
    outer loop
      vertex   -4.400000e-02 -5.792468e-03 -4.493031e-02
      vertex   -4.400000e-02 -6.444049e-03 -4.373391e-02
      vertex   -4.400000e-02 -6.851553e-03 -4.243395e-02
    endloop
  endfacet
  facet normal -1.000000e+00 1.156482e-15 -1.283953e-30
    outer loop
      vertex   -4.400000e-02 -1.500000e-02 1.500000e-03
      vertex   -4.400000e-02 1.500000e-02 1.500000e-03
      vertex   -4.400000e-02 1.500000e-02 -3.500000e-03
    endloop
  endfacet
  facet normal -6.791742e-16 -9.787932e-01 -2.048506e-01
    outer loop
      vertex   -4.400000e-02 -1.500000e-02 -3.500000e-03
      vertex   -4.400000e-02 -6.851553e-03 -4.243395e-02
      vertex   -3.900000e-02 -1.500000e-02 -3.500000e-03
    endloop
  endfacet
  facet normal -5.451333e-16 -9.787932e-01 -2.048506e-01
    outer loop
      vertex   -3.900000e-02 -1.500000e-02 -3.500000e-03
      vertex   -4.400000e-02 -6.851553e-03 -4.243395e-02
      vertex   -3.900000e-02 -6.851553e-03 -4.243395e-02
    endloop
  endfacet
  facet normal -2.358830e-15 -1.000000e+00 0.000000e+00
    outer loop
      vertex   -9.583319e-03 -1.500000e-02 -3.500000e-03
      vertex   -9.583319e-03 -1.500000e-02 1.500000e-03
      vertex   -3.900000e-02 -1.500000e-02 -3.500000e-03
    endloop
  endfacet
  facet normal -2.116950e-15 -1.000000e+00 -1.423060e-15
    outer loop
      vertex   -3.900000e-02 -1.500000e-02 -3.500000e-03
      vertex   -9.583319e-03 -1.500000e-02 1.500000e-03
      vertex   -4.400000e-02 -1.500000e-02 1.500000e-03
    endloop
  endfacet
  facet normal -6.938894e-16 -1.000000e+00 0.000000e+00
    outer loop
      vertex   -3.900000e-02 -1.500000e-02 -3.500000e-03
      vertex   -4.400000e-02 -1.500000e-02 1.500000e-03
      vertex   -4.400000e-02 -1.500000e-02 -3.500000e-03
    endloop
  endfacet
  facet normal 3.469447e-16 1.000000e+00 -1.734723e-15
    outer loop
      vertex   -4.400000e-02 1.500000e-02 -3.500000e-03
      vertex   -4.400000e-02 1.500000e-02 1.500000e-03
      vertex   -3.900000e-02 1.500000e-02 -3.500000e-03
    endloop
  endfacet
  facet normal 2.066546e-15 1.000000e+00 -1.512195e-17
    outer loop
      vertex   -3.900000e-02 1.500000e-02 -3.500000e-03
      vertex   -4.400000e-02 1.500000e-02 1.500000e-03
      vertex   -9.583319e-03 1.500000e-02 1.500000e-03
    endloop
  endfacet
  facet normal 2.063976e-15 1.000000e+00 0.000000e+00
    outer loop
      vertex   -3.900000e-02 1.500000e-02 -3.500000e-03
      vertex   -9.583319e-03 1.500000e-02 1.500000e-03
      vertex   -9.583319e-03 1.500000e-02 -3.500000e-03
    endloop
  endfacet
  facet normal 1.018761e-15 9.787932e-01 -2.048506e-01
    outer loop
      vertex   -4.400000e-02 6.851553e-03 -4.243395e-02
      vertex   -4.400000e-02 1.500000e-02 -3.500000e-03
      vertex   -3.900000e-02 6.851553e-03 -4.243395e-02
    endloop
  endfacet
  facet normal 5.451333e-16 9.787932e-01 -2.048506e-01
    outer loop
      vertex   -3.900000e-02 6.851553e-03 -4.243395e-02
      vertex   -4.400000e-02 1.500000e-02 -3.500000e-03
      vertex   -3.900000e-02 1.500000e-02 -3.500000e-03
    endloop
  endfacet
  facet normal -9.931788e-16 -9.542143e-01 -2.991238e-01
    outer loop
      vertex   -3.900000e-02 -6.851553e-03 -4.243395e-02
      vertex   -4.400000e-02 -6.851553e-03 -4.243395e-02
      vertex   -3.900000e-02 -6.444049e-03 -4.373391e-02
    endloop
  endfacet
  facet normal -9.931788e-16 -9.542143e-01 -2.991238e-01
    outer loop
      vertex   -3.900000e-02 -6.444049e-03 -4.373391e-02
      vertex   -4.400000e-02 -6.851553e-03 -4.243395e-02
      vertex   -4.400000e-02 -6.444049e-03 -4.373391e-02
    endloop
  endfacet
  facet normal -9.140654e-16 -8.782047e-01 -4.782850e-01
    outer loop
      vertex   -3.900000e-02 -6.444049e-03 -4.373391e-02
      vertex   -4.400000e-02 -6.444049e-03 -4.373391e-02
      vertex   -3.900000e-02 -5.792468e-03 -4.493031e-02
    endloop
  endfacet
  facet normal -1.066410e-15 -8.782047e-01 -4.782850e-01
    outer loop
      vertex   -3.900000e-02 -5.792468e-03 -4.493031e-02
      vertex   -4.400000e-02 -6.444049e-03 -4.373391e-02
      vertex   -4.400000e-02 -5.792468e-03 -4.493031e-02
    endloop
  endfacet
  facet normal -9.337192e-16 -7.689321e-01 -6.393305e-01
    outer loop
      vertex   -3.900000e-02 -5.792468e-03 -4.493031e-02
      vertex   -4.400000e-02 -5.792468e-03 -4.493031e-02
      vertex   -3.900000e-02 -4.921492e-03 -4.597784e-02
    endloop
  endfacet
  facet normal -8.003307e-16 -7.689321e-01 -6.393305e-01
    outer loop
      vertex   -3.900000e-02 -4.921492e-03 -4.597784e-02
      vertex   -4.400000e-02 -5.792468e-03 -4.493031e-02
      vertex   -4.400000e-02 -4.921492e-03 -4.597784e-02
    endloop
  endfacet
  facet normal -6.562826e-16 -6.305352e-01 -7.761606e-01
    outer loop
      vertex   -3.900000e-02 -4.921492e-03 -4.597784e-02
      vertex   -4.400000e-02 -4.921492e-03 -4.597784e-02
      vertex   -3.900000e-02 -3.864108e-03 -4.683684e-02
    endloop
  endfacet
  facet normal -7.109728e-16 -6.305352e-01 -7.761606e-01
    outer loop
      vertex   -3.900000e-02 -3.864108e-03 -4.683684e-02
      vertex   -4.400000e-02 -4.921492e-03 -4.597784e-02
      vertex   -4.400000e-02 -3.864108e-03 -4.683684e-02
    endloop
  endfacet
  facet normal -5.279917e-16 -4.682561e-01 -8.835928e-01
    outer loop
      vertex   -3.900000e-02 -3.864108e-03 -4.683684e-02
      vertex   -4.400000e-02 -3.864108e-03 -4.683684e-02
      vertex   -3.900000e-02 -2.660367e-03 -4.747475e-02
    endloop
  endfacet
  facet normal -5.279917e-16 -4.682561e-01 -8.835928e-01
    outer loop
      vertex   -3.900000e-02 -2.660367e-03 -4.747475e-02
      vertex   -4.400000e-02 -3.864108e-03 -4.683684e-02
      vertex   -4.400000e-02 -2.660367e-03 -4.747475e-02
    endloop
  endfacet
  facet normal -3.250123e-16 -2.882413e-01 -9.575578e-01
    outer loop
      vertex   -3.900000e-02 -2.660367e-03 -4.747475e-02
      vertex   -4.400000e-02 -2.660367e-03 -4.747475e-02
      vertex   -3.900000e-02 -1.355861e-03 -4.786743e-02
    endloop
  endfacet
  facet normal -3.250123e-16 -2.882413e-01 -9.575578e-01
    outer loop
      vertex   -3.900000e-02 -1.355861e-03 -4.786743e-02
      vertex   -4.400000e-02 -2.660367e-03 -4.747475e-02
      vertex   -4.400000e-02 -1.355861e-03 -4.786743e-02
    endloop
  endfacet
  facet normal -1.097227e-16 -9.730900e-02 -9.952542e-01
    outer loop
      vertex   -3.900000e-02 -1.355861e-03 -4.786743e-02
      vertex   -4.400000e-02 -1.355861e-03 -4.786743e-02
      vertex   -3.900000e-02 9.270362e-17 -4.800000e-02
    endloop
  endfacet
  facet normal -1.080347e-16 -9.730900e-02 -9.952542e-01
    outer loop
      vertex   -3.900000e-02 9.270362e-17 -4.800000e-02
      vertex   -4.400000e-02 -1.355861e-03 -4.786743e-02
      vertex   -4.400000e-02 9.825474e-17 -4.800000e-02
    endloop
  endfacet
  facet normal 1.080347e-16 9.730900e-02 -9.952542e-01
    outer loop
      vertex   -3.900000e-02 9.270362e-17 -4.800000e-02
      vertex   -4.400000e-02 9.825474e-17 -4.800000e-02
      vertex   -3.900000e-02 1.355861e-03 -4.786743e-02
    endloop
  endfacet
  facet normal 1.097227e-16 9.730900e-02 -9.952542e-01
    outer loop
      vertex   -3.900000e-02 1.355861e-03 -4.786743e-02
      vertex   -4.400000e-02 9.825474e-17 -4.800000e-02
      vertex   -4.400000e-02 1.355861e-03 -4.786743e-02
    endloop
  endfacet
  facet normal 3.250123e-16 2.882413e-01 -9.575578e-01
    outer loop
      vertex   -3.900000e-02 1.355861e-03 -4.786743e-02
      vertex   -4.400000e-02 1.355861e-03 -4.786743e-02
      vertex   -3.900000e-02 2.660367e-03 -4.747475e-02
    endloop
  endfacet
  facet normal 3.250123e-16 2.882413e-01 -9.575578e-01
    outer loop
      vertex   -3.900000e-02 2.660367e-03 -4.747475e-02
      vertex   -4.400000e-02 1.355861e-03 -4.786743e-02
      vertex   -4.400000e-02 2.660367e-03 -4.747475e-02
    endloop
  endfacet
  facet normal 5.279917e-16 4.682561e-01 -8.835928e-01
    outer loop
      vertex   -3.900000e-02 2.660367e-03 -4.747475e-02
      vertex   -4.400000e-02 2.660367e-03 -4.747475e-02
      vertex   -3.900000e-02 3.864108e-03 -4.683684e-02
    endloop
  endfacet
  facet normal 5.279917e-16 4.682561e-01 -8.835928e-01
    outer loop
      vertex   -3.900000e-02 3.864108e-03 -4.683684e-02
      vertex   -4.400000e-02 2.660367e-03 -4.747475e-02
      vertex   -4.400000e-02 3.864108e-03 -4.683684e-02
    endloop
  endfacet
  facet normal 7.109728e-16 6.305352e-01 -7.761606e-01
    outer loop
      vertex   -3.900000e-02 3.864108e-03 -4.683684e-02
      vertex   -4.400000e-02 3.864108e-03 -4.683684e-02
      vertex   -3.900000e-02 4.921492e-03 -4.597784e-02
    endloop
  endfacet
  facet normal 6.562826e-16 6.305352e-01 -7.761606e-01
    outer loop
      vertex   -3.900000e-02 4.921492e-03 -4.597784e-02
      vertex   -4.400000e-02 3.864108e-03 -4.683684e-02
      vertex   -4.400000e-02 4.921492e-03 -4.597784e-02
    endloop
  endfacet
  facet normal 8.003307e-16 7.689321e-01 -6.393305e-01
    outer loop
      vertex   -3.900000e-02 4.921492e-03 -4.597784e-02
      vertex   -4.400000e-02 4.921492e-03 -4.597784e-02
      vertex   -3.900000e-02 5.792468e-03 -4.493031e-02
    endloop
  endfacet
  facet normal 8.003307e-16 7.689321e-01 -6.393305e-01
    outer loop
      vertex   -3.900000e-02 5.792468e-03 -4.493031e-02
      vertex   -4.400000e-02 4.921492e-03 -4.597784e-02
      vertex   -4.400000e-02 5.792468e-03 -4.493031e-02
    endloop
  endfacet
  facet normal 9.140654e-16 8.782047e-01 -4.782850e-01
    outer loop
      vertex   -3.900000e-02 5.792468e-03 -4.493031e-02
      vertex   -4.400000e-02 5.792468e-03 -4.493031e-02
      vertex   -3.900000e-02 6.444049e-03 -4.373391e-02
    endloop
  endfacet
  facet normal 1.218754e-15 8.782047e-01 -4.782850e-01
    outer loop
      vertex   -3.900000e-02 6.444049e-03 -4.373391e-02
      vertex   -4.400000e-02 5.792468e-03 -4.493031e-02
      vertex   -4.400000e-02 6.444049e-03 -4.373391e-02
    endloop
  endfacet
  facet normal 1.324238e-15 9.542143e-01 -2.991238e-01
    outer loop
      vertex   -3.900000e-02 6.444049e-03 -4.373391e-02
      vertex   -4.400000e-02 6.444049e-03 -4.373391e-02
      vertex   -3.900000e-02 6.851553e-03 -4.243395e-02
    endloop
  endfacet
  facet normal 9.931788e-16 9.542143e-01 -2.991238e-01
    outer loop
      vertex   -3.900000e-02 6.851553e-03 -4.243395e-02
      vertex   -4.400000e-02 6.444049e-03 -4.373391e-02
      vertex   -4.400000e-02 6.851553e-03 -4.243395e-02
    endloop
  endfacet
  facet normal 1.000000e+00 -5.782412e-16 0.000000e+00
    outer loop
      vertex   2.200000e-02 -1.500000e-02 1.500000e-03
      vertex   2.200000e-02 -1.500000e-02 -3.500000e-03
      vertex   2.200000e-02 1.500000e-02 -3.500000e-03
    endloop
  endfacet
  facet normal 1.000000e+00 -5.782412e-16 1.463138e-16
    outer loop
      vertex   2.200000e-02 1.500000e-02 -3.500000e-03
      vertex   2.200000e-02 -1.500000e-02 -3.500000e-03
      vertex   2.200000e-02 -6.851553e-03 -4.243395e-02
    endloop
  endfacet
  facet normal 1.000000e+00 -5.063738e-16 1.059785e-16
    outer loop
      vertex   2.200000e-02 1.500000e-02 -3.500000e-03
      vertex   2.200000e-02 -6.851553e-03 -4.243395e-02
      vertex   2.200000e-02 6.851553e-03 -4.243395e-02
    endloop
  endfacet
  facet normal 1.000000e+00 -5.063738e-16 -3.156347e-31
    outer loop
      vertex   2.200000e-02 6.851553e-03 -4.243395e-02
      vertex   2.200000e-02 -6.851553e-03 -4.243395e-02
      vertex   2.200000e-02 -1.137979e-17 -4.800000e-02
    endloop
  endfacet
  facet normal 1.000000e+00 6.928268e-17 -7.086074e-16
    outer loop
      vertex   2.200000e-02 6.851553e-03 -4.243395e-02
      vertex   2.200000e-02 -1.137979e-17 -4.800000e-02
      vertex   2.200000e-02 1.355861e-03 -4.786743e-02
    endloop
  endfacet
  facet normal 1.000000e+00 -0.000000e+00 -0.000000e+00
    outer loop
      vertex   2.200000e-02 -6.444049e-03 -4.373391e-02
      vertex   2.200000e-02 -5.792468e-03 -4.493031e-02
      vertex   2.200000e-02 -6.851553e-03 -4.243395e-02
    endloop
  endfacet
  facet normal 1.000000e+00 0.000000e+00 0.000000e+00
    outer loop
      vertex   2.200000e-02 -6.851553e-03 -4.243395e-02
      vertex   2.200000e-02 -5.792468e-03 -4.493031e-02
      vertex   2.200000e-02 -4.921492e-03 -4.597784e-02
    endloop
  endfacet
  facet normal 1.000000e+00 0.000000e+00 0.000000e+00
    outer loop
      vertex   2.200000e-02 -6.851553e-03 -4.243395e-02
      vertex   2.200000e-02 -4.921492e-03 -4.597784e-02
      vertex   2.200000e-02 -3.864108e-03 -4.683684e-02
    endloop
  endfacet
  facet normal 1.000000e+00 -0.000000e+00 -0.000000e+00
    outer loop
      vertex   2.200000e-02 -3.864108e-03 -4.683684e-02
      vertex   2.200000e-02 -2.660367e-03 -4.747475e-02
      vertex   2.200000e-02 -6.851553e-03 -4.243395e-02
    endloop
  endfacet
  facet normal 1.000000e+00 -3.547447e-15 -2.949534e-15
    outer loop
      vertex   2.200000e-02 -6.851553e-03 -4.243395e-02
      vertex   2.200000e-02 -2.660367e-03 -4.747475e-02
      vertex   2.200000e-02 -1.355861e-03 -4.786743e-02
    endloop
  endfacet
  facet normal 1.000000e+00 6.928268e-17 7.086074e-16
    outer loop
      vertex   2.200000e-02 -6.851553e-03 -4.243395e-02
      vertex   2.200000e-02 -1.355861e-03 -4.786743e-02
      vertex   2.200000e-02 -1.137979e-17 -4.800000e-02
    endloop
  endfacet
  facet normal 1.000000e+00 2.763463e-16 -9.180419e-16
    outer loop
      vertex   2.200000e-02 1.355861e-03 -4.786743e-02
      vertex   2.200000e-02 2.660367e-03 -4.747475e-02
      vertex   2.200000e-02 6.851553e-03 -4.243395e-02
    endloop
  endfacet
  facet normal 1.000000e+00 6.520618e-16 -1.230431e-15
    outer loop
      vertex   2.200000e-02 6.851553e-03 -4.243395e-02
      vertex   2.200000e-02 2.660367e-03 -4.747475e-02
      vertex   2.200000e-02 3.864108e-03 -4.683684e-02
    endloop
  endfacet
  facet normal 1.000000e+00 -5.884797e-15 3.204959e-15
    outer loop
      vertex   2.200000e-02 6.851553e-03 -4.243395e-02
      vertex   2.200000e-02 3.864108e-03 -4.683684e-02
      vertex   2.200000e-02 4.921492e-03 -4.597784e-02
    endloop
  endfacet
  facet normal 1.000000e+00 0.000000e+00 0.000000e+00
    outer loop
      vertex   2.200000e-02 4.921492e-03 -4.597784e-02
      vertex   2.200000e-02 5.792468e-03 -4.493031e-02
      vertex   2.200000e-02 6.851553e-03 -4.243395e-02
    endloop
  endfacet
  facet normal 1.000000e+00 0.000000e+00 0.000000e+00
    outer loop
      vertex   2.200000e-02 6.851553e-03 -4.243395e-02
      vertex   2.200000e-02 5.792468e-03 -4.493031e-02
      vertex   2.200000e-02 6.444049e-03 -4.373391e-02
    endloop
  endfacet
  facet normal 1.000000e+00 -5.782412e-16 1.003089e-30
    outer loop
      vertex   2.200000e-02 1.500000e-02 -3.500000e-03
      vertex   2.200000e-02 1.500000e-02 1.500000e-03
      vertex   2.200000e-02 -1.500000e-02 1.500000e-03
    endloop
  endfacet
  facet normal -8.410818e-16 -9.787932e-01 -2.048506e-01
    outer loop
      vertex   1.700000e-02 -1.500000e-02 -3.500000e-03
      vertex   1.700000e-02 -6.851553e-03 -4.243395e-02
      vertex   2.200000e-02 -1.500000e-02 -3.500000e-03
    endloop
  endfacet
  facet normal -5.451333e-16 -9.787932e-01 -2.048506e-01
    outer loop
      vertex   2.200000e-02 -1.500000e-02 -3.500000e-03
      vertex   1.700000e-02 -6.851553e-03 -4.243395e-02
      vertex   2.200000e-02 -6.851553e-03 -4.243395e-02
    endloop
  endfacet
  facet normal -1.040834e-15 -1.000000e+00 0.000000e+00
    outer loop
      vertex   2.200000e-02 -1.500000e-02 -3.500000e-03
      vertex   2.200000e-02 -1.500000e-02 1.500000e-03
      vertex   1.700000e-02 -1.500000e-02 -3.500000e-03
    endloop
  endfacet
  facet normal -1.117673e-15 -1.000000e+00 7.683880e-17
    outer loop
      vertex   1.700000e-02 -1.500000e-02 -3.500000e-03
      vertex   2.200000e-02 -1.500000e-02 1.500000e-03
      vertex   9.583319e-03 -1.500000e-02 1.500000e-03
    endloop
  endfacet
  facet normal -1.169474e-15 -1.000000e+00 0.000000e+00
    outer loop
      vertex   1.700000e-02 -1.500000e-02 -3.500000e-03
      vertex   9.583319e-03 -1.500000e-02 1.500000e-03
      vertex   9.583319e-03 -1.500000e-02 -3.500000e-03
    endloop
  endfacet
  facet normal 5.229370e-16 -6.047674e-31 1.000000e+00
    outer loop
      vertex   -4.400000e-02 1.500000e-02 1.500000e-03
      vertex   -4.400000e-02 -1.500000e-02 1.500000e-03
      vertex   -9.583319e-03 1.500000e-02 1.500000e-03
    endloop
  endfacet
  facet normal 6.363450e-16 -1.301043e-16 1.000000e+00
    outer loop
      vertex   -9.583319e-03 1.500000e-02 1.500000e-03
      vertex   -4.400000e-02 -1.500000e-02 1.500000e-03
      vertex   -9.583319e-03 -1.500000e-02 1.500000e-03
    endloop
  endfacet
  facet normal -5.656716e-17 -1.301043e-16 1.000000e+00
    outer loop
      vertex   -9.583319e-03 1.500000e-02 1.500000e-03
      vertex   -9.583319e-03 -1.500000e-02 1.500000e-03
      vertex   9.583319e-03 1.500000e-02 1.500000e-03
    endloop
  endfacet
  facet normal -5.656716e-17 -1.301043e-16 1.000000e+00
    outer loop
      vertex   9.583319e-03 1.500000e-02 1.500000e-03
      vertex   -9.583319e-03 -1.500000e-02 1.500000e-03
      vertex   9.583319e-03 -1.500000e-02 1.500000e-03
    endloop
  endfacet
  facet normal 6.985456e-17 -1.301043e-16 1.000000e+00
    outer loop
      vertex   9.583319e-03 1.500000e-02 1.500000e-03
      vertex   9.583319e-03 -1.500000e-02 1.500000e-03
      vertex   2.200000e-02 1.500000e-02 1.500000e-03
    endloop
  endfacet
  facet normal -1.676509e-15 5.926972e-16 1.000000e+00
    outer loop
      vertex   2.200000e-02 1.500000e-02 1.500000e-03
      vertex   9.583319e-03 -1.500000e-02 1.500000e-03
      vertex   2.200000e-02 -1.500000e-02 1.500000e-03
    endloop
  endfacet
  facet normal -5.656716e-17 -1.022405e-16 1.000000e+00
    outer loop
      vertex   -9.583319e-03 -1.500000e-02 1.500000e-03
      vertex   -7.616896e-03 -1.608797e-02 1.500000e-03
      vertex   9.583319e-03 -1.500000e-02 1.500000e-03
    endloop
  endfacet
  facet normal -5.693669e-17 -9.639836e-17 1.000000e+00
    outer loop
      vertex   9.583319e-03 -1.500000e-02 1.500000e-03
      vertex   -7.616896e-03 -1.608797e-02 1.500000e-03
      vertex   7.616896e-03 -1.608797e-02 1.500000e-03
    endloop
  endfacet
  facet normal -5.693669e-17 1.178144e-16 1.000000e+00
    outer loop
      vertex   7.616896e-03 -1.608797e-02 1.500000e-03
      vertex   -7.616896e-03 -1.608797e-02 1.500000e-03
      vertex   -5.529059e-03 -1.691950e-02 1.500000e-03
    endloop
  endfacet
  facet normal -3.921832e-17 -1.623025e-16 1.000000e+00
    outer loop
      vertex   7.616896e-03 -1.608797e-02 1.500000e-03
      vertex   -5.529059e-03 -1.691950e-02 1.500000e-03
      vertex   5.529059e-03 -1.691950e-02 1.500000e-03
    endloop
  endfacet
  facet normal -3.921832e-17 -1.518938e-16 1.000000e+00
    outer loop
      vertex   5.529059e-03 -1.691950e-02 1.500000e-03
      vertex   -5.529059e-03 -1.691950e-02 1.500000e-03
      vertex   -3.353087e-03 -1.748133e-02 1.500000e-03
    endloop
  endfacet
  facet normal -6.466889e-17 2.504646e-16 1.000000e+00
    outer loop
      vertex   5.529059e-03 -1.691950e-02 1.500000e-03
      vertex   -3.353087e-03 -1.748133e-02 1.500000e-03
      vertex   3.353087e-03 -1.748133e-02 1.500000e-03
    endloop
  endfacet
  facet normal -6.466889e-17 -1.274903e-15 1.000000e+00
    outer loop
      vertex   3.353087e-03 -1.748133e-02 1.500000e-03
      vertex   -3.353087e-03 -1.748133e-02 1.500000e-03
      vertex   -1.123666e-03 -1.776450e-02 1.500000e-03
    endloop
  endfacet
  facet normal -9.648792e-17 -7.718633e-16 1.000000e+00
    outer loop
      vertex   3.353087e-03 -1.748133e-02 1.500000e-03
      vertex   -1.123666e-03 -1.776450e-02 1.500000e-03
      vertex   1.123666e-03 -1.776450e-02 1.500000e-03
    endloop
  endfacet
  facet normal -5.656716e-17 -9.706627e-17 1.000000e+00
    outer loop
      vertex   -9.583319e-03 1.500000e-02 1.500000e-03
      vertex   9.583319e-03 1.500000e-02 1.500000e-03
      vertex   -7.616896e-03 1.608797e-02 1.500000e-03
    endloop
  endfacet
  facet normal -5.693669e-17 -1.029084e-16 1.000000e+00
    outer loop
      vertex   -7.616896e-03 1.608797e-02 1.500000e-03
      vertex   9.583319e-03 1.500000e-02 1.500000e-03
      vertex   7.616896e-03 1.608797e-02 1.500000e-03
    endloop
  endfacet
  facet normal -5.693669e-17 -3.785880e-16 1.000000e+00
    outer loop
      vertex   -7.616896e-03 1.608797e-02 1.500000e-03
      vertex   7.616896e-03 1.608797e-02 1.500000e-03
      vertex   -5.529059e-03 1.691950e-02 1.500000e-03
    endloop
  endfacet
  facet normal -1.960916e-17 2.115381e-16 1.000000e+00
    outer loop
      vertex   -5.529059e-03 1.691950e-02 1.500000e-03
      vertex   7.616896e-03 1.608797e-02 1.500000e-03
      vertex   5.529059e-03 1.691950e-02 1.500000e-03
    endloop
  endfacet
  facet normal -1.960916e-17 7.594690e-17 1.000000e+00
    outer loop
      vertex   -5.529059e-03 1.691950e-02 1.500000e-03
      vertex   5.529059e-03 1.691950e-02 1.500000e-03
      vertex   -3.353087e-03 1.748133e-02 1.500000e-03
    endloop
  endfacet
  facet normal -3.233445e-17 -1.252323e-16 1.000000e+00
    outer loop
      vertex   -3.353087e-03 1.748133e-02 1.500000e-03
      vertex   5.529059e-03 1.691950e-02 1.500000e-03
      vertex   3.353087e-03 1.748133e-02 1.500000e-03
    endloop
  endfacet
  facet normal -3.233445e-17 -5.111885e-16 1.000000e+00
    outer loop
      vertex   -3.353087e-03 1.748133e-02 1.500000e-03
      vertex   3.353087e-03 1.748133e-02 1.500000e-03
      vertex   -1.123666e-03 1.776450e-02 1.500000e-03
    endloop
  endfacet
  facet normal -9.648792e-17 -1.525417e-15 1.000000e+00
    outer loop
      vertex   -1.123666e-03 1.776450e-02 1.500000e-03
      vertex   3.353087e-03 1.748133e-02 1.500000e-03
      vertex   1.123666e-03 1.776450e-02 1.500000e-03
    endloop
  endfacet
  facet normal 2.338948e-15 1.000000e+00 -0.000000e+00
    outer loop
      vertex   9.583319e-03 1.500000e-02 -3.500000e-03
      vertex   9.583319e-03 1.500000e-02 1.500000e-03
      vertex   1.700000e-02 1.500000e-02 -3.500000e-03
    endloop
  endfacet
  facet normal 8.382547e-16 1.000000e+00 -2.226033e-15
    outer loop
      vertex   1.700000e-02 1.500000e-02 -3.500000e-03
      vertex   9.583319e-03 1.500000e-02 1.500000e-03
      vertex   2.200000e-02 1.500000e-02 1.500000e-03
    endloop
  endfacet
  facet normal 3.469447e-16 1.000000e+00 -1.734723e-15
    outer loop
      vertex   1.700000e-02 1.500000e-02 -3.500000e-03
      vertex   2.200000e-02 1.500000e-02 1.500000e-03
      vertex   2.200000e-02 1.500000e-02 -3.500000e-03
    endloop
  endfacet
  facet normal 1.247749e-15 9.787932e-01 -2.048506e-01
    outer loop
      vertex   1.700000e-02 6.851553e-03 -4.243395e-02
      vertex   1.700000e-02 1.500000e-02 -3.500000e-03
      vertex   2.200000e-02 6.851553e-03 -4.243395e-02
    endloop
  endfacet
  facet normal 2.725667e-16 9.787932e-01 -2.048506e-01
    outer loop
      vertex   2.200000e-02 6.851553e-03 -4.243395e-02
      vertex   1.700000e-02 1.500000e-02 -3.500000e-03
      vertex   2.200000e-02 1.500000e-02 -3.500000e-03
    endloop
  endfacet
  facet normal -6.621192e-16 -9.542143e-01 -2.991238e-01
    outer loop
      vertex   2.200000e-02 -6.851553e-03 -4.243395e-02
      vertex   1.700000e-02 -6.851553e-03 -4.243395e-02
      vertex   2.200000e-02 -6.444049e-03 -4.373391e-02
    endloop
  endfacet
  facet normal -8.276490e-16 -9.542143e-01 -2.991238e-01
    outer loop
      vertex   2.200000e-02 -6.444049e-03 -4.373391e-02
      vertex   1.700000e-02 -6.851553e-03 -4.243395e-02
      vertex   1.700000e-02 -6.444049e-03 -4.373391e-02
    endloop
  endfacet
  facet normal -7.617212e-16 -8.782047e-01 -4.782850e-01
    outer loop
      vertex   2.200000e-02 -6.444049e-03 -4.373391e-02
      vertex   1.700000e-02 -6.444049e-03 -4.373391e-02
      vertex   2.200000e-02 -5.792468e-03 -4.493031e-02
    endloop
  endfacet
  facet normal -7.617212e-16 -8.782047e-01 -4.782850e-01
    outer loop
      vertex   2.200000e-02 -5.792468e-03 -4.493031e-02
      vertex   1.700000e-02 -6.444049e-03 -4.373391e-02
      vertex   1.700000e-02 -5.792468e-03 -4.493031e-02
    endloop
  endfacet
  facet normal -6.669423e-16 -7.689321e-01 -6.393305e-01
    outer loop
      vertex   2.200000e-02 -5.792468e-03 -4.493031e-02
      vertex   1.700000e-02 -5.792468e-03 -4.493031e-02
      vertex   2.200000e-02 -4.921492e-03 -4.597784e-02
    endloop
  endfacet
  facet normal -6.669423e-16 -7.689321e-01 -6.393305e-01
    outer loop
      vertex   2.200000e-02 -4.921492e-03 -4.597784e-02
      vertex   1.700000e-02 -5.792468e-03 -4.493031e-02
      vertex   1.700000e-02 -4.921492e-03 -4.597784e-02
    endloop
  endfacet
  facet normal -5.469021e-16 -6.305352e-01 -7.761606e-01
    outer loop
      vertex   2.200000e-02 -4.921492e-03 -4.597784e-02
      vertex   1.700000e-02 -4.921492e-03 -4.597784e-02
      vertex   2.200000e-02 -3.864108e-03 -4.683684e-02
    endloop
  endfacet
  facet normal -3.828315e-16 -6.305352e-01 -7.761606e-01
    outer loop
      vertex   2.200000e-02 -3.864108e-03 -4.683684e-02
      vertex   1.700000e-02 -4.921492e-03 -4.597784e-02
      vertex   1.700000e-02 -3.864108e-03 -4.683684e-02
    endloop
  endfacet
  facet normal -2.843032e-16 -4.682561e-01 -8.835928e-01
    outer loop
      vertex   2.200000e-02 -3.864108e-03 -4.683684e-02
      vertex   1.700000e-02 -3.864108e-03 -4.683684e-02
      vertex   2.200000e-02 -2.660367e-03 -4.747475e-02
    endloop
  endfacet
  facet normal -3.249180e-16 -4.682561e-01 -8.835928e-01
    outer loop
      vertex   2.200000e-02 -2.660367e-03 -4.747475e-02
      vertex   1.700000e-02 -3.864108e-03 -4.683684e-02
      vertex   1.700000e-02 -2.660367e-03 -4.747475e-02
    endloop
  endfacet
  facet normal -2.000076e-16 -2.882413e-01 -9.575578e-01
    outer loop
      vertex   2.200000e-02 -2.660367e-03 -4.747475e-02
      vertex   1.700000e-02 -2.660367e-03 -4.747475e-02
      vertex   2.200000e-02 -1.355861e-03 -4.786743e-02
    endloop
  endfacet
  facet normal -1.875071e-16 -2.882413e-01 -9.575578e-01
    outer loop
      vertex   2.200000e-02 -1.355861e-03 -4.786743e-02
      vertex   1.700000e-02 -2.660367e-03 -4.747475e-02
      vertex   1.700000e-02 -1.355861e-03 -4.786743e-02
    endloop
  endfacet
  facet normal -6.330158e-17 -9.730900e-02 -9.952542e-01
    outer loop
      vertex   2.200000e-02 -1.355861e-03 -4.786743e-02
      vertex   1.700000e-02 -1.355861e-03 -4.786743e-02
      vertex   2.200000e-02 -1.137979e-17 -4.800000e-02
    endloop
  endfacet
  facet normal -7.022255e-17 -9.730900e-02 -9.952542e-01
    outer loop
      vertex   2.200000e-02 -1.137979e-17 -4.800000e-02
      vertex   1.700000e-02 -1.355861e-03 -4.786743e-02
      vertex   1.700000e-02 -7.771561e-18 -4.800000e-02
    endloop
  endfacet
  facet normal 7.022255e-17 9.730900e-02 -9.952542e-01
    outer loop
      vertex   2.200000e-02 -1.137979e-17 -4.800000e-02
      vertex   1.700000e-02 -7.771561e-18 -4.800000e-02
      vertex   2.200000e-02 1.355861e-03 -4.786743e-02
    endloop
  endfacet
  facet normal 6.330158e-17 9.730900e-02 -9.952542e-01
    outer loop
      vertex   2.200000e-02 1.355861e-03 -4.786743e-02
      vertex   1.700000e-02 -7.771561e-18 -4.800000e-02
      vertex   1.700000e-02 1.355861e-03 -4.786743e-02
    endloop
  endfacet
  facet normal 1.875071e-16 2.882413e-01 -9.575578e-01
    outer loop
      vertex   2.200000e-02 1.355861e-03 -4.786743e-02
      vertex   1.700000e-02 1.355861e-03 -4.786743e-02
      vertex   2.200000e-02 2.660367e-03 -4.747475e-02
    endloop
  endfacet
  facet normal 2.250085e-16 2.882413e-01 -9.575578e-01
    outer loop
      vertex   2.200000e-02 2.660367e-03 -4.747475e-02
      vertex   1.700000e-02 1.355861e-03 -4.786743e-02
      vertex   1.700000e-02 2.660367e-03 -4.747475e-02
    endloop
  endfacet
  facet normal 3.655327e-16 4.682561e-01 -8.835928e-01
    outer loop
      vertex   2.200000e-02 2.660367e-03 -4.747475e-02
      vertex   1.700000e-02 2.660367e-03 -4.747475e-02
      vertex   2.200000e-02 3.864108e-03 -4.683684e-02
    endloop
  endfacet
  facet normal 2.843032e-16 4.682561e-01 -8.835928e-01
    outer loop
      vertex   2.200000e-02 3.864108e-03 -4.683684e-02
      vertex   1.700000e-02 2.660367e-03 -4.747475e-02
      vertex   1.700000e-02 3.864108e-03 -4.683684e-02
    endloop
  endfacet
  facet normal 3.828315e-16 6.305352e-01 -7.761606e-01
    outer loop
      vertex   2.200000e-02 3.864108e-03 -4.683684e-02
      vertex   1.700000e-02 3.864108e-03 -4.683684e-02
      vertex   2.200000e-02 4.921492e-03 -4.597784e-02
    endloop
  endfacet
  facet normal 4.375217e-16 6.305352e-01 -7.761606e-01
    outer loop
      vertex   2.200000e-02 4.921492e-03 -4.597784e-02
      vertex   1.700000e-02 3.864108e-03 -4.683684e-02
      vertex   1.700000e-02 4.921492e-03 -4.597784e-02
    endloop
  endfacet
  facet normal 5.335538e-16 7.689321e-01 -6.393305e-01
    outer loop
      vertex   2.200000e-02 4.921492e-03 -4.597784e-02
      vertex   1.700000e-02 4.921492e-03 -4.597784e-02
      vertex   2.200000e-02 5.792468e-03 -4.493031e-02
    endloop
  endfacet
  facet normal 5.335538e-16 7.689321e-01 -6.393305e-01
    outer loop
      vertex   2.200000e-02 5.792468e-03 -4.493031e-02
      vertex   1.700000e-02 4.921492e-03 -4.597784e-02
      vertex   1.700000e-02 5.792468e-03 -4.493031e-02
    endloop
  endfacet
  facet normal 6.093769e-16 8.782047e-01 -4.782850e-01
    outer loop
      vertex   2.200000e-02 5.792468e-03 -4.493031e-02
      vertex   1.700000e-02 5.792468e-03 -4.493031e-02
      vertex   2.200000e-02 6.444049e-03 -4.373391e-02
    endloop
  endfacet
  facet normal 7.617212e-16 8.782047e-01 -4.782850e-01
    outer loop
      vertex   2.200000e-02 6.444049e-03 -4.373391e-02
      vertex   1.700000e-02 5.792468e-03 -4.493031e-02
      vertex   1.700000e-02 6.444049e-03 -4.373391e-02
    endloop
  endfacet
  facet normal 8.276490e-16 9.542143e-01 -2.991238e-01
    outer loop
      vertex   2.200000e-02 6.444049e-03 -4.373391e-02
      vertex   1.700000e-02 6.444049e-03 -4.373391e-02
      vertex   2.200000e-02 6.851553e-03 -4.243395e-02
    endloop
  endfacet
  facet normal 1.492355e-15 9.542143e-01 -2.991238e-01
    outer loop
      vertex   2.200000e-02 6.851553e-03 -4.243395e-02
      vertex   1.700000e-02 6.444049e-03 -4.373391e-02
      vertex   1.700000e-02 6.851553e-03 -4.243395e-02
    endloop
  endfacet
endsolid
