solid ASCII
  facet normal 1.000000e+00 1.387850e-32 6.350327e-17
    outer loop
      vertex   -1.064065e-04 -3.175000e-02 -4.900000e-02
      vertex   -1.064065e-04 -3.175000e-02 -8.400000e-02
      vertex   -1.064065e-04 3.175000e-02 -4.900000e-02
    endloop
  endfacet
  facet normal 1.000000e+00 -1.624800e-32 6.350327e-17
    outer loop
      vertex   -1.064065e-04 3.175000e-02 -4.900000e-02
      vertex   -1.064065e-04 -3.175000e-02 -8.400000e-02
      vertex   -1.064065e-04 3.175000e-02 -8.400000e-02
    endloop
  endfacet
  facet normal 1.229430e-15 -1.000000e+00 1.982541e-16
    outer loop
      vertex   -1.064065e-04 3.175000e-02 -8.400000e-02
      vertex   7.287187e-03 3.175000e-02 -5.984977e-02
      vertex   -1.064065e-04 3.175000e-02 -4.900000e-02
    endloop
  endfacet
  facet normal 6.736280e-16 -1.000000e+00 -1.804981e-16
    outer loop
      vertex   -1.064065e-04 3.175000e-02 -4.900000e-02
      vertex   7.287187e-03 3.175000e-02 -5.984977e-02
      vertex   1.250000e-02 3.175000e-02 -4.039529e-02
    endloop
  endfacet
  facet normal 3.226181e-16 -1.000000e+00 3.337519e-16
    outer loop
      vertex   -1.064065e-04 3.175000e-02 -4.900000e-02
      vertex   1.250000e-02 3.175000e-02 -4.039529e-02
      vertex   1.250000e-02 3.175000e-02 -1.960471e-02
    endloop
  endfacet
  facet normal 0.000000e+00 -1.000000e+00 -2.401393e-16
    outer loop
      vertex   -5.106406e-03 3.175000e-02 -8.400000e-02
      vertex   -1.250000e-02 3.175000e-02 -1.128953e-01
      vertex   -1.064065e-04 3.175000e-02 -8.400000e-02
    endloop
  endfacet
  facet normal -1.660696e-16 -1.000000e+00 -1.689097e-16
    outer loop
      vertex   -1.064065e-04 3.175000e-02 -8.400000e-02
      vertex   -1.250000e-02 3.175000e-02 -1.128953e-01
      vertex   7.287187e-03 3.175000e-02 -1.323498e-01
    endloop
  endfacet
  facet normal 1.564381e-15 -1.000000e+00 9.570888e-17
    outer loop
      vertex   -1.064065e-04 3.175000e-02 -8.400000e-02
      vertex   7.287187e-03 3.175000e-02 -1.323498e-01
      vertex   7.287187e-03 3.175000e-02 -5.984977e-02
    endloop
  endfacet
  facet normal -1.713308e-15 -1.000000e+00 1.982541e-16
    outer loop
      vertex   -5.106406e-03 3.175000e-02 -8.400000e-02
      vertex   -5.106406e-03 3.175000e-02 -4.900000e-02
      vertex   -1.250000e-02 3.175000e-02 -1.128953e-01
    endloop
  endfacet
  facet normal -1.285570e-15 -1.000000e+00 1.487587e-16
    outer loop
      vertex   -1.250000e-02 3.175000e-02 -1.128953e-01
      vertex   -5.106406e-03 3.175000e-02 -4.900000e-02
      vertex   -1.250000e-02 3.175000e-02 -1.960471e-02
    endloop
  endfacet
  facet normal 1.310366e-31 -1.000000e+00 4.721093e-16
    outer loop
      vertex   -1.250000e-02 3.175000e-02 -1.960471e-02
      vertex   -5.106406e-03 3.175000e-02 -4.900000e-02
      vertex   1.250000e-02 3.175000e-02 -1.960471e-02
    endloop
  endfacet
  facet normal 0.000000e+00 -1.000000e+00 0.000000e+00
    outer loop
      vertex   -1.250000e-02 3.175000e-02 -1.960471e-02
      vertex   1.250000e-02 3.175000e-02 -1.960471e-02
      vertex   6.761481e-03 3.175000e-02 1.811733e-03
    endloop
  endfacet
  facet normal -1.310366e-30 -1.000000e+00 4.721093e-16
    outer loop
      vertex   -5.106406e-03 3.175000e-02 -4.900000e-02
      vertex   -1.064065e-04 3.175000e-02 -4.900000e-02
      vertex   1.250000e-02 3.175000e-02 -1.960471e-02
    endloop
  endfacet
  facet normal 0.000000e+00 -1.000000e+00 0.000000e+00
    outer loop
      vertex   -1.250000e-02 3.175000e-02 -1.960471e-02
      vertex   6.761481e-03 3.175000e-02 1.811733e-03
      vertex   -6.761481e-03 3.175000e-02 1.811733e-03
    endloop
  endfacet
  facet normal 0.000000e+00 -1.000000e+00 0.000000e+00
    outer loop
      vertex   -6.761481e-03 3.175000e-02 1.811733e-03
      vertex   6.761481e-03 3.175000e-02 1.811733e-03
      vertex   6.062178e-03 3.175000e-02 3.500000e-03
    endloop
  endfacet
  facet normal 0.000000e+00 -1.000000e+00 0.000000e+00
    outer loop
      vertex   -6.761481e-03 3.175000e-02 1.811733e-03
      vertex   6.062178e-03 3.175000e-02 3.500000e-03
      vertex   4.949747e-03 3.175000e-02 4.949747e-03
    endloop
  endfacet
  facet normal -0.000000e+00 -1.000000e+00 0.000000e+00
    outer loop
      vertex   4.949747e-03 3.175000e-02 4.949747e-03
      vertex   3.500000e-03 3.175000e-02 6.062178e-03
      vertex   -6.761481e-03 3.175000e-02 1.811733e-03
    endloop
  endfacet
  facet normal 0.000000e+00 -1.000000e+00 0.000000e+00
    outer loop
      vertex   -6.761481e-03 3.175000e-02 1.811733e-03
      vertex   3.500000e-03 3.175000e-02 6.062178e-03
      vertex   1.811733e-03 3.175000e-02 6.761481e-03
    endloop
  endfacet
  facet normal 0.000000e+00 -1.000000e+00 0.000000e+00
    outer loop
      vertex   -6.761481e-03 3.175000e-02 1.811733e-03
      vertex   1.811733e-03 3.175000e-02 6.761481e-03
      vertex   -8.604228e-18 3.175000e-02 7.000000e-03
    endloop
  endfacet
  facet normal 0.000000e+00 -1.000000e+00 0.000000e+00
    outer loop
      vertex   -8.604228e-18 3.175000e-02 7.000000e-03
      vertex   -1.811733e-03 3.175000e-02 6.761481e-03
      vertex   -6.761481e-03 3.175000e-02 1.811733e-03
    endloop
  endfacet
  facet normal 0.000000e+00 -1.000000e+00 0.000000e+00
    outer loop
      vertex   -6.761481e-03 3.175000e-02 1.811733e-03
      vertex   -1.811733e-03 3.175000e-02 6.761481e-03
      vertex   -3.500000e-03 3.175000e-02 6.062178e-03
    endloop
  endfacet
  facet normal 0.000000e+00 -1.000000e+00 0.000000e+00
    outer loop
      vertex   -6.761481e-03 3.175000e-02 1.811733e-03
      vertex   -3.500000e-03 3.175000e-02 6.062178e-03
      vertex   -4.949747e-03 3.175000e-02 4.949747e-03
    endloop
  endfacet
  facet normal 0.000000e+00 -1.000000e+00 0.000000e+00
    outer loop
      vertex   -4.949747e-03 3.175000e-02 4.949747e-03
      vertex   -6.062178e-03 3.175000e-02 3.500000e-03
      vertex   -6.761481e-03 3.175000e-02 1.811733e-03
    endloop
  endfacet
  facet normal 0.000000e+00 -1.000000e+00 0.000000e+00
    outer loop
      vertex   -1.250000e-02 3.175000e-02 -1.128953e-01
      vertex   -6.761481e-03 3.175000e-02 -1.343117e-01
      vertex   7.287187e-03 3.175000e-02 -1.323498e-01
    endloop
  endfacet
  facet normal 0.000000e+00 -1.000000e+00 0.000000e+00
    outer loop
      vertex   7.287187e-03 3.175000e-02 -1.323498e-01
      vertex   -6.761481e-03 3.175000e-02 -1.343117e-01
      vertex   -6.062178e-03 3.175000e-02 -1.360000e-01
    endloop
  endfacet
  facet normal 0.000000e+00 -1.000000e+00 0.000000e+00
    outer loop
      vertex   7.287187e-03 3.175000e-02 -1.323498e-01
      vertex   -6.062178e-03 3.175000e-02 -1.360000e-01
      vertex   -4.949747e-03 3.175000e-02 -1.374497e-01
    endloop
  endfacet
  facet normal 0.000000e+00 -1.000000e+00 0.000000e+00
    outer loop
      vertex   -4.949747e-03 3.175000e-02 -1.374497e-01
      vertex   -3.500000e-03 3.175000e-02 -1.385622e-01
      vertex   7.287187e-03 3.175000e-02 -1.323498e-01
    endloop
  endfacet
  facet normal 0.000000e+00 -1.000000e+00 0.000000e+00
    outer loop
      vertex   7.287187e-03 3.175000e-02 -1.323498e-01
      vertex   -3.500000e-03 3.175000e-02 -1.385622e-01
      vertex   -1.811733e-03 3.175000e-02 -1.392615e-01
    endloop
  endfacet
  facet normal 0.000000e+00 -1.000000e+00 0.000000e+00
    outer loop
      vertex   7.287187e-03 3.175000e-02 -1.323498e-01
      vertex   -1.811733e-03 3.175000e-02 -1.392615e-01
      vertex   -3.913536e-17 3.175000e-02 -1.395000e-01
    endloop
  endfacet
  facet normal 0.000000e+00 -1.000000e+00 0.000000e+00
    outer loop
      vertex   -3.913536e-17 3.175000e-02 -1.395000e-01
      vertex   1.811733e-03 3.175000e-02 -1.392615e-01
      vertex   7.287187e-03 3.175000e-02 -1.323498e-01
    endloop
  endfacet
  facet normal 0.000000e+00 -1.000000e+00 0.000000e+00
    outer loop
      vertex   7.287187e-03 3.175000e-02 -1.323498e-01
      vertex   1.811733e-03 3.175000e-02 -1.392615e-01
      vertex   6.761481e-03 3.175000e-02 -1.343117e-01
    endloop
  endfacet
  facet normal 0.000000e+00 -1.000000e+00 0.000000e+00
    outer loop
      vertex   6.761481e-03 3.175000e-02 -1.343117e-01
      vertex   1.811733e-03 3.175000e-02 -1.392615e-01
      vertex   3.500000e-03 3.175000e-02 -1.385622e-01
    endloop
  endfacet
  facet normal 0.000000e+00 -1.000000e+00 0.000000e+00
    outer loop
      vertex   6.761481e-03 3.175000e-02 -1.343117e-01
      vertex   3.500000e-03 3.175000e-02 -1.385622e-01
      vertex   4.949747e-03 3.175000e-02 -1.374497e-01
    endloop
  endfacet
  facet normal 0.000000e+00 -1.000000e+00 0.000000e+00
    outer loop
      vertex   4.949747e-03 3.175000e-02 -1.374497e-01
      vertex   6.062178e-03 3.175000e-02 -1.360000e-01
      vertex   6.761481e-03 3.175000e-02 -1.343117e-01
    endloop
  endfacet
  facet normal -1.000000e+00 1.083200e-32 -4.956353e-17
    outer loop
      vertex   -5.106406e-03 -3.175000e-02 -8.400000e-02
      vertex   -5.106406e-03 -3.175000e-02 -4.900000e-02
      vertex   -5.106406e-03 3.175000e-02 -8.400000e-02
    endloop
  endfacet
  facet normal -1.000000e+00 -2.166400e-32 -4.956353e-17
    outer loop
      vertex   -5.106406e-03 3.175000e-02 -8.400000e-02
      vertex   -5.106406e-03 -3.175000e-02 -4.900000e-02
      vertex   -5.106406e-03 3.175000e-02 -4.900000e-02
    endloop
  endfacet
  facet normal 1.000000e+00 -1.134528e-30 4.905080e-16
    outer loop
      vertex   7.287187e-03 3.175000e-02 -5.984977e-02
      vertex   7.287187e-03 3.175000e-02 -1.323498e-01
      vertex   7.287187e-03 3.475000e-02 -5.984977e-02
    endloop
  endfacet
  facet normal 1.000000e+00 -3.180326e-15 6.221077e-16
    outer loop
      vertex   7.287187e-03 3.475000e-02 -5.984977e-02
      vertex   7.287187e-03 3.175000e-02 -1.323498e-01
      vertex   7.287187e-03 3.475000e-02 -1.323498e-01
    endloop
  endfacet
  facet normal 9.659258e-01 5.986393e-16 -2.588190e-01
    outer loop
      vertex   7.287187e-03 3.475000e-02 -5.984977e-02
      vertex   1.250000e-02 3.475000e-02 -4.039529e-02
      vertex   7.287187e-03 3.175000e-02 -5.984977e-02
    endloop
  endfacet
  facet normal 9.659258e-01 0.000000e+00 -2.588190e-01
    outer loop
      vertex   7.287187e-03 3.175000e-02 -5.984977e-02
      vertex   1.250000e-02 3.475000e-02 -4.039529e-02
      vertex   1.250000e-02 3.175000e-02 -4.039529e-02
    endloop
  endfacet
  facet normal 9.659258e-01 0.000000e+00 2.588190e-01
    outer loop
      vertex   1.250000e-02 3.475000e-02 -1.960471e-02
      vertex   6.761481e-03 3.475000e-02 1.811733e-03
      vertex   1.250000e-02 3.175000e-02 -1.960471e-02
    endloop
  endfacet
  facet normal 9.659258e-01 0.000000e+00 2.588190e-01
    outer loop
      vertex   1.250000e-02 3.175000e-02 -1.960471e-02
      vertex   6.761481e-03 3.475000e-02 1.811733e-03
      vertex   6.761481e-03 3.175000e-02 1.811733e-03
    endloop
  endfacet
  facet normal 1.000000e+00 0.000000e+00 -8.343797e-17
    outer loop
      vertex   1.250000e-02 3.475000e-02 -4.039529e-02
      vertex   1.250000e-02 3.475000e-02 -1.960471e-02
      vertex   1.250000e-02 3.175000e-02 -4.039529e-02
    endloop
  endfacet
  facet normal 1.000000e+00 0.000000e+00 -8.343797e-17
    outer loop
      vertex   1.250000e-02 3.175000e-02 -4.039529e-02
      vertex   1.250000e-02 3.475000e-02 -1.960471e-02
      vertex   1.250000e-02 3.175000e-02 -1.960471e-02
    endloop
  endfacet
  facet normal 9.659258e-01 0.000000e+00 -2.588190e-01
    outer loop
      vertex   6.761481e-03 3.475000e-02 -1.343117e-01
      vertex   7.287187e-03 3.475000e-02 -1.323498e-01
      vertex   6.761481e-03 3.175000e-02 -1.343117e-01
    endloop
  endfacet
  facet normal 9.659258e-01 -3.092873e-15 -2.588190e-01
    outer loop
      vertex   6.761481e-03 3.175000e-02 -1.343117e-01
      vertex   7.287187e-03 3.475000e-02 -1.323498e-01
      vertex   7.287187e-03 3.175000e-02 -1.323498e-01
    endloop
  endfacet
  facet normal -9.238795e-01 2.671126e-15 -3.826834e-01
    outer loop
      vertex   -6.761481e-03 3.175000e-02 -1.343117e-01
      vertex   -6.761481e-03 3.475000e-02 -1.343117e-01
      vertex   -6.062178e-03 3.175000e-02 -1.360000e-01
    endloop
  endfacet
  facet normal -9.238795e-01 0.000000e+00 -3.826834e-01
    outer loop
      vertex   -6.062178e-03 3.175000e-02 -1.360000e-01
      vertex   -6.761481e-03 3.475000e-02 -1.343117e-01
      vertex   -6.062178e-03 3.475000e-02 -1.360000e-01
    endloop
  endfacet
  facet normal -7.933533e-01 0.000000e+00 -6.087614e-01
    outer loop
      vertex   -6.062178e-03 3.175000e-02 -1.360000e-01
      vertex   -6.062178e-03 3.475000e-02 -1.360000e-01
      vertex   -4.949747e-03 3.175000e-02 -1.374497e-01
    endloop
  endfacet
  facet normal -7.933533e-01 0.000000e+00 -6.087614e-01
    outer loop
      vertex   -4.949747e-03 3.175000e-02 -1.374497e-01
      vertex   -6.062178e-03 3.475000e-02 -1.360000e-01
      vertex   -4.949747e-03 3.475000e-02 -1.374497e-01
    endloop
  endfacet
  facet normal -6.087614e-01 0.000000e+00 -7.933533e-01
    outer loop
      vertex   -4.949747e-03 3.175000e-02 -1.374497e-01
      vertex   -4.949747e-03 3.475000e-02 -1.374497e-01
      vertex   -3.500000e-03 3.175000e-02 -1.385622e-01
    endloop
  endfacet
  facet normal -6.087614e-01 0.000000e+00 -7.933533e-01
    outer loop
      vertex   -3.500000e-03 3.175000e-02 -1.385622e-01
      vertex   -4.949747e-03 3.475000e-02 -1.374497e-01
      vertex   -3.500000e-03 3.475000e-02 -1.385622e-01
    endloop
  endfacet
  facet normal -3.826834e-01 0.000000e+00 -9.238795e-01
    outer loop
      vertex   -3.500000e-03 3.175000e-02 -1.385622e-01
      vertex   -3.500000e-03 3.475000e-02 -1.385622e-01
      vertex   -1.811733e-03 3.175000e-02 -1.392615e-01
    endloop
  endfacet
  facet normal -3.826834e-01 0.000000e+00 -9.238795e-01
    outer loop
      vertex   -1.811733e-03 3.175000e-02 -1.392615e-01
      vertex   -3.500000e-03 3.475000e-02 -1.385622e-01
      vertex   -1.811733e-03 3.475000e-02 -1.392615e-01
    endloop
  endfacet
  facet normal -1.305262e-01 0.000000e+00 -9.914449e-01
    outer loop
      vertex   -1.811733e-03 3.175000e-02 -1.392615e-01
      vertex   -1.811733e-03 3.475000e-02 -1.392615e-01
      vertex   -3.913536e-17 3.175000e-02 -1.395000e-01
    endloop
  endfacet
  facet normal -1.305262e-01 0.000000e+00 -9.914449e-01
    outer loop
      vertex   -3.913536e-17 3.175000e-02 -1.395000e-01
      vertex   -1.811733e-03 3.475000e-02 -1.392615e-01
      vertex   -3.913536e-17 3.475000e-02 -1.395000e-01
    endloop
  endfacet
  facet normal 1.305262e-01 0.000000e+00 -9.914449e-01
    outer loop
      vertex   -3.913536e-17 3.175000e-02 -1.395000e-01
      vertex   -3.913536e-17 3.475000e-02 -1.395000e-01
      vertex   1.811733e-03 3.175000e-02 -1.392615e-01
    endloop
  endfacet
  facet normal 1.305262e-01 0.000000e+00 -9.914449e-01
    outer loop
      vertex   1.811733e-03 3.175000e-02 -1.392615e-01
      vertex   -3.913536e-17 3.475000e-02 -1.395000e-01
      vertex   1.811733e-03 3.475000e-02 -1.392615e-01
    endloop
  endfacet
  facet normal 3.826834e-01 0.000000e+00 -9.238795e-01
    outer loop
      vertex   1.811733e-03 3.175000e-02 -1.392615e-01
      vertex   1.811733e-03 3.475000e-02 -1.392615e-01
      vertex   3.500000e-03 3.175000e-02 -1.385622e-01
    endloop
  endfacet
  facet normal 3.826834e-01 0.000000e+00 -9.238795e-01
    outer loop
      vertex   3.500000e-03 3.175000e-02 -1.385622e-01
      vertex   1.811733e-03 3.475000e-02 -1.392615e-01
      vertex   3.500000e-03 3.475000e-02 -1.385622e-01
    endloop
  endfacet
  facet normal 6.087614e-01 0.000000e+00 -7.933533e-01
    outer loop
      vertex   3.500000e-03 3.175000e-02 -1.385622e-01
      vertex   3.500000e-03 3.475000e-02 -1.385622e-01
      vertex   4.949747e-03 3.175000e-02 -1.374497e-01
    endloop
  endfacet
  facet normal 6.087614e-01 0.000000e+00 -7.933533e-01
    outer loop
      vertex   4.949747e-03 3.175000e-02 -1.374497e-01
      vertex   3.500000e-03 3.475000e-02 -1.385622e-01
      vertex   4.949747e-03 3.475000e-02 -1.374497e-01
    endloop
  endfacet
  facet normal 7.933533e-01 0.000000e+00 -6.087614e-01
    outer loop
      vertex   4.949747e-03 3.175000e-02 -1.374497e-01
      vertex   4.949747e-03 3.475000e-02 -1.374497e-01
      vertex   6.062178e-03 3.175000e-02 -1.360000e-01
    endloop
  endfacet
  facet normal 7.933533e-01 0.000000e+00 -6.087614e-01
    outer loop
      vertex   6.062178e-03 3.175000e-02 -1.360000e-01
      vertex   4.949747e-03 3.475000e-02 -1.374497e-01
      vertex   6.062178e-03 3.475000e-02 -1.360000e-01
    endloop
  endfacet
  facet normal 9.238795e-01 0.000000e+00 -3.826834e-01
    outer loop
      vertex   6.062178e-03 3.175000e-02 -1.360000e-01
      vertex   6.062178e-03 3.475000e-02 -1.360000e-01
      vertex   6.761481e-03 3.175000e-02 -1.343117e-01
    endloop
  endfacet
  facet normal 9.238795e-01 0.000000e+00 -3.826834e-01
    outer loop
      vertex   6.761481e-03 3.175000e-02 -1.343117e-01
      vertex   6.062178e-03 3.475000e-02 -1.360000e-01
      vertex   6.761481e-03 3.475000e-02 -1.343117e-01
    endloop
  endfacet
  facet normal -9.659258e-01 -0.000000e+00 -2.588190e-01
    outer loop
      vertex   -1.250000e-02 3.475000e-02 -1.128953e-01
      vertex   -6.761481e-03 3.475000e-02 -1.343117e-01
      vertex   -1.250000e-02 3.175000e-02 -1.128953e-01
    endloop
  endfacet
  facet normal -9.659258e-01 2.852486e-15 -2.588190e-01
    outer loop
      vertex   -1.250000e-02 3.175000e-02 -1.128953e-01
      vertex   -6.761481e-03 3.475000e-02 -1.343117e-01
      vertex   -6.761481e-03 3.175000e-02 -1.343117e-01
    endloop
  endfacet
  facet normal -1.000000e+00 0.000000e+00 5.578452e-17
    outer loop
      vertex   -1.250000e-02 3.475000e-02 -1.960471e-02
      vertex   -1.250000e-02 3.475000e-02 -1.128953e-01
      vertex   -1.250000e-02 3.175000e-02 -1.960471e-02
    endloop
  endfacet
  facet normal -1.000000e+00 0.000000e+00 5.578452e-17
    outer loop
      vertex   -1.250000e-02 3.175000e-02 -1.960471e-02
      vertex   -1.250000e-02 3.475000e-02 -1.128953e-01
      vertex   -1.250000e-02 3.175000e-02 -1.128953e-01
    endloop
  endfacet
  facet normal -9.659258e-01 7.482991e-17 2.588190e-01
    outer loop
      vertex   -6.761481e-03 3.475000e-02 1.811733e-03
      vertex   -1.250000e-02 3.475000e-02 -1.960471e-02
      vertex   -6.761481e-03 3.175000e-02 1.811733e-03
    endloop
  endfacet
  facet normal -9.659258e-01 0.000000e+00 2.588190e-01
    outer loop
      vertex   -6.761481e-03 3.175000e-02 1.811733e-03
      vertex   -1.250000e-02 3.475000e-02 -1.960471e-02
      vertex   -1.250000e-02 3.175000e-02 -1.960471e-02
    endloop
  endfacet
  facet normal 9.238795e-01 2.766041e-17 3.826834e-01
    outer loop
      vertex   6.761481e-03 3.175000e-02 1.811733e-03
      vertex   6.761481e-03 3.475000e-02 1.811733e-03
      vertex   6.062178e-03 3.175000e-02 3.500000e-03
    endloop
  endfacet
  facet normal 9.238795e-01 5.532083e-17 3.826834e-01
    outer loop
      vertex   6.062178e-03 3.175000e-02 3.500000e-03
      vertex   6.761481e-03 3.475000e-02 1.811733e-03
      vertex   6.062178e-03 3.475000e-02 3.500000e-03
    endloop
  endfacet
  facet normal 7.933533e-01 8.800273e-17 6.087614e-01
    outer loop
      vertex   6.062178e-03 3.175000e-02 3.500000e-03
      vertex   6.062178e-03 3.475000e-02 3.500000e-03
      vertex   4.949747e-03 3.175000e-02 4.949747e-03
    endloop
  endfacet
  facet normal 7.933533e-01 -0.000000e+00 6.087614e-01
    outer loop
      vertex   4.949747e-03 3.175000e-02 4.949747e-03
      vertex   6.062178e-03 3.475000e-02 3.500000e-03
      vertex   4.949747e-03 3.475000e-02 4.949747e-03
    endloop
  endfacet
  facet normal 6.087614e-01 -0.000000e+00 7.933533e-01
    outer loop
      vertex   4.949747e-03 3.175000e-02 4.949747e-03
      vertex   4.949747e-03 3.475000e-02 4.949747e-03
      vertex   3.500000e-03 3.175000e-02 6.062178e-03
    endloop
  endfacet
  facet normal 6.087614e-01 -0.000000e+00 7.933533e-01
    outer loop
      vertex   3.500000e-03 3.175000e-02 6.062178e-03
      vertex   4.949747e-03 3.475000e-02 4.949747e-03
      vertex   3.500000e-03 3.475000e-02 6.062178e-03
    endloop
  endfacet
  facet normal 3.826834e-01 -0.000000e+00 9.238795e-01
    outer loop
      vertex   3.500000e-03 3.175000e-02 6.062178e-03
      vertex   3.500000e-03 3.475000e-02 6.062178e-03
      vertex   1.811733e-03 3.175000e-02 6.761481e-03
    endloop
  endfacet
  facet normal 3.826834e-01 -0.000000e+00 9.238795e-01
    outer loop
      vertex   1.811733e-03 3.175000e-02 6.761481e-03
      vertex   3.500000e-03 3.475000e-02 6.062178e-03
      vertex   1.811733e-03 3.475000e-02 6.761481e-03
    endloop
  endfacet
  facet normal 1.305262e-01 -0.000000e+00 9.914449e-01
    outer loop
      vertex   1.811733e-03 3.175000e-02 6.761481e-03
      vertex   1.811733e-03 3.475000e-02 6.761481e-03
      vertex   -8.604228e-18 3.175000e-02 7.000000e-03
    endloop
  endfacet
  facet normal 1.305262e-01 -0.000000e+00 9.914449e-01
    outer loop
      vertex   -8.604228e-18 3.175000e-02 7.000000e-03
      vertex   1.811733e-03 3.475000e-02 6.761481e-03
      vertex   -8.604228e-18 3.475000e-02 7.000000e-03
    endloop
  endfacet
  facet normal -1.305262e-01 0.000000e+00 9.914449e-01
    outer loop
      vertex   -8.604228e-18 3.175000e-02 7.000000e-03
      vertex   -8.604228e-18 3.475000e-02 7.000000e-03
      vertex   -1.811733e-03 3.175000e-02 6.761481e-03
    endloop
  endfacet
  facet normal -1.305262e-01 0.000000e+00 9.914449e-01
    outer loop
      vertex   -1.811733e-03 3.175000e-02 6.761481e-03
      vertex   -8.604228e-18 3.475000e-02 7.000000e-03
      vertex   -1.811733e-03 3.475000e-02 6.761481e-03
    endloop
  endfacet
  facet normal -3.826834e-01 0.000000e+00 9.238795e-01
    outer loop
      vertex   -1.811733e-03 3.175000e-02 6.761481e-03
      vertex   -1.811733e-03 3.475000e-02 6.761481e-03
      vertex   -3.500000e-03 3.175000e-02 6.062178e-03
    endloop
  endfacet
  facet normal -3.826834e-01 0.000000e+00 9.238795e-01
    outer loop
      vertex   -3.500000e-03 3.175000e-02 6.062178e-03
      vertex   -1.811733e-03 3.475000e-02 6.761481e-03
      vertex   -3.500000e-03 3.475000e-02 6.062178e-03
    endloop
  endfacet
  facet normal -6.087614e-01 0.000000e+00 7.933533e-01
    outer loop
      vertex   -3.500000e-03 3.175000e-02 6.062178e-03
      vertex   -3.500000e-03 3.475000e-02 6.062178e-03
      vertex   -4.949747e-03 3.175000e-02 4.949747e-03
    endloop
  endfacet
  facet normal -6.087614e-01 2.293748e-16 7.933533e-01
    outer loop
      vertex   -4.949747e-03 3.175000e-02 4.949747e-03
      vertex   -3.500000e-03 3.475000e-02 6.062178e-03
      vertex   -4.949747e-03 3.475000e-02 4.949747e-03
    endloop
  endfacet
  facet normal -7.933533e-01 1.760055e-16 6.087614e-01
    outer loop
      vertex   -4.949747e-03 3.175000e-02 4.949747e-03
      vertex   -4.949747e-03 3.475000e-02 4.949747e-03
      vertex   -6.062178e-03 3.175000e-02 3.500000e-03
    endloop
  endfacet
  facet normal -7.933533e-01 0.000000e+00 6.087614e-01
    outer loop
      vertex   -6.062178e-03 3.175000e-02 3.500000e-03
      vertex   -4.949747e-03 3.475000e-02 4.949747e-03
      vertex   -6.062178e-03 3.475000e-02 3.500000e-03
    endloop
  endfacet
  facet normal -9.238795e-01 0.000000e+00 3.826834e-01
    outer loop
      vertex   -6.062178e-03 3.175000e-02 3.500000e-03
      vertex   -6.062178e-03 3.475000e-02 3.500000e-03
      vertex   -6.761481e-03 3.175000e-02 1.811733e-03
    endloop
  endfacet
  facet normal -9.238795e-01 1.106417e-16 3.826834e-01
    outer loop
      vertex   -6.761481e-03 3.175000e-02 1.811733e-03
      vertex   -6.062178e-03 3.475000e-02 3.500000e-03
      vertex   -6.761481e-03 3.475000e-02 1.811733e-03
    endloop
  endfacet
  facet normal 4.110646e-15 1.000000e+00 -3.965082e-16
    outer loop
      vertex   -1.064065e-04 -3.175000e-02 -4.900000e-02
      vertex   7.287187e-03 -3.175000e-02 -5.984977e-02
      vertex   -1.064065e-04 -3.175000e-02 -8.400000e-02
    endloop
  endfacet
  facet normal 3.128123e-15 1.000000e+00 -9.570888e-17
    outer loop
      vertex   -1.064065e-04 -3.175000e-02 -8.400000e-02
      vertex   7.287187e-03 -3.175000e-02 -5.984977e-02
      vertex   7.287187e-03 -3.175000e-02 -1.323498e-01
    endloop
  endfacet
  facet normal -6.642785e-16 1.000000e+00 -6.756388e-16
    outer loop
      vertex   -1.064065e-04 -3.175000e-02 -8.400000e-02
      vertex   7.287187e-03 -3.175000e-02 -1.323498e-01
      vertex   -1.250000e-02 -3.175000e-02 -1.128953e-01
    endloop
  endfacet
  facet normal 0.000000e+00 1.000000e+00 0.000000e+00
    outer loop
      vertex   -1.250000e-02 -3.175000e-02 -1.128953e-01
      vertex   7.287187e-03 -3.175000e-02 -1.323498e-01
      vertex   -6.761481e-03 -3.175000e-02 -1.343117e-01
    endloop
  endfacet
  facet normal -0.000000e+00 1.000000e+00 0.000000e+00
    outer loop
      vertex   -6.761481e-03 -3.175000e-02 -1.343117e-01
      vertex   7.287187e-03 -3.175000e-02 -1.323498e-01
      vertex   -6.062178e-03 -3.175000e-02 -1.360000e-01
    endloop
  endfacet
  facet normal -0.000000e+00 1.000000e+00 0.000000e+00
    outer loop
      vertex   -6.062178e-03 -3.175000e-02 -1.360000e-01
      vertex   7.287187e-03 -3.175000e-02 -1.323498e-01
      vertex   -4.949747e-03 -3.175000e-02 -1.374497e-01
    endloop
  endfacet
  facet normal -0.000000e+00 1.000000e+00 0.000000e+00
    outer loop
      vertex   -4.949747e-03 -3.175000e-02 -1.374497e-01
      vertex   7.287187e-03 -3.175000e-02 -1.323498e-01
      vertex   -3.500000e-03 -3.175000e-02 -1.385622e-01
    endloop
  endfacet
  facet normal -0.000000e+00 1.000000e+00 0.000000e+00
    outer loop
      vertex   -3.500000e-03 -3.175000e-02 -1.385622e-01
      vertex   7.287187e-03 -3.175000e-02 -1.323498e-01
      vertex   -1.811733e-03 -3.175000e-02 -1.392615e-01
    endloop
  endfacet
  facet normal -0.000000e+00 1.000000e+00 0.000000e+00
    outer loop
      vertex   -1.811733e-03 -3.175000e-02 -1.392615e-01
      vertex   7.287187e-03 -3.175000e-02 -1.323498e-01
      vertex   -1.332268e-17 -3.175000e-02 -1.395000e-01
    endloop
  endfacet
  facet normal 0.000000e+00 1.000000e+00 0.000000e+00
    outer loop
      vertex   -1.332268e-17 -3.175000e-02 -1.395000e-01
      vertex   7.287187e-03 -3.175000e-02 -1.323498e-01
      vertex   1.811733e-03 -3.175000e-02 -1.392615e-01
    endloop
  endfacet
  facet normal 0.000000e+00 1.000000e+00 0.000000e+00
    outer loop
      vertex   1.811733e-03 -3.175000e-02 -1.392615e-01
      vertex   7.287187e-03 -3.175000e-02 -1.323498e-01
      vertex   6.761481e-03 -3.175000e-02 -1.343117e-01
    endloop
  endfacet
  facet normal 0.000000e+00 1.000000e+00 0.000000e+00
    outer loop
      vertex   1.811733e-03 -3.175000e-02 -1.392615e-01
      vertex   6.761481e-03 -3.175000e-02 -1.343117e-01
      vertex   3.500000e-03 -3.175000e-02 -1.385622e-01
    endloop
  endfacet
  facet normal 0.000000e+00 1.000000e+00 0.000000e+00
    outer loop
      vertex   3.500000e-03 -3.175000e-02 -1.385622e-01
      vertex   6.761481e-03 -3.175000e-02 -1.343117e-01
      vertex   4.949747e-03 -3.175000e-02 -1.374497e-01
    endloop
  endfacet
  facet normal 0.000000e+00 1.000000e+00 0.000000e+00
    outer loop
      vertex   4.949747e-03 -3.175000e-02 -1.374497e-01
      vertex   6.761481e-03 -3.175000e-02 -1.343117e-01
      vertex   6.062178e-03 -3.175000e-02 -1.360000e-01
    endloop
  endfacet
  facet normal -1.387779e-15 1.000000e+00 1.539379e-15
    outer loop
      vertex   -5.106406e-03 -3.175000e-02 -4.900000e-02
      vertex   1.250000e-02 -3.175000e-02 -1.960471e-02
      vertex   -1.064065e-04 -3.175000e-02 -4.900000e-02
    endloop
  endfacet
  facet normal 2.201704e-15 1.000000e+00 0.000000e+00
    outer loop
      vertex   -1.064065e-04 -3.175000e-02 -4.900000e-02
      vertex   1.250000e-02 -3.175000e-02 -1.960471e-02
      vertex   1.250000e-02 -3.175000e-02 -4.039529e-02
    endloop
  endfacet
  facet normal 2.992457e-15 1.000000e+00 -1.158500e-15
    outer loop
      vertex   -1.064065e-04 -3.175000e-02 -4.900000e-02
      vertex   1.250000e-02 -3.175000e-02 -4.039529e-02
      vertex   7.287187e-03 -3.175000e-02 -5.984977e-02
    endloop
  endfacet
  facet normal -2.979196e-15 1.000000e+00 -1.982541e-16
    outer loop
      vertex   -5.106406e-03 -3.175000e-02 -8.400000e-02
      vertex   -1.250000e-02 -3.175000e-02 -1.128953e-01
      vertex   -5.106406e-03 -3.175000e-02 -4.900000e-02
    endloop
  endfacet
  facet normal -3.406934e-15 1.000000e+00 -1.487587e-16
    outer loop
      vertex   -5.106406e-03 -3.175000e-02 -4.900000e-02
      vertex   -1.250000e-02 -3.175000e-02 -1.128953e-01
      vertex   -1.250000e-02 -3.175000e-02 -1.960471e-02
    endloop
  endfacet
  facet normal 1.310366e-31 1.000000e+00 7.081639e-16
    outer loop
      vertex   -5.106406e-03 -3.175000e-02 -4.900000e-02
      vertex   -1.250000e-02 -3.175000e-02 -1.960471e-02
      vertex   1.250000e-02 -3.175000e-02 -1.960471e-02
    endloop
  endfacet
  facet normal 0.000000e+00 1.000000e+00 0.000000e+00
    outer loop
      vertex   1.250000e-02 -3.175000e-02 -1.960471e-02
      vertex   -1.250000e-02 -3.175000e-02 -1.960471e-02
      vertex   6.761481e-03 -3.175000e-02 1.811733e-03
    endloop
  endfacet
  facet normal 0.000000e+00 1.000000e+00 0.000000e+00
    outer loop
      vertex   6.761481e-03 -3.175000e-02 1.811733e-03
      vertex   -1.250000e-02 -3.175000e-02 -1.960471e-02
      vertex   -6.761481e-03 -3.175000e-02 1.811733e-03
    endloop
  endfacet
  facet normal 0.000000e+00 1.000000e+00 0.000000e+00
    outer loop
      vertex   6.761481e-03 -3.175000e-02 1.811733e-03
      vertex   -6.761481e-03 -3.175000e-02 1.811733e-03
      vertex   6.062178e-03 -3.175000e-02 3.500000e-03
    endloop
  endfacet
  facet normal 0.000000e+00 1.000000e+00 0.000000e+00
    outer loop
      vertex   6.062178e-03 -3.175000e-02 3.500000e-03
      vertex   -6.761481e-03 -3.175000e-02 1.811733e-03
      vertex   4.949747e-03 -3.175000e-02 4.949747e-03
    endloop
  endfacet
  facet normal 0.000000e+00 1.000000e+00 0.000000e+00
    outer loop
      vertex   4.949747e-03 -3.175000e-02 4.949747e-03
      vertex   -6.761481e-03 -3.175000e-02 1.811733e-03
      vertex   3.500000e-03 -3.175000e-02 6.062178e-03
    endloop
  endfacet
  facet normal 0.000000e+00 1.000000e+00 0.000000e+00
    outer loop
      vertex   3.500000e-03 -3.175000e-02 6.062178e-03
      vertex   -6.761481e-03 -3.175000e-02 1.811733e-03
      vertex   1.811733e-03 -3.175000e-02 6.761481e-03
    endloop
  endfacet
  facet normal 0.000000e+00 1.000000e+00 0.000000e+00
    outer loop
      vertex   1.811733e-03 -3.175000e-02 6.761481e-03
      vertex   -6.761481e-03 -3.175000e-02 1.811733e-03
      vertex   -2.220446e-18 -3.175000e-02 7.000000e-03
    endloop
  endfacet
  facet normal 0.000000e+00 1.000000e+00 0.000000e+00
    outer loop
      vertex   -2.220446e-18 -3.175000e-02 7.000000e-03
      vertex   -6.761481e-03 -3.175000e-02 1.811733e-03
      vertex   -1.811733e-03 -3.175000e-02 6.761481e-03
    endloop
  endfacet
  facet normal 0.000000e+00 1.000000e+00 0.000000e+00
    outer loop
      vertex   -1.811733e-03 -3.175000e-02 6.761481e-03
      vertex   -6.761481e-03 -3.175000e-02 1.811733e-03
      vertex   -3.500000e-03 -3.175000e-02 6.062178e-03
    endloop
  endfacet
  facet normal 0.000000e+00 1.000000e+00 0.000000e+00
    outer loop
      vertex   -3.500000e-03 -3.175000e-02 6.062178e-03
      vertex   -6.761481e-03 -3.175000e-02 1.811733e-03
      vertex   -4.949747e-03 -3.175000e-02 4.949747e-03
    endloop
  endfacet
  facet normal 0.000000e+00 1.000000e+00 0.000000e+00
    outer loop
      vertex   -4.949747e-03 -3.175000e-02 4.949747e-03
      vertex   -6.761481e-03 -3.175000e-02 1.811733e-03
      vertex   -6.062178e-03 -3.175000e-02 3.500000e-03
    endloop
  endfacet
  facet normal 0.000000e+00 1.000000e+00 -9.605572e-16
    outer loop
      vertex   -5.106406e-03 -3.175000e-02 -8.400000e-02
      vertex   -1.064065e-04 -3.175000e-02 -8.400000e-02
      vertex   -1.250000e-02 -3.175000e-02 -1.128953e-01
    endloop
  endfacet
  facet normal 1.000000e+00 -1.577270e-30 6.819258e-16
    outer loop
      vertex   7.287187e-03 -3.475000e-02 -5.984977e-02
      vertex   7.287187e-03 -3.475000e-02 -1.323498e-01
      vertex   7.287187e-03 -3.175000e-02 -5.984977e-02
    endloop
  endfacet
  facet normal 1.000000e+00 -2.891206e-15 8.015619e-16
    outer loop
      vertex   7.287187e-03 -3.175000e-02 -5.984977e-02
      vertex   7.287187e-03 -3.475000e-02 -1.323498e-01
      vertex   7.287187e-03 -3.175000e-02 -1.323498e-01
    endloop
  endfacet
  facet normal 9.659258e-01 5.986393e-16 -2.588190e-01
    outer loop
      vertex   7.287187e-03 -3.175000e-02 -5.984977e-02
      vertex   1.250000e-02 -3.175000e-02 -4.039529e-02
      vertex   7.287187e-03 -3.475000e-02 -5.984977e-02
    endloop
  endfacet
  facet normal 9.659258e-01 0.000000e+00 -2.588190e-01
    outer loop
      vertex   7.287187e-03 -3.475000e-02 -5.984977e-02
      vertex   1.250000e-02 -3.175000e-02 -4.039529e-02
      vertex   1.250000e-02 -3.475000e-02 -4.039529e-02
    endloop
  endfacet
  facet normal 9.659258e-01 0.000000e+00 2.588190e-01
    outer loop
      vertex   1.250000e-02 -3.175000e-02 -1.960471e-02
      vertex   6.761481e-03 -3.175000e-02 1.811733e-03
      vertex   1.250000e-02 -3.475000e-02 -1.960471e-02
    endloop
  endfacet
  facet normal 9.659258e-01 0.000000e+00 2.588190e-01
    outer loop
      vertex   1.250000e-02 -3.475000e-02 -1.960471e-02
      vertex   6.761481e-03 -3.175000e-02 1.811733e-03
      vertex   6.761481e-03 -3.475000e-02 1.811733e-03
    endloop
  endfacet
  facet normal 1.000000e+00 0.000000e+00 -0.000000e+00
    outer loop
      vertex   1.250000e-02 -3.175000e-02 -4.039529e-02
      vertex   1.250000e-02 -3.175000e-02 -1.960471e-02
      vertex   1.250000e-02 -3.475000e-02 -4.039529e-02
    endloop
  endfacet
  facet normal 1.000000e+00 0.000000e+00 0.000000e+00
    outer loop
      vertex   1.250000e-02 -3.475000e-02 -4.039529e-02
      vertex   1.250000e-02 -3.175000e-02 -1.960471e-02
      vertex   1.250000e-02 -3.475000e-02 -1.960471e-02
    endloop
  endfacet
  facet normal 9.659258e-01 0.000000e+00 -2.588190e-01
    outer loop
      vertex   6.761481e-03 -3.175000e-02 -1.343117e-01
      vertex   7.287187e-03 -3.175000e-02 -1.323498e-01
      vertex   6.761481e-03 -3.475000e-02 -1.343117e-01
    endloop
  endfacet
  facet normal 9.659258e-01 -2.814862e-15 -2.588190e-01
    outer loop
      vertex   6.761481e-03 -3.475000e-02 -1.343117e-01
      vertex   7.287187e-03 -3.175000e-02 -1.323498e-01
      vertex   7.287187e-03 -3.475000e-02 -1.323498e-01
    endloop
  endfacet
  facet normal -9.238795e-01 -6.022945e-16 -3.826834e-01
    outer loop
      vertex   -6.761481e-03 -3.475000e-02 -1.343117e-01
      vertex   -6.761481e-03 -3.175000e-02 -1.343117e-01
      vertex   -6.062178e-03 -3.475000e-02 -1.360000e-01
    endloop
  endfacet
  facet normal -9.238795e-01 0.000000e+00 -3.826834e-01
    outer loop
      vertex   -6.062178e-03 -3.475000e-02 -1.360000e-01
      vertex   -6.761481e-03 -3.175000e-02 -1.343117e-01
      vertex   -6.062178e-03 -3.175000e-02 -1.360000e-01
    endloop
  endfacet
  facet normal -7.933533e-01 0.000000e+00 -6.087614e-01
    outer loop
      vertex   -6.062178e-03 -3.475000e-02 -1.360000e-01
      vertex   -6.062178e-03 -3.175000e-02 -1.360000e-01
      vertex   -4.949747e-03 -3.475000e-02 -1.374497e-01
    endloop
  endfacet
  facet normal -7.933533e-01 0.000000e+00 -6.087614e-01
    outer loop
      vertex   -4.949747e-03 -3.475000e-02 -1.374497e-01
      vertex   -6.062178e-03 -3.175000e-02 -1.360000e-01
      vertex   -4.949747e-03 -3.175000e-02 -1.374497e-01
    endloop
  endfacet
  facet normal -6.087614e-01 0.000000e+00 -7.933533e-01
    outer loop
      vertex   -4.949747e-03 -3.475000e-02 -1.374497e-01
      vertex   -4.949747e-03 -3.175000e-02 -1.374497e-01
      vertex   -3.500000e-03 -3.475000e-02 -1.385622e-01
    endloop
  endfacet
  facet normal -6.087614e-01 0.000000e+00 -7.933533e-01
    outer loop
      vertex   -3.500000e-03 -3.475000e-02 -1.385622e-01
      vertex   -4.949747e-03 -3.175000e-02 -1.374497e-01
      vertex   -3.500000e-03 -3.175000e-02 -1.385622e-01
    endloop
  endfacet
  facet normal -3.826834e-01 0.000000e+00 -9.238795e-01
    outer loop
      vertex   -3.500000e-03 -3.475000e-02 -1.385622e-01
      vertex   -3.500000e-03 -3.175000e-02 -1.385622e-01
      vertex   -1.811733e-03 -3.475000e-02 -1.392615e-01
    endloop
  endfacet
  facet normal -3.826834e-01 0.000000e+00 -9.238795e-01
    outer loop
      vertex   -1.811733e-03 -3.475000e-02 -1.392615e-01
      vertex   -3.500000e-03 -3.175000e-02 -1.385622e-01
      vertex   -1.811733e-03 -3.175000e-02 -1.392615e-01
    endloop
  endfacet
  facet normal -1.305262e-01 0.000000e+00 -9.914449e-01
    outer loop
      vertex   -1.811733e-03 -3.475000e-02 -1.392615e-01
      vertex   -1.811733e-03 -3.175000e-02 -1.392615e-01
      vertex   -1.332268e-17 -3.475000e-02 -1.395000e-01
    endloop
  endfacet
  facet normal -1.305262e-01 0.000000e+00 -9.914449e-01
    outer loop
      vertex   -1.332268e-17 -3.475000e-02 -1.395000e-01
      vertex   -1.811733e-03 -3.175000e-02 -1.392615e-01
      vertex   -1.332268e-17 -3.175000e-02 -1.395000e-01
    endloop
  endfacet
  facet normal 1.305262e-01 0.000000e+00 -9.914449e-01
    outer loop
      vertex   -1.332268e-17 -3.475000e-02 -1.395000e-01
      vertex   -1.332268e-17 -3.175000e-02 -1.395000e-01
      vertex   1.811733e-03 -3.475000e-02 -1.392615e-01
    endloop
  endfacet
  facet normal 1.305262e-01 0.000000e+00 -9.914449e-01
    outer loop
      vertex   1.811733e-03 -3.475000e-02 -1.392615e-01
      vertex   -1.332268e-17 -3.175000e-02 -1.395000e-01
      vertex   1.811733e-03 -3.175000e-02 -1.392615e-01
    endloop
  endfacet
  facet normal 3.826834e-01 0.000000e+00 -9.238795e-01
    outer loop
      vertex   1.811733e-03 -3.475000e-02 -1.392615e-01
      vertex   1.811733e-03 -3.175000e-02 -1.392615e-01
      vertex   3.500000e-03 -3.475000e-02 -1.385622e-01
    endloop
  endfacet
  facet normal 3.826834e-01 0.000000e+00 -9.238795e-01
    outer loop
      vertex   3.500000e-03 -3.475000e-02 -1.385622e-01
      vertex   1.811733e-03 -3.175000e-02 -1.392615e-01
      vertex   3.500000e-03 -3.175000e-02 -1.385622e-01
    endloop
  endfacet
  facet normal 6.087614e-01 0.000000e+00 -7.933533e-01
    outer loop
      vertex   3.500000e-03 -3.475000e-02 -1.385622e-01
      vertex   3.500000e-03 -3.175000e-02 -1.385622e-01
      vertex   4.949747e-03 -3.475000e-02 -1.374497e-01
    endloop
  endfacet
  facet normal 6.087614e-01 0.000000e+00 -7.933533e-01
    outer loop
      vertex   4.949747e-03 -3.475000e-02 -1.374497e-01
      vertex   3.500000e-03 -3.175000e-02 -1.385622e-01
      vertex   4.949747e-03 -3.175000e-02 -1.374497e-01
    endloop
  endfacet
  facet normal 7.933533e-01 0.000000e+00 -6.087614e-01
    outer loop
      vertex   4.949747e-03 -3.475000e-02 -1.374497e-01
      vertex   4.949747e-03 -3.175000e-02 -1.374497e-01
      vertex   6.062178e-03 -3.475000e-02 -1.360000e-01
    endloop
  endfacet
  facet normal 7.933533e-01 0.000000e+00 -6.087614e-01
    outer loop
      vertex   6.062178e-03 -3.475000e-02 -1.360000e-01
      vertex   4.949747e-03 -3.175000e-02 -1.374497e-01
      vertex   6.062178e-03 -3.175000e-02 -1.360000e-01
    endloop
  endfacet
  facet normal 9.238795e-01 0.000000e+00 -3.826834e-01
    outer loop
      vertex   6.062178e-03 -3.475000e-02 -1.360000e-01
      vertex   6.062178e-03 -3.175000e-02 -1.360000e-01
      vertex   6.761481e-03 -3.475000e-02 -1.343117e-01
    endloop
  endfacet
  facet normal 9.238795e-01 0.000000e+00 -3.826834e-01
    outer loop
      vertex   6.761481e-03 -3.475000e-02 -1.343117e-01
      vertex   6.062178e-03 -3.175000e-02 -1.360000e-01
      vertex   6.761481e-03 -3.175000e-02 -1.343117e-01
    endloop
  endfacet
  facet normal -9.659258e-01 -0.000000e+00 -2.588190e-01
    outer loop
      vertex   -1.250000e-02 -3.175000e-02 -1.128953e-01
      vertex   -6.761481e-03 -3.175000e-02 -1.343117e-01
      vertex   -1.250000e-02 -3.475000e-02 -1.128953e-01
    endloop
  endfacet
  facet normal -9.659258e-01 4.074979e-16 -2.588190e-01
    outer loop
      vertex   -1.250000e-02 -3.475000e-02 -1.128953e-01
      vertex   -6.761481e-03 -3.175000e-02 -1.343117e-01
      vertex   -6.761481e-03 -3.475000e-02 -1.343117e-01
    endloop
  endfacet
  facet normal -1.000000e+00 -0.000000e+00 -1.115690e-16
    outer loop
      vertex   -1.250000e-02 -3.175000e-02 -1.960471e-02
      vertex   -1.250000e-02 -3.175000e-02 -1.128953e-01
      vertex   -1.250000e-02 -3.475000e-02 -1.960471e-02
    endloop
  endfacet
  facet normal -1.000000e+00 0.000000e+00 -1.115690e-16
    outer loop
      vertex   -1.250000e-02 -3.475000e-02 -1.960471e-02
      vertex   -1.250000e-02 -3.175000e-02 -1.128953e-01
      vertex   -1.250000e-02 -3.475000e-02 -1.128953e-01
    endloop
  endfacet
  facet normal -9.659258e-01 -4.837082e-16 2.588190e-01
    outer loop
      vertex   -6.761481e-03 -3.175000e-02 1.811733e-03
      vertex   -1.250000e-02 -3.175000e-02 -1.960471e-02
      vertex   -6.761481e-03 -3.475000e-02 1.811733e-03
    endloop
  endfacet
  facet normal -9.659258e-01 0.000000e+00 2.588190e-01
    outer loop
      vertex   -6.761481e-03 -3.475000e-02 1.811733e-03
      vertex   -1.250000e-02 -3.175000e-02 -1.960471e-02
      vertex   -1.250000e-02 -3.475000e-02 -1.960471e-02
    endloop
  endfacet
  facet normal 9.238795e-01 2.766041e-17 3.826834e-01
    outer loop
      vertex   6.761481e-03 -3.475000e-02 1.811733e-03
      vertex   6.761481e-03 -3.175000e-02 1.811733e-03
      vertex   6.062178e-03 -3.475000e-02 3.500000e-03
    endloop
  endfacet
  facet normal 9.238795e-01 5.532083e-17 3.826834e-01
    outer loop
      vertex   6.062178e-03 -3.475000e-02 3.500000e-03
      vertex   6.761481e-03 -3.175000e-02 1.811733e-03
      vertex   6.062178e-03 -3.175000e-02 3.500000e-03
    endloop
  endfacet
  facet normal 7.933533e-01 8.800273e-17 6.087614e-01
    outer loop
      vertex   6.062178e-03 -3.475000e-02 3.500000e-03
      vertex   6.062178e-03 -3.175000e-02 3.500000e-03
      vertex   4.949747e-03 -3.475000e-02 4.949747e-03
    endloop
  endfacet
  facet normal 7.933533e-01 -0.000000e+00 6.087614e-01
    outer loop
      vertex   4.949747e-03 -3.475000e-02 4.949747e-03
      vertex   6.062178e-03 -3.175000e-02 3.500000e-03
      vertex   4.949747e-03 -3.175000e-02 4.949747e-03
    endloop
  endfacet
  facet normal 6.087614e-01 -0.000000e+00 7.933533e-01
    outer loop
      vertex   4.949747e-03 -3.475000e-02 4.949747e-03
      vertex   4.949747e-03 -3.175000e-02 4.949747e-03
      vertex   3.500000e-03 -3.475000e-02 6.062178e-03
    endloop
  endfacet
  facet normal 6.087614e-01 2.293748e-16 7.933533e-01
    outer loop
      vertex   3.500000e-03 -3.475000e-02 6.062178e-03
      vertex   4.949747e-03 -3.175000e-02 4.949747e-03
      vertex   3.500000e-03 -3.175000e-02 6.062178e-03
    endloop
  endfacet
  facet normal 3.826834e-01 2.671126e-16 9.238795e-01
    outer loop
      vertex   3.500000e-03 -3.475000e-02 6.062178e-03
      vertex   3.500000e-03 -3.175000e-02 6.062178e-03
      vertex   1.811733e-03 -3.475000e-02 6.761481e-03
    endloop
  endfacet
  facet normal 3.826834e-01 -0.000000e+00 9.238795e-01
    outer loop
      vertex   1.811733e-03 -3.475000e-02 6.761481e-03
      vertex   3.500000e-03 -3.175000e-02 6.062178e-03
      vertex   1.811733e-03 -3.175000e-02 6.761481e-03
    endloop
  endfacet
  facet normal 1.305262e-01 -0.000000e+00 9.914449e-01
    outer loop
      vertex   1.811733e-03 -3.475000e-02 6.761481e-03
      vertex   1.811733e-03 -3.175000e-02 6.761481e-03
      vertex   -2.220446e-18 -3.475000e-02 7.000000e-03
    endloop
  endfacet
  facet normal 1.305262e-01 -0.000000e+00 9.914449e-01
    outer loop
      vertex   -2.220446e-18 -3.475000e-02 7.000000e-03
      vertex   1.811733e-03 -3.175000e-02 6.761481e-03
      vertex   -2.220446e-18 -3.175000e-02 7.000000e-03
    endloop
  endfacet
  facet normal -1.305262e-01 0.000000e+00 9.914449e-01
    outer loop
      vertex   -2.220446e-18 -3.475000e-02 7.000000e-03
      vertex   -2.220446e-18 -3.175000e-02 7.000000e-03
      vertex   -1.811733e-03 -3.475000e-02 6.761481e-03
    endloop
  endfacet
  facet normal -1.305262e-01 0.000000e+00 9.914449e-01
    outer loop
      vertex   -1.811733e-03 -3.475000e-02 6.761481e-03
      vertex   -2.220446e-18 -3.175000e-02 7.000000e-03
      vertex   -1.811733e-03 -3.175000e-02 6.761481e-03
    endloop
  endfacet
  facet normal -3.826834e-01 0.000000e+00 9.238795e-01
    outer loop
      vertex   -1.811733e-03 -3.475000e-02 6.761481e-03
      vertex   -1.811733e-03 -3.175000e-02 6.761481e-03
      vertex   -3.500000e-03 -3.475000e-02 6.062178e-03
    endloop
  endfacet
  facet normal -3.826834e-01 0.000000e+00 9.238795e-01
    outer loop
      vertex   -3.500000e-03 -3.475000e-02 6.062178e-03
      vertex   -1.811733e-03 -3.175000e-02 6.761481e-03
      vertex   -3.500000e-03 -3.175000e-02 6.062178e-03
    endloop
  endfacet
  facet normal -6.087614e-01 0.000000e+00 7.933533e-01
    outer loop
      vertex   -3.500000e-03 -3.475000e-02 6.062178e-03
      vertex   -3.500000e-03 -3.175000e-02 6.062178e-03
      vertex   -4.949747e-03 -3.475000e-02 4.949747e-03
    endloop
  endfacet
  facet normal -6.087614e-01 0.000000e+00 7.933533e-01
    outer loop
      vertex   -4.949747e-03 -3.475000e-02 4.949747e-03
      vertex   -3.500000e-03 -3.175000e-02 6.062178e-03
      vertex   -4.949747e-03 -3.175000e-02 4.949747e-03
    endloop
  endfacet
  facet normal -7.933533e-01 0.000000e+00 6.087614e-01
    outer loop
      vertex   -4.949747e-03 -3.475000e-02 4.949747e-03
      vertex   -4.949747e-03 -3.175000e-02 4.949747e-03
      vertex   -6.062178e-03 -3.475000e-02 3.500000e-03
    endloop
  endfacet
  facet normal -7.933533e-01 0.000000e+00 6.087614e-01
    outer loop
      vertex   -6.062178e-03 -3.475000e-02 3.500000e-03
      vertex   -4.949747e-03 -3.175000e-02 4.949747e-03
      vertex   -6.062178e-03 -3.175000e-02 3.500000e-03
    endloop
  endfacet
  facet normal -9.238795e-01 0.000000e+00 3.826834e-01
    outer loop
      vertex   -6.062178e-03 -3.475000e-02 3.500000e-03
      vertex   -6.062178e-03 -3.175000e-02 3.500000e-03
      vertex   -6.761481e-03 -3.475000e-02 1.811733e-03
    endloop
  endfacet
  facet normal -9.238795e-01 -4.235835e-16 3.826834e-01
    outer loop
      vertex   -6.761481e-03 -3.475000e-02 1.811733e-03
      vertex   -6.062178e-03 -3.175000e-02 3.500000e-03
      vertex   -6.761481e-03 -3.175000e-02 1.811733e-03
    endloop
  endfacet
  facet normal -4.176476e-16 -1.000000e+00 1.914178e-16
    outer loop
      vertex   7.287187e-03 -3.475000e-02 -5.984977e-02
      vertex   4.949747e-03 -3.475000e-02 -1.374497e-01
      vertex   7.287187e-03 -3.475000e-02 -1.323498e-01
    endloop
  endfacet
  facet normal 0.000000e+00 -1.000000e+00 0.000000e+00
    outer loop
      vertex   7.287187e-03 -3.475000e-02 -1.323498e-01
      vertex   4.949747e-03 -3.475000e-02 -1.374497e-01
      vertex   6.062178e-03 -3.475000e-02 -1.360000e-01
    endloop
  endfacet
  facet normal 0.000000e+00 -1.000000e+00 0.000000e+00
    outer loop
      vertex   7.287187e-03 -3.475000e-02 -1.323498e-01
      vertex   6.062178e-03 -3.475000e-02 -1.360000e-01
      vertex   6.761481e-03 -3.475000e-02 -1.343117e-01
    endloop
  endfacet
  facet normal -0.000000e+00 -1.000000e+00 0.000000e+00
    outer loop
      vertex   1.250000e-02 -3.475000e-02 -4.039529e-02
      vertex   1.250000e-02 -3.475000e-02 -1.960471e-02
      vertex   7.287187e-03 -3.475000e-02 -5.984977e-02
    endloop
  endfacet
  facet normal 0.000000e+00 -1.000000e+00 0.000000e+00
    outer loop
      vertex   7.287187e-03 -3.475000e-02 -5.984977e-02
      vertex   1.250000e-02 -3.475000e-02 -1.960471e-02
      vertex   6.761481e-03 -3.475000e-02 1.811733e-03
    endloop
  endfacet
  facet normal 0.000000e+00 -1.000000e+00 0.000000e+00
    outer loop
      vertex   7.287187e-03 -3.475000e-02 -5.984977e-02
      vertex   6.761481e-03 -3.475000e-02 1.811733e-03
      vertex   6.062178e-03 -3.475000e-02 3.500000e-03
    endloop
  endfacet
  facet normal -0.000000e+00 -1.000000e+00 -0.000000e+00
    outer loop
      vertex   6.062178e-03 -3.475000e-02 3.500000e-03
      vertex   4.949747e-03 -3.475000e-02 4.949747e-03
      vertex   7.287187e-03 -3.475000e-02 -5.984977e-02
    endloop
  endfacet
  facet normal 0.000000e+00 -1.000000e+00 0.000000e+00
    outer loop
      vertex   7.287187e-03 -3.475000e-02 -5.984977e-02
      vertex   4.949747e-03 -3.475000e-02 4.949747e-03
      vertex   3.500000e-03 -3.475000e-02 6.062178e-03
    endloop
  endfacet
  facet normal 0.000000e+00 -1.000000e+00 0.000000e+00
    outer loop
      vertex   7.287187e-03 -3.475000e-02 -5.984977e-02
      vertex   3.500000e-03 -3.475000e-02 6.062178e-03
      vertex   1.811733e-03 -3.475000e-02 6.761481e-03
    endloop
  endfacet
  facet normal -0.000000e+00 -1.000000e+00 -0.000000e+00
    outer loop
      vertex   1.811733e-03 -3.475000e-02 6.761481e-03
      vertex   -2.220446e-18 -3.475000e-02 7.000000e-03
      vertex   7.287187e-03 -3.475000e-02 -5.984977e-02
    endloop
  endfacet
  facet normal 0.000000e+00 -1.000000e+00 0.000000e+00
    outer loop
      vertex   7.287187e-03 -3.475000e-02 -5.984977e-02
      vertex   -2.220446e-18 -3.475000e-02 7.000000e-03
      vertex   -1.811733e-03 -3.475000e-02 6.761481e-03
    endloop
  endfacet
  facet normal 0.000000e+00 -1.000000e+00 0.000000e+00
    outer loop
      vertex   7.287187e-03 -3.475000e-02 -5.984977e-02
      vertex   -1.811733e-03 -3.475000e-02 6.761481e-03
      vertex   -3.500000e-03 -3.475000e-02 6.062178e-03
    endloop
  endfacet
  facet normal 0.000000e+00 -1.000000e+00 -0.000000e+00
    outer loop
      vertex   -3.500000e-03 -3.475000e-02 6.062178e-03
      vertex   -4.949747e-03 -3.475000e-02 4.949747e-03
      vertex   7.287187e-03 -3.475000e-02 -5.984977e-02
    endloop
  endfacet
  facet normal -2.886005e-15 -1.000000e+00 -5.450017e-16
    outer loop
      vertex   7.287187e-03 -3.475000e-02 -5.984977e-02
      vertex   -4.949747e-03 -3.475000e-02 4.949747e-03
      vertex   -6.761481e-03 -3.475000e-02 1.811733e-03
    endloop
  endfacet
  facet normal 4.265288e-16 -1.000000e+00 2.097103e-16
    outer loop
      vertex   7.287187e-03 -3.475000e-02 -5.984977e-02
      vertex   -6.761481e-03 -3.475000e-02 1.811733e-03
      vertex   -1.250000e-02 -3.475000e-02 -1.960471e-02
    endloop
  endfacet
  facet normal 1.163952e-14 -1.000000e+00 -8.931316e-15
    outer loop
      vertex   -4.949747e-03 -3.475000e-02 4.949747e-03
      vertex   -6.062178e-03 -3.475000e-02 3.500000e-03
      vertex   -6.761481e-03 -3.475000e-02 1.811733e-03
    endloop
  endfacet
  facet normal 3.025596e-16 -1.000000e+00 1.487587e-16
    outer loop
      vertex   -1.250000e-02 -3.475000e-02 -1.960471e-02
      vertex   -1.250000e-02 -3.475000e-02 -1.128953e-01
      vertex   7.287187e-03 -3.475000e-02 -5.984977e-02
    endloop
  endfacet
  facet normal 4.081619e-16 -1.000000e+00 1.093667e-16
    outer loop
      vertex   7.287187e-03 -3.475000e-02 -5.984977e-02
      vertex   -1.250000e-02 -3.475000e-02 -1.128953e-01
      vertex   -6.761481e-03 -3.475000e-02 -1.343117e-01
    endloop
  endfacet
  facet normal 2.433022e-16 -1.000000e+00 1.404706e-16
    outer loop
      vertex   7.287187e-03 -3.475000e-02 -5.984977e-02
      vertex   -6.761481e-03 -3.475000e-02 -1.343117e-01
      vertex   -4.949747e-03 -3.475000e-02 -1.374497e-01
    endloop
  endfacet
  facet normal 0.000000e+00 -1.000000e+00 0.000000e+00
    outer loop
      vertex   -4.949747e-03 -3.475000e-02 -1.374497e-01
      vertex   -6.761481e-03 -3.475000e-02 -1.343117e-01
      vertex   -6.062178e-03 -3.475000e-02 -1.360000e-01
    endloop
  endfacet
  facet normal 1.224145e-16 -1.000000e+00 1.595337e-16
    outer loop
      vertex   -4.949747e-03 -3.475000e-02 -1.374497e-01
      vertex   -3.500000e-03 -3.475000e-02 -1.385622e-01
      vertex   7.287187e-03 -3.475000e-02 -5.984977e-02
    endloop
  endfacet
  facet normal 6.910707e-17 -1.000000e+00 1.668392e-16
    outer loop
      vertex   7.287187e-03 -3.475000e-02 -5.984977e-02
      vertex   -3.500000e-03 -3.475000e-02 -1.385622e-01
      vertex   -1.811733e-03 -3.475000e-02 -1.392615e-01
    endloop
  endfacet
  facet normal 2.266536e-17 -1.000000e+00 1.721605e-16
    outer loop
      vertex   7.287187e-03 -3.475000e-02 -5.984977e-02
      vertex   -1.811733e-03 -3.475000e-02 -1.392615e-01
      vertex   -1.332268e-17 -3.475000e-02 -1.395000e-01
    endloop
  endfacet
  facet normal -2.321802e-17 -1.000000e+00 1.763583e-16
    outer loop
      vertex   -1.332268e-17 -3.475000e-02 -1.395000e-01
      vertex   1.811733e-03 -3.475000e-02 -1.392615e-01
      vertex   7.287187e-03 -3.475000e-02 -5.984977e-02
    endloop
  endfacet
  facet normal -7.451506e-17 -1.000000e+00 1.798953e-16
    outer loop
      vertex   7.287187e-03 -3.475000e-02 -5.984977e-02
      vertex   1.811733e-03 -3.475000e-02 -1.392615e-01
      vertex   3.500000e-03 -3.475000e-02 -1.385622e-01
    endloop
  endfacet
  facet normal -1.404736e-16 -1.000000e+00 1.830688e-16
    outer loop
      vertex   7.287187e-03 -3.475000e-02 -5.984977e-02
      vertex   3.500000e-03 -3.475000e-02 -1.385622e-01
      vertex   4.949747e-03 -3.475000e-02 -1.374497e-01
    endloop
  endfacet
  facet normal 2.088238e-16 1.000000e+00 -9.570888e-17
    outer loop
      vertex   7.287187e-03 3.475000e-02 -1.323498e-01
      vertex   4.949747e-03 3.475000e-02 -1.374497e-01
      vertex   7.287187e-03 3.475000e-02 -5.984977e-02
    endloop
  endfacet
  facet normal 7.023682e-17 1.000000e+00 -9.153441e-17
    outer loop
      vertex   7.287187e-03 3.475000e-02 -5.984977e-02
      vertex   4.949747e-03 3.475000e-02 -1.374497e-01
      vertex   3.500000e-03 3.475000e-02 -1.385622e-01
    endloop
  endfacet
  facet normal 3.725753e-17 1.000000e+00 -8.994764e-17
    outer loop
      vertex   7.287187e-03 3.475000e-02 -5.984977e-02
      vertex   3.500000e-03 3.475000e-02 -1.385622e-01
      vertex   1.811733e-03 3.475000e-02 -1.392615e-01
    endloop
  endfacet
  facet normal 0.000000e+00 1.000000e+00 -0.000000e+00
    outer loop
      vertex   6.761481e-03 3.475000e-02 -1.343117e-01
      vertex   6.062178e-03 3.475000e-02 -1.360000e-01
      vertex   7.287187e-03 3.475000e-02 -1.323498e-01
    endloop
  endfacet
  facet normal 0.000000e+00 1.000000e+00 0.000000e+00
    outer loop
      vertex   7.287187e-03 3.475000e-02 -1.323498e-01
      vertex   6.062178e-03 3.475000e-02 -1.360000e-01
      vertex   4.949747e-03 3.475000e-02 -1.374497e-01
    endloop
  endfacet
  facet normal 1.160901e-17 1.000000e+00 -8.817917e-17
    outer loop
      vertex   1.811733e-03 3.475000e-02 -1.392615e-01
      vertex   -3.913536e-17 3.475000e-02 -1.395000e-01
      vertex   7.287187e-03 3.475000e-02 -5.984977e-02
    endloop
  endfacet
  facet normal -1.133268e-17 1.000000e+00 -8.608024e-17
    outer loop
      vertex   7.287187e-03 3.475000e-02 -5.984977e-02
      vertex   -3.913536e-17 3.475000e-02 -1.395000e-01
      vertex   -1.811733e-03 3.475000e-02 -1.392615e-01
    endloop
  endfacet
  facet normal -3.455353e-17 1.000000e+00 -8.341961e-17
    outer loop
      vertex   7.287187e-03 3.475000e-02 -5.984977e-02
      vertex   -1.811733e-03 3.475000e-02 -1.392615e-01
      vertex   -3.500000e-03 3.475000e-02 -1.385622e-01
    endloop
  endfacet
  facet normal -6.120725e-17 1.000000e+00 -7.976684e-17
    outer loop
      vertex   -3.500000e-03 3.475000e-02 -1.385622e-01
      vertex   -4.949747e-03 3.475000e-02 -1.374497e-01
      vertex   7.287187e-03 3.475000e-02 -5.984977e-02
    endloop
  endfacet
  facet normal -1.216511e-16 1.000000e+00 -7.023530e-17
    outer loop
      vertex   7.287187e-03 3.475000e-02 -5.984977e-02
      vertex   -4.949747e-03 3.475000e-02 -1.374497e-01
      vertex   -6.761481e-03 3.475000e-02 -1.343117e-01
    endloop
  endfacet
  facet normal 5.054798e-16 1.000000e+00 -1.885555e-16
    outer loop
      vertex   7.287187e-03 3.475000e-02 -5.984977e-02
      vertex   -6.761481e-03 3.475000e-02 -1.343117e-01
      vertex   -1.250000e-02 3.475000e-02 -1.128953e-01
    endloop
  endfacet
  facet normal 0.000000e+00 1.000000e+00 0.000000e+00
    outer loop
      vertex   -4.949747e-03 3.475000e-02 -1.374497e-01
      vertex   -6.062178e-03 3.475000e-02 -1.360000e-01
      vertex   -6.761481e-03 3.475000e-02 -1.343117e-01
    endloop
  endfacet
  facet normal 1.993963e-16 1.000000e+00 -7.437937e-17
    outer loop
      vertex   -1.250000e-02 3.475000e-02 -1.128953e-01
      vertex   -1.250000e-02 3.475000e-02 -1.960471e-02
      vertex   7.287187e-03 3.475000e-02 -5.984977e-02
    endloop
  endfacet
  facet normal -1.995511e-16 1.000000e+00 -2.705288e-16
    outer loop
      vertex   7.287187e-03 3.475000e-02 -5.984977e-02
      vertex   -1.250000e-02 3.475000e-02 -1.960471e-02
      vertex   -6.761481e-03 3.475000e-02 1.811733e-03
    endloop
  endfacet
  facet normal 2.795182e-16 1.000000e+00 -1.613799e-16
    outer loop
      vertex   7.287187e-03 3.475000e-02 -5.984977e-02
      vertex   -6.761481e-03 3.475000e-02 1.811733e-03
      vertex   -4.949747e-03 3.475000e-02 4.949747e-03
    endloop
  endfacet
  facet normal 0.000000e+00 1.000000e+00 0.000000e+00
    outer loop
      vertex   -4.949747e-03 3.475000e-02 4.949747e-03
      vertex   -6.761481e-03 3.475000e-02 1.811733e-03
      vertex   -6.062178e-03 3.475000e-02 3.500000e-03
    endloop
  endfacet
  facet normal 1.435356e-16 1.000000e+00 -1.870593e-16
    outer loop
      vertex   -4.949747e-03 3.475000e-02 4.949747e-03
      vertex   -3.500000e-03 3.475000e-02 6.062178e-03
      vertex   7.287187e-03 3.475000e-02 -5.984977e-02
    endloop
  endfacet
  facet normal 8.167599e-17 1.000000e+00 -1.971833e-16
    outer loop
      vertex   7.287187e-03 3.475000e-02 -5.984977e-02
      vertex   -3.500000e-03 3.475000e-02 6.062178e-03
      vertex   -1.811733e-03 3.475000e-02 6.761481e-03
    endloop
  endfacet
  facet normal 2.694394e-17 1.000000e+00 -2.046595e-16
    outer loop
      vertex   7.287187e-03 3.475000e-02 -5.984977e-02
      vertex   -1.811733e-03 3.475000e-02 6.761481e-03
      vertex   -8.604228e-18 3.475000e-02 7.000000e-03
    endloop
  endfacet
  facet normal -2.772856e-17 1.000000e+00 -2.106193e-16
    outer loop
      vertex   -8.604228e-18 3.475000e-02 7.000000e-03
      vertex   1.811733e-03 3.475000e-02 6.761481e-03
      vertex   7.287187e-03 3.475000e-02 -5.984977e-02
    endloop
  endfacet
  facet normal -8.933911e-17 1.000000e+00 -2.156837e-16
    outer loop
      vertex   7.287187e-03 3.475000e-02 -5.984977e-02
      vertex   1.811733e-03 3.475000e-02 6.761481e-03
      vertex   3.500000e-03 3.475000e-02 6.062178e-03
    endloop
  endfacet
  facet normal -1.690127e-16 1.000000e+00 -2.202616e-16
    outer loop
      vertex   7.287187e-03 3.475000e-02 -5.984977e-02
      vertex   3.500000e-03 3.475000e-02 6.062178e-03
      vertex   4.949747e-03 3.475000e-02 4.949747e-03
    endloop
  endfacet
  facet normal -2.928731e-16 1.000000e+00 -2.247295e-16
    outer loop
      vertex   4.949747e-03 3.475000e-02 4.949747e-03
      vertex   6.062178e-03 3.475000e-02 3.500000e-03
      vertex   7.287187e-03 3.475000e-02 -5.984977e-02
    endloop
  endfacet
  facet normal -5.547714e-16 1.000000e+00 -2.297939e-16
    outer loop
      vertex   7.287187e-03 3.475000e-02 -5.984977e-02
      vertex   6.062178e-03 3.475000e-02 3.500000e-03
      vertex   6.761481e-03 3.475000e-02 1.811733e-03
    endloop
  endfacet
  facet normal 3.813623e-16 1.000000e+00 -2.218127e-16
    outer loop
      vertex   7.287187e-03 3.475000e-02 -5.984977e-02
      vertex   6.761481e-03 3.475000e-02 1.811733e-03
      vertex   1.250000e-02 3.475000e-02 -1.960471e-02
    endloop
  endfacet
  facet normal -1.331123e-15 1.000000e+00 1.110662e-31
    outer loop
      vertex   1.250000e-02 3.475000e-02 -1.960471e-02
      vertex   1.250000e-02 3.475000e-02 -4.039529e-02
      vertex   7.287187e-03 3.475000e-02 -5.984977e-02
    endloop
  endfacet
  facet normal 0.000000e+00 2.185478e-16 -1.000000e+00
    outer loop
      vertex   -5.106406e-03 -3.175000e-02 -8.400000e-02
      vertex   -5.106406e-03 3.175000e-02 -8.400000e-02
      vertex   -1.064065e-04 -3.175000e-02 -8.400000e-02
    endloop
  endfacet
  facet normal 0.000000e+00 2.185478e-16 -1.000000e+00
    outer loop
      vertex   -1.064065e-04 -3.175000e-02 -8.400000e-02
      vertex   -5.106406e-03 3.175000e-02 -8.400000e-02
      vertex   -1.064065e-04 3.175000e-02 -8.400000e-02
    endloop
  endfacet
  facet normal -2.775558e-15 4.370957e-16 1.000000e+00
    outer loop
      vertex   -5.106406e-03 3.175000e-02 -4.900000e-02
      vertex   -5.106406e-03 -3.175000e-02 -4.900000e-02
      vertex   -1.064065e-04 3.175000e-02 -4.900000e-02
    endloop
  endfacet
  facet normal 0.000000e+00 2.185478e-16 1.000000e+00
    outer loop
      vertex   -1.064065e-04 3.175000e-02 -4.900000e-02
      vertex   -5.106406e-03 -3.175000e-02 -4.900000e-02
      vertex   -1.064065e-04 -3.175000e-02 -4.900000e-02
    endloop
  endfacet
endsolid
