solid ASCII
  facet normal 1.000000e+00 -8.195544e-17 -4.956353e-17
    outer loop
      vertex   1.000000e-02 -3.175000e-02 9.250000e-02
      vertex   1.000000e-02 -3.175000e-02 5.750000e-02
      vertex   1.000000e-02 3.175000e-02 9.250000e-02
    endloop
  endfacet
  facet normal 1.000000e+00 -2.731848e-17 -1.486906e-16
    outer loop
      vertex   1.000000e-02 3.175000e-02 9.250000e-02
      vertex   1.000000e-02 -3.175000e-02 5.750000e-02
      vertex   1.000000e-02 3.175000e-02 5.750000e-02
    endloop
  endfacet
  facet normal 0.000000e+00 -1.000000e+00 3.762563e-15
    outer loop
      vertex   5.000000e-03 3.175000e-02 9.250000e-02
      vertex   1.000000e-02 3.175000e-02 9.250000e-02
      vertex   1.500000e-02 3.175000e-02 1.035652e-01
    endloop
  endfacet
  facet normal 6.571702e-15 -1.000000e+00 7.930164e-16
    outer loop
      vertex   1.500000e-02 3.175000e-02 1.035652e-01
      vertex   1.000000e-02 3.175000e-02 9.250000e-02
      vertex   1.000000e-02 3.175000e-02 5.750000e-02
    endloop
  endfacet
  facet normal 1.387779e-14 -1.000000e+00 -1.322571e-29
    outer loop
      vertex   1.500000e-02 3.175000e-02 1.035652e-01
      vertex   1.000000e-02 3.175000e-02 5.750000e-02
      vertex   1.500000e-02 3.175000e-02 2.893484e-02
    endloop
  endfacet
  facet normal -1.387779e-15 -1.000000e+00 -2.672060e-15
    outer loop
      vertex   1.500000e-02 3.175000e-02 2.893484e-02
      vertex   1.000000e-02 3.175000e-02 5.750000e-02
      vertex   5.000000e-03 3.175000e-02 5.750000e-02
    endloop
  endfacet
  facet normal -5.182204e-15 -1.000000e+00 -4.000401e-15
    outer loop
      vertex   1.500000e-02 3.175000e-02 2.893484e-02
      vertex   5.000000e-03 3.175000e-02 5.750000e-02
      vertex   -2.500000e-03 3.175000e-02 5.160471e-02
    endloop
  endfacet
  facet normal -8.326673e-15 -1.000000e+00 -1.424259e-29
    outer loop
      vertex   -2.500000e-03 3.175000e-02 5.160471e-02
      vertex   5.000000e-03 3.175000e-02 5.750000e-02
      vertex   -2.500000e-03 3.175000e-02 7.239529e-02
    endloop
  endfacet
  facet normal -7.145452e-15 -1.000000e+00 5.947623e-16
    outer loop
      vertex   -2.500000e-03 3.175000e-02 7.239529e-02
      vertex   5.000000e-03 3.175000e-02 5.750000e-02
      vertex   5.000000e-03 3.175000e-02 9.250000e-02
    endloop
  endfacet
  facet normal -3.230638e-15 -1.000000e+00 -8.656468e-16
    outer loop
      vertex   -2.500000e-03 3.175000e-02 7.239529e-02
      vertex   5.000000e-03 3.175000e-02 9.250000e-02
      vertex   -7.712813e-03 3.175000e-02 9.184977e-02
    endloop
  endfacet
  facet normal -3.274914e-15 -1.000000e+00 2.262994e-30
    outer loop
      vertex   -7.712813e-03 3.175000e-02 9.184977e-02
      vertex   5.000000e-03 3.175000e-02 9.250000e-02
      vertex   -7.712813e-03 3.175000e-02 1.307613e-01
    endloop
  endfacet
  facet normal 2.163778e-15 -1.000000e+00 1.807075e-15
    outer loop
      vertex   -7.712813e-03 3.175000e-02 1.307613e-01
      vertex   5.000000e-03 3.175000e-02 9.250000e-02
      vertex   1.500000e-02 3.175000e-02 1.035652e-01
    endloop
  endfacet
  facet normal 0.000000e+00 -1.000000e+00 0.000000e+00
    outer loop
      vertex   -7.712813e-03 3.175000e-02 1.307613e-01
      vertex   1.500000e-02 3.175000e-02 1.035652e-01
      vertex   6.761481e-03 3.175000e-02 1.343117e-01
    endloop
  endfacet
  facet normal 0.000000e+00 -1.000000e+00 -0.000000e+00
    outer loop
      vertex   -2.500000e-03 3.175000e-02 5.160471e-02
      vertex   -7.712813e-03 3.175000e-02 3.215023e-02
      vertex   1.500000e-02 3.175000e-02 2.893484e-02
    endloop
  endfacet
  facet normal -0.000000e+00 -1.000000e+00 0.000000e+00
    outer loop
      vertex   1.500000e-02 3.175000e-02 2.893484e-02
      vertex   -7.712813e-03 3.175000e-02 3.215023e-02
      vertex   6.761481e-03 3.175000e-02 -1.811733e-03
    endloop
  endfacet
  facet normal 0.000000e+00 -1.000000e+00 0.000000e+00
    outer loop
      vertex   6.761481e-03 3.175000e-02 -1.811733e-03
      vertex   -7.712813e-03 3.175000e-02 3.215023e-02
      vertex   -7.712813e-03 3.175000e-02 1.738687e-03
    endloop
  endfacet
  facet normal -0.000000e+00 -1.000000e+00 0.000000e+00
    outer loop
      vertex   6.761481e-03 3.175000e-02 -1.811733e-03
      vertex   -7.712813e-03 3.175000e-02 1.738687e-03
      vertex   6.062178e-03 3.175000e-02 -3.500000e-03
    endloop
  endfacet
  facet normal -0.000000e+00 -1.000000e+00 0.000000e+00
    outer loop
      vertex   6.062178e-03 3.175000e-02 -3.500000e-03
      vertex   -7.712813e-03 3.175000e-02 1.738687e-03
      vertex   4.949747e-03 3.175000e-02 -4.949747e-03
    endloop
  endfacet
  facet normal -0.000000e+00 -1.000000e+00 0.000000e+00
    outer loop
      vertex   4.949747e-03 3.175000e-02 -4.949747e-03
      vertex   -7.712813e-03 3.175000e-02 1.738687e-03
      vertex   3.500000e-03 3.175000e-02 -6.062178e-03
    endloop
  endfacet
  facet normal -0.000000e+00 -1.000000e+00 0.000000e+00
    outer loop
      vertex   3.500000e-03 3.175000e-02 -6.062178e-03
      vertex   -7.712813e-03 3.175000e-02 1.738687e-03
      vertex   1.811733e-03 3.175000e-02 -6.761481e-03
    endloop
  endfacet
  facet normal -0.000000e+00 -1.000000e+00 0.000000e+00
    outer loop
      vertex   1.811733e-03 3.175000e-02 -6.761481e-03
      vertex   -7.712813e-03 3.175000e-02 1.738687e-03
      vertex   2.137179e-17 3.175000e-02 -7.000000e-03
    endloop
  endfacet
  facet normal 0.000000e+00 -1.000000e+00 0.000000e+00
    outer loop
      vertex   2.137179e-17 3.175000e-02 -7.000000e-03
      vertex   -7.712813e-03 3.175000e-02 1.738687e-03
      vertex   -1.811733e-03 3.175000e-02 -6.761481e-03
    endloop
  endfacet
  facet normal 0.000000e+00 -1.000000e+00 0.000000e+00
    outer loop
      vertex   -1.811733e-03 3.175000e-02 -6.761481e-03
      vertex   -7.712813e-03 3.175000e-02 1.738687e-03
      vertex   -6.761481e-03 3.175000e-02 -1.811733e-03
    endloop
  endfacet
  facet normal 0.000000e+00 -1.000000e+00 0.000000e+00
    outer loop
      vertex   -1.811733e-03 3.175000e-02 -6.761481e-03
      vertex   -6.761481e-03 3.175000e-02 -1.811733e-03
      vertex   -3.500000e-03 3.175000e-02 -6.062178e-03
    endloop
  endfacet
  facet normal 0.000000e+00 -1.000000e+00 0.000000e+00
    outer loop
      vertex   -3.500000e-03 3.175000e-02 -6.062178e-03
      vertex   -6.761481e-03 3.175000e-02 -1.811733e-03
      vertex   -4.949747e-03 3.175000e-02 -4.949747e-03
    endloop
  endfacet
  facet normal 0.000000e+00 -1.000000e+00 0.000000e+00
    outer loop
      vertex   -4.949747e-03 3.175000e-02 -4.949747e-03
      vertex   -6.761481e-03 3.175000e-02 -1.811733e-03
      vertex   -6.062178e-03 3.175000e-02 -3.500000e-03
    endloop
  endfacet
  facet normal -0.000000e+00 -1.000000e+00 -0.000000e+00
    outer loop
      vertex   6.062178e-03 3.175000e-02 1.360000e-01
      vertex   4.949747e-03 3.175000e-02 1.374497e-01
      vertex   6.761481e-03 3.175000e-02 1.343117e-01
    endloop
  endfacet
  facet normal 0.000000e+00 -1.000000e+00 0.000000e+00
    outer loop
      vertex   6.761481e-03 3.175000e-02 1.343117e-01
      vertex   4.949747e-03 3.175000e-02 1.374497e-01
      vertex   3.500000e-03 3.175000e-02 1.385622e-01
    endloop
  endfacet
  facet normal 0.000000e+00 -1.000000e+00 0.000000e+00
    outer loop
      vertex   6.761481e-03 3.175000e-02 1.343117e-01
      vertex   3.500000e-03 3.175000e-02 1.385622e-01
      vertex   1.811733e-03 3.175000e-02 1.392615e-01
    endloop
  endfacet
  facet normal -0.000000e+00 -1.000000e+00 -0.000000e+00
    outer loop
      vertex   1.811733e-03 3.175000e-02 1.392615e-01
      vertex   1.496026e-16 3.175000e-02 1.395000e-01
      vertex   6.761481e-03 3.175000e-02 1.343117e-01
    endloop
  endfacet
  facet normal 0.000000e+00 -1.000000e+00 0.000000e+00
    outer loop
      vertex   6.761481e-03 3.175000e-02 1.343117e-01
      vertex   1.496026e-16 3.175000e-02 1.395000e-01
      vertex   -1.811733e-03 3.175000e-02 1.392615e-01
    endloop
  endfacet
  facet normal 0.000000e+00 -1.000000e+00 0.000000e+00
    outer loop
      vertex   6.761481e-03 3.175000e-02 1.343117e-01
      vertex   -1.811733e-03 3.175000e-02 1.392615e-01
      vertex   -3.500000e-03 3.175000e-02 1.385622e-01
    endloop
  endfacet
  facet normal 0.000000e+00 -1.000000e+00 -0.000000e+00
    outer loop
      vertex   -3.500000e-03 3.175000e-02 1.385622e-01
      vertex   -4.949747e-03 3.175000e-02 1.374497e-01
      vertex   6.761481e-03 3.175000e-02 1.343117e-01
    endloop
  endfacet
  facet normal 0.000000e+00 -1.000000e+00 0.000000e+00
    outer loop
      vertex   6.761481e-03 3.175000e-02 1.343117e-01
      vertex   -4.949747e-03 3.175000e-02 1.374497e-01
      vertex   -6.062178e-03 3.175000e-02 1.360000e-01
    endloop
  endfacet
  facet normal 0.000000e+00 -1.000000e+00 0.000000e+00
    outer loop
      vertex   6.761481e-03 3.175000e-02 1.343117e-01
      vertex   -6.062178e-03 3.175000e-02 1.360000e-01
      vertex   -6.761481e-03 3.175000e-02 1.343117e-01
    endloop
  endfacet
  facet normal 0.000000e+00 -1.000000e+00 -0.000000e+00
    outer loop
      vertex   -6.761481e-03 3.175000e-02 1.343117e-01
      vertex   -7.712813e-03 3.175000e-02 1.307613e-01
      vertex   6.761481e-03 3.175000e-02 1.343117e-01
    endloop
  endfacet
  facet normal -1.000000e+00 1.365924e-17 9.912706e-17
    outer loop
      vertex   5.000000e-03 -3.175000e-02 5.750000e-02
      vertex   5.000000e-03 -3.175000e-02 9.250000e-02
      vertex   5.000000e-03 3.175000e-02 5.750000e-02
    endloop
  endfacet
  facet normal -1.000000e+00 1.365924e-17 9.912706e-17
    outer loop
      vertex   5.000000e-03 3.175000e-02 5.750000e-02
      vertex   5.000000e-03 -3.175000e-02 9.250000e-02
      vertex   5.000000e-03 3.175000e-02 9.250000e-02
    endloop
  endfacet
  facet normal 1.796957e-14 1.000000e+00 -5.947623e-16
    outer loop
      vertex   1.000000e-02 -3.175000e-02 9.250000e-02
      vertex   1.500000e-02 -3.175000e-02 1.035652e-01
      vertex   1.000000e-02 -3.175000e-02 5.750000e-02
    endloop
  endfacet
  facet normal 1.334661e-14 1.000000e+00 -9.297687e-17
    outer loop
      vertex   1.000000e-02 -3.175000e-02 5.750000e-02
      vertex   1.500000e-02 -3.175000e-02 1.035652e-01
      vertex   1.500000e-02 -3.175000e-02 2.893484e-02
    endloop
  endfacet
  facet normal -3.371117e-30 1.000000e+00 -2.429146e-15
    outer loop
      vertex   1.000000e-02 -3.175000e-02 5.750000e-02
      vertex   1.500000e-02 -3.175000e-02 2.893484e-02
      vertex   5.000000e-03 -3.175000e-02 5.750000e-02
    endloop
  endfacet
  facet normal -5.758005e-15 1.000000e+00 -4.444890e-15
    outer loop
      vertex   5.000000e-03 -3.175000e-02 5.750000e-02
      vertex   1.500000e-02 -3.175000e-02 2.893484e-02
      vertex   -2.500000e-03 -3.175000e-02 5.160471e-02
    endloop
  endfacet
  facet normal -9.251859e-15 1.000000e+00 -5.558085e-30
    outer loop
      vertex   5.000000e-03 -3.175000e-02 5.750000e-02
      vertex   -2.500000e-03 -3.175000e-02 5.160471e-02
      vertex   -2.500000e-03 -3.175000e-02 7.239529e-02
    endloop
  endfacet
  facet normal 0.000000e+00 1.000000e+00 7.525126e-15
    outer loop
      vertex   1.000000e-02 -3.175000e-02 9.250000e-02
      vertex   5.000000e-03 -3.175000e-02 9.250000e-02
      vertex   1.500000e-02 -3.175000e-02 1.035652e-01
    endloop
  endfacet
  facet normal 4.327557e-15 1.000000e+00 3.614151e-15
    outer loop
      vertex   1.500000e-02 -3.175000e-02 1.035652e-01
      vertex   5.000000e-03 -3.175000e-02 9.250000e-02
      vertex   -7.712813e-03 -3.175000e-02 1.307613e-01
    endloop
  endfacet
  facet normal 0.000000e+00 1.000000e+00 0.000000e+00
    outer loop
      vertex   1.500000e-02 -3.175000e-02 1.035652e-01
      vertex   -7.712813e-03 -3.175000e-02 1.307613e-01
      vertex   6.761481e-03 -3.175000e-02 1.343117e-01
    endloop
  endfacet
  facet normal 0.000000e+00 1.000000e+00 0.000000e+00
    outer loop
      vertex   6.761481e-03 -3.175000e-02 1.343117e-01
      vertex   -7.712813e-03 -3.175000e-02 1.307613e-01
      vertex   -6.761481e-03 -3.175000e-02 1.343117e-01
    endloop
  endfacet
  facet normal 0.000000e+00 1.000000e+00 0.000000e+00
    outer loop
      vertex   6.761481e-03 -3.175000e-02 1.343117e-01
      vertex   -6.761481e-03 -3.175000e-02 1.343117e-01
      vertex   -6.062178e-03 -3.175000e-02 1.360000e-01
    endloop
  endfacet
  facet normal -1.043308e-14 1.000000e+00 -5.947623e-16
    outer loop
      vertex   5.000000e-03 -3.175000e-02 5.750000e-02
      vertex   -2.500000e-03 -3.175000e-02 7.239529e-02
      vertex   5.000000e-03 -3.175000e-02 9.250000e-02
    endloop
  endfacet
  facet normal -6.999715e-15 1.000000e+00 -1.875568e-15
    outer loop
      vertex   5.000000e-03 -3.175000e-02 9.250000e-02
      vertex   -2.500000e-03 -3.175000e-02 7.239529e-02
      vertex   -7.712813e-03 -3.175000e-02 9.184977e-02
    endloop
  endfacet
  facet normal -7.086525e-15 1.000000e+00 -1.783248e-16
    outer loop
      vertex   5.000000e-03 -3.175000e-02 9.250000e-02
      vertex   -7.712813e-03 -3.175000e-02 9.184977e-02
      vertex   -7.712813e-03 -3.175000e-02 1.307613e-01
    endloop
  endfacet
  facet normal -0.000000e+00 1.000000e+00 0.000000e+00
    outer loop
      vertex   -6.062178e-03 -3.175000e-02 1.360000e-01
      vertex   -4.949747e-03 -3.175000e-02 1.374497e-01
      vertex   6.761481e-03 -3.175000e-02 1.343117e-01
    endloop
  endfacet
  facet normal 0.000000e+00 1.000000e+00 0.000000e+00
    outer loop
      vertex   6.761481e-03 -3.175000e-02 1.343117e-01
      vertex   -4.949747e-03 -3.175000e-02 1.374497e-01
      vertex   -3.500000e-03 -3.175000e-02 1.385622e-01
    endloop
  endfacet
  facet normal 0.000000e+00 1.000000e+00 0.000000e+00
    outer loop
      vertex   6.761481e-03 -3.175000e-02 1.343117e-01
      vertex   -3.500000e-03 -3.175000e-02 1.385622e-01
      vertex   -1.811733e-03 -3.175000e-02 1.392615e-01
    endloop
  endfacet
  facet normal -0.000000e+00 1.000000e+00 0.000000e+00
    outer loop
      vertex   -1.811733e-03 -3.175000e-02 1.392615e-01
      vertex   2.009504e-16 -3.175000e-02 1.395000e-01
      vertex   6.761481e-03 -3.175000e-02 1.343117e-01
    endloop
  endfacet
  facet normal 0.000000e+00 1.000000e+00 0.000000e+00
    outer loop
      vertex   6.761481e-03 -3.175000e-02 1.343117e-01
      vertex   2.009504e-16 -3.175000e-02 1.395000e-01
      vertex   1.811733e-03 -3.175000e-02 1.392615e-01
    endloop
  endfacet
  facet normal 0.000000e+00 1.000000e+00 0.000000e+00
    outer loop
      vertex   6.761481e-03 -3.175000e-02 1.343117e-01
      vertex   1.811733e-03 -3.175000e-02 1.392615e-01
      vertex   3.500000e-03 -3.175000e-02 1.385622e-01
    endloop
  endfacet
  facet normal 0.000000e+00 1.000000e+00 0.000000e+00
    outer loop
      vertex   3.500000e-03 -3.175000e-02 1.385622e-01
      vertex   4.949747e-03 -3.175000e-02 1.374497e-01
      vertex   6.761481e-03 -3.175000e-02 1.343117e-01
    endloop
  endfacet
  facet normal 0.000000e+00 1.000000e+00 0.000000e+00
    outer loop
      vertex   6.761481e-03 -3.175000e-02 1.343117e-01
      vertex   4.949747e-03 -3.175000e-02 1.374497e-01
      vertex   6.062178e-03 -3.175000e-02 1.360000e-01
    endloop
  endfacet
  facet normal 0.000000e+00 1.000000e+00 0.000000e+00
    outer loop
      vertex   -2.500000e-03 -3.175000e-02 5.160471e-02
      vertex   1.500000e-02 -3.175000e-02 2.893484e-02
      vertex   -7.712813e-03 -3.175000e-02 3.215023e-02
    endloop
  endfacet
  facet normal 0.000000e+00 1.000000e+00 0.000000e+00
    outer loop
      vertex   -7.712813e-03 -3.175000e-02 3.215023e-02
      vertex   1.500000e-02 -3.175000e-02 2.893484e-02
      vertex   6.761481e-03 -3.175000e-02 -1.811733e-03
    endloop
  endfacet
  facet normal 0.000000e+00 1.000000e+00 0.000000e+00
    outer loop
      vertex   -7.712813e-03 -3.175000e-02 3.215023e-02
      vertex   6.761481e-03 -3.175000e-02 -1.811733e-03
      vertex   -7.712813e-03 -3.175000e-02 1.738687e-03
    endloop
  endfacet
  facet normal 0.000000e+00 1.000000e+00 0.000000e+00
    outer loop
      vertex   -7.712813e-03 -3.175000e-02 1.738687e-03
      vertex   6.761481e-03 -3.175000e-02 -1.811733e-03
      vertex   6.062178e-03 -3.175000e-02 -3.500000e-03
    endloop
  endfacet
  facet normal 0.000000e+00 1.000000e+00 0.000000e+00
    outer loop
      vertex   -7.712813e-03 -3.175000e-02 1.738687e-03
      vertex   6.062178e-03 -3.175000e-02 -3.500000e-03
      vertex   4.949747e-03 -3.175000e-02 -4.949747e-03
    endloop
  endfacet
  facet normal 0.000000e+00 1.000000e+00 0.000000e+00
    outer loop
      vertex   4.949747e-03 -3.175000e-02 -4.949747e-03
      vertex   3.500000e-03 -3.175000e-02 -6.062178e-03
      vertex   -7.712813e-03 -3.175000e-02 1.738687e-03
    endloop
  endfacet
  facet normal 0.000000e+00 1.000000e+00 0.000000e+00
    outer loop
      vertex   -7.712813e-03 -3.175000e-02 1.738687e-03
      vertex   3.500000e-03 -3.175000e-02 -6.062178e-03
      vertex   1.811733e-03 -3.175000e-02 -6.761481e-03
    endloop
  endfacet
  facet normal 0.000000e+00 1.000000e+00 0.000000e+00
    outer loop
      vertex   -7.712813e-03 -3.175000e-02 1.738687e-03
      vertex   1.811733e-03 -3.175000e-02 -6.761481e-03
      vertex   -6.106227e-17 -3.175000e-02 -7.000000e-03
    endloop
  endfacet
  facet normal 0.000000e+00 1.000000e+00 0.000000e+00
    outer loop
      vertex   -6.106227e-17 -3.175000e-02 -7.000000e-03
      vertex   -1.811733e-03 -3.175000e-02 -6.761481e-03
      vertex   -7.712813e-03 -3.175000e-02 1.738687e-03
    endloop
  endfacet
  facet normal 0.000000e+00 1.000000e+00 0.000000e+00
    outer loop
      vertex   -7.712813e-03 -3.175000e-02 1.738687e-03
      vertex   -1.811733e-03 -3.175000e-02 -6.761481e-03
      vertex   -6.761481e-03 -3.175000e-02 -1.811733e-03
    endloop
  endfacet
  facet normal 0.000000e+00 1.000000e+00 0.000000e+00
    outer loop
      vertex   -6.761481e-03 -3.175000e-02 -1.811733e-03
      vertex   -1.811733e-03 -3.175000e-02 -6.761481e-03
      vertex   -3.500000e-03 -3.175000e-02 -6.062178e-03
    endloop
  endfacet
  facet normal 0.000000e+00 1.000000e+00 0.000000e+00
    outer loop
      vertex   -6.761481e-03 -3.175000e-02 -1.811733e-03
      vertex   -3.500000e-03 -3.175000e-02 -6.062178e-03
      vertex   -4.949747e-03 -3.175000e-02 -4.949747e-03
    endloop
  endfacet
  facet normal 0.000000e+00 1.000000e+00 0.000000e+00
    outer loop
      vertex   -4.949747e-03 -3.175000e-02 -4.949747e-03
      vertex   -6.062178e-03 -3.175000e-02 -3.500000e-03
      vertex   -6.761481e-03 -3.175000e-02 -1.811733e-03
    endloop
  endfacet
  facet normal -1.000000e+00 -0.000000e+00 -6.466443e-16
    outer loop
      vertex   -2.500000e-03 -3.175000e-02 7.239529e-02
      vertex   -2.500000e-03 -3.175000e-02 5.160471e-02
      vertex   -2.500000e-03 -3.475000e-02 7.239529e-02
    endloop
  endfacet
  facet normal -1.000000e+00 0.000000e+00 -6.466443e-16
    outer loop
      vertex   -2.500000e-03 -3.475000e-02 7.239529e-02
      vertex   -2.500000e-03 -3.175000e-02 5.160471e-02
      vertex   -2.500000e-03 -3.475000e-02 5.160471e-02
    endloop
  endfacet
  facet normal -9.659258e-01 0.000000e+00 -2.588190e-01
    outer loop
      vertex   -2.500000e-03 -3.475000e-02 7.239529e-02
      vertex   -7.712813e-03 -3.475000e-02 9.184977e-02
      vertex   -2.500000e-03 -3.175000e-02 7.239529e-02
    endloop
  endfacet
  facet normal -9.659258e-01 0.000000e+00 -2.588190e-01
    outer loop
      vertex   -2.500000e-03 -3.175000e-02 7.239529e-02
      vertex   -7.712813e-03 -3.475000e-02 9.184977e-02
      vertex   -7.712813e-03 -3.175000e-02 9.184977e-02
    endloop
  endfacet
  facet normal -9.659258e-01 0.000000e+00 2.588190e-01
    outer loop
      vertex   -2.500000e-03 -3.175000e-02 5.160471e-02
      vertex   -7.712813e-03 -3.175000e-02 3.215023e-02
      vertex   -2.500000e-03 -3.475000e-02 5.160471e-02
    endloop
  endfacet
  facet normal -9.659258e-01 0.000000e+00 2.588190e-01
    outer loop
      vertex   -2.500000e-03 -3.475000e-02 5.160471e-02
      vertex   -7.712813e-03 -3.175000e-02 3.215023e-02
      vertex   -7.712813e-03 -3.475000e-02 3.215023e-02
    endloop
  endfacet
  facet normal -1.000000e+00 0.000000e+00 1.604923e-15
    outer loop
      vertex   -7.712813e-03 -3.475000e-02 9.184977e-02
      vertex   -7.712813e-03 -3.475000e-02 1.307613e-01
      vertex   -7.712813e-03 -3.175000e-02 9.184977e-02
    endloop
  endfacet
  facet normal -1.000000e+00 0.000000e+00 1.604923e-15
    outer loop
      vertex   -7.712813e-03 -3.175000e-02 9.184977e-02
      vertex   -7.712813e-03 -3.475000e-02 1.307613e-01
      vertex   -7.712813e-03 -3.175000e-02 1.307613e-01
    endloop
  endfacet
  facet normal -1.000000e+00 0.000000e+00 6.559786e-16
    outer loop
      vertex   -7.712813e-03 -3.175000e-02 3.215023e-02
      vertex   -7.712813e-03 -3.175000e-02 1.738687e-03
      vertex   -7.712813e-03 -3.475000e-02 3.215023e-02
    endloop
  endfacet
  facet normal -1.000000e+00 2.023844e-15 8.556242e-16
    outer loop
      vertex   -7.712813e-03 -3.475000e-02 3.215023e-02
      vertex   -7.712813e-03 -3.175000e-02 1.738687e-03
      vertex   -7.712813e-03 -3.475000e-02 1.738687e-03
    endloop
  endfacet
  facet normal -9.238795e-01 0.000000e+00 3.826834e-01
    outer loop
      vertex   -6.761481e-03 -3.175000e-02 1.343117e-01
      vertex   -6.761481e-03 -3.475000e-02 1.343117e-01
      vertex   -6.062178e-03 -3.175000e-02 1.360000e-01
    endloop
  endfacet
  facet normal -9.238795e-01 0.000000e+00 3.826834e-01
    outer loop
      vertex   -6.062178e-03 -3.175000e-02 1.360000e-01
      vertex   -6.761481e-03 -3.475000e-02 1.343117e-01
      vertex   -6.062178e-03 -3.475000e-02 1.360000e-01
    endloop
  endfacet
  facet normal -7.933533e-01 0.000000e+00 6.087614e-01
    outer loop
      vertex   -6.062178e-03 -3.175000e-02 1.360000e-01
      vertex   -6.062178e-03 -3.475000e-02 1.360000e-01
      vertex   -4.949747e-03 -3.175000e-02 1.374497e-01
    endloop
  endfacet
  facet normal -7.933533e-01 0.000000e+00 6.087614e-01
    outer loop
      vertex   -4.949747e-03 -3.175000e-02 1.374497e-01
      vertex   -6.062178e-03 -3.475000e-02 1.360000e-01
      vertex   -4.949747e-03 -3.475000e-02 1.374497e-01
    endloop
  endfacet
  facet normal -6.087614e-01 0.000000e+00 7.933533e-01
    outer loop
      vertex   -4.949747e-03 -3.175000e-02 1.374497e-01
      vertex   -4.949747e-03 -3.475000e-02 1.374497e-01
      vertex   -3.500000e-03 -3.175000e-02 1.385622e-01
    endloop
  endfacet
  facet normal -6.087614e-01 0.000000e+00 7.933533e-01
    outer loop
      vertex   -3.500000e-03 -3.175000e-02 1.385622e-01
      vertex   -4.949747e-03 -3.475000e-02 1.374497e-01
      vertex   -3.500000e-03 -3.475000e-02 1.385622e-01
    endloop
  endfacet
  facet normal -3.826834e-01 0.000000e+00 9.238795e-01
    outer loop
      vertex   -3.500000e-03 -3.175000e-02 1.385622e-01
      vertex   -3.500000e-03 -3.475000e-02 1.385622e-01
      vertex   -1.811733e-03 -3.175000e-02 1.392615e-01
    endloop
  endfacet
  facet normal -3.826834e-01 0.000000e+00 9.238795e-01
    outer loop
      vertex   -1.811733e-03 -3.175000e-02 1.392615e-01
      vertex   -3.500000e-03 -3.475000e-02 1.385622e-01
      vertex   -1.811733e-03 -3.475000e-02 1.392615e-01
    endloop
  endfacet
  facet normal -1.305262e-01 0.000000e+00 9.914449e-01
    outer loop
      vertex   -1.811733e-03 -3.175000e-02 1.392615e-01
      vertex   -1.811733e-03 -3.475000e-02 1.392615e-01
      vertex   2.009504e-16 -3.175000e-02 1.395000e-01
    endloop
  endfacet
  facet normal -1.305262e-01 0.000000e+00 9.914449e-01
    outer loop
      vertex   2.009504e-16 -3.175000e-02 1.395000e-01
      vertex   -1.811733e-03 -3.475000e-02 1.392615e-01
      vertex   2.009504e-16 -3.475000e-02 1.395000e-01
    endloop
  endfacet
  facet normal 1.305262e-01 0.000000e+00 9.914449e-01
    outer loop
      vertex   2.009504e-16 -3.175000e-02 1.395000e-01
      vertex   2.009504e-16 -3.475000e-02 1.395000e-01
      vertex   1.811733e-03 -3.175000e-02 1.392615e-01
    endloop
  endfacet
  facet normal 1.305262e-01 0.000000e+00 9.914449e-01
    outer loop
      vertex   1.811733e-03 -3.175000e-02 1.392615e-01
      vertex   2.009504e-16 -3.475000e-02 1.395000e-01
      vertex   1.811733e-03 -3.475000e-02 1.392615e-01
    endloop
  endfacet
  facet normal 3.826834e-01 0.000000e+00 9.238795e-01
    outer loop
      vertex   1.811733e-03 -3.175000e-02 1.392615e-01
      vertex   1.811733e-03 -3.475000e-02 1.392615e-01
      vertex   3.500000e-03 -3.175000e-02 1.385622e-01
    endloop
  endfacet
  facet normal 3.826834e-01 0.000000e+00 9.238795e-01
    outer loop
      vertex   3.500000e-03 -3.175000e-02 1.385622e-01
      vertex   1.811733e-03 -3.475000e-02 1.392615e-01
      vertex   3.500000e-03 -3.475000e-02 1.385622e-01
    endloop
  endfacet
  facet normal 6.087614e-01 0.000000e+00 7.933533e-01
    outer loop
      vertex   3.500000e-03 -3.175000e-02 1.385622e-01
      vertex   3.500000e-03 -3.475000e-02 1.385622e-01
      vertex   4.949747e-03 -3.175000e-02 1.374497e-01
    endloop
  endfacet
  facet normal 6.087614e-01 0.000000e+00 7.933533e-01
    outer loop
      vertex   4.949747e-03 -3.175000e-02 1.374497e-01
      vertex   3.500000e-03 -3.475000e-02 1.385622e-01
      vertex   4.949747e-03 -3.475000e-02 1.374497e-01
    endloop
  endfacet
  facet normal 7.933533e-01 0.000000e+00 6.087614e-01
    outer loop
      vertex   4.949747e-03 -3.175000e-02 1.374497e-01
      vertex   4.949747e-03 -3.475000e-02 1.374497e-01
      vertex   6.062178e-03 -3.175000e-02 1.360000e-01
    endloop
  endfacet
  facet normal 7.933533e-01 0.000000e+00 6.087614e-01
    outer loop
      vertex   6.062178e-03 -3.175000e-02 1.360000e-01
      vertex   4.949747e-03 -3.475000e-02 1.374497e-01
      vertex   6.062178e-03 -3.475000e-02 1.360000e-01
    endloop
  endfacet
  facet normal 9.238795e-01 0.000000e+00 3.826834e-01
    outer loop
      vertex   6.062178e-03 -3.175000e-02 1.360000e-01
      vertex   6.062178e-03 -3.475000e-02 1.360000e-01
      vertex   6.761481e-03 -3.175000e-02 1.343117e-01
    endloop
  endfacet
  facet normal 9.238795e-01 0.000000e+00 3.826834e-01
    outer loop
      vertex   6.761481e-03 -3.175000e-02 1.343117e-01
      vertex   6.062178e-03 -3.475000e-02 1.360000e-01
      vertex   6.761481e-03 -3.475000e-02 1.343117e-01
    endloop
  endfacet
  facet normal -9.659258e-01 0.000000e+00 2.588190e-01
    outer loop
      vertex   -7.712813e-03 -3.475000e-02 1.307613e-01
      vertex   -6.761481e-03 -3.475000e-02 1.343117e-01
      vertex   -7.712813e-03 -3.175000e-02 1.307613e-01
    endloop
  endfacet
  facet normal -9.659258e-01 0.000000e+00 2.588190e-01
    outer loop
      vertex   -7.712813e-03 -3.175000e-02 1.307613e-01
      vertex   -6.761481e-03 -3.475000e-02 1.343117e-01
      vertex   -6.761481e-03 -3.175000e-02 1.343117e-01
    endloop
  endfacet
  facet normal -9.659258e-01 -3.741496e-16 -2.588190e-01
    outer loop
      vertex   -6.761481e-03 -3.475000e-02 -1.811733e-03
      vertex   -7.712813e-03 -3.475000e-02 1.738687e-03
      vertex   -6.761481e-03 -3.175000e-02 -1.811733e-03
    endloop
  endfacet
  facet normal -9.659258e-01 1.574697e-15 -2.588190e-01
    outer loop
      vertex   -6.761481e-03 -3.175000e-02 -1.811733e-03
      vertex   -7.712813e-03 -3.475000e-02 1.738687e-03
      vertex   -7.712813e-03 -3.175000e-02 1.738687e-03
    endloop
  endfacet
  facet normal 9.238795e-01 0.000000e+00 -3.826834e-01
    outer loop
      vertex   6.761481e-03 -3.175000e-02 -1.811733e-03
      vertex   6.761481e-03 -3.475000e-02 -1.811733e-03
      vertex   6.062178e-03 -3.175000e-02 -3.500000e-03
    endloop
  endfacet
  facet normal 9.238795e-01 0.000000e+00 -3.826834e-01
    outer loop
      vertex   6.062178e-03 -3.175000e-02 -3.500000e-03
      vertex   6.761481e-03 -3.475000e-02 -1.811733e-03
      vertex   6.062178e-03 -3.475000e-02 -3.500000e-03
    endloop
  endfacet
  facet normal 7.933533e-01 0.000000e+00 -6.087614e-01
    outer loop
      vertex   6.062178e-03 -3.175000e-02 -3.500000e-03
      vertex   6.062178e-03 -3.475000e-02 -3.500000e-03
      vertex   4.949747e-03 -3.175000e-02 -4.949747e-03
    endloop
  endfacet
  facet normal 7.933533e-01 0.000000e+00 -6.087614e-01
    outer loop
      vertex   4.949747e-03 -3.175000e-02 -4.949747e-03
      vertex   6.062178e-03 -3.475000e-02 -3.500000e-03
      vertex   4.949747e-03 -3.475000e-02 -4.949747e-03
    endloop
  endfacet
  facet normal 6.087614e-01 0.000000e+00 -7.933533e-01
    outer loop
      vertex   4.949747e-03 -3.175000e-02 -4.949747e-03
      vertex   4.949747e-03 -3.475000e-02 -4.949747e-03
      vertex   3.500000e-03 -3.175000e-02 -6.062178e-03
    endloop
  endfacet
  facet normal 6.087614e-01 0.000000e+00 -7.933533e-01
    outer loop
      vertex   3.500000e-03 -3.175000e-02 -6.062178e-03
      vertex   4.949747e-03 -3.475000e-02 -4.949747e-03
      vertex   3.500000e-03 -3.475000e-02 -6.062178e-03
    endloop
  endfacet
  facet normal 3.826834e-01 0.000000e+00 -9.238795e-01
    outer loop
      vertex   3.500000e-03 -3.175000e-02 -6.062178e-03
      vertex   3.500000e-03 -3.475000e-02 -6.062178e-03
      vertex   1.811733e-03 -3.175000e-02 -6.761481e-03
    endloop
  endfacet
  facet normal 3.826834e-01 0.000000e+00 -9.238795e-01
    outer loop
      vertex   1.811733e-03 -3.175000e-02 -6.761481e-03
      vertex   3.500000e-03 -3.475000e-02 -6.062178e-03
      vertex   1.811733e-03 -3.475000e-02 -6.761481e-03
    endloop
  endfacet
  facet normal 1.305262e-01 0.000000e+00 -9.914449e-01
    outer loop
      vertex   1.811733e-03 -3.175000e-02 -6.761481e-03
      vertex   1.811733e-03 -3.475000e-02 -6.761481e-03
      vertex   -6.106227e-17 -3.175000e-02 -7.000000e-03
    endloop
  endfacet
  facet normal 1.305262e-01 0.000000e+00 -9.914449e-01
    outer loop
      vertex   -6.106227e-17 -3.175000e-02 -7.000000e-03
      vertex   1.811733e-03 -3.475000e-02 -6.761481e-03
      vertex   -6.106227e-17 -3.475000e-02 -7.000000e-03
    endloop
  endfacet
  facet normal -1.305262e-01 -0.000000e+00 -9.914449e-01
    outer loop
      vertex   -6.106227e-17 -3.175000e-02 -7.000000e-03
      vertex   -6.106227e-17 -3.475000e-02 -7.000000e-03
      vertex   -1.811733e-03 -3.175000e-02 -6.761481e-03
    endloop
  endfacet
  facet normal -1.305262e-01 -0.000000e+00 -9.914449e-01
    outer loop
      vertex   -1.811733e-03 -3.175000e-02 -6.761481e-03
      vertex   -6.106227e-17 -3.475000e-02 -7.000000e-03
      vertex   -1.811733e-03 -3.475000e-02 -6.761481e-03
    endloop
  endfacet
  facet normal -3.826834e-01 -0.000000e+00 -9.238795e-01
    outer loop
      vertex   -1.811733e-03 -3.175000e-02 -6.761481e-03
      vertex   -1.811733e-03 -3.475000e-02 -6.761481e-03
      vertex   -3.500000e-03 -3.175000e-02 -6.062178e-03
    endloop
  endfacet
  facet normal -3.826834e-01 -0.000000e+00 -9.238795e-01
    outer loop
      vertex   -3.500000e-03 -3.175000e-02 -6.062178e-03
      vertex   -1.811733e-03 -3.475000e-02 -6.761481e-03
      vertex   -3.500000e-03 -3.475000e-02 -6.062178e-03
    endloop
  endfacet
  facet normal -6.087614e-01 -0.000000e+00 -7.933533e-01
    outer loop
      vertex   -3.500000e-03 -3.175000e-02 -6.062178e-03
      vertex   -3.500000e-03 -3.475000e-02 -6.062178e-03
      vertex   -4.949747e-03 -3.175000e-02 -4.949747e-03
    endloop
  endfacet
  facet normal -6.087614e-01 -0.000000e+00 -7.933533e-01
    outer loop
      vertex   -4.949747e-03 -3.175000e-02 -4.949747e-03
      vertex   -3.500000e-03 -3.475000e-02 -6.062178e-03
      vertex   -4.949747e-03 -3.475000e-02 -4.949747e-03
    endloop
  endfacet
  facet normal -7.933533e-01 -0.000000e+00 -6.087614e-01
    outer loop
      vertex   -4.949747e-03 -3.175000e-02 -4.949747e-03
      vertex   -4.949747e-03 -3.475000e-02 -4.949747e-03
      vertex   -6.062178e-03 -3.175000e-02 -3.500000e-03
    endloop
  endfacet
  facet normal -7.933533e-01 -0.000000e+00 -6.087614e-01
    outer loop
      vertex   -6.062178e-03 -3.175000e-02 -3.500000e-03
      vertex   -4.949747e-03 -3.475000e-02 -4.949747e-03
      vertex   -6.062178e-03 -3.475000e-02 -3.500000e-03
    endloop
  endfacet
  facet normal -9.238795e-01 -0.000000e+00 -3.826834e-01
    outer loop
      vertex   -6.062178e-03 -3.175000e-02 -3.500000e-03
      vertex   -6.062178e-03 -3.475000e-02 -3.500000e-03
      vertex   -6.761481e-03 -3.175000e-02 -1.811733e-03
    endloop
  endfacet
  facet normal -9.238795e-01 -5.532083e-16 -3.826834e-01
    outer loop
      vertex   -6.761481e-03 -3.175000e-02 -1.811733e-03
      vertex   -6.062178e-03 -3.475000e-02 -3.500000e-03
      vertex   -6.761481e-03 -3.475000e-02 -1.811733e-03
    endloop
  endfacet
  facet normal 9.659258e-01 -1.675614e-15 -2.588190e-01
    outer loop
      vertex   1.500000e-02 -3.475000e-02 2.893484e-02
      vertex   6.761481e-03 -3.475000e-02 -1.811733e-03
      vertex   1.500000e-02 -3.175000e-02 2.893484e-02
    endloop
  endfacet
  facet normal 9.659258e-01 0.000000e+00 -2.588190e-01
    outer loop
      vertex   1.500000e-02 -3.175000e-02 2.893484e-02
      vertex   6.761481e-03 -3.475000e-02 -1.811733e-03
      vertex   6.761481e-03 -3.175000e-02 -1.811733e-03
    endloop
  endfacet
  facet normal 1.000000e+00 0.000000e+00 -1.836293e-15
    outer loop
      vertex   1.500000e-02 -3.475000e-02 1.035652e-01
      vertex   1.500000e-02 -3.475000e-02 2.893484e-02
      vertex   1.500000e-02 -3.175000e-02 1.035652e-01
    endloop
  endfacet
  facet normal 1.000000e+00 -1.734723e-15 -1.766561e-15
    outer loop
      vertex   1.500000e-02 -3.175000e-02 1.035652e-01
      vertex   1.500000e-02 -3.475000e-02 2.893484e-02
      vertex   1.500000e-02 -3.175000e-02 2.893484e-02
    endloop
  endfacet
  facet normal 9.659258e-01 -0.000000e+00 2.588190e-01
    outer loop
      vertex   6.761481e-03 -3.475000e-02 1.343117e-01
      vertex   1.500000e-02 -3.475000e-02 1.035652e-01
      vertex   6.761481e-03 -3.175000e-02 1.343117e-01
    endloop
  endfacet
  facet normal 9.659258e-01 0.000000e+00 2.588190e-01
    outer loop
      vertex   6.761481e-03 -3.175000e-02 1.343117e-01
      vertex   1.500000e-02 -3.475000e-02 1.035652e-01
      vertex   1.500000e-02 -3.175000e-02 1.035652e-01
    endloop
  endfacet
  facet normal -1.000000e+00 -0.000000e+00 -1.710478e-15
    outer loop
      vertex   -2.500000e-03 3.475000e-02 7.239529e-02
      vertex   -2.500000e-03 3.475000e-02 5.160471e-02
      vertex   -2.500000e-03 3.175000e-02 7.239529e-02
    endloop
  endfacet
  facet normal -1.000000e+00 0.000000e+00 -1.710478e-15
    outer loop
      vertex   -2.500000e-03 3.175000e-02 7.239529e-02
      vertex   -2.500000e-03 3.475000e-02 5.160471e-02
      vertex   -2.500000e-03 3.175000e-02 5.160471e-02
    endloop
  endfacet
  facet normal -9.659258e-01 0.000000e+00 -2.588190e-01
    outer loop
      vertex   -2.500000e-03 3.175000e-02 7.239529e-02
      vertex   -7.712813e-03 3.175000e-02 9.184977e-02
      vertex   -2.500000e-03 3.475000e-02 7.239529e-02
    endloop
  endfacet
  facet normal -9.659258e-01 0.000000e+00 -2.588190e-01
    outer loop
      vertex   -2.500000e-03 3.475000e-02 7.239529e-02
      vertex   -7.712813e-03 3.175000e-02 9.184977e-02
      vertex   -7.712813e-03 3.475000e-02 9.184977e-02
    endloop
  endfacet
  facet normal -9.659258e-01 0.000000e+00 2.588190e-01
    outer loop
      vertex   -2.500000e-03 3.475000e-02 5.160471e-02
      vertex   -7.712813e-03 3.475000e-02 3.215023e-02
      vertex   -2.500000e-03 3.175000e-02 5.160471e-02
    endloop
  endfacet
  facet normal -9.659258e-01 0.000000e+00 2.588190e-01
    outer loop
      vertex   -2.500000e-03 3.175000e-02 5.160471e-02
      vertex   -7.712813e-03 3.475000e-02 3.215023e-02
      vertex   -7.712813e-03 3.175000e-02 3.215023e-02
    endloop
  endfacet
  facet normal -1.000000e+00 0.000000e+00 6.910087e-16
    outer loop
      vertex   -7.712813e-03 3.175000e-02 9.184977e-02
      vertex   -7.712813e-03 3.175000e-02 1.307613e-01
      vertex   -7.712813e-03 3.475000e-02 9.184977e-02
    endloop
  endfacet
  facet normal -1.000000e+00 0.000000e+00 6.910087e-16
    outer loop
      vertex   -7.712813e-03 3.475000e-02 9.184977e-02
      vertex   -7.712813e-03 3.175000e-02 1.307613e-01
      vertex   -7.712813e-03 3.475000e-02 1.307613e-01
    endloop
  endfacet
  facet normal -1.000000e+00 -0.000000e+00 -5.133745e-16
    outer loop
      vertex   -7.712813e-03 3.475000e-02 3.215023e-02
      vertex   -7.712813e-03 3.475000e-02 1.738687e-03
      vertex   -7.712813e-03 3.175000e-02 3.215023e-02
    endloop
  endfacet
  facet normal -1.000000e+00 2.312965e-15 -2.852081e-16
    outer loop
      vertex   -7.712813e-03 3.175000e-02 3.215023e-02
      vertex   -7.712813e-03 3.475000e-02 1.738687e-03
      vertex   -7.712813e-03 3.175000e-02 1.738687e-03
    endloop
  endfacet
  facet normal -9.238795e-01 0.000000e+00 3.826834e-01
    outer loop
      vertex   -6.761481e-03 3.475000e-02 1.343117e-01
      vertex   -6.761481e-03 3.175000e-02 1.343117e-01
      vertex   -6.062178e-03 3.475000e-02 1.360000e-01
    endloop
  endfacet
  facet normal -9.238795e-01 0.000000e+00 3.826834e-01
    outer loop
      vertex   -6.062178e-03 3.475000e-02 1.360000e-01
      vertex   -6.761481e-03 3.175000e-02 1.343117e-01
      vertex   -6.062178e-03 3.175000e-02 1.360000e-01
    endloop
  endfacet
  facet normal -7.933533e-01 0.000000e+00 6.087614e-01
    outer loop
      vertex   -6.062178e-03 3.475000e-02 1.360000e-01
      vertex   -6.062178e-03 3.175000e-02 1.360000e-01
      vertex   -4.949747e-03 3.475000e-02 1.374497e-01
    endloop
  endfacet
  facet normal -7.933533e-01 0.000000e+00 6.087614e-01
    outer loop
      vertex   -4.949747e-03 3.475000e-02 1.374497e-01
      vertex   -6.062178e-03 3.175000e-02 1.360000e-01
      vertex   -4.949747e-03 3.175000e-02 1.374497e-01
    endloop
  endfacet
  facet normal -6.087614e-01 0.000000e+00 7.933533e-01
    outer loop
      vertex   -4.949747e-03 3.475000e-02 1.374497e-01
      vertex   -4.949747e-03 3.175000e-02 1.374497e-01
      vertex   -3.500000e-03 3.475000e-02 1.385622e-01
    endloop
  endfacet
  facet normal -6.087614e-01 0.000000e+00 7.933533e-01
    outer loop
      vertex   -3.500000e-03 3.475000e-02 1.385622e-01
      vertex   -4.949747e-03 3.175000e-02 1.374497e-01
      vertex   -3.500000e-03 3.175000e-02 1.385622e-01
    endloop
  endfacet
  facet normal -3.826834e-01 0.000000e+00 9.238795e-01
    outer loop
      vertex   -3.500000e-03 3.475000e-02 1.385622e-01
      vertex   -3.500000e-03 3.175000e-02 1.385622e-01
      vertex   -1.811733e-03 3.475000e-02 1.392615e-01
    endloop
  endfacet
  facet normal -3.826834e-01 0.000000e+00 9.238795e-01
    outer loop
      vertex   -1.811733e-03 3.475000e-02 1.392615e-01
      vertex   -3.500000e-03 3.175000e-02 1.385622e-01
      vertex   -1.811733e-03 3.175000e-02 1.392615e-01
    endloop
  endfacet
  facet normal -1.305262e-01 0.000000e+00 9.914449e-01
    outer loop
      vertex   -1.811733e-03 3.475000e-02 1.392615e-01
      vertex   -1.811733e-03 3.175000e-02 1.392615e-01
      vertex   1.496026e-16 3.475000e-02 1.395000e-01
    endloop
  endfacet
  facet normal -1.305262e-01 0.000000e+00 9.914449e-01
    outer loop
      vertex   1.496026e-16 3.475000e-02 1.395000e-01
      vertex   -1.811733e-03 3.175000e-02 1.392615e-01
      vertex   1.496026e-16 3.175000e-02 1.395000e-01
    endloop
  endfacet
  facet normal 1.305262e-01 0.000000e+00 9.914449e-01
    outer loop
      vertex   1.496026e-16 3.475000e-02 1.395000e-01
      vertex   1.496026e-16 3.175000e-02 1.395000e-01
      vertex   1.811733e-03 3.475000e-02 1.392615e-01
    endloop
  endfacet
  facet normal 1.305262e-01 0.000000e+00 9.914449e-01
    outer loop
      vertex   1.811733e-03 3.475000e-02 1.392615e-01
      vertex   1.496026e-16 3.175000e-02 1.395000e-01
      vertex   1.811733e-03 3.175000e-02 1.392615e-01
    endloop
  endfacet
  facet normal 3.826834e-01 0.000000e+00 9.238795e-01
    outer loop
      vertex   1.811733e-03 3.475000e-02 1.392615e-01
      vertex   1.811733e-03 3.175000e-02 1.392615e-01
      vertex   3.500000e-03 3.475000e-02 1.385622e-01
    endloop
  endfacet
  facet normal 3.826834e-01 0.000000e+00 9.238795e-01
    outer loop
      vertex   3.500000e-03 3.475000e-02 1.385622e-01
      vertex   1.811733e-03 3.175000e-02 1.392615e-01
      vertex   3.500000e-03 3.175000e-02 1.385622e-01
    endloop
  endfacet
  facet normal 6.087614e-01 0.000000e+00 7.933533e-01
    outer loop
      vertex   3.500000e-03 3.475000e-02 1.385622e-01
      vertex   3.500000e-03 3.175000e-02 1.385622e-01
      vertex   4.949747e-03 3.475000e-02 1.374497e-01
    endloop
  endfacet
  facet normal 6.087614e-01 0.000000e+00 7.933533e-01
    outer loop
      vertex   4.949747e-03 3.475000e-02 1.374497e-01
      vertex   3.500000e-03 3.175000e-02 1.385622e-01
      vertex   4.949747e-03 3.175000e-02 1.374497e-01
    endloop
  endfacet
  facet normal 7.933533e-01 0.000000e+00 6.087614e-01
    outer loop
      vertex   4.949747e-03 3.475000e-02 1.374497e-01
      vertex   4.949747e-03 3.175000e-02 1.374497e-01
      vertex   6.062178e-03 3.475000e-02 1.360000e-01
    endloop
  endfacet
  facet normal 7.933533e-01 0.000000e+00 6.087614e-01
    outer loop
      vertex   6.062178e-03 3.475000e-02 1.360000e-01
      vertex   4.949747e-03 3.175000e-02 1.374497e-01
      vertex   6.062178e-03 3.175000e-02 1.360000e-01
    endloop
  endfacet
  facet normal 9.238795e-01 0.000000e+00 3.826834e-01
    outer loop
      vertex   6.062178e-03 3.475000e-02 1.360000e-01
      vertex   6.062178e-03 3.175000e-02 1.360000e-01
      vertex   6.761481e-03 3.475000e-02 1.343117e-01
    endloop
  endfacet
  facet normal 9.238795e-01 0.000000e+00 3.826834e-01
    outer loop
      vertex   6.761481e-03 3.475000e-02 1.343117e-01
      vertex   6.062178e-03 3.175000e-02 1.360000e-01
      vertex   6.761481e-03 3.175000e-02 1.343117e-01
    endloop
  endfacet
  facet normal -9.659258e-01 0.000000e+00 2.588190e-01
    outer loop
      vertex   -7.712813e-03 3.175000e-02 1.307613e-01
      vertex   -6.761481e-03 3.175000e-02 1.343117e-01
      vertex   -7.712813e-03 3.475000e-02 1.307613e-01
    endloop
  endfacet
  facet normal -9.659258e-01 0.000000e+00 2.588190e-01
    outer loop
      vertex   -7.712813e-03 3.475000e-02 1.307613e-01
      vertex   -6.761481e-03 3.175000e-02 1.343117e-01
      vertex   -6.761481e-03 3.475000e-02 1.343117e-01
    endloop
  endfacet
  facet normal -9.659258e-01 8.378071e-16 -2.588190e-01
    outer loop
      vertex   -6.761481e-03 3.175000e-02 -1.811733e-03
      vertex   -7.712813e-03 3.175000e-02 1.738687e-03
      vertex   -6.761481e-03 3.475000e-02 -1.811733e-03
    endloop
  endfacet
  facet normal -9.659258e-01 2.227620e-15 -2.588190e-01
    outer loop
      vertex   -6.761481e-03 3.475000e-02 -1.811733e-03
      vertex   -7.712813e-03 3.175000e-02 1.738687e-03
      vertex   -7.712813e-03 3.475000e-02 1.738687e-03
    endloop
  endfacet
  facet normal 9.238795e-01 2.671126e-15 -3.826834e-01
    outer loop
      vertex   6.761481e-03 3.475000e-02 -1.811733e-03
      vertex   6.761481e-03 3.175000e-02 -1.811733e-03
      vertex   6.062178e-03 3.475000e-02 -3.500000e-03
    endloop
  endfacet
  facet normal 9.238795e-01 0.000000e+00 -3.826834e-01
    outer loop
      vertex   6.062178e-03 3.475000e-02 -3.500000e-03
      vertex   6.761481e-03 3.175000e-02 -1.811733e-03
      vertex   6.062178e-03 3.175000e-02 -3.500000e-03
    endloop
  endfacet
  facet normal 7.933533e-01 0.000000e+00 -6.087614e-01
    outer loop
      vertex   6.062178e-03 3.475000e-02 -3.500000e-03
      vertex   6.062178e-03 3.175000e-02 -3.500000e-03
      vertex   4.949747e-03 3.475000e-02 -4.949747e-03
    endloop
  endfacet
  facet normal 7.933533e-01 0.000000e+00 -6.087614e-01
    outer loop
      vertex   4.949747e-03 3.475000e-02 -4.949747e-03
      vertex   6.062178e-03 3.175000e-02 -3.500000e-03
      vertex   4.949747e-03 3.175000e-02 -4.949747e-03
    endloop
  endfacet
  facet normal 6.087614e-01 0.000000e+00 -7.933533e-01
    outer loop
      vertex   4.949747e-03 3.475000e-02 -4.949747e-03
      vertex   4.949747e-03 3.175000e-02 -4.949747e-03
      vertex   3.500000e-03 3.475000e-02 -6.062178e-03
    endloop
  endfacet
  facet normal 6.087614e-01 0.000000e+00 -7.933533e-01
    outer loop
      vertex   3.500000e-03 3.475000e-02 -6.062178e-03
      vertex   4.949747e-03 3.175000e-02 -4.949747e-03
      vertex   3.500000e-03 3.175000e-02 -6.062178e-03
    endloop
  endfacet
  facet normal 3.826834e-01 0.000000e+00 -9.238795e-01
    outer loop
      vertex   3.500000e-03 3.475000e-02 -6.062178e-03
      vertex   3.500000e-03 3.175000e-02 -6.062178e-03
      vertex   1.811733e-03 3.475000e-02 -6.761481e-03
    endloop
  endfacet
  facet normal 3.826834e-01 0.000000e+00 -9.238795e-01
    outer loop
      vertex   1.811733e-03 3.475000e-02 -6.761481e-03
      vertex   3.500000e-03 3.175000e-02 -6.062178e-03
      vertex   1.811733e-03 3.175000e-02 -6.761481e-03
    endloop
  endfacet
  facet normal 1.305262e-01 0.000000e+00 -9.914449e-01
    outer loop
      vertex   1.811733e-03 3.475000e-02 -6.761481e-03
      vertex   1.811733e-03 3.175000e-02 -6.761481e-03
      vertex   2.137179e-17 3.475000e-02 -7.000000e-03
    endloop
  endfacet
  facet normal 1.305262e-01 0.000000e+00 -9.914449e-01
    outer loop
      vertex   2.137179e-17 3.475000e-02 -7.000000e-03
      vertex   1.811733e-03 3.175000e-02 -6.761481e-03
      vertex   2.137179e-17 3.175000e-02 -7.000000e-03
    endloop
  endfacet
  facet normal -1.305262e-01 -0.000000e+00 -9.914449e-01
    outer loop
      vertex   2.137179e-17 3.475000e-02 -7.000000e-03
      vertex   2.137179e-17 3.175000e-02 -7.000000e-03
      vertex   -1.811733e-03 3.475000e-02 -6.761481e-03
    endloop
  endfacet
  facet normal -1.305262e-01 -0.000000e+00 -9.914449e-01
    outer loop
      vertex   -1.811733e-03 3.475000e-02 -6.761481e-03
      vertex   2.137179e-17 3.175000e-02 -7.000000e-03
      vertex   -1.811733e-03 3.175000e-02 -6.761481e-03
    endloop
  endfacet
  facet normal -3.826834e-01 -0.000000e+00 -9.238795e-01
    outer loop
      vertex   -1.811733e-03 3.475000e-02 -6.761481e-03
      vertex   -1.811733e-03 3.175000e-02 -6.761481e-03
      vertex   -3.500000e-03 3.475000e-02 -6.062178e-03
    endloop
  endfacet
  facet normal -3.826834e-01 -0.000000e+00 -9.238795e-01
    outer loop
      vertex   -3.500000e-03 3.475000e-02 -6.062178e-03
      vertex   -1.811733e-03 3.175000e-02 -6.761481e-03
      vertex   -3.500000e-03 3.175000e-02 -6.062178e-03
    endloop
  endfacet
  facet normal -6.087614e-01 -0.000000e+00 -7.933533e-01
    outer loop
      vertex   -3.500000e-03 3.475000e-02 -6.062178e-03
      vertex   -3.500000e-03 3.175000e-02 -6.062178e-03
      vertex   -4.949747e-03 3.475000e-02 -4.949747e-03
    endloop
  endfacet
  facet normal -6.087614e-01 -0.000000e+00 -7.933533e-01
    outer loop
      vertex   -4.949747e-03 3.475000e-02 -4.949747e-03
      vertex   -3.500000e-03 3.175000e-02 -6.062178e-03
      vertex   -4.949747e-03 3.175000e-02 -4.949747e-03
    endloop
  endfacet
  facet normal -7.933533e-01 -0.000000e+00 -6.087614e-01
    outer loop
      vertex   -4.949747e-03 3.475000e-02 -4.949747e-03
      vertex   -4.949747e-03 3.175000e-02 -4.949747e-03
      vertex   -6.062178e-03 3.475000e-02 -3.500000e-03
    endloop
  endfacet
  facet normal -7.933533e-01 -0.000000e+00 -6.087614e-01
    outer loop
      vertex   -6.062178e-03 3.475000e-02 -3.500000e-03
      vertex   -4.949747e-03 3.175000e-02 -4.949747e-03
      vertex   -6.062178e-03 3.175000e-02 -3.500000e-03
    endloop
  endfacet
  facet normal -9.238795e-01 -0.000000e+00 -3.826834e-01
    outer loop
      vertex   -6.062178e-03 3.475000e-02 -3.500000e-03
      vertex   -6.062178e-03 3.175000e-02 -3.500000e-03
      vertex   -6.761481e-03 3.475000e-02 -1.811733e-03
    endloop
  endfacet
  facet normal -9.238795e-01 8.013378e-16 -3.826834e-01
    outer loop
      vertex   -6.761481e-03 3.475000e-02 -1.811733e-03
      vertex   -6.062178e-03 3.175000e-02 -3.500000e-03
      vertex   -6.761481e-03 3.175000e-02 -1.811733e-03
    endloop
  endfacet
  facet normal 9.659258e-01 -2.792690e-15 -2.588190e-01
    outer loop
      vertex   1.500000e-02 3.175000e-02 2.893484e-02
      vertex   6.761481e-03 3.175000e-02 -1.811733e-03
      vertex   1.500000e-02 3.475000e-02 2.893484e-02
    endloop
  endfacet
  facet normal 9.659258e-01 2.270733e-15 -2.588190e-01
    outer loop
      vertex   1.500000e-02 3.475000e-02 2.893484e-02
      vertex   6.761481e-03 3.175000e-02 -1.811733e-03
      vertex   6.761481e-03 3.475000e-02 -1.811733e-03
    endloop
  endfacet
  facet normal 1.000000e+00 0.000000e+00 -9.530129e-16
    outer loop
      vertex   1.500000e-02 3.175000e-02 1.035652e-01
      vertex   1.500000e-02 3.175000e-02 2.893484e-02
      vertex   1.500000e-02 3.475000e-02 1.035652e-01
    endloop
  endfacet
  facet normal 1.000000e+00 -2.891206e-15 -8.367918e-16
    outer loop
      vertex   1.500000e-02 3.475000e-02 1.035652e-01
      vertex   1.500000e-02 3.175000e-02 2.893484e-02
      vertex   1.500000e-02 3.475000e-02 2.893484e-02
    endloop
  endfacet
  facet normal 9.659258e-01 -0.000000e+00 2.588190e-01
    outer loop
      vertex   6.761481e-03 3.175000e-02 1.343117e-01
      vertex   1.500000e-02 3.175000e-02 1.035652e-01
      vertex   6.761481e-03 3.475000e-02 1.343117e-01
    endloop
  endfacet
  facet normal 9.659258e-01 0.000000e+00 2.588190e-01
    outer loop
      vertex   6.761481e-03 3.475000e-02 1.343117e-01
      vertex   1.500000e-02 3.175000e-02 1.035652e-01
      vertex   1.500000e-02 3.475000e-02 1.035652e-01
    endloop
  endfacet
  facet normal 0.000000e+00 1.000000e+00 0.000000e+00
    outer loop
      vertex   -2.500000e-03 3.475000e-02 7.239529e-02
      vertex   1.500000e-02 3.475000e-02 2.893484e-02
      vertex   -2.500000e-03 3.475000e-02 5.160471e-02
    endloop
  endfacet
  facet normal 0.000000e+00 1.000000e+00 0.000000e+00
    outer loop
      vertex   -2.500000e-03 3.475000e-02 5.160471e-02
      vertex   1.500000e-02 3.475000e-02 2.893484e-02
      vertex   6.761481e-03 3.475000e-02 -1.811733e-03
    endloop
  endfacet
  facet normal 0.000000e+00 1.000000e+00 0.000000e+00
    outer loop
      vertex   -2.500000e-03 3.475000e-02 5.160471e-02
      vertex   6.761481e-03 3.475000e-02 -1.811733e-03
      vertex   6.062178e-03 3.475000e-02 -3.500000e-03
    endloop
  endfacet
  facet normal -0.000000e+00 1.000000e+00 0.000000e+00
    outer loop
      vertex   -7.712813e-03 3.475000e-02 9.184977e-02
      vertex   -3.500000e-03 3.475000e-02 1.385622e-01
      vertex   -2.500000e-03 3.475000e-02 7.239529e-02
    endloop
  endfacet
  facet normal 0.000000e+00 1.000000e+00 -0.000000e+00
    outer loop
      vertex   -2.500000e-03 3.475000e-02 7.239529e-02
      vertex   -3.500000e-03 3.475000e-02 1.385622e-01
      vertex   -1.811733e-03 3.475000e-02 1.392615e-01
    endloop
  endfacet
  facet normal 0.000000e+00 1.000000e+00 0.000000e+00
    outer loop
      vertex   -2.500000e-03 3.475000e-02 7.239529e-02
      vertex   -1.811733e-03 3.475000e-02 1.392615e-01
      vertex   1.496026e-16 3.475000e-02 1.395000e-01
    endloop
  endfacet
  facet normal -0.000000e+00 1.000000e+00 0.000000e+00
    outer loop
      vertex   -7.712813e-03 3.475000e-02 1.307613e-01
      vertex   -6.761481e-03 3.475000e-02 1.343117e-01
      vertex   -7.712813e-03 3.475000e-02 9.184977e-02
    endloop
  endfacet
  facet normal 0.000000e+00 1.000000e+00 0.000000e+00
    outer loop
      vertex   -7.712813e-03 3.475000e-02 9.184977e-02
      vertex   -6.761481e-03 3.475000e-02 1.343117e-01
      vertex   -6.062178e-03 3.475000e-02 1.360000e-01
    endloop
  endfacet
  facet normal 0.000000e+00 1.000000e+00 0.000000e+00
    outer loop
      vertex   -7.712813e-03 3.475000e-02 9.184977e-02
      vertex   -6.062178e-03 3.475000e-02 1.360000e-01
      vertex   -4.949747e-03 3.475000e-02 1.374497e-01
    endloop
  endfacet
  facet normal -0.000000e+00 1.000000e+00 0.000000e+00
    outer loop
      vertex   -4.949747e-03 3.475000e-02 1.374497e-01
      vertex   -3.500000e-03 3.475000e-02 1.385622e-01
      vertex   -7.712813e-03 3.475000e-02 9.184977e-02
    endloop
  endfacet
  facet normal 0.000000e+00 1.000000e+00 0.000000e+00
    outer loop
      vertex   1.496026e-16 3.475000e-02 1.395000e-01
      vertex   1.811733e-03 3.475000e-02 1.392615e-01
      vertex   -2.500000e-03 3.475000e-02 7.239529e-02
    endloop
  endfacet
  facet normal 0.000000e+00 1.000000e+00 0.000000e+00
    outer loop
      vertex   -2.500000e-03 3.475000e-02 7.239529e-02
      vertex   1.811733e-03 3.475000e-02 1.392615e-01
      vertex   3.500000e-03 3.475000e-02 1.385622e-01
    endloop
  endfacet
  facet normal 0.000000e+00 1.000000e+00 0.000000e+00
    outer loop
      vertex   -2.500000e-03 3.475000e-02 7.239529e-02
      vertex   3.500000e-03 3.475000e-02 1.385622e-01
      vertex   4.949747e-03 3.475000e-02 1.374497e-01
    endloop
  endfacet
  facet normal 0.000000e+00 1.000000e+00 0.000000e+00
    outer loop
      vertex   4.949747e-03 3.475000e-02 1.374497e-01
      vertex   6.062178e-03 3.475000e-02 1.360000e-01
      vertex   -2.500000e-03 3.475000e-02 7.239529e-02
    endloop
  endfacet
  facet normal 0.000000e+00 1.000000e+00 0.000000e+00
    outer loop
      vertex   -2.500000e-03 3.475000e-02 7.239529e-02
      vertex   6.062178e-03 3.475000e-02 1.360000e-01
      vertex   6.761481e-03 3.475000e-02 1.343117e-01
    endloop
  endfacet
  facet normal 0.000000e+00 1.000000e+00 0.000000e+00
    outer loop
      vertex   -2.500000e-03 3.475000e-02 7.239529e-02
      vertex   6.761481e-03 3.475000e-02 1.343117e-01
      vertex   1.500000e-02 3.475000e-02 1.035652e-01
    endloop
  endfacet
  facet normal 0.000000e+00 1.000000e+00 0.000000e+00
    outer loop
      vertex   1.500000e-02 3.475000e-02 1.035652e-01
      vertex   1.500000e-02 3.475000e-02 2.893484e-02
      vertex   -2.500000e-03 3.475000e-02 7.239529e-02
    endloop
  endfacet
  facet normal 0.000000e+00 1.000000e+00 0.000000e+00
    outer loop
      vertex   6.062178e-03 3.475000e-02 -3.500000e-03
      vertex   4.949747e-03 3.475000e-02 -4.949747e-03
      vertex   -2.500000e-03 3.475000e-02 5.160471e-02
    endloop
  endfacet
  facet normal 0.000000e+00 1.000000e+00 0.000000e+00
    outer loop
      vertex   -2.500000e-03 3.475000e-02 5.160471e-02
      vertex   4.949747e-03 3.475000e-02 -4.949747e-03
      vertex   3.500000e-03 3.475000e-02 -6.062178e-03
    endloop
  endfacet
  facet normal 0.000000e+00 1.000000e+00 0.000000e+00
    outer loop
      vertex   -2.500000e-03 3.475000e-02 5.160471e-02
      vertex   3.500000e-03 3.475000e-02 -6.062178e-03
      vertex   1.811733e-03 3.475000e-02 -6.761481e-03
    endloop
  endfacet
  facet normal 0.000000e+00 1.000000e+00 0.000000e+00
    outer loop
      vertex   1.811733e-03 3.475000e-02 -6.761481e-03
      vertex   2.137179e-17 3.475000e-02 -7.000000e-03
      vertex   -2.500000e-03 3.475000e-02 5.160471e-02
    endloop
  endfacet
  facet normal 0.000000e+00 1.000000e+00 0.000000e+00
    outer loop
      vertex   -2.500000e-03 3.475000e-02 5.160471e-02
      vertex   2.137179e-17 3.475000e-02 -7.000000e-03
      vertex   -1.811733e-03 3.475000e-02 -6.761481e-03
    endloop
  endfacet
  facet normal 0.000000e+00 1.000000e+00 0.000000e+00
    outer loop
      vertex   -2.500000e-03 3.475000e-02 5.160471e-02
      vertex   -1.811733e-03 3.475000e-02 -6.761481e-03
      vertex   -3.500000e-03 3.475000e-02 -6.062178e-03
    endloop
  endfacet
  facet normal 0.000000e+00 1.000000e+00 0.000000e+00
    outer loop
      vertex   -2.500000e-03 3.475000e-02 5.160471e-02
      vertex   -3.500000e-03 3.475000e-02 -6.062178e-03
      vertex   -7.712813e-03 3.475000e-02 3.215023e-02
    endloop
  endfacet
  facet normal 0.000000e+00 1.000000e+00 0.000000e+00
    outer loop
      vertex   -7.712813e-03 3.475000e-02 3.215023e-02
      vertex   -3.500000e-03 3.475000e-02 -6.062178e-03
      vertex   -4.949747e-03 3.475000e-02 -4.949747e-03
    endloop
  endfacet
  facet normal 0.000000e+00 1.000000e+00 0.000000e+00
    outer loop
      vertex   -7.712813e-03 3.475000e-02 3.215023e-02
      vertex   -4.949747e-03 3.475000e-02 -4.949747e-03
      vertex   -6.062178e-03 3.475000e-02 -3.500000e-03
    endloop
  endfacet
  facet normal 0.000000e+00 1.000000e+00 0.000000e+00
    outer loop
      vertex   -6.062178e-03 3.475000e-02 -3.500000e-03
      vertex   -6.761481e-03 3.475000e-02 -1.811733e-03
      vertex   -7.712813e-03 3.475000e-02 3.215023e-02
    endloop
  endfacet
  facet normal 0.000000e+00 1.000000e+00 0.000000e+00
    outer loop
      vertex   -7.712813e-03 3.475000e-02 3.215023e-02
      vertex   -6.761481e-03 3.475000e-02 -1.811733e-03
      vertex   -7.712813e-03 3.475000e-02 1.738687e-03
    endloop
  endfacet
  facet normal 4.323493e-16 -1.000000e+00 3.337519e-16
    outer loop
      vertex   -2.500000e-03 -3.475000e-02 5.160471e-02
      vertex   1.500000e-02 -3.475000e-02 2.893484e-02
      vertex   -2.500000e-03 -3.475000e-02 7.239529e-02
    endloop
  endfacet
  facet normal -1.656044e-16 -1.000000e+00 9.297687e-17
    outer loop
      vertex   -2.500000e-03 -3.475000e-02 7.239529e-02
      vertex   1.500000e-02 -3.475000e-02 2.893484e-02
      vertex   1.500000e-02 -3.475000e-02 1.035652e-01
    endloop
  endfacet
  facet normal 0.000000e+00 -1.000000e+00 0.000000e+00
    outer loop
      vertex   -2.500000e-03 -3.475000e-02 7.239529e-02
      vertex   1.500000e-02 -3.475000e-02 1.035652e-01
      vertex   6.761481e-03 -3.475000e-02 1.343117e-01
    endloop
  endfacet
  facet normal 0.000000e+00 -1.000000e+00 0.000000e+00
    outer loop
      vertex   -7.712813e-03 -3.475000e-02 3.215023e-02
      vertex   -3.500000e-03 -3.475000e-02 -6.062178e-03
      vertex   -2.500000e-03 -3.475000e-02 5.160471e-02
    endloop
  endfacet
  facet normal 0.000000e+00 -1.000000e+00 -0.000000e+00
    outer loop
      vertex   -2.500000e-03 -3.475000e-02 5.160471e-02
      vertex   -3.500000e-03 -3.475000e-02 -6.062178e-03
      vertex   -1.811733e-03 -3.475000e-02 -6.761481e-03
    endloop
  endfacet
  facet normal 0.000000e+00 -1.000000e+00 0.000000e+00
    outer loop
      vertex   -2.500000e-03 -3.475000e-02 5.160471e-02
      vertex   -1.811733e-03 -3.475000e-02 -6.761481e-03
      vertex   -6.106227e-17 -3.475000e-02 -7.000000e-03
    endloop
  endfacet
  facet normal 0.000000e+00 -1.000000e+00 0.000000e+00
    outer loop
      vertex   -7.712813e-03 -3.475000e-02 1.738687e-03
      vertex   -6.761481e-03 -3.475000e-02 -1.811733e-03
      vertex   -7.712813e-03 -3.475000e-02 3.215023e-02
    endloop
  endfacet
  facet normal 0.000000e+00 -1.000000e+00 0.000000e+00
    outer loop
      vertex   -7.712813e-03 -3.475000e-02 3.215023e-02
      vertex   -6.761481e-03 -3.475000e-02 -1.811733e-03
      vertex   -6.062178e-03 -3.475000e-02 -3.500000e-03
    endloop
  endfacet
  facet normal 0.000000e+00 -1.000000e+00 0.000000e+00
    outer loop
      vertex   -7.712813e-03 -3.475000e-02 3.215023e-02
      vertex   -6.062178e-03 -3.475000e-02 -3.500000e-03
      vertex   -4.949747e-03 -3.475000e-02 -4.949747e-03
    endloop
  endfacet
  facet normal 0.000000e+00 -1.000000e+00 0.000000e+00
    outer loop
      vertex   -4.949747e-03 -3.475000e-02 -4.949747e-03
      vertex   -3.500000e-03 -3.475000e-02 -6.062178e-03
      vertex   -7.712813e-03 -3.475000e-02 3.215023e-02
    endloop
  endfacet
  facet normal 0.000000e+00 -1.000000e+00 0.000000e+00
    outer loop
      vertex   -6.106227e-17 -3.475000e-02 -7.000000e-03
      vertex   1.811733e-03 -3.475000e-02 -6.761481e-03
      vertex   -2.500000e-03 -3.475000e-02 5.160471e-02
    endloop
  endfacet
  facet normal 0.000000e+00 -1.000000e+00 0.000000e+00
    outer loop
      vertex   -2.500000e-03 -3.475000e-02 5.160471e-02
      vertex   1.811733e-03 -3.475000e-02 -6.761481e-03
      vertex   3.500000e-03 -3.475000e-02 -6.062178e-03
    endloop
  endfacet
  facet normal 0.000000e+00 -1.000000e+00 0.000000e+00
    outer loop
      vertex   -2.500000e-03 -3.475000e-02 5.160471e-02
      vertex   3.500000e-03 -3.475000e-02 -6.062178e-03
      vertex   4.949747e-03 -3.475000e-02 -4.949747e-03
    endloop
  endfacet
  facet normal 0.000000e+00 -1.000000e+00 0.000000e+00
    outer loop
      vertex   4.949747e-03 -3.475000e-02 -4.949747e-03
      vertex   6.062178e-03 -3.475000e-02 -3.500000e-03
      vertex   -2.500000e-03 -3.475000e-02 5.160471e-02
    endloop
  endfacet
  facet normal 0.000000e+00 -1.000000e+00 0.000000e+00
    outer loop
      vertex   -2.500000e-03 -3.475000e-02 5.160471e-02
      vertex   6.062178e-03 -3.475000e-02 -3.500000e-03
      vertex   6.761481e-03 -3.475000e-02 -1.811733e-03
    endloop
  endfacet
  facet normal 0.000000e+00 -1.000000e+00 0.000000e+00
    outer loop
      vertex   -2.500000e-03 -3.475000e-02 5.160471e-02
      vertex   6.761481e-03 -3.475000e-02 -1.811733e-03
      vertex   1.500000e-02 -3.475000e-02 2.893484e-02
    endloop
  endfacet
  facet normal -0.000000e+00 -1.000000e+00 0.000000e+00
    outer loop
      vertex   6.761481e-03 -3.475000e-02 1.343117e-01
      vertex   6.062178e-03 -3.475000e-02 1.360000e-01
      vertex   -2.500000e-03 -3.475000e-02 7.239529e-02
    endloop
  endfacet
  facet normal 0.000000e+00 -1.000000e+00 0.000000e+00
    outer loop
      vertex   -2.500000e-03 -3.475000e-02 7.239529e-02
      vertex   6.062178e-03 -3.475000e-02 1.360000e-01
      vertex   4.949747e-03 -3.475000e-02 1.374497e-01
    endloop
  endfacet
  facet normal 0.000000e+00 -1.000000e+00 0.000000e+00
    outer loop
      vertex   -2.500000e-03 -3.475000e-02 7.239529e-02
      vertex   4.949747e-03 -3.475000e-02 1.374497e-01
      vertex   3.500000e-03 -3.475000e-02 1.385622e-01
    endloop
  endfacet
  facet normal -0.000000e+00 -1.000000e+00 0.000000e+00
    outer loop
      vertex   3.500000e-03 -3.475000e-02 1.385622e-01
      vertex   1.811733e-03 -3.475000e-02 1.392615e-01
      vertex   -2.500000e-03 -3.475000e-02 7.239529e-02
    endloop
  endfacet
  facet normal 0.000000e+00 -1.000000e+00 0.000000e+00
    outer loop
      vertex   -2.500000e-03 -3.475000e-02 7.239529e-02
      vertex   1.811733e-03 -3.475000e-02 1.392615e-01
      vertex   2.009504e-16 -3.475000e-02 1.395000e-01
    endloop
  endfacet
  facet normal 0.000000e+00 -1.000000e+00 0.000000e+00
    outer loop
      vertex   -2.500000e-03 -3.475000e-02 7.239529e-02
      vertex   2.009504e-16 -3.475000e-02 1.395000e-01
      vertex   -1.811733e-03 -3.475000e-02 1.392615e-01
    endloop
  endfacet
  facet normal 0.000000e+00 -1.000000e+00 0.000000e+00
    outer loop
      vertex   -1.811733e-03 -3.475000e-02 1.392615e-01
      vertex   -3.500000e-03 -3.475000e-02 1.385622e-01
      vertex   -2.500000e-03 -3.475000e-02 7.239529e-02
    endloop
  endfacet
  facet normal 0.000000e+00 -1.000000e+00 0.000000e+00
    outer loop
      vertex   -2.500000e-03 -3.475000e-02 7.239529e-02
      vertex   -3.500000e-03 -3.475000e-02 1.385622e-01
      vertex   -7.712813e-03 -3.475000e-02 9.184977e-02
    endloop
  endfacet
  facet normal 0.000000e+00 -1.000000e+00 0.000000e+00
    outer loop
      vertex   -7.712813e-03 -3.475000e-02 9.184977e-02
      vertex   -3.500000e-03 -3.475000e-02 1.385622e-01
      vertex   -4.949747e-03 -3.475000e-02 1.374497e-01
    endloop
  endfacet
  facet normal 0.000000e+00 -1.000000e+00 0.000000e+00
    outer loop
      vertex   -7.712813e-03 -3.475000e-02 9.184977e-02
      vertex   -4.949747e-03 -3.475000e-02 1.374497e-01
      vertex   -6.062178e-03 -3.475000e-02 1.360000e-01
    endloop
  endfacet
  facet normal 0.000000e+00 -1.000000e+00 0.000000e+00
    outer loop
      vertex   -6.062178e-03 -3.475000e-02 1.360000e-01
      vertex   -6.761481e-03 -3.475000e-02 1.343117e-01
      vertex   -7.712813e-03 -3.475000e-02 9.184977e-02
    endloop
  endfacet
  facet normal 0.000000e+00 -1.000000e+00 0.000000e+00
    outer loop
      vertex   -7.712813e-03 -3.475000e-02 9.184977e-02
      vertex   -6.761481e-03 -3.475000e-02 1.343117e-01
      vertex   -7.712813e-03 -3.475000e-02 1.307613e-01
    endloop
  endfacet
  facet normal -0.000000e+00 4.370957e-16 1.000000e+00
    outer loop
      vertex   5.000000e-03 3.175000e-02 9.250000e-02
      vertex   5.000000e-03 -3.175000e-02 9.250000e-02
      vertex   1.000000e-02 3.175000e-02 9.250000e-02
    endloop
  endfacet
  facet normal 0.000000e+00 4.370957e-16 1.000000e+00
    outer loop
      vertex   1.000000e-02 3.175000e-02 9.250000e-02
      vertex   5.000000e-03 -3.175000e-02 9.250000e-02
      vertex   1.000000e-02 -3.175000e-02 9.250000e-02
    endloop
  endfacet
  facet normal -1.387779e-15 -9.834653e-16 -1.000000e+00
    outer loop
      vertex   5.000000e-03 -3.175000e-02 5.750000e-02
      vertex   5.000000e-03 3.175000e-02 5.750000e-02
      vertex   1.000000e-02 -3.175000e-02 5.750000e-02
    endloop
  endfacet
  facet normal -1.387779e-15 -9.834653e-16 -1.000000e+00
    outer loop
      vertex   1.000000e-02 -3.175000e-02 5.750000e-02
      vertex   5.000000e-03 3.175000e-02 5.750000e-02
      vertex   1.000000e-02 3.175000e-02 5.750000e-02
    endloop
  endfacet
endsolid
