solid ASCII
  facet normal 1.000000e+00 1.312093e-15 4.660810e-17
    outer loop
      vertex   -3.600000e-02 1.322104e-02 -2.900000e-02
      vertex   -3.600000e-02 6.851553e-03 1.433954e-03
      vertex   -3.600000e-02 -1.322104e-02 -2.900000e-02
    endloop
  endfacet
  facet normal 1.000000e+00 1.012748e-15 2.440400e-16
    outer loop
      vertex   -3.600000e-02 -1.322104e-02 -2.900000e-02
      vertex   -3.600000e-02 6.851553e-03 1.433954e-03
      vertex   -3.600000e-02 -6.851553e-03 1.433954e-03
    endloop
  endfacet
  facet normal 1.000000e+00 1.012748e-15 1.951752e-16
    outer loop
      vertex   -3.600000e-02 -6.851553e-03 1.433954e-03
      vertex   -3.600000e-02 6.851553e-03 1.433954e-03
      vertex   -3.600000e-02 -1.057205e-03 6.919705e-03
    endloop
  endfacet
  facet normal 1.000000e+00 -5.910735e-16 1.889218e-15
    outer loop
      vertex   -3.600000e-02 -6.851553e-03 1.433954e-03
      vertex   -3.600000e-02 -1.057205e-03 6.919705e-03
      vertex   -3.600000e-02 -3.075157e-03 6.288355e-03
    endloop
  endfacet
  facet normal 1.000000e+00 0.000000e+00 0.000000e+00
    outer loop
      vertex   -3.600000e-02 6.110817e-03 3.414369e-03
      vertex   -3.600000e-02 4.812533e-03 5.083259e-03
      vertex   -3.600000e-02 6.851553e-03 1.433954e-03
    endloop
  endfacet
  facet normal 1.000000e+00 0.000000e+00 0.000000e+00
    outer loop
      vertex   -3.600000e-02 6.851553e-03 1.433954e-03
      vertex   -3.600000e-02 4.812533e-03 5.083259e-03
      vertex   -3.600000e-02 3.075157e-03 6.288355e-03
    endloop
  endfacet
  facet normal 1.000000e+00 0.000000e+00 0.000000e+00
    outer loop
      vertex   -3.600000e-02 6.851553e-03 1.433954e-03
      vertex   -3.600000e-02 3.075157e-03 6.288355e-03
      vertex   -3.600000e-02 1.057205e-03 6.919705e-03
    endloop
  endfacet
  facet normal 1.000000e+00 3.281715e-15 3.466326e-15
    outer loop
      vertex   -3.600000e-02 1.057205e-03 6.919705e-03
      vertex   -3.600000e-02 -1.057205e-03 6.919705e-03
      vertex   -3.600000e-02 6.851553e-03 1.433954e-03
    endloop
  endfacet
  facet normal 1.000000e+00 6.521280e-15 -3.643712e-15
    outer loop
      vertex   -3.600000e-02 -3.075157e-03 6.288355e-03
      vertex   -3.600000e-02 -4.812533e-03 5.083259e-03
      vertex   -3.600000e-02 -6.851553e-03 1.433954e-03
    endloop
  endfacet
  facet normal 1.000000e+00 0.000000e+00 0.000000e+00
    outer loop
      vertex   -3.600000e-02 -6.851553e-03 1.433954e-03
      vertex   -3.600000e-02 -4.812533e-03 5.083259e-03
      vertex   -3.600000e-02 -6.110817e-03 3.414369e-03
    endloop
  endfacet
  facet normal 1.216205e-15 -9.787932e-01 2.048506e-01
    outer loop
      vertex   -3.600000e-02 -1.322104e-02 -2.900000e-02
      vertex   -3.600000e-02 -6.851553e-03 1.433954e-03
      vertex   -4.100000e-02 -1.322104e-02 -2.900000e-02
    endloop
  endfacet
  facet normal 1.394771e-15 -9.787932e-01 2.048506e-01
    outer loop
      vertex   -4.100000e-02 -1.322104e-02 -2.900000e-02
      vertex   -3.600000e-02 -6.851553e-03 1.433954e-03
      vertex   -4.100000e-02 -6.851553e-03 1.433954e-03
    endloop
  endfacet
  facet normal 1.000000e+00 -2.991551e-32 2.279984e-16
    outer loop
      vertex   2.100000e-02 1.322104e-02 -2.900000e-02
      vertex   2.100000e-02 6.851553e-03 1.433954e-03
      vertex   2.100000e-02 -1.322104e-02 -2.900000e-02
    endloop
  endfacet
  facet normal 1.000000e+00 5.772622e-32 2.279984e-16
    outer loop
      vertex   2.100000e-02 -1.322104e-02 -2.900000e-02
      vertex   2.100000e-02 6.851553e-03 1.433954e-03
      vertex   2.100000e-02 -6.851553e-03 1.433954e-03
    endloop
  endfacet
  facet normal 1.000000e+00 -0.000000e+00 0.000000e+00
    outer loop
      vertex   2.100000e-02 -6.851553e-03 1.433954e-03
      vertex   2.100000e-02 6.851553e-03 1.433954e-03
      vertex   2.100000e-02 -1.057205e-03 6.919705e-03
    endloop
  endfacet
  facet normal 1.000000e+00 0.000000e+00 0.000000e+00
    outer loop
      vertex   2.100000e-02 -6.851553e-03 1.433954e-03
      vertex   2.100000e-02 -1.057205e-03 6.919705e-03
      vertex   2.100000e-02 -3.075157e-03 6.288355e-03
    endloop
  endfacet
  facet normal 1.000000e+00 0.000000e+00 0.000000e+00
    outer loop
      vertex   2.100000e-02 6.110817e-03 3.414369e-03
      vertex   2.100000e-02 4.812533e-03 5.083259e-03
      vertex   2.100000e-02 6.851553e-03 1.433954e-03
    endloop
  endfacet
  facet normal 1.000000e+00 0.000000e+00 0.000000e+00
    outer loop
      vertex   2.100000e-02 6.851553e-03 1.433954e-03
      vertex   2.100000e-02 4.812533e-03 5.083259e-03
      vertex   2.100000e-02 3.075157e-03 6.288355e-03
    endloop
  endfacet
  facet normal 1.000000e+00 0.000000e+00 0.000000e+00
    outer loop
      vertex   2.100000e-02 6.851553e-03 1.433954e-03
      vertex   2.100000e-02 3.075157e-03 6.288355e-03
      vertex   2.100000e-02 1.057205e-03 6.919705e-03
    endloop
  endfacet
  facet normal 1.000000e+00 0.000000e+00 0.000000e+00
    outer loop
      vertex   2.100000e-02 1.057205e-03 6.919705e-03
      vertex   2.100000e-02 -1.057205e-03 6.919705e-03
      vertex   2.100000e-02 6.851553e-03 1.433954e-03
    endloop
  endfacet
  facet normal 1.000000e+00 0.000000e+00 0.000000e+00
    outer loop
      vertex   2.100000e-02 -3.075157e-03 6.288355e-03
      vertex   2.100000e-02 -4.812533e-03 5.083259e-03
      vertex   2.100000e-02 -6.851553e-03 1.433954e-03
    endloop
  endfacet
  facet normal 1.000000e+00 0.000000e+00 0.000000e+00
    outer loop
      vertex   2.100000e-02 -6.851553e-03 1.433954e-03
      vertex   2.100000e-02 -4.812533e-03 5.083259e-03
      vertex   2.100000e-02 -6.110817e-03 3.414369e-03
    endloop
  endfacet
  facet normal -2.842874e-16 -9.787932e-01 2.048506e-01
    outer loop
      vertex   2.100000e-02 -1.322104e-02 -2.900000e-02
      vertex   2.100000e-02 -6.851553e-03 1.433954e-03
      vertex   1.600000e-02 -1.322104e-02 -2.900000e-02
    endloop
  endfacet
  facet normal 0.000000e+00 -9.787932e-01 2.048506e-01
    outer loop
      vertex   1.600000e-02 -1.322104e-02 -2.900000e-02
      vertex   2.100000e-02 -6.851553e-03 1.433954e-03
      vertex   1.600000e-02 -6.851553e-03 1.433954e-03
    endloop
  endfacet
  facet normal -8.673617e-16 -1.138059e-30 1.000000e+00
    outer loop
      vertex   -4.100000e-02 1.322104e-02 -2.900000e-02
      vertex   -9.700000e-02 4.005000e-02 -2.900000e-02
      vertex   -4.100000e-02 -1.322104e-02 -2.900000e-02
    endloop
  endfacet
  facet normal -1.032381e-15 -1.734723e-16 1.000000e+00
    outer loop
      vertex   -4.100000e-02 -1.322104e-02 -2.900000e-02
      vertex   -9.700000e-02 4.005000e-02 -2.900000e-02
      vertex   -9.700000e-02 -5.995000e-02 -2.900000e-02
    endloop
  endfacet
  facet normal -6.938894e-16 -5.791203e-16 1.000000e+00
    outer loop
      vertex   -4.100000e-02 -1.322104e-02 -2.900000e-02
      vertex   -9.700000e-02 -5.995000e-02 -2.900000e-02
      vertex   -3.600000e-02 -1.322104e-02 -2.900000e-02
    endloop
  endfacet
  facet normal -1.000802e-15 -1.784764e-16 1.000000e+00
    outer loop
      vertex   -3.600000e-02 -1.322104e-02 -2.900000e-02
      vertex   -9.700000e-02 -5.995000e-02 -2.900000e-02
      vertex   1.600000e-02 -1.322104e-02 -2.900000e-02
    endloop
  endfacet
  facet normal -1.000802e-15 -1.312093e-16 1.000000e+00
    outer loop
      vertex   -3.600000e-02 -1.322104e-02 -2.900000e-02
      vertex   1.600000e-02 -1.322104e-02 -2.900000e-02
      vertex   -3.600000e-02 1.322104e-02 -2.900000e-02
    endloop
  endfacet
  facet normal -1.067522e-15 -2.624185e-16 1.000000e+00
    outer loop
      vertex   -3.600000e-02 1.322104e-02 -2.900000e-02
      vertex   1.600000e-02 -1.322104e-02 -2.900000e-02
      vertex   1.600000e-02 1.322104e-02 -2.900000e-02
    endloop
  endfacet
  facet normal -1.067522e-15 -3.581093e-16 1.000000e+00
    outer loop
      vertex   -3.600000e-02 1.322104e-02 -2.900000e-02
      vertex   1.600000e-02 1.322104e-02 -2.900000e-02
      vertex   -9.700000e-02 4.005000e-02 -2.900000e-02
    endloop
  endfacet
  facet normal -9.887924e-16 -2.651004e-17 1.000000e+00
    outer loop
      vertex   -9.700000e-02 4.005000e-02 -2.900000e-02
      vertex   1.600000e-02 1.322104e-02 -2.900000e-02
      vertex   1.030000e-01 4.005000e-02 -2.900000e-02
    endloop
  endfacet
  facet normal -6.938894e-16 -9.828111e-16 1.000000e+00
    outer loop
      vertex   1.030000e-01 4.005000e-02 -2.900000e-02
      vertex   1.600000e-02 1.322104e-02 -2.900000e-02
      vertex   2.100000e-02 1.322104e-02 -2.900000e-02
    endloop
  endfacet
  facet normal -9.725185e-16 -1.312093e-16 1.000000e+00
    outer loop
      vertex   1.030000e-01 4.005000e-02 -2.900000e-02
      vertex   2.100000e-02 1.322104e-02 -2.900000e-02
      vertex   2.100000e-02 -1.322104e-02 -2.900000e-02
    endloop
  endfacet
  facet normal -1.387779e-15 -1.086265e-15 1.000000e+00
    outer loop
      vertex   -4.100000e-02 1.322104e-02 -2.900000e-02
      vertex   -3.600000e-02 1.322104e-02 -2.900000e-02
      vertex   -9.700000e-02 4.005000e-02 -2.900000e-02
    endloop
  endfacet
  facet normal -9.676016e-16 -1.387779e-16 1.000000e+00
    outer loop
      vertex   1.030000e-01 4.005000e-02 -2.900000e-02
      vertex   2.100000e-02 -1.322104e-02 -2.900000e-02
      vertex   1.030000e-01 -5.995000e-02 -2.900000e-02
    endloop
  endfacet
  facet normal -1.387779e-15 -8.761050e-16 1.000000e+00
    outer loop
      vertex   1.030000e-01 -5.995000e-02 -2.900000e-02
      vertex   2.100000e-02 -1.322104e-02 -2.900000e-02
      vertex   1.600000e-02 -1.322104e-02 -2.900000e-02
    endloop
  endfacet
  facet normal -1.006140e-15 -1.655690e-16 1.000000e+00
    outer loop
      vertex   1.030000e-01 -5.995000e-02 -2.900000e-02
      vertex   1.600000e-02 -1.322104e-02 -2.900000e-02
      vertex   -9.700000e-02 -5.995000e-02 -2.900000e-02
    endloop
  endfacet
  facet normal 3.573530e-15 1.000000e+00 1.051348e-14
    outer loop
      vertex   -9.700000e-02 4.005000e-02 -2.900000e-02
      vertex   1.030000e-01 4.005000e-02 -2.900000e-02
      vertex   -9.700000e-02 4.005000e-02 -4.550000e-02
    endloop
  endfacet
  facet normal 5.204170e-15 1.000000e+00 -9.251859e-15
    outer loop
      vertex   -9.700000e-02 4.005000e-02 -4.550000e-02
      vertex   1.030000e-01 4.005000e-02 -2.900000e-02
      vertex   1.030000e-01 4.005000e-02 -4.550000e-02
    endloop
  endfacet
  facet normal -1.000000e+00 4.024558e-15 2.523234e-15
    outer loop
      vertex   -9.700000e-02 -5.995000e-02 -2.900000e-02
      vertex   -9.700000e-02 4.005000e-02 -2.900000e-02
      vertex   -9.700000e-02 -5.995000e-02 -4.550000e-02
    endloop
  endfacet
  facet normal -1.000000e+00 5.134781e-15 -4.205390e-15
    outer loop
      vertex   -9.700000e-02 -5.995000e-02 -4.550000e-02
      vertex   -9.700000e-02 4.005000e-02 -2.900000e-02
      vertex   -9.700000e-02 4.005000e-02 -4.550000e-02
    endloop
  endfacet
  facet normal -1.685440e-14 -7.929372e-14 -1.000000e+00
    outer loop
      vertex   -8.602305e-02 3.675418e-02 -4.550000e-02
      vertex   -8.765000e-02 3.710000e-02 -4.550000e-02
      vertex   -9.700000e-02 4.005000e-02 -4.550000e-02
    endloop
  endfacet
  facet normal 3.285934e-15 -1.545910e-14 -1.000000e+00
    outer loop
      vertex   -9.700000e-02 4.005000e-02 -4.550000e-02
      vertex   -8.765000e-02 3.710000e-02 -4.550000e-02
      vertex   -8.927695e-02 3.675418e-02 -4.550000e-02
    endloop
  endfacet
  facet normal 6.226087e-15 -8.569474e-15 -1.000000e+00
    outer loop
      vertex   -9.700000e-02 4.005000e-02 -4.550000e-02
      vertex   -8.927695e-02 3.675418e-02 -4.550000e-02
      vertex   -9.062258e-02 3.577652e-02 -4.550000e-02
    endloop
  endfacet
  facet normal 8.629768e-15 -4.982399e-15 -1.000000e+00
    outer loop
      vertex   -9.062258e-02 3.577652e-02 -4.550000e-02
      vertex   -9.145423e-02 3.433607e-02 -4.550000e-02
      vertex   -9.700000e-02 4.005000e-02 -4.550000e-02
    endloop
  endfacet
  facet normal 1.241844e-14 -1.305230e-15 -1.000000e+00
    outer loop
      vertex   -9.700000e-02 4.005000e-02 -4.550000e-02
      vertex   -9.145423e-02 3.433607e-02 -4.550000e-02
      vertex   -9.162809e-02 3.268189e-02 -4.550000e-02
    endloop
  endfacet
  facet normal 2.563171e-14 8.328248e-15 -1.000000e+00
    outer loop
      vertex   -9.700000e-02 4.005000e-02 -4.550000e-02
      vertex   -9.162809e-02 3.268189e-02 -4.550000e-02
      vertex   -9.111410e-02 3.110000e-02 -4.550000e-02
    endloop
  endfacet
  facet normal -4.764251e-16 -4.289751e-16 -1.000000e+00
    outer loop
      vertex   -9.000114e-02 2.986393e-02 -4.550000e-02
      vertex   -9.062258e-02 -5.032348e-02 -4.550000e-02
      vertex   -9.111410e-02 3.110000e-02 -4.550000e-02
    endloop
  endfacet
  facet normal 1.788883e-14 -3.181111e-16 -1.000000e+00
    outer loop
      vertex   -9.111410e-02 3.110000e-02 -4.550000e-02
      vertex   -9.062258e-02 -5.032348e-02 -4.550000e-02
      vertex   -9.700000e-02 -5.995000e-02 -4.550000e-02
    endloop
  endfacet
  facet normal 1.296792e-14 -6.658741e-29 -1.000000e+00
    outer loop
      vertex   -9.111410e-02 3.110000e-02 -4.550000e-02
      vertex   -9.700000e-02 -5.995000e-02 -4.550000e-02
      vertex   -9.700000e-02 4.005000e-02 -4.550000e-02
    endloop
  endfacet
  facet normal 3.161312e-16 -4.351173e-16 -1.000000e+00
    outer loop
      vertex   -9.062258e-02 -5.032348e-02 -4.550000e-02
      vertex   -9.000114e-02 2.986393e-02 -4.550000e-02
      vertex   -8.927695e-02 -4.934582e-02 -4.550000e-02
    endloop
  endfacet
  facet normal -1.958106e-16 -4.397978e-16 -1.000000e+00
    outer loop
      vertex   -8.927695e-02 -4.934582e-02 -4.550000e-02
      vertex   -9.000114e-02 2.986393e-02 -4.550000e-02
      vertex   -8.848165e-02 2.918741e-02 -4.550000e-02
    endloop
  endfacet
  facet normal 9.410597e-17 -4.427338e-16 -1.000000e+00
    outer loop
      vertex   -8.927695e-02 -4.934582e-02 -4.550000e-02
      vertex   -8.848165e-02 2.918741e-02 -4.550000e-02
      vertex   -8.765000e-02 -4.900000e-02 -4.550000e-02
    endloop
  endfacet
  facet normal 0.000000e+00 -4.437347e-16 -1.000000e+00
    outer loop
      vertex   -8.765000e-02 -4.900000e-02 -4.550000e-02
      vertex   -8.848165e-02 2.918741e-02 -4.550000e-02
      vertex   -8.681835e-02 2.918741e-02 -4.550000e-02
    endloop
  endfacet
  facet normal -9.410597e-17 -4.427338e-16 -1.000000e+00
    outer loop
      vertex   -8.765000e-02 -4.900000e-02 -4.550000e-02
      vertex   -8.681835e-02 2.918741e-02 -4.550000e-02
      vertex   -8.602305e-02 -4.934582e-02 -4.550000e-02
    endloop
  endfacet
  facet normal 1.958106e-16 -4.397978e-16 -1.000000e+00
    outer loop
      vertex   -8.602305e-02 -4.934582e-02 -4.550000e-02
      vertex   -8.681835e-02 2.918741e-02 -4.550000e-02
      vertex   -8.529886e-02 2.986393e-02 -4.550000e-02
    endloop
  endfacet
  facet normal -1.257347e-15 -4.265120e-16 -1.000000e+00
    outer loop
      vertex   -8.602305e-02 -4.934582e-02 -4.550000e-02
      vertex   -8.529886e-02 2.986393e-02 -4.550000e-02
      vertex   9.129886e-02 2.986393e-02 -4.550000e-02
    endloop
  endfacet
  facet normal -1.257347e-15 -1.132120e-15 -1.000000e+00
    outer loop
      vertex   9.129886e-02 2.986393e-02 -4.550000e-02
      vertex   -8.529886e-02 2.986393e-02 -4.550000e-02
      vertex   9.018590e-02 3.110000e-02 -4.550000e-02
    endloop
  endfacet
  facet normal -1.273397e-15 1.146572e-15 -1.000000e+00
    outer loop
      vertex   9.018590e-02 3.110000e-02 -4.550000e-02
      vertex   -8.529886e-02 2.986393e-02 -4.550000e-02
      vertex   -8.418590e-02 3.110000e-02 -4.550000e-02
    endloop
  endfacet
  facet normal -1.273397e-15 -4.137519e-16 -1.000000e+00
    outer loop
      vertex   9.018590e-02 3.110000e-02 -4.550000e-02
      vertex   -8.418590e-02 3.110000e-02 -4.550000e-02
      vertex   8.967191e-02 3.268189e-02 -4.550000e-02
    endloop
  endfacet
  facet normal -1.280949e-15 4.162056e-16 -1.000000e+00
    outer loop
      vertex   8.967191e-02 3.268189e-02 -4.550000e-02
      vertex   -8.418590e-02 3.110000e-02 -4.550000e-02
      vertex   -8.367191e-02 3.268189e-02 -4.550000e-02
    endloop
  endfacet
  facet normal -1.280949e-15 1.346332e-16 -1.000000e+00
    outer loop
      vertex   8.967191e-02 3.268189e-02 -4.550000e-02
      vertex   -8.367191e-02 3.268189e-02 -4.550000e-02
      vertex   8.984577e-02 3.433607e-02 -4.550000e-02
    endloop
  endfacet
  facet normal -1.278385e-15 -1.343636e-16 -1.000000e+00
    outer loop
      vertex   8.984577e-02 3.433607e-02 -4.550000e-02
      vertex   -8.367191e-02 3.268189e-02 -4.550000e-02
      vertex   -8.384577e-02 3.433607e-02 -4.550000e-02
    endloop
  endfacet
  facet normal -1.278385e-15 7.380757e-16 -1.000000e+00
    outer loop
      vertex   8.984577e-02 3.433607e-02 -4.550000e-02
      vertex   -8.384577e-02 3.433607e-02 -4.550000e-02
      vertex   9.067742e-02 3.577652e-02 -4.550000e-02
    endloop
  endfacet
  facet normal -1.266259e-15 -7.310748e-16 -1.000000e+00
    outer loop
      vertex   9.067742e-02 3.577652e-02 -4.550000e-02
      vertex   -8.384577e-02 3.433607e-02 -4.550000e-02
      vertex   -8.467742e-02 3.577652e-02 -4.550000e-02
    endloop
  endfacet
  facet normal -1.266259e-15 1.742856e-15 -1.000000e+00
    outer loop
      vertex   9.067742e-02 3.577652e-02 -4.550000e-02
      vertex   -8.467742e-02 3.577652e-02 -4.550000e-02
      vertex   9.202305e-02 3.675418e-02 -4.550000e-02
    endloop
  endfacet
  facet normal -1.247119e-15 -1.716511e-15 -1.000000e+00
    outer loop
      vertex   9.202305e-02 3.675418e-02 -4.550000e-02
      vertex   -8.467742e-02 3.577652e-02 -4.550000e-02
      vertex   -8.602305e-02 3.675418e-02 -4.550000e-02
    endloop
  endfacet
  facet normal -1.247119e-15 5.257696e-14 -1.000000e+00
    outer loop
      vertex   9.202305e-02 3.675418e-02 -4.550000e-02
      vertex   -8.602305e-02 3.675418e-02 -4.550000e-02
      vertex   1.030000e-01 4.005000e-02 -4.550000e-02
    endloop
  endfacet
  facet normal 6.938894e-17 -2.292789e-14 -1.000000e+00
    outer loop
      vertex   1.030000e-01 4.005000e-02 -4.550000e-02
      vertex   -8.602305e-02 3.675418e-02 -4.550000e-02
      vertex   -9.700000e-02 4.005000e-02 -4.550000e-02
    endloop
  endfacet
  facet normal 1.354682e-13 -7.821258e-14 -1.000000e+00
    outer loop
      vertex   -9.062258e-02 -5.032348e-02 -4.550000e-02
      vertex   -9.145423e-02 -5.176393e-02 -4.550000e-02
      vertex   -9.700000e-02 -5.995000e-02 -4.550000e-02
    endloop
  endfacet
  facet normal 2.369546e-14 -2.490493e-15 -1.000000e+00
    outer loop
      vertex   -9.700000e-02 -5.995000e-02 -4.550000e-02
      vertex   -9.145423e-02 -5.176393e-02 -4.550000e-02
      vertex   -9.162809e-02 -5.341811e-02 -4.550000e-02
    endloop
  endfacet
  facet normal 1.481433e-14 4.813467e-15 -1.000000e+00
    outer loop
      vertex   -9.700000e-02 -5.995000e-02 -4.550000e-02
      vertex   -9.162809e-02 -5.341811e-02 -4.550000e-02
      vertex   -9.111410e-02 -5.500000e-02 -4.550000e-02
    endloop
  endfacet
  facet normal 1.073416e-14 9.665079e-15 -1.000000e+00
    outer loop
      vertex   -9.111410e-02 -5.500000e-02 -4.550000e-02
      vertex   -9.000114e-02 -5.623607e-02 -4.550000e-02
      vertex   -9.700000e-02 -5.995000e-02 -4.550000e-02
    endloop
  endfacet
  facet normal 7.237209e-15 1.625504e-14 -1.000000e+00
    outer loop
      vertex   -9.700000e-02 -5.995000e-02 -4.550000e-02
      vertex   -9.000114e-02 -5.623607e-02 -4.550000e-02
      vertex   -8.848165e-02 -5.691259e-02 -4.550000e-02
    endloop
  endfacet
  facet normal 0.000000e+00 3.655164e-14 -1.000000e+00
    outer loop
      vertex   -9.700000e-02 -5.995000e-02 -4.550000e-02
      vertex   -8.848165e-02 -5.691259e-02 -4.550000e-02
      vertex   -8.681835e-02 -5.691259e-02 -4.550000e-02
    endloop
  endfacet
  facet normal -1.610976e-15 3.618311e-15 -1.000000e+00
    outer loop
      vertex   -8.529886e-02 -5.623607e-02 -4.550000e-02
      vertex   9.129886e-02 -5.623607e-02 -4.550000e-02
      vertex   -8.681835e-02 -5.691259e-02 -4.550000e-02
    endloop
  endfacet
  facet normal -1.583722e-15 -3.557098e-15 -1.000000e+00
    outer loop
      vertex   -8.681835e-02 -5.691259e-02 -4.550000e-02
      vertex   9.129886e-02 -5.623607e-02 -4.550000e-02
      vertex   9.281835e-02 -5.691259e-02 -4.550000e-02
    endloop
  endfacet
  facet normal -1.583722e-15 4.186041e-14 -1.000000e+00
    outer loop
      vertex   -8.681835e-02 -5.691259e-02 -4.550000e-02
      vertex   9.281835e-02 -5.691259e-02 -4.550000e-02
      vertex   -9.700000e-02 -5.995000e-02 -4.550000e-02
    endloop
  endfacet
  facet normal 6.938894e-17 -6.144830e-14 -1.000000e+00
    outer loop
      vertex   -9.700000e-02 -5.995000e-02 -4.550000e-02
      vertex   9.281835e-02 -5.691259e-02 -4.550000e-02
      vertex   1.030000e-01 -5.995000e-02 -4.550000e-02
    endloop
  endfacet
  facet normal 0.000000e+00 -6.168089e-14 -1.000000e+00
    outer loop
      vertex   1.030000e-01 -5.995000e-02 -4.550000e-02
      vertex   9.281835e-02 -5.691259e-02 -4.550000e-02
      vertex   9.448165e-02 -5.691259e-02 -4.550000e-02
    endloop
  endfacet
  facet normal 1.221279e-14 -2.743037e-14 -1.000000e+00
    outer loop
      vertex   1.030000e-01 -5.995000e-02 -4.550000e-02
      vertex   9.448165e-02 -5.691259e-02 -4.550000e-02
      vertex   9.600114e-02 -5.623607e-02 -4.550000e-02
    endloop
  endfacet
  facet normal -1.610976e-15 -1.450529e-15 -1.000000e+00
    outer loop
      vertex   9.129886e-02 -5.623607e-02 -4.550000e-02
      vertex   -8.529886e-02 -5.623607e-02 -4.550000e-02
      vertex   9.018590e-02 -5.500000e-02 -4.550000e-02
    endloop
  endfacet
  facet normal -1.631541e-15 1.469046e-15 -1.000000e+00
    outer loop
      vertex   9.018590e-02 -5.500000e-02 -4.550000e-02
      vertex   -8.529886e-02 -5.623607e-02 -4.550000e-02
      vertex   -8.418590e-02 -5.500000e-02 -4.550000e-02
    endloop
  endfacet
  facet normal -1.631541e-15 -5.301196e-16 -1.000000e+00
    outer loop
      vertex   9.018590e-02 -5.500000e-02 -4.550000e-02
      vertex   -8.418590e-02 -5.500000e-02 -4.550000e-02
      vertex   8.967191e-02 -5.341811e-02 -4.550000e-02
    endloop
  endfacet
  facet normal -1.641216e-15 5.332634e-16 -1.000000e+00
    outer loop
      vertex   8.967191e-02 -5.341811e-02 -4.550000e-02
      vertex   -8.418590e-02 -5.500000e-02 -4.550000e-02
      vertex   -8.367191e-02 -5.341811e-02 -4.550000e-02
    endloop
  endfacet
  facet normal -1.641216e-15 1.724987e-16 -1.000000e+00
    outer loop
      vertex   8.967191e-02 -5.341811e-02 -4.550000e-02
      vertex   -8.367191e-02 -5.341811e-02 -4.550000e-02
      vertex   8.984577e-02 -5.176393e-02 -4.550000e-02
    endloop
  endfacet
  facet normal -1.637930e-15 -1.721534e-16 -1.000000e+00
    outer loop
      vertex   8.984577e-02 -5.176393e-02 -4.550000e-02
      vertex   -8.367191e-02 -5.341811e-02 -4.550000e-02
      vertex   -8.384577e-02 -5.176393e-02 -4.550000e-02
    endloop
  endfacet
  facet normal -1.637930e-15 9.456595e-16 -1.000000e+00
    outer loop
      vertex   8.984577e-02 -5.176393e-02 -4.550000e-02
      vertex   -8.384577e-02 -5.176393e-02 -4.550000e-02
      vertex   9.067742e-02 -5.032348e-02 -4.550000e-02
    endloop
  endfacet
  facet normal -1.622394e-15 -9.366896e-16 -1.000000e+00
    outer loop
      vertex   9.067742e-02 -5.032348e-02 -4.550000e-02
      vertex   -8.384577e-02 -5.176393e-02 -4.550000e-02
      vertex   -8.467742e-02 -5.032348e-02 -4.550000e-02
    endloop
  endfacet
  facet normal -1.622394e-15 2.233034e-15 -1.000000e+00
    outer loop
      vertex   9.067742e-02 -5.032348e-02 -4.550000e-02
      vertex   -8.467742e-02 -5.032348e-02 -4.550000e-02
      vertex   9.202305e-02 -4.934582e-02 -4.550000e-02
    endloop
  endfacet
  facet normal -1.597871e-15 -2.199280e-15 -1.000000e+00
    outer loop
      vertex   9.202305e-02 -4.934582e-02 -4.550000e-02
      vertex   -8.467742e-02 -5.032348e-02 -4.550000e-02
      vertex   -8.602305e-02 -4.934582e-02 -4.550000e-02
    endloop
  endfacet
  facet normal -1.597871e-15 3.357971e-16 -1.000000e+00
    outer loop
      vertex   9.202305e-02 -4.934582e-02 -4.550000e-02
      vertex   -8.602305e-02 -4.934582e-02 -4.550000e-02
      vertex   9.129886e-02 2.986393e-02 -4.550000e-02
    endloop
  endfacet
  facet normal 6.870589e-15 3.232358e-14 -1.000000e+00
    outer loop
      vertex   9.527695e-02 3.675418e-02 -4.550000e-02
      vertex   9.365000e-02 3.710000e-02 -4.550000e-02
      vertex   1.030000e-01 4.005000e-02 -4.550000e-02
    endloop
  endfacet
  facet normal -3.524102e-14 1.657960e-13 -1.000000e+00
    outer loop
      vertex   1.030000e-01 4.005000e-02 -4.550000e-02
      vertex   9.365000e-02 3.710000e-02 -4.550000e-02
      vertex   9.202305e-02 3.675418e-02 -4.550000e-02
    endloop
  endfacet
  facet normal 1.566485e-16 3.518382e-16 -1.000000e+00
    outer loop
      vertex   9.129886e-02 2.986393e-02 -4.550000e-02
      vertex   9.281835e-02 2.918741e-02 -4.550000e-02
      vertex   9.202305e-02 -4.934582e-02 -4.550000e-02
    endloop
  endfacet
  facet normal -7.528477e-17 3.541870e-16 -1.000000e+00
    outer loop
      vertex   9.202305e-02 -4.934582e-02 -4.550000e-02
      vertex   9.281835e-02 2.918741e-02 -4.550000e-02
      vertex   9.365000e-02 -4.900000e-02 -4.550000e-02
    endloop
  endfacet
  facet normal 0.000000e+00 3.549878e-16 -1.000000e+00
    outer loop
      vertex   9.365000e-02 -4.900000e-02 -4.550000e-02
      vertex   9.281835e-02 2.918741e-02 -4.550000e-02
      vertex   9.448165e-02 2.918741e-02 -4.550000e-02
    endloop
  endfacet
  facet normal 7.528477e-17 3.541870e-16 -1.000000e+00
    outer loop
      vertex   9.365000e-02 -4.900000e-02 -4.550000e-02
      vertex   9.448165e-02 2.918741e-02 -4.550000e-02
      vertex   9.527695e-02 -4.934582e-02 -4.550000e-02
    endloop
  endfacet
  facet normal -1.566485e-16 3.518382e-16 -1.000000e+00
    outer loop
      vertex   9.527695e-02 -4.934582e-02 -4.550000e-02
      vertex   9.448165e-02 2.918741e-02 -4.550000e-02
      vertex   9.600114e-02 2.986393e-02 -4.550000e-02
    endloop
  endfacet
  facet normal 2.529050e-16 3.480938e-16 -1.000000e+00
    outer loop
      vertex   9.527695e-02 -4.934582e-02 -4.550000e-02
      vertex   9.600114e-02 2.986393e-02 -4.550000e-02
      vertex   9.662258e-02 -5.032348e-02 -4.550000e-02
    endloop
  endfacet
  facet normal -3.811401e-16 3.431801e-16 -1.000000e+00
    outer loop
      vertex   9.662258e-02 -5.032348e-02 -4.550000e-02
      vertex   9.600114e-02 2.986393e-02 -4.550000e-02
      vertex   9.711410e-02 3.110000e-02 -4.550000e-02
    endloop
  endfacet
  facet normal 2.962173e-14 1.620642e-16 -1.000000e+00
    outer loop
      vertex   9.662258e-02 -5.032348e-02 -4.550000e-02
      vertex   9.711410e-02 3.110000e-02 -4.550000e-02
      vertex   1.030000e-01 -5.995000e-02 -4.550000e-02
    endloop
  endfacet
  facet normal 2.711473e-14 -1.429912e-28 -1.000000e+00
    outer loop
      vertex   1.030000e-01 -5.995000e-02 -4.550000e-02
      vertex   9.711410e-02 3.110000e-02 -4.550000e-02
      vertex   1.030000e-01 4.005000e-02 -4.550000e-02
    endloop
  endfacet
  facet normal 5.359358e-14 -1.741361e-14 -1.000000e+00
    outer loop
      vertex   1.030000e-01 4.005000e-02 -4.550000e-02
      vertex   9.711410e-02 3.110000e-02 -4.550000e-02
      vertex   9.762809e-02 3.268189e-02 -4.550000e-02
    endloop
  endfacet
  facet normal 2.596582e-14 2.729118e-15 -1.000000e+00
    outer loop
      vertex   1.030000e-01 4.005000e-02 -4.550000e-02
      vertex   9.762809e-02 3.268189e-02 -4.550000e-02
      vertex   9.745423e-02 3.433607e-02 -4.550000e-02
    endloop
  endfacet
  facet normal 1.804406e-14 1.041774e-14 -1.000000e+00
    outer loop
      vertex   9.745423e-02 3.433607e-02 -4.550000e-02
      vertex   9.662258e-02 3.577652e-02 -4.550000e-02
      vertex   1.030000e-01 4.005000e-02 -4.550000e-02
    endloop
  endfacet
  facet normal 1.301818e-14 1.791799e-14 -1.000000e+00
    outer loop
      vertex   1.030000e-01 4.005000e-02 -4.550000e-02
      vertex   9.662258e-02 3.577652e-02 -4.550000e-02
      vertex   9.527695e-02 3.675418e-02 -4.550000e-02
    endloop
  endfacet
  facet normal 1.811389e-14 -1.630982e-14 -1.000000e+00
    outer loop
      vertex   9.600114e-02 -5.623607e-02 -4.550000e-02
      vertex   9.711410e-02 -5.500000e-02 -4.550000e-02
      vertex   1.030000e-01 -5.995000e-02 -4.550000e-02
    endloop
  endfacet
  facet normal 2.499918e-14 -8.122726e-15 -1.000000e+00
    outer loop
      vertex   1.030000e-01 -5.995000e-02 -4.550000e-02
      vertex   9.711410e-02 -5.500000e-02 -4.550000e-02
      vertex   9.762809e-02 -5.341811e-02 -4.550000e-02
    endloop
  endfacet
  facet normal 3.998608e-14 4.202707e-15 -1.000000e+00
    outer loop
      vertex   1.030000e-01 -5.995000e-02 -4.550000e-02
      vertex   9.762809e-02 -5.341811e-02 -4.550000e-02
      vertex   9.745423e-02 -5.176393e-02 -4.550000e-02
    endloop
  endfacet
  facet normal 2.286025e-13 1.319837e-13 -1.000000e+00
    outer loop
      vertex   9.745423e-02 -5.176393e-02 -4.550000e-02
      vertex   9.662258e-02 -5.032348e-02 -4.550000e-02
      vertex   1.030000e-01 -5.995000e-02 -4.550000e-02
    endloop
  endfacet
  facet normal -5.169476e-15 -1.000000e+00 -1.009294e-14
    outer loop
      vertex   -9.700000e-02 -5.995000e-02 -4.550000e-02
      vertex   1.030000e-01 -5.995000e-02 -4.550000e-02
      vertex   -9.700000e-02 -5.995000e-02 -2.900000e-02
    endloop
  endfacet
  facet normal -3.538836e-15 -1.000000e+00 9.672398e-15
    outer loop
      vertex   -9.700000e-02 -5.995000e-02 -2.900000e-02
      vertex   1.030000e-01 -5.995000e-02 -4.550000e-02
      vertex   1.030000e-01 -5.995000e-02 -2.900000e-02
    endloop
  endfacet
  facet normal 1.000000e+00 -3.747003e-15 4.205390e-15
    outer loop
      vertex   1.030000e-01 4.005000e-02 -2.900000e-02
      vertex   1.030000e-01 -5.995000e-02 -2.900000e-02
      vertex   1.030000e-01 4.005000e-02 -4.550000e-02
    endloop
  endfacet
  facet normal 1.000000e+00 -5.273559e-15 -5.046468e-15
    outer loop
      vertex   1.030000e-01 4.005000e-02 -4.550000e-02
      vertex   1.030000e-01 -5.995000e-02 -2.900000e-02
      vertex   1.030000e-01 -5.995000e-02 -4.550000e-02
    endloop
  endfacet
  facet normal -1.000000e+00 -1.312093e-15 -2.746065e-16
    outer loop
      vertex   -4.100000e-02 1.322104e-02 -2.900000e-02
      vertex   -4.100000e-02 -1.322104e-02 -2.900000e-02
      vertex   -4.100000e-02 6.851553e-03 1.433954e-03
    endloop
  endfacet
  facet normal -1.000000e+00 -1.519121e-15 -1.380615e-16
    outer loop
      vertex   -4.100000e-02 6.851553e-03 1.433954e-03
      vertex   -4.100000e-02 -1.322104e-02 -2.900000e-02
      vertex   -4.100000e-02 -6.851553e-03 1.433954e-03
    endloop
  endfacet
  facet normal -1.000000e+00 -1.519121e-15 3.396844e-16
    outer loop
      vertex   -4.100000e-02 6.851553e-03 1.433954e-03
      vertex   -4.100000e-02 -6.851553e-03 1.433954e-03
      vertex   -4.100000e-02 -1.057205e-03 6.919705e-03
    endloop
  endfacet
  facet normal -1.000000e+00 -4.544717e-15 3.535483e-15
    outer loop
      vertex   -4.100000e-02 -1.057205e-03 6.919705e-03
      vertex   -4.100000e-02 -6.851553e-03 1.433954e-03
      vertex   -4.100000e-02 -3.075157e-03 6.288355e-03
    endloop
  endfacet
  facet normal -1.000000e+00 0.000000e+00 0.000000e+00
    outer loop
      vertex   -4.100000e-02 -3.075157e-03 6.288355e-03
      vertex   -4.100000e-02 -6.851553e-03 1.433954e-03
      vertex   -4.100000e-02 -4.812533e-03 5.083259e-03
    endloop
  endfacet
  facet normal -1.000000e+00 0.000000e+00 0.000000e+00
    outer loop
      vertex   -4.100000e-02 -4.812533e-03 5.083259e-03
      vertex   -4.100000e-02 -6.851553e-03 1.433954e-03
      vertex   -4.100000e-02 -6.110817e-03 3.414369e-03
    endloop
  endfacet
  facet normal -1.000000e+00 -2.075511e-30 2.529788e-15
    outer loop
      vertex   -4.100000e-02 -1.057205e-03 6.919705e-03
      vertex   -4.100000e-02 1.057205e-03 6.919705e-03
      vertex   -4.100000e-02 6.851553e-03 1.433954e-03
    endloop
  endfacet
  facet normal -1.000000e+00 1.182147e-15 3.778436e-15
    outer loop
      vertex   -4.100000e-02 6.851553e-03 1.433954e-03
      vertex   -4.100000e-02 1.057205e-03 6.919705e-03
      vertex   -4.100000e-02 3.075157e-03 6.288355e-03
    endloop
  endfacet
  facet normal -1.000000e+00 -1.304256e-14 -7.287424e-15
    outer loop
      vertex   -4.100000e-02 6.851553e-03 1.433954e-03
      vertex   -4.100000e-02 3.075157e-03 6.288355e-03
      vertex   -4.100000e-02 4.812533e-03 5.083259e-03
    endloop
  endfacet
  facet normal -1.000000e+00 0.000000e+00 0.000000e+00
    outer loop
      vertex   -4.100000e-02 4.812533e-03 5.083259e-03
      vertex   -4.100000e-02 6.110817e-03 3.414369e-03
      vertex   -4.100000e-02 6.851553e-03 1.433954e-03
    endloop
  endfacet
  facet normal -1.303049e-15 9.787932e-01 2.048506e-01
    outer loop
      vertex   -4.100000e-02 1.322104e-02 -2.900000e-02
      vertex   -4.100000e-02 6.851553e-03 1.433954e-03
      vertex   -3.600000e-02 1.322104e-02 -2.900000e-02
    endloop
  endfacet
  facet normal -1.394771e-15 9.787932e-01 2.048506e-01
    outer loop
      vertex   -3.600000e-02 1.322104e-02 -2.900000e-02
      vertex   -4.100000e-02 6.851553e-03 1.433954e-03
      vertex   -3.600000e-02 6.851553e-03 1.433954e-03
    endloop
  endfacet
  facet normal -1.360604e-15 9.366273e-01 3.503273e-01
    outer loop
      vertex   -3.600000e-02 6.851553e-03 1.433954e-03
      vertex   -4.100000e-02 6.851553e-03 1.433954e-03
      vertex   -3.600000e-02 6.110817e-03 3.414369e-03
    endloop
  endfacet
  facet normal -1.360604e-15 9.366273e-01 3.503273e-01
    outer loop
      vertex   -3.600000e-02 6.110817e-03 3.414369e-03
      vertex   -4.100000e-02 6.851553e-03 1.433954e-03
      vertex   -4.100000e-02 6.110817e-03 3.414369e-03
    endloop
  endfacet
  facet normal -1.201879e-15 7.892931e-01 6.140167e-01
    outer loop
      vertex   -3.600000e-02 6.110817e-03 3.414369e-03
      vertex   -4.100000e-02 6.110817e-03 3.414369e-03
      vertex   -3.600000e-02 4.812533e-03 5.083259e-03
    endloop
  endfacet
  facet normal -1.095364e-15 7.892931e-01 6.140167e-01
    outer loop
      vertex   -3.600000e-02 4.812533e-03 5.083259e-03
      vertex   -4.100000e-02 6.110817e-03 3.414369e-03
      vertex   -4.100000e-02 4.812533e-03 5.083259e-03
    endloop
  endfacet
  facet normal -7.909564e-16 5.699441e-01 8.216834e-01
    outer loop
      vertex   -3.600000e-02 4.812533e-03 5.083259e-03
      vertex   -4.100000e-02 4.812533e-03 5.083259e-03
      vertex   -3.600000e-02 3.075157e-03 6.288355e-03
    endloop
  endfacet
  facet normal -9.829305e-16 5.699441e-01 8.216834e-01
    outer loop
      vertex   -3.600000e-02 3.075157e-03 6.288355e-03
      vertex   -4.100000e-02 4.812533e-03 5.083259e-03
      vertex   -4.100000e-02 3.075157e-03 6.288355e-03
    endloop
  endfacet
  facet normal -6.058397e-16 2.985938e-01 9.543803e-01
    outer loop
      vertex   -3.600000e-02 3.075157e-03 6.288355e-03
      vertex   -4.100000e-02 3.075157e-03 6.288355e-03
      vertex   -3.600000e-02 1.057205e-03 6.919705e-03
    endloop
  endfacet
  facet normal -4.143822e-16 2.985938e-01 9.543803e-01
    outer loop
      vertex   -3.600000e-02 1.057205e-03 6.919705e-03
      vertex   -4.100000e-02 3.075157e-03 6.288355e-03
      vertex   -4.100000e-02 1.057205e-03 6.919705e-03
    endloop
  endfacet
  facet normal 5.692869e-31 -4.102144e-16 1.000000e+00
    outer loop
      vertex   -3.600000e-02 1.057205e-03 6.919705e-03
      vertex   -4.100000e-02 1.057205e-03 6.919705e-03
      vertex   -3.600000e-02 -1.057205e-03 6.919705e-03
    endloop
  endfacet
  facet normal -1.734723e-16 -8.204288e-16 1.000000e+00
    outer loop
      vertex   -3.600000e-02 -1.057205e-03 6.919705e-03
      vertex   -4.100000e-02 1.057205e-03 6.919705e-03
      vertex   -4.100000e-02 -1.057205e-03 6.919705e-03
    endloop
  endfacet
  facet normal 2.488236e-16 -2.985938e-01 9.543803e-01
    outer loop
      vertex   -3.600000e-02 -1.057205e-03 6.919705e-03
      vertex   -4.100000e-02 -1.057205e-03 6.919705e-03
      vertex   -3.600000e-02 -3.075157e-03 6.288355e-03
    endloop
  endfacet
  facet normal 1.091639e-16 -2.985938e-01 9.543803e-01
    outer loop
      vertex   -3.600000e-02 -3.075157e-03 6.288355e-03
      vertex   -4.100000e-02 -1.057205e-03 6.919705e-03
      vertex   -4.100000e-02 -3.075157e-03 6.288355e-03
    endloop
  endfacet
  facet normal 5.553125e-16 -5.699441e-01 8.216834e-01
    outer loop
      vertex   -3.600000e-02 -3.075157e-03 6.288355e-03
      vertex   -4.100000e-02 -3.075157e-03 6.288355e-03
      vertex   -3.600000e-02 -4.812533e-03 5.083259e-03
    endloop
  endfacet
  facet normal 5.058777e-16 -5.699441e-01 8.216834e-01
    outer loop
      vertex   -3.600000e-02 -4.812533e-03 5.083259e-03
      vertex   -4.100000e-02 -3.075157e-03 6.288355e-03
      vertex   -4.100000e-02 -4.812533e-03 5.083259e-03
    endloop
  endfacet
  facet normal 8.823343e-16 -7.892931e-01 6.140167e-01
    outer loop
      vertex   -3.600000e-02 -4.812533e-03 5.083259e-03
      vertex   -4.100000e-02 -4.812533e-03 5.083259e-03
      vertex   -3.600000e-02 -6.110817e-03 3.414369e-03
    endloop
  endfacet
  facet normal 8.519287e-16 -7.892931e-01 6.140167e-01
    outer loop
      vertex   -3.600000e-02 -6.110817e-03 3.414369e-03
      vertex   -4.100000e-02 -4.812533e-03 5.083259e-03
      vertex   -4.100000e-02 -6.110817e-03 3.414369e-03
    endloop
  endfacet
  facet normal 1.076580e-15 -9.366273e-01 3.503273e-01
    outer loop
      vertex   -3.600000e-02 -6.110817e-03 3.414369e-03
      vertex   -4.100000e-02 -6.110817e-03 3.414369e-03
      vertex   -3.600000e-02 -6.851553e-03 1.433954e-03
    endloop
  endfacet
  facet normal 1.254252e-15 -9.366273e-01 3.503273e-01
    outer loop
      vertex   -3.600000e-02 -6.851553e-03 1.433954e-03
      vertex   -4.100000e-02 -6.110817e-03 3.414369e-03
      vertex   -4.100000e-02 -6.851553e-03 1.433954e-03
    endloop
  endfacet
  facet normal -1.000000e+00 1.312093e-16 -8.653856e-17
    outer loop
      vertex   1.600000e-02 1.322104e-02 -2.900000e-02
      vertex   1.600000e-02 -1.322104e-02 -2.900000e-02
      vertex   1.600000e-02 6.851553e-03 1.433954e-03
    endloop
  endfacet
  facet normal -1.000000e+00 -0.000000e+00 0.000000e+00
    outer loop
      vertex   1.600000e-02 6.851553e-03 1.433954e-03
      vertex   1.600000e-02 -1.322104e-02 -2.900000e-02
      vertex   1.600000e-02 -6.851553e-03 1.433954e-03
    endloop
  endfacet
  facet normal -1.000000e+00 0.000000e+00 0.000000e+00
    outer loop
      vertex   1.600000e-02 6.851553e-03 1.433954e-03
      vertex   1.600000e-02 -6.851553e-03 1.433954e-03
      vertex   1.600000e-02 -1.057205e-03 6.919705e-03
    endloop
  endfacet
  facet normal -1.000000e+00 0.000000e+00 0.000000e+00
    outer loop
      vertex   1.600000e-02 -1.057205e-03 6.919705e-03
      vertex   1.600000e-02 -6.851553e-03 1.433954e-03
      vertex   1.600000e-02 -3.075157e-03 6.288355e-03
    endloop
  endfacet
  facet normal -1.000000e+00 0.000000e+00 0.000000e+00
    outer loop
      vertex   1.600000e-02 -3.075157e-03 6.288355e-03
      vertex   1.600000e-02 -6.851553e-03 1.433954e-03
      vertex   1.600000e-02 -4.812533e-03 5.083259e-03
    endloop
  endfacet
  facet normal -1.000000e+00 0.000000e+00 0.000000e+00
    outer loop
      vertex   1.600000e-02 -4.812533e-03 5.083259e-03
      vertex   1.600000e-02 -6.851553e-03 1.433954e-03
      vertex   1.600000e-02 -6.110817e-03 3.414369e-03
    endloop
  endfacet
  facet normal -1.000000e+00 0.000000e+00 0.000000e+00
    outer loop
      vertex   1.600000e-02 -1.057205e-03 6.919705e-03
      vertex   1.600000e-02 1.057205e-03 6.919705e-03
      vertex   1.600000e-02 6.851553e-03 1.433954e-03
    endloop
  endfacet
  facet normal -1.000000e+00 0.000000e+00 0.000000e+00
    outer loop
      vertex   1.600000e-02 6.851553e-03 1.433954e-03
      vertex   1.600000e-02 1.057205e-03 6.919705e-03
      vertex   1.600000e-02 3.075157e-03 6.288355e-03
    endloop
  endfacet
  facet normal -1.000000e+00 0.000000e+00 0.000000e+00
    outer loop
      vertex   1.600000e-02 6.851553e-03 1.433954e-03
      vertex   1.600000e-02 3.075157e-03 6.288355e-03
      vertex   1.600000e-02 4.812533e-03 5.083259e-03
    endloop
  endfacet
  facet normal -1.000000e+00 0.000000e+00 0.000000e+00
    outer loop
      vertex   1.600000e-02 4.812533e-03 5.083259e-03
      vertex   1.600000e-02 6.110817e-03 3.414369e-03
      vertex   1.600000e-02 6.851553e-03 1.433954e-03
    endloop
  endfacet
  facet normal 1.974434e-16 9.787932e-01 2.048506e-01
    outer loop
      vertex   1.600000e-02 1.322104e-02 -2.900000e-02
      vertex   1.600000e-02 6.851553e-03 1.433954e-03
      vertex   2.100000e-02 1.322104e-02 -2.900000e-02
    endloop
  endfacet
  facet normal 0.000000e+00 9.787932e-01 2.048506e-01
    outer loop
      vertex   2.100000e-02 1.322104e-02 -2.900000e-02
      vertex   1.600000e-02 6.851553e-03 1.433954e-03
      vertex   2.100000e-02 6.851553e-03 1.433954e-03
    endloop
  endfacet
  facet normal -6.077211e-17 9.366273e-01 3.503273e-01
    outer loop
      vertex   2.100000e-02 6.851553e-03 1.433954e-03
      vertex   1.600000e-02 6.851553e-03 1.433954e-03
      vertex   2.100000e-02 6.110817e-03 3.414369e-03
    endloop
  endfacet
  facet normal -3.038605e-17 9.366273e-01 3.503273e-01
    outer loop
      vertex   2.100000e-02 6.110817e-03 3.414369e-03
      vertex   1.600000e-02 6.851553e-03 1.433954e-03
      vertex   1.600000e-02 6.110817e-03 3.414369e-03
    endloop
  endfacet
  facet normal -5.325746e-17 7.892931e-01 6.140167e-01
    outer loop
      vertex   2.100000e-02 6.110817e-03 3.414369e-03
      vertex   1.600000e-02 6.110817e-03 3.414369e-03
      vertex   2.100000e-02 4.812533e-03 5.083259e-03
    endloop
  endfacet
  facet normal -1.065149e-16 7.892931e-01 6.140167e-01
    outer loop
      vertex   2.100000e-02 4.812533e-03 5.083259e-03
      vertex   1.600000e-02 6.110817e-03 3.414369e-03
      vertex   1.600000e-02 4.812533e-03 5.083259e-03
    endloop
  endfacet
  facet normal -1.425394e-16 5.699441e-01 8.216834e-01
    outer loop
      vertex   2.100000e-02 4.812533e-03 5.083259e-03
      vertex   1.600000e-02 4.812533e-03 5.083259e-03
      vertex   2.100000e-02 3.075157e-03 6.288355e-03
    endloop
  endfacet
  facet normal 9.886955e-17 5.699441e-01 8.216834e-01
    outer loop
      vertex   2.100000e-02 3.075157e-03 6.288355e-03
      vertex   1.600000e-02 4.812533e-03 5.083259e-03
      vertex   1.600000e-02 3.075157e-03 6.288355e-03
    endloop
  endfacet
  facet normal 5.179777e-17 2.985938e-01 9.543803e-01
    outer loop
      vertex   2.100000e-02 3.075157e-03 6.288355e-03
      vertex   1.600000e-02 3.075157e-03 6.288355e-03
      vertex   2.100000e-02 1.057205e-03 6.919705e-03
    endloop
  endfacet
  facet normal 1.294944e-17 2.985938e-01 9.543803e-01
    outer loop
      vertex   2.100000e-02 1.057205e-03 6.919705e-03
      vertex   1.600000e-02 3.075157e-03 6.288355e-03
      vertex   1.600000e-02 1.057205e-03 6.919705e-03
    endloop
  endfacet
  facet normal -1.779021e-32 -4.102144e-16 1.000000e+00
    outer loop
      vertex   2.100000e-02 1.057205e-03 6.919705e-03
      vertex   1.600000e-02 1.057205e-03 6.919705e-03
      vertex   2.100000e-02 -1.057205e-03 6.919705e-03
    endloop
  endfacet
  facet normal -1.734723e-16 -8.204288e-16 1.000000e+00
    outer loop
      vertex   2.100000e-02 -1.057205e-03 6.919705e-03
      vertex   1.600000e-02 1.057205e-03 6.919705e-03
      vertex   1.600000e-02 -1.057205e-03 6.919705e-03
    endloop
  endfacet
  facet normal -1.914575e-16 -2.985938e-01 9.543803e-01
    outer loop
      vertex   2.100000e-02 -1.057205e-03 6.919705e-03
      vertex   1.600000e-02 -1.057205e-03 6.919705e-03
      vertex   2.100000e-02 -3.075157e-03 6.288355e-03
    endloop
  endfacet
  facet normal -1.655586e-16 -2.985938e-01 9.543803e-01
    outer loop
      vertex   2.100000e-02 -3.075157e-03 6.288355e-03
      vertex   1.600000e-02 -1.057205e-03 6.919705e-03
      vertex   1.600000e-02 -3.075157e-03 6.288355e-03
    endloop
  endfacet
  facet normal -1.425394e-16 -5.699441e-01 8.216834e-01
    outer loop
      vertex   2.100000e-02 -3.075157e-03 6.288355e-03
      vertex   1.600000e-02 -3.075157e-03 6.288355e-03
      vertex   2.100000e-02 -4.812533e-03 5.083259e-03
    endloop
  endfacet
  facet normal 0.000000e+00 -5.699441e-01 8.216834e-01
    outer loop
      vertex   2.100000e-02 -4.812533e-03 5.083259e-03
      vertex   1.600000e-02 -3.075157e-03 6.288355e-03
      vertex   1.600000e-02 -4.812533e-03 5.083259e-03
    endloop
  endfacet
  facet normal 0.000000e+00 -7.892931e-01 6.140167e-01
    outer loop
      vertex   2.100000e-02 -4.812533e-03 5.083259e-03
      vertex   1.600000e-02 -4.812533e-03 5.083259e-03
      vertex   2.100000e-02 -6.110817e-03 3.414369e-03
    endloop
  endfacet
  facet normal -1.597724e-16 -7.892931e-01 6.140167e-01
    outer loop
      vertex   2.100000e-02 -6.110817e-03 3.414369e-03
      vertex   1.600000e-02 -4.812533e-03 5.083259e-03
      vertex   1.600000e-02 -6.110817e-03 3.414369e-03
    endloop
  endfacet
  facet normal -9.115816e-17 -9.366273e-01 3.503273e-01
    outer loop
      vertex   2.100000e-02 -6.110817e-03 3.414369e-03
      vertex   1.600000e-02 -6.110817e-03 3.414369e-03
      vertex   2.100000e-02 -6.851553e-03 1.433954e-03
    endloop
  endfacet
  facet normal -4.557908e-17 -9.366273e-01 3.503273e-01
    outer loop
      vertex   2.100000e-02 -6.851553e-03 1.433954e-03
      vertex   1.600000e-02 -6.110817e-03 3.414369e-03
      vertex   1.600000e-02 -6.851553e-03 1.433954e-03
    endloop
  endfacet
  facet normal 2.079117e-01 9.781476e-01 -6.411899e-16
    outer loop
      vertex   9.527695e-02 -4.934582e-02 -4.550000e-02
      vertex   9.527695e-02 -4.934582e-02 -5.450000e-02
      vertex   9.365000e-02 -4.900000e-02 -4.550000e-02
    endloop
  endfacet
  facet normal 2.079117e-01 9.781476e-01 -3.205949e-16
    outer loop
      vertex   9.365000e-02 -4.900000e-02 -4.550000e-02
      vertex   9.527695e-02 -4.934582e-02 -5.450000e-02
      vertex   9.365000e-02 -4.900000e-02 -5.450000e-02
    endloop
  endfacet
  facet normal -2.079117e-01 9.781476e-01 3.205949e-16
    outer loop
      vertex   9.365000e-02 -4.900000e-02 -4.550000e-02
      vertex   9.365000e-02 -4.900000e-02 -5.450000e-02
      vertex   9.202305e-02 -4.934582e-02 -4.550000e-02
    endloop
  endfacet
  facet normal -2.079117e-01 9.781476e-01 3.205949e-16
    outer loop
      vertex   9.202305e-02 -4.934582e-02 -4.550000e-02
      vertex   9.365000e-02 -4.900000e-02 -5.450000e-02
      vertex   9.202305e-02 -4.934582e-02 -5.450000e-02
    endloop
  endfacet
  facet normal -5.877853e-01 8.090170e-01 9.063510e-16
    outer loop
      vertex   9.202305e-02 -4.934582e-02 -4.550000e-02
      vertex   9.202305e-02 -4.934582e-02 -5.450000e-02
      vertex   9.067742e-02 -5.032348e-02 -4.550000e-02
    endloop
  endfacet
  facet normal -5.877853e-01 8.090170e-01 9.063510e-16
    outer loop
      vertex   9.067742e-02 -5.032348e-02 -4.550000e-02
      vertex   9.202305e-02 -4.934582e-02 -5.450000e-02
      vertex   9.067742e-02 -5.032348e-02 -5.450000e-02
    endloop
  endfacet
  facet normal -8.660254e-01 5.000000e-01 1.335391e-15
    outer loop
      vertex   9.067742e-02 -5.032348e-02 -4.550000e-02
      vertex   9.067742e-02 -5.032348e-02 -5.450000e-02
      vertex   8.984577e-02 -5.176393e-02 -4.550000e-02
    endloop
  endfacet
  facet normal -8.660254e-01 5.000000e-01 1.335391e-15
    outer loop
      vertex   8.984577e-02 -5.176393e-02 -4.550000e-02
      vertex   9.067742e-02 -5.032348e-02 -5.450000e-02
      vertex   8.984577e-02 -5.176393e-02 -5.450000e-02
    endloop
  endfacet
  facet normal -9.945219e-01 1.045285e-01 1.533529e-15
    outer loop
      vertex   8.984577e-02 -5.176393e-02 -4.550000e-02
      vertex   8.984577e-02 -5.176393e-02 -5.450000e-02
      vertex   8.967191e-02 -5.341811e-02 -4.550000e-02
    endloop
  endfacet
  facet normal -9.945219e-01 1.045285e-01 1.533529e-15
    outer loop
      vertex   8.967191e-02 -5.341811e-02 -4.550000e-02
      vertex   8.984577e-02 -5.176393e-02 -5.450000e-02
      vertex   8.967191e-02 -5.341811e-02 -5.450000e-02
    endloop
  endfacet
  facet normal -9.510565e-01 -3.090170e-01 1.466507e-15
    outer loop
      vertex   8.967191e-02 -5.341811e-02 -4.550000e-02
      vertex   8.967191e-02 -5.341811e-02 -5.450000e-02
      vertex   9.018590e-02 -5.500000e-02 -4.550000e-02
    endloop
  endfacet
  facet normal -9.510565e-01 -3.090170e-01 2.933013e-15
    outer loop
      vertex   9.018590e-02 -5.500000e-02 -4.550000e-02
      vertex   8.967191e-02 -5.341811e-02 -5.450000e-02
      vertex   9.018590e-02 -5.500000e-02 -5.450000e-02
    endloop
  endfacet
  facet normal -7.431448e-01 -6.691306e-01 2.291824e-15
    outer loop
      vertex   9.018590e-02 -5.500000e-02 -4.550000e-02
      vertex   9.018590e-02 -5.500000e-02 -5.450000e-02
      vertex   9.129886e-02 -5.623607e-02 -4.550000e-02
    endloop
  endfacet
  facet normal -7.431448e-01 -6.691306e-01 2.291824e-15
    outer loop
      vertex   9.129886e-02 -5.623607e-02 -4.550000e-02
      vertex   9.018590e-02 -5.500000e-02 -5.450000e-02
      vertex   9.129886e-02 -5.623607e-02 -5.450000e-02
    endloop
  endfacet
  facet normal -4.067366e-01 -9.135455e-01 1.254357e-15
    outer loop
      vertex   9.129886e-02 -5.623607e-02 -4.550000e-02
      vertex   9.129886e-02 -5.623607e-02 -5.450000e-02
      vertex   9.281835e-02 -5.691259e-02 -4.550000e-02
    endloop
  endfacet
  facet normal -4.067366e-01 -9.135455e-01 6.271783e-16
    outer loop
      vertex   9.281835e-02 -5.691259e-02 -4.550000e-02
      vertex   9.129886e-02 -5.623607e-02 -5.450000e-02
      vertex   9.281835e-02 -5.691259e-02 -5.450000e-02
    endloop
  endfacet
  facet normal 0.000000e+00 -1.000000e+00 -0.000000e+00
    outer loop
      vertex   9.281835e-02 -5.691259e-02 -4.550000e-02
      vertex   9.281835e-02 -5.691259e-02 -5.450000e-02
      vertex   9.448165e-02 -5.691259e-02 -4.550000e-02
    endloop
  endfacet
  facet normal 0.000000e+00 -1.000000e+00 0.000000e+00
    outer loop
      vertex   9.448165e-02 -5.691259e-02 -4.550000e-02
      vertex   9.281835e-02 -5.691259e-02 -5.450000e-02
      vertex   9.448165e-02 -5.691259e-02 -5.450000e-02
    endloop
  endfacet
  facet normal 4.067366e-01 -9.135455e-01 -6.271783e-16
    outer loop
      vertex   9.448165e-02 -5.691259e-02 -4.550000e-02
      vertex   9.448165e-02 -5.691259e-02 -5.450000e-02
      vertex   9.600114e-02 -5.623607e-02 -4.550000e-02
    endloop
  endfacet
  facet normal 4.067366e-01 -9.135455e-01 -6.271783e-16
    outer loop
      vertex   9.600114e-02 -5.623607e-02 -4.550000e-02
      vertex   9.448165e-02 -5.691259e-02 -5.450000e-02
      vertex   9.600114e-02 -5.623607e-02 -5.450000e-02
    endloop
  endfacet
  facet normal 7.431448e-01 -6.691306e-01 -1.145912e-15
    outer loop
      vertex   9.600114e-02 -5.623607e-02 -4.550000e-02
      vertex   9.600114e-02 -5.623607e-02 -5.450000e-02
      vertex   9.711410e-02 -5.500000e-02 -4.550000e-02
    endloop
  endfacet
  facet normal 7.431448e-01 -6.691306e-01 -1.145912e-15
    outer loop
      vertex   9.711410e-02 -5.500000e-02 -4.550000e-02
      vertex   9.600114e-02 -5.623607e-02 -5.450000e-02
      vertex   9.711410e-02 -5.500000e-02 -5.450000e-02
    endloop
  endfacet
  facet normal 9.510565e-01 -3.090170e-01 -1.466507e-15
    outer loop
      vertex   9.711410e-02 -5.500000e-02 -4.550000e-02
      vertex   9.711410e-02 -5.500000e-02 -5.450000e-02
      vertex   9.762809e-02 -5.341811e-02 -4.550000e-02
    endloop
  endfacet
  facet normal 9.510565e-01 -3.090170e-01 -1.466507e-15
    outer loop
      vertex   9.762809e-02 -5.341811e-02 -4.550000e-02
      vertex   9.711410e-02 -5.500000e-02 -5.450000e-02
      vertex   9.762809e-02 -5.341811e-02 -5.450000e-02
    endloop
  endfacet
  facet normal 9.945219e-01 1.045285e-01 -1.533529e-15
    outer loop
      vertex   9.762809e-02 -5.341811e-02 -4.550000e-02
      vertex   9.762809e-02 -5.341811e-02 -5.450000e-02
      vertex   9.745423e-02 -5.176393e-02 -4.550000e-02
    endloop
  endfacet
  facet normal 9.945219e-01 1.045285e-01 -1.694710e-15
    outer loop
      vertex   9.745423e-02 -5.176393e-02 -4.550000e-02
      vertex   9.762809e-02 -5.341811e-02 -5.450000e-02
      vertex   9.745423e-02 -5.176393e-02 -5.450000e-02
    endloop
  endfacet
  facet normal 8.660254e-01 5.000000e-01 -2.106379e-15
    outer loop
      vertex   9.745423e-02 -5.176393e-02 -4.550000e-02
      vertex   9.745423e-02 -5.176393e-02 -5.450000e-02
      vertex   9.662258e-02 -5.032348e-02 -4.550000e-02
    endloop
  endfacet
  facet normal 8.660254e-01 5.000000e-01 -2.670782e-15
    outer loop
      vertex   9.662258e-02 -5.032348e-02 -4.550000e-02
      vertex   9.745423e-02 -5.176393e-02 -5.450000e-02
      vertex   9.662258e-02 -5.032348e-02 -5.450000e-02
    endloop
  endfacet
  facet normal 5.877853e-01 8.090170e-01 -1.812702e-15
    outer loop
      vertex   9.662258e-02 -5.032348e-02 -4.550000e-02
      vertex   9.662258e-02 -5.032348e-02 -5.450000e-02
      vertex   9.527695e-02 -4.934582e-02 -4.550000e-02
    endloop
  endfacet
  facet normal 5.877853e-01 8.090170e-01 -1.812702e-15
    outer loop
      vertex   9.527695e-02 -4.934582e-02 -4.550000e-02
      vertex   9.662258e-02 -5.032348e-02 -5.450000e-02
      vertex   9.527695e-02 -4.934582e-02 -5.450000e-02
    endloop
  endfacet
  facet normal 0.000000e+00 -0.000000e+00 -1.000000e+00
    outer loop
      vertex   9.365000e-02 -4.900000e-02 -5.450000e-02
      vertex   9.527695e-02 -4.934582e-02 -5.450000e-02
      vertex   9.202305e-02 -4.934582e-02 -5.450000e-02
    endloop
  endfacet
  facet normal 0.000000e+00 -1.419491e-14 -1.000000e+00
    outer loop
      vertex   9.202305e-02 -4.934582e-02 -5.450000e-02
      vertex   9.527695e-02 -4.934582e-02 -5.450000e-02
      vertex   9.067742e-02 -5.032348e-02 -5.450000e-02
    endloop
  endfacet
  facet normal -3.501451e-15 2.278121e-15 -1.000000e+00
    outer loop
      vertex   9.067742e-02 -5.032348e-02 -5.450000e-02
      vertex   9.527695e-02 -4.934582e-02 -5.450000e-02
      vertex   9.662258e-02 -5.032348e-02 -5.450000e-02
    endloop
  endfacet
  facet normal -3.501451e-15 2.021564e-15 -1.000000e+00
    outer loop
      vertex   9.067742e-02 -5.032348e-02 -5.450000e-02
      vertex   9.662258e-02 -5.032348e-02 -5.450000e-02
      vertex   8.984577e-02 -5.176393e-02 -5.450000e-02
    endloop
  endfacet
  facet normal -2.735994e-15 -1.579627e-15 -1.000000e+00
    outer loop
      vertex   8.984577e-02 -5.176393e-02 -5.450000e-02
      vertex   9.662258e-02 -5.032348e-02 -5.450000e-02
      vertex   9.745423e-02 -5.176393e-02 -5.450000e-02
    endloop
  endfacet
  facet normal -2.735994e-15 2.875646e-16 -1.000000e+00
    outer loop
      vertex   8.984577e-02 -5.176393e-02 -5.450000e-02
      vertex   9.745423e-02 -5.176393e-02 -5.450000e-02
      vertex   8.967191e-02 -5.341811e-02 -5.450000e-02
    endloop
  endfacet
  facet normal -2.616418e-15 -2.749966e-16 -1.000000e+00
    outer loop
      vertex   8.967191e-02 -5.341811e-02 -5.450000e-02
      vertex   9.745423e-02 -5.176393e-02 -5.450000e-02
      vertex   9.762809e-02 -5.341811e-02 -5.450000e-02
    endloop
  endfacet
  facet normal -2.616418e-15 -8.501258e-16 -1.000000e+00
    outer loop
      vertex   8.967191e-02 -5.341811e-02 -5.450000e-02
      vertex   9.762809e-02 -5.341811e-02 -5.450000e-02
      vertex   9.018590e-02 -5.500000e-02 -5.450000e-02
    endloop
  endfacet
  facet normal -3.004629e-15 9.762632e-16 -1.000000e+00
    outer loop
      vertex   9.018590e-02 -5.500000e-02 -5.450000e-02
      vertex   9.762809e-02 -5.341811e-02 -5.450000e-02
      vertex   9.711410e-02 -5.500000e-02 -5.450000e-02
    endloop
  endfacet
  facet normal -3.004629e-15 -2.705380e-15 -1.000000e+00
    outer loop
      vertex   9.018590e-02 -5.500000e-02 -5.450000e-02
      vertex   9.711410e-02 -5.500000e-02 -5.450000e-02
      vertex   9.129886e-02 -5.623607e-02 -5.450000e-02
    endloop
  endfacet
  facet normal -4.426932e-15 3.986027e-15 -1.000000e+00
    outer loop
      vertex   9.129886e-02 -5.623607e-02 -5.450000e-02
      vertex   9.711410e-02 -5.500000e-02 -5.450000e-02
      vertex   9.600114e-02 -5.623607e-02 -5.450000e-02
    endloop
  endfacet
  facet normal -4.426932e-15 1.057037e-14 -1.000000e+00
    outer loop
      vertex   9.129886e-02 -5.623607e-02 -5.450000e-02
      vertex   9.600114e-02 -5.623607e-02 -5.450000e-02
      vertex   9.281835e-02 -5.691259e-02 -5.450000e-02
    endloop
  endfacet
  facet normal 0.000000e+00 -1.025671e-14 -1.000000e+00
    outer loop
      vertex   9.281835e-02 -5.691259e-02 -5.450000e-02
      vertex   9.600114e-02 -5.623607e-02 -5.450000e-02
      vertex   9.448165e-02 -5.691259e-02 -5.450000e-02
    endloop
  endfacet
  facet normal 2.079117e-01 9.781476e-01 -3.205949e-16
    outer loop
      vertex   9.527695e-02 3.675418e-02 -4.550000e-02
      vertex   9.527695e-02 3.675418e-02 -5.450000e-02
      vertex   9.365000e-02 3.710000e-02 -4.550000e-02
    endloop
  endfacet
  facet normal 2.079117e-01 9.781476e-01 -3.205949e-16
    outer loop
      vertex   9.365000e-02 3.710000e-02 -4.550000e-02
      vertex   9.527695e-02 3.675418e-02 -5.450000e-02
      vertex   9.365000e-02 3.710000e-02 -5.450000e-02
    endloop
  endfacet
  facet normal -2.079117e-01 9.781476e-01 3.205949e-16
    outer loop
      vertex   9.365000e-02 3.710000e-02 -4.550000e-02
      vertex   9.365000e-02 3.710000e-02 -5.450000e-02
      vertex   9.202305e-02 3.675418e-02 -4.550000e-02
    endloop
  endfacet
  facet normal -2.079117e-01 9.781476e-01 6.411899e-16
    outer loop
      vertex   9.202305e-02 3.675418e-02 -4.550000e-02
      vertex   9.365000e-02 3.710000e-02 -5.450000e-02
      vertex   9.202305e-02 3.675418e-02 -5.450000e-02
    endloop
  endfacet
  facet normal -5.877853e-01 8.090170e-01 1.812702e-15
    outer loop
      vertex   9.202305e-02 3.675418e-02 -4.550000e-02
      vertex   9.202305e-02 3.675418e-02 -5.450000e-02
      vertex   9.067742e-02 3.577652e-02 -4.550000e-02
    endloop
  endfacet
  facet normal -5.877853e-01 8.090170e-01 9.063510e-16
    outer loop
      vertex   9.067742e-02 3.577652e-02 -4.550000e-02
      vertex   9.202305e-02 3.675418e-02 -5.450000e-02
      vertex   9.067742e-02 3.577652e-02 -5.450000e-02
    endloop
  endfacet
  facet normal -8.660254e-01 5.000000e-01 1.335391e-15
    outer loop
      vertex   9.067742e-02 3.577652e-02 -4.550000e-02
      vertex   9.067742e-02 3.577652e-02 -5.450000e-02
      vertex   8.984577e-02 3.433607e-02 -4.550000e-02
    endloop
  endfacet
  facet normal -8.660254e-01 5.000000e-01 1.335391e-15
    outer loop
      vertex   8.984577e-02 3.433607e-02 -4.550000e-02
      vertex   9.067742e-02 3.577652e-02 -5.450000e-02
      vertex   8.984577e-02 3.433607e-02 -5.450000e-02
    endloop
  endfacet
  facet normal -9.945219e-01 1.045285e-01 1.533529e-15
    outer loop
      vertex   8.984577e-02 3.433607e-02 -4.550000e-02
      vertex   8.984577e-02 3.433607e-02 -5.450000e-02
      vertex   8.967191e-02 3.268189e-02 -4.550000e-02
    endloop
  endfacet
  facet normal -9.945219e-01 1.045285e-01 1.533529e-15
    outer loop
      vertex   8.967191e-02 3.268189e-02 -4.550000e-02
      vertex   8.984577e-02 3.433607e-02 -5.450000e-02
      vertex   8.967191e-02 3.268189e-02 -5.450000e-02
    endloop
  endfacet
  facet normal -9.510565e-01 -3.090170e-01 1.466507e-15
    outer loop
      vertex   8.967191e-02 3.268189e-02 -4.550000e-02
      vertex   8.967191e-02 3.268189e-02 -5.450000e-02
      vertex   9.018590e-02 3.110000e-02 -4.550000e-02
    endloop
  endfacet
  facet normal -9.510565e-01 -3.090170e-01 1.466507e-15
    outer loop
      vertex   9.018590e-02 3.110000e-02 -4.550000e-02
      vertex   8.967191e-02 3.268189e-02 -5.450000e-02
      vertex   9.018590e-02 3.110000e-02 -5.450000e-02
    endloop
  endfacet
  facet normal -7.431448e-01 -6.691306e-01 1.145912e-15
    outer loop
      vertex   9.018590e-02 3.110000e-02 -4.550000e-02
      vertex   9.018590e-02 3.110000e-02 -5.450000e-02
      vertex   9.129886e-02 2.986393e-02 -4.550000e-02
    endloop
  endfacet
  facet normal -7.431448e-01 -6.691306e-01 1.145912e-15
    outer loop
      vertex   9.129886e-02 2.986393e-02 -4.550000e-02
      vertex   9.018590e-02 3.110000e-02 -5.450000e-02
      vertex   9.129886e-02 2.986393e-02 -5.450000e-02
    endloop
  endfacet
  facet normal -4.067366e-01 -9.135455e-01 6.271783e-16
    outer loop
      vertex   9.129886e-02 2.986393e-02 -4.550000e-02
      vertex   9.129886e-02 2.986393e-02 -5.450000e-02
      vertex   9.281835e-02 2.918741e-02 -4.550000e-02
    endloop
  endfacet
  facet normal -4.067366e-01 -9.135455e-01 1.881535e-15
    outer loop
      vertex   9.281835e-02 2.918741e-02 -4.550000e-02
      vertex   9.129886e-02 2.986393e-02 -5.450000e-02
      vertex   9.281835e-02 2.918741e-02 -5.450000e-02
    endloop
  endfacet
  facet normal 2.085890e-15 -1.000000e+00 -9.649179e-30
    outer loop
      vertex   9.281835e-02 2.918741e-02 -4.550000e-02
      vertex   9.281835e-02 2.918741e-02 -5.450000e-02
      vertex   9.448165e-02 2.918741e-02 -4.550000e-02
    endloop
  endfacet
  facet normal 2.085890e-15 -1.000000e+00 -3.216393e-30
    outer loop
      vertex   9.448165e-02 2.918741e-02 -4.550000e-02
      vertex   9.281835e-02 2.918741e-02 -5.450000e-02
      vertex   9.448165e-02 2.918741e-02 -5.450000e-02
    endloop
  endfacet
  facet normal 4.067366e-01 -9.135455e-01 -6.271783e-16
    outer loop
      vertex   9.448165e-02 2.918741e-02 -4.550000e-02
      vertex   9.448165e-02 2.918741e-02 -5.450000e-02
      vertex   9.600114e-02 2.986393e-02 -4.550000e-02
    endloop
  endfacet
  facet normal 4.067366e-01 -9.135455e-01 -1.254357e-15
    outer loop
      vertex   9.600114e-02 2.986393e-02 -4.550000e-02
      vertex   9.448165e-02 2.918741e-02 -5.450000e-02
      vertex   9.600114e-02 2.986393e-02 -5.450000e-02
    endloop
  endfacet
  facet normal 7.431448e-01 -6.691306e-01 -2.291824e-15
    outer loop
      vertex   9.600114e-02 2.986393e-02 -4.550000e-02
      vertex   9.600114e-02 2.986393e-02 -5.450000e-02
      vertex   9.711410e-02 3.110000e-02 -4.550000e-02
    endloop
  endfacet
  facet normal 7.431448e-01 -6.691306e-01 -2.291824e-15
    outer loop
      vertex   9.711410e-02 3.110000e-02 -4.550000e-02
      vertex   9.600114e-02 2.986393e-02 -5.450000e-02
      vertex   9.711410e-02 3.110000e-02 -5.450000e-02
    endloop
  endfacet
  facet normal 9.510565e-01 -3.090170e-01 -2.933013e-15
    outer loop
      vertex   9.711410e-02 3.110000e-02 -4.550000e-02
      vertex   9.711410e-02 3.110000e-02 -5.450000e-02
      vertex   9.762809e-02 3.268189e-02 -4.550000e-02
    endloop
  endfacet
  facet normal 9.510565e-01 -3.090170e-01 -1.466507e-15
    outer loop
      vertex   9.762809e-02 3.268189e-02 -4.550000e-02
      vertex   9.711410e-02 3.110000e-02 -5.450000e-02
      vertex   9.762809e-02 3.268189e-02 -5.450000e-02
    endloop
  endfacet
  facet normal 9.945219e-01 1.045285e-01 -1.533529e-15
    outer loop
      vertex   9.762809e-02 3.268189e-02 -4.550000e-02
      vertex   9.762809e-02 3.268189e-02 -5.450000e-02
      vertex   9.745423e-02 3.433607e-02 -4.550000e-02
    endloop
  endfacet
  facet normal 9.945219e-01 1.045285e-01 -1.533529e-15
    outer loop
      vertex   9.745423e-02 3.433607e-02 -4.550000e-02
      vertex   9.762809e-02 3.268189e-02 -5.450000e-02
      vertex   9.745423e-02 3.433607e-02 -5.450000e-02
    endloop
  endfacet
  facet normal 8.660254e-01 5.000000e-01 -1.335391e-15
    outer loop
      vertex   9.745423e-02 3.433607e-02 -4.550000e-02
      vertex   9.745423e-02 3.433607e-02 -5.450000e-02
      vertex   9.662258e-02 3.577652e-02 -4.550000e-02
    endloop
  endfacet
  facet normal 8.660254e-01 5.000000e-01 -1.335391e-15
    outer loop
      vertex   9.662258e-02 3.577652e-02 -4.550000e-02
      vertex   9.745423e-02 3.433607e-02 -5.450000e-02
      vertex   9.662258e-02 3.577652e-02 -5.450000e-02
    endloop
  endfacet
  facet normal 5.877853e-01 8.090170e-01 -9.063510e-16
    outer loop
      vertex   9.662258e-02 3.577652e-02 -4.550000e-02
      vertex   9.662258e-02 3.577652e-02 -5.450000e-02
      vertex   9.527695e-02 3.675418e-02 -4.550000e-02
    endloop
  endfacet
  facet normal 5.877853e-01 8.090170e-01 -9.063510e-16
    outer loop
      vertex   9.527695e-02 3.675418e-02 -4.550000e-02
      vertex   9.662258e-02 3.577652e-02 -5.450000e-02
      vertex   9.527695e-02 3.675418e-02 -5.450000e-02
    endloop
  endfacet
  facet normal 0.000000e+00 -0.000000e+00 -1.000000e+00
    outer loop
      vertex   9.365000e-02 3.710000e-02 -5.450000e-02
      vertex   9.527695e-02 3.675418e-02 -5.450000e-02
      vertex   9.202305e-02 3.675418e-02 -5.450000e-02
    endloop
  endfacet
  facet normal 0.000000e+00 -1.419491e-14 -1.000000e+00
    outer loop
      vertex   9.202305e-02 3.675418e-02 -5.450000e-02
      vertex   9.527695e-02 3.675418e-02 -5.450000e-02
      vertex   9.067742e-02 3.577652e-02 -5.450000e-02
    endloop
  endfacet
  facet normal -3.501451e-15 2.278121e-15 -1.000000e+00
    outer loop
      vertex   9.067742e-02 3.577652e-02 -5.450000e-02
      vertex   9.527695e-02 3.675418e-02 -5.450000e-02
      vertex   9.662258e-02 3.577652e-02 -5.450000e-02
    endloop
  endfacet
  facet normal -3.501451e-15 2.021564e-15 -1.000000e+00
    outer loop
      vertex   9.067742e-02 3.577652e-02 -5.450000e-02
      vertex   9.662258e-02 3.577652e-02 -5.450000e-02
      vertex   8.984577e-02 3.433607e-02 -5.450000e-02
    endloop
  endfacet
  facet normal -2.735994e-15 -1.579627e-15 -1.000000e+00
    outer loop
      vertex   8.984577e-02 3.433607e-02 -5.450000e-02
      vertex   9.662258e-02 3.577652e-02 -5.450000e-02
      vertex   9.745423e-02 3.433607e-02 -5.450000e-02
    endloop
  endfacet
  facet normal -2.735994e-15 2.875646e-16 -1.000000e+00
    outer loop
      vertex   8.984577e-02 3.433607e-02 -5.450000e-02
      vertex   9.745423e-02 3.433607e-02 -5.450000e-02
      vertex   8.967191e-02 3.268189e-02 -5.450000e-02
    endloop
  endfacet
  facet normal -2.616418e-15 -2.749966e-16 -1.000000e+00
    outer loop
      vertex   8.967191e-02 3.268189e-02 -5.450000e-02
      vertex   9.745423e-02 3.433607e-02 -5.450000e-02
      vertex   9.762809e-02 3.268189e-02 -5.450000e-02
    endloop
  endfacet
  facet normal -2.616418e-15 -8.501258e-16 -1.000000e+00
    outer loop
      vertex   8.967191e-02 3.268189e-02 -5.450000e-02
      vertex   9.762809e-02 3.268189e-02 -5.450000e-02
      vertex   9.018590e-02 3.110000e-02 -5.450000e-02
    endloop
  endfacet
  facet normal -3.004629e-15 9.762632e-16 -1.000000e+00
    outer loop
      vertex   9.018590e-02 3.110000e-02 -5.450000e-02
      vertex   9.762809e-02 3.268189e-02 -5.450000e-02
      vertex   9.711410e-02 3.110000e-02 -5.450000e-02
    endloop
  endfacet
  facet normal -3.004629e-15 8.521986e-15 -1.000000e+00
    outer loop
      vertex   9.018590e-02 3.110000e-02 -5.450000e-02
      vertex   9.711410e-02 3.110000e-02 -5.450000e-02
      vertex   9.129886e-02 2.986393e-02 -5.450000e-02
    endloop
  endfacet
  facet normal 0.000000e+00 -5.613683e-15 -1.000000e+00
    outer loop
      vertex   9.129886e-02 2.986393e-02 -5.450000e-02
      vertex   9.711410e-02 3.110000e-02 -5.450000e-02
      vertex   9.600114e-02 2.986393e-02 -5.450000e-02
    endloop
  endfacet
  facet normal 0.000000e+00 0.000000e+00 -1.000000e+00
    outer loop
      vertex   9.129886e-02 2.986393e-02 -5.450000e-02
      vertex   9.600114e-02 2.986393e-02 -5.450000e-02
      vertex   9.281835e-02 2.918741e-02 -5.450000e-02
    endloop
  endfacet
  facet normal 0.000000e+00 0.000000e+00 -1.000000e+00
    outer loop
      vertex   9.281835e-02 2.918741e-02 -5.450000e-02
      vertex   9.600114e-02 2.986393e-02 -5.450000e-02
      vertex   9.448165e-02 2.918741e-02 -5.450000e-02
    endloop
  endfacet
  facet normal 2.079117e-01 9.781476e-01 0.000000e+00
    outer loop
      vertex   -8.602305e-02 -4.934582e-02 -4.550000e-02
      vertex   -8.602305e-02 -4.934582e-02 -5.450000e-02
      vertex   -8.765000e-02 -4.900000e-02 -4.550000e-02
    endloop
  endfacet
  facet normal 2.079117e-01 9.781476e-01 0.000000e+00
    outer loop
      vertex   -8.765000e-02 -4.900000e-02 -4.550000e-02
      vertex   -8.602305e-02 -4.934582e-02 -5.450000e-02
      vertex   -8.765000e-02 -4.900000e-02 -5.450000e-02
    endloop
  endfacet
  facet normal -2.079117e-01 9.781476e-01 0.000000e+00
    outer loop
      vertex   -8.765000e-02 -4.900000e-02 -4.550000e-02
      vertex   -8.765000e-02 -4.900000e-02 -5.450000e-02
      vertex   -8.927695e-02 -4.934582e-02 -4.550000e-02
    endloop
  endfacet
  facet normal -2.079117e-01 9.781476e-01 0.000000e+00
    outer loop
      vertex   -8.927695e-02 -4.934582e-02 -4.550000e-02
      vertex   -8.765000e-02 -4.900000e-02 -5.450000e-02
      vertex   -8.927695e-02 -4.934582e-02 -5.450000e-02
    endloop
  endfacet
  facet normal -5.877853e-01 8.090170e-01 0.000000e+00
    outer loop
      vertex   -8.927695e-02 -4.934582e-02 -4.550000e-02
      vertex   -8.927695e-02 -4.934582e-02 -5.450000e-02
      vertex   -9.062258e-02 -5.032348e-02 -4.550000e-02
    endloop
  endfacet
  facet normal -5.877853e-01 8.090170e-01 0.000000e+00
    outer loop
      vertex   -9.062258e-02 -5.032348e-02 -4.550000e-02
      vertex   -8.927695e-02 -4.934582e-02 -5.450000e-02
      vertex   -9.062258e-02 -5.032348e-02 -5.450000e-02
    endloop
  endfacet
  facet normal -8.660254e-01 5.000000e-01 0.000000e+00
    outer loop
      vertex   -9.062258e-02 -5.032348e-02 -4.550000e-02
      vertex   -9.062258e-02 -5.032348e-02 -5.450000e-02
      vertex   -9.145423e-02 -5.176393e-02 -4.550000e-02
    endloop
  endfacet
  facet normal -8.660254e-01 5.000000e-01 -3.854941e-16
    outer loop
      vertex   -9.145423e-02 -5.176393e-02 -4.550000e-02
      vertex   -9.062258e-02 -5.032348e-02 -5.450000e-02
      vertex   -9.145423e-02 -5.176393e-02 -5.450000e-02
    endloop
  endfacet
  facet normal -9.945219e-01 1.045285e-01 -8.059021e-17
    outer loop
      vertex   -9.145423e-02 -5.176393e-02 -4.550000e-02
      vertex   -9.145423e-02 -5.176393e-02 -5.450000e-02
      vertex   -9.162809e-02 -5.341811e-02 -4.550000e-02
    endloop
  endfacet
  facet normal -9.945219e-01 1.045285e-01 0.000000e+00
    outer loop
      vertex   -9.162809e-02 -5.341811e-02 -4.550000e-02
      vertex   -9.145423e-02 -5.176393e-02 -5.450000e-02
      vertex   -9.162809e-02 -5.341811e-02 -5.450000e-02
    endloop
  endfacet
  facet normal -9.510565e-01 -3.090170e-01 -0.000000e+00
    outer loop
      vertex   -9.162809e-02 -5.341811e-02 -4.550000e-02
      vertex   -9.162809e-02 -5.341811e-02 -5.450000e-02
      vertex   -9.111410e-02 -5.500000e-02 -4.550000e-02
    endloop
  endfacet
  facet normal -9.510565e-01 -3.090170e-01 -0.000000e+00
    outer loop
      vertex   -9.111410e-02 -5.500000e-02 -4.550000e-02
      vertex   -9.162809e-02 -5.341811e-02 -5.450000e-02
      vertex   -9.111410e-02 -5.500000e-02 -5.450000e-02
    endloop
  endfacet
  facet normal -7.431448e-01 -6.691306e-01 -0.000000e+00
    outer loop
      vertex   -9.111410e-02 -5.500000e-02 -4.550000e-02
      vertex   -9.111410e-02 -5.500000e-02 -5.450000e-02
      vertex   -9.000114e-02 -5.623607e-02 -4.550000e-02
    endloop
  endfacet
  facet normal -7.431448e-01 -6.691306e-01 -0.000000e+00
    outer loop
      vertex   -9.000114e-02 -5.623607e-02 -4.550000e-02
      vertex   -9.111410e-02 -5.500000e-02 -5.450000e-02
      vertex   -9.000114e-02 -5.623607e-02 -5.450000e-02
    endloop
  endfacet
  facet normal -4.067366e-01 -9.135455e-01 -0.000000e+00
    outer loop
      vertex   -9.000114e-02 -5.623607e-02 -4.550000e-02
      vertex   -9.000114e-02 -5.623607e-02 -5.450000e-02
      vertex   -8.848165e-02 -5.691259e-02 -4.550000e-02
    endloop
  endfacet
  facet normal -4.067366e-01 -9.135455e-01 -6.271783e-16
    outer loop
      vertex   -8.848165e-02 -5.691259e-02 -4.550000e-02
      vertex   -9.000114e-02 -5.623607e-02 -5.450000e-02
      vertex   -8.848165e-02 -5.691259e-02 -5.450000e-02
    endloop
  endfacet
  facet normal 0.000000e+00 -1.000000e+00 0.000000e+00
    outer loop
      vertex   -8.848165e-02 -5.691259e-02 -4.550000e-02
      vertex   -8.848165e-02 -5.691259e-02 -5.450000e-02
      vertex   -8.681835e-02 -5.691259e-02 -4.550000e-02
    endloop
  endfacet
  facet normal 0.000000e+00 -1.000000e+00 -0.000000e+00
    outer loop
      vertex   -8.681835e-02 -5.691259e-02 -4.550000e-02
      vertex   -8.848165e-02 -5.691259e-02 -5.450000e-02
      vertex   -8.681835e-02 -5.691259e-02 -5.450000e-02
    endloop
  endfacet
  facet normal 4.067366e-01 -9.135455e-01 1.254357e-15
    outer loop
      vertex   -8.681835e-02 -5.691259e-02 -4.550000e-02
      vertex   -8.681835e-02 -5.691259e-02 -5.450000e-02
      vertex   -8.529886e-02 -5.623607e-02 -4.550000e-02
    endloop
  endfacet
  facet normal 4.067366e-01 -9.135455e-01 0.000000e+00
    outer loop
      vertex   -8.529886e-02 -5.623607e-02 -4.550000e-02
      vertex   -8.681835e-02 -5.691259e-02 -5.450000e-02
      vertex   -8.529886e-02 -5.623607e-02 -5.450000e-02
    endloop
  endfacet
  facet normal 7.431448e-01 -6.691306e-01 0.000000e+00
    outer loop
      vertex   -8.529886e-02 -5.623607e-02 -4.550000e-02
      vertex   -8.529886e-02 -5.623607e-02 -5.450000e-02
      vertex   -8.418590e-02 -5.500000e-02 -4.550000e-02
    endloop
  endfacet
  facet normal 7.431448e-01 -6.691306e-01 0.000000e+00
    outer loop
      vertex   -8.418590e-02 -5.500000e-02 -4.550000e-02
      vertex   -8.529886e-02 -5.623607e-02 -5.450000e-02
      vertex   -8.418590e-02 -5.500000e-02 -5.450000e-02
    endloop
  endfacet
  facet normal 9.510565e-01 -3.090170e-01 0.000000e+00
    outer loop
      vertex   -8.418590e-02 -5.500000e-02 -4.550000e-02
      vertex   -8.418590e-02 -5.500000e-02 -5.450000e-02
      vertex   -8.367191e-02 -5.341811e-02 -4.550000e-02
    endloop
  endfacet
  facet normal 9.510565e-01 -3.090170e-01 -2.382485e-16
    outer loop
      vertex   -8.367191e-02 -5.341811e-02 -4.550000e-02
      vertex   -8.418590e-02 -5.500000e-02 -5.450000e-02
      vertex   -8.367191e-02 -5.341811e-02 -5.450000e-02
    endloop
  endfacet
  facet normal 9.945219e-01 1.045285e-01 8.059021e-17
    outer loop
      vertex   -8.367191e-02 -5.341811e-02 -4.550000e-02
      vertex   -8.367191e-02 -5.341811e-02 -5.450000e-02
      vertex   -8.384577e-02 -5.176393e-02 -4.550000e-02
    endloop
  endfacet
  facet normal 9.945219e-01 1.045285e-01 0.000000e+00
    outer loop
      vertex   -8.384577e-02 -5.176393e-02 -4.550000e-02
      vertex   -8.367191e-02 -5.341811e-02 -5.450000e-02
      vertex   -8.384577e-02 -5.176393e-02 -5.450000e-02
    endloop
  endfacet
  facet normal 8.660254e-01 5.000000e-01 0.000000e+00
    outer loop
      vertex   -8.384577e-02 -5.176393e-02 -4.550000e-02
      vertex   -8.384577e-02 -5.176393e-02 -5.450000e-02
      vertex   -8.467742e-02 -5.032348e-02 -4.550000e-02
    endloop
  endfacet
  facet normal 8.660254e-01 5.000000e-01 0.000000e+00
    outer loop
      vertex   -8.467742e-02 -5.032348e-02 -4.550000e-02
      vertex   -8.384577e-02 -5.176393e-02 -5.450000e-02
      vertex   -8.467742e-02 -5.032348e-02 -5.450000e-02
    endloop
  endfacet
  facet normal 5.877853e-01 8.090170e-01 0.000000e+00
    outer loop
      vertex   -8.467742e-02 -5.032348e-02 -4.550000e-02
      vertex   -8.467742e-02 -5.032348e-02 -5.450000e-02
      vertex   -8.602305e-02 -4.934582e-02 -4.550000e-02
    endloop
  endfacet
  facet normal 5.877853e-01 8.090170e-01 0.000000e+00
    outer loop
      vertex   -8.602305e-02 -4.934582e-02 -4.550000e-02
      vertex   -8.467742e-02 -5.032348e-02 -5.450000e-02
      vertex   -8.602305e-02 -4.934582e-02 -5.450000e-02
    endloop
  endfacet
  facet normal 0.000000e+00 -0.000000e+00 -1.000000e+00
    outer loop
      vertex   -8.765000e-02 -4.900000e-02 -5.450000e-02
      vertex   -8.602305e-02 -4.934582e-02 -5.450000e-02
      vertex   -8.927695e-02 -4.934582e-02 -5.450000e-02
    endloop
  endfacet
  facet normal 0.000000e+00 -0.000000e+00 -1.000000e+00
    outer loop
      vertex   -8.927695e-02 -4.934582e-02 -5.450000e-02
      vertex   -8.602305e-02 -4.934582e-02 -5.450000e-02
      vertex   -9.062258e-02 -5.032348e-02 -5.450000e-02
    endloop
  endfacet
  facet normal 0.000000e+00 0.000000e+00 -1.000000e+00
    outer loop
      vertex   -9.062258e-02 -5.032348e-02 -5.450000e-02
      vertex   -8.602305e-02 -4.934582e-02 -5.450000e-02
      vertex   -8.467742e-02 -5.032348e-02 -5.450000e-02
    endloop
  endfacet
  facet normal 0.000000e+00 -0.000000e+00 -1.000000e+00
    outer loop
      vertex   -9.062258e-02 -5.032348e-02 -5.450000e-02
      vertex   -8.467742e-02 -5.032348e-02 -5.450000e-02
      vertex   -9.145423e-02 -5.176393e-02 -5.450000e-02
    endloop
  endfacet
  facet normal 0.000000e+00 0.000000e+00 -1.000000e+00
    outer loop
      vertex   -9.145423e-02 -5.176393e-02 -5.450000e-02
      vertex   -8.467742e-02 -5.032348e-02 -5.450000e-02
      vertex   -8.384577e-02 -5.176393e-02 -5.450000e-02
    endloop
  endfacet
  facet normal 0.000000e+00 -0.000000e+00 -1.000000e+00
    outer loop
      vertex   -9.145423e-02 -5.176393e-02 -5.450000e-02
      vertex   -8.384577e-02 -5.176393e-02 -5.450000e-02
      vertex   -9.162809e-02 -5.341811e-02 -5.450000e-02
    endloop
  endfacet
  facet normal 0.000000e+00 0.000000e+00 -1.000000e+00
    outer loop
      vertex   -9.162809e-02 -5.341811e-02 -5.450000e-02
      vertex   -8.384577e-02 -5.176393e-02 -5.450000e-02
      vertex   -8.367191e-02 -5.341811e-02 -5.450000e-02
    endloop
  endfacet
  facet normal 0.000000e+00 0.000000e+00 -1.000000e+00
    outer loop
      vertex   -9.162809e-02 -5.341811e-02 -5.450000e-02
      vertex   -8.367191e-02 -5.341811e-02 -5.450000e-02
      vertex   -9.111410e-02 -5.500000e-02 -5.450000e-02
    endloop
  endfacet
  facet normal 0.000000e+00 0.000000e+00 -1.000000e+00
    outer loop
      vertex   -9.111410e-02 -5.500000e-02 -5.450000e-02
      vertex   -8.367191e-02 -5.341811e-02 -5.450000e-02
      vertex   -8.418590e-02 -5.500000e-02 -5.450000e-02
    endloop
  endfacet
  facet normal 0.000000e+00 0.000000e+00 -1.000000e+00
    outer loop
      vertex   -9.111410e-02 -5.500000e-02 -5.450000e-02
      vertex   -8.418590e-02 -5.500000e-02 -5.450000e-02
      vertex   -9.000114e-02 -5.623607e-02 -5.450000e-02
    endloop
  endfacet
  facet normal 0.000000e+00 0.000000e+00 -1.000000e+00
    outer loop
      vertex   -9.000114e-02 -5.623607e-02 -5.450000e-02
      vertex   -8.418590e-02 -5.500000e-02 -5.450000e-02
      vertex   -8.529886e-02 -5.623607e-02 -5.450000e-02
    endloop
  endfacet
  facet normal 0.000000e+00 0.000000e+00 -1.000000e+00
    outer loop
      vertex   -9.000114e-02 -5.623607e-02 -5.450000e-02
      vertex   -8.529886e-02 -5.623607e-02 -5.450000e-02
      vertex   -8.848165e-02 -5.691259e-02 -5.450000e-02
    endloop
  endfacet
  facet normal 0.000000e+00 0.000000e+00 -1.000000e+00
    outer loop
      vertex   -8.848165e-02 -5.691259e-02 -5.450000e-02
      vertex   -8.529886e-02 -5.623607e-02 -5.450000e-02
      vertex   -8.681835e-02 -5.691259e-02 -5.450000e-02
    endloop
  endfacet
  facet normal 2.079117e-01 9.781476e-01 -7.541403e-16
    outer loop
      vertex   -8.602305e-02 3.675418e-02 -4.550000e-02
      vertex   -8.602305e-02 3.675418e-02 -5.450000e-02
      vertex   -8.765000e-02 3.710000e-02 -4.550000e-02
    endloop
  endfacet
  facet normal 2.079117e-01 9.781476e-01 -7.541403e-16
    outer loop
      vertex   -8.765000e-02 3.710000e-02 -4.550000e-02
      vertex   -8.602305e-02 3.675418e-02 -5.450000e-02
      vertex   -8.765000e-02 3.710000e-02 -5.450000e-02
    endloop
  endfacet
  facet normal -2.079117e-01 9.781476e-01 -7.541403e-16
    outer loop
      vertex   -8.765000e-02 3.710000e-02 -4.550000e-02
      vertex   -8.765000e-02 3.710000e-02 -5.450000e-02
      vertex   -8.927695e-02 3.675418e-02 -4.550000e-02
    endloop
  endfacet
  facet normal -2.079117e-01 9.781476e-01 0.000000e+00
    outer loop
      vertex   -8.927695e-02 3.675418e-02 -4.550000e-02
      vertex   -8.765000e-02 3.710000e-02 -5.450000e-02
      vertex   -8.927695e-02 3.675418e-02 -5.450000e-02
    endloop
  endfacet
  facet normal -5.877853e-01 8.090170e-01 0.000000e+00
    outer loop
      vertex   -8.927695e-02 3.675418e-02 -4.550000e-02
      vertex   -8.927695e-02 3.675418e-02 -5.450000e-02
      vertex   -9.062258e-02 3.577652e-02 -4.550000e-02
    endloop
  endfacet
  facet normal -5.877853e-01 8.090170e-01 -6.237426e-16
    outer loop
      vertex   -9.062258e-02 3.577652e-02 -4.550000e-02
      vertex   -8.927695e-02 3.675418e-02 -5.450000e-02
      vertex   -9.062258e-02 3.577652e-02 -5.450000e-02
    endloop
  endfacet
  facet normal -8.660254e-01 5.000000e-01 -3.854941e-16
    outer loop
      vertex   -9.062258e-02 3.577652e-02 -4.550000e-02
      vertex   -9.062258e-02 3.577652e-02 -5.450000e-02
      vertex   -9.145423e-02 3.433607e-02 -4.550000e-02
    endloop
  endfacet
  facet normal -8.660254e-01 5.000000e-01 0.000000e+00
    outer loop
      vertex   -9.145423e-02 3.433607e-02 -4.550000e-02
      vertex   -9.062258e-02 3.577652e-02 -5.450000e-02
      vertex   -9.145423e-02 3.433607e-02 -5.450000e-02
    endloop
  endfacet
  facet normal -9.945219e-01 1.045285e-01 0.000000e+00
    outer loop
      vertex   -9.145423e-02 3.433607e-02 -4.550000e-02
      vertex   -9.145423e-02 3.433607e-02 -5.450000e-02
      vertex   -9.162809e-02 3.268189e-02 -4.550000e-02
    endloop
  endfacet
  facet normal -9.945219e-01 1.045285e-01 -8.059021e-17
    outer loop
      vertex   -9.162809e-02 3.268189e-02 -4.550000e-02
      vertex   -9.145423e-02 3.433607e-02 -5.450000e-02
      vertex   -9.162809e-02 3.268189e-02 -5.450000e-02
    endloop
  endfacet
  facet normal -9.510565e-01 -3.090170e-01 2.382485e-16
    outer loop
      vertex   -9.162809e-02 3.268189e-02 -4.550000e-02
      vertex   -9.162809e-02 3.268189e-02 -5.450000e-02
      vertex   -9.111410e-02 3.110000e-02 -4.550000e-02
    endloop
  endfacet
  facet normal -9.510565e-01 -3.090170e-01 1.191242e-16
    outer loop
      vertex   -9.111410e-02 3.110000e-02 -4.550000e-02
      vertex   -9.162809e-02 3.268189e-02 -5.450000e-02
      vertex   -9.111410e-02 3.110000e-02 -5.450000e-02
    endloop
  endfacet
  facet normal -7.431448e-01 -6.691306e-01 2.579459e-16
    outer loop
      vertex   -9.111410e-02 3.110000e-02 -4.550000e-02
      vertex   -9.111410e-02 3.110000e-02 -5.450000e-02
      vertex   -9.000114e-02 2.986393e-02 -4.550000e-02
    endloop
  endfacet
  facet normal -7.431448e-01 -6.691306e-01 2.579459e-16
    outer loop
      vertex   -9.000114e-02 2.986393e-02 -4.550000e-02
      vertex   -9.111410e-02 3.110000e-02 -5.450000e-02
      vertex   -9.000114e-02 2.986393e-02 -5.450000e-02
    endloop
  endfacet
  facet normal -4.067366e-01 -9.135455e-01 3.521664e-16
    outer loop
      vertex   -9.000114e-02 2.986393e-02 -4.550000e-02
      vertex   -9.000114e-02 2.986393e-02 -5.450000e-02
      vertex   -8.848165e-02 2.918741e-02 -4.550000e-02
    endloop
  endfacet
  facet normal -4.067366e-01 -9.135455e-01 2.310856e-15
    outer loop
      vertex   -8.848165e-02 2.918741e-02 -4.550000e-02
      vertex   -9.000114e-02 2.986393e-02 -5.450000e-02
      vertex   -8.848165e-02 2.918741e-02 -5.450000e-02
    endloop
  endfacet
  facet normal 0.000000e+00 -1.000000e+00 1.156482e-15
    outer loop
      vertex   -8.848165e-02 2.918741e-02 -4.550000e-02
      vertex   -8.848165e-02 2.918741e-02 -5.450000e-02
      vertex   -8.681835e-02 2.918741e-02 -4.550000e-02
    endloop
  endfacet
  facet normal 4.171780e-15 -1.000000e+00 3.854941e-16
    outer loop
      vertex   -8.681835e-02 2.918741e-02 -4.550000e-02
      vertex   -8.848165e-02 2.918741e-02 -5.450000e-02
      vertex   -8.681835e-02 2.918741e-02 -5.450000e-02
    endloop
  endfacet
  facet normal 4.067366e-01 -9.135455e-01 3.521664e-16
    outer loop
      vertex   -8.681835e-02 2.918741e-02 -4.550000e-02
      vertex   -8.681835e-02 2.918741e-02 -5.450000e-02
      vertex   -8.529886e-02 2.986393e-02 -4.550000e-02
    endloop
  endfacet
  facet normal 4.067366e-01 -9.135455e-01 7.043328e-16
    outer loop
      vertex   -8.529886e-02 2.986393e-02 -4.550000e-02
      vertex   -8.681835e-02 2.918741e-02 -5.450000e-02
      vertex   -8.529886e-02 2.986393e-02 -5.450000e-02
    endloop
  endfacet
  facet normal 7.431448e-01 -6.691306e-01 5.158918e-16
    outer loop
      vertex   -8.529886e-02 2.986393e-02 -4.550000e-02
      vertex   -8.529886e-02 2.986393e-02 -5.450000e-02
      vertex   -8.418590e-02 3.110000e-02 -4.550000e-02
    endloop
  endfacet
  facet normal 7.431448e-01 -6.691306e-01 5.158918e-16
    outer loop
      vertex   -8.418590e-02 3.110000e-02 -4.550000e-02
      vertex   -8.529886e-02 2.986393e-02 -5.450000e-02
      vertex   -8.418590e-02 3.110000e-02 -5.450000e-02
    endloop
  endfacet
  facet normal 9.510565e-01 -3.090170e-01 2.382485e-16
    outer loop
      vertex   -8.418590e-02 3.110000e-02 -4.550000e-02
      vertex   -8.418590e-02 3.110000e-02 -5.450000e-02
      vertex   -8.367191e-02 3.268189e-02 -4.550000e-02
    endloop
  endfacet
  facet normal 9.510565e-01 -3.090170e-01 0.000000e+00
    outer loop
      vertex   -8.367191e-02 3.268189e-02 -4.550000e-02
      vertex   -8.418590e-02 3.110000e-02 -5.450000e-02
      vertex   -8.367191e-02 3.268189e-02 -5.450000e-02
    endloop
  endfacet
  facet normal 9.945219e-01 1.045285e-01 0.000000e+00
    outer loop
      vertex   -8.367191e-02 3.268189e-02 -4.550000e-02
      vertex   -8.367191e-02 3.268189e-02 -5.450000e-02
      vertex   -8.384577e-02 3.433607e-02 -4.550000e-02
    endloop
  endfacet
  facet normal 9.945219e-01 1.045285e-01 -8.059021e-17
    outer loop
      vertex   -8.384577e-02 3.433607e-02 -4.550000e-02
      vertex   -8.367191e-02 3.268189e-02 -5.450000e-02
      vertex   -8.384577e-02 3.433607e-02 -5.450000e-02
    endloop
  endfacet
  facet normal 8.660254e-01 5.000000e-01 -3.854941e-16
    outer loop
      vertex   -8.384577e-02 3.433607e-02 -4.550000e-02
      vertex   -8.384577e-02 3.433607e-02 -5.450000e-02
      vertex   -8.467742e-02 3.577652e-02 -4.550000e-02
    endloop
  endfacet
  facet normal 8.660254e-01 5.000000e-01 0.000000e+00
    outer loop
      vertex   -8.467742e-02 3.577652e-02 -4.550000e-02
      vertex   -8.384577e-02 3.433607e-02 -5.450000e-02
      vertex   -8.467742e-02 3.577652e-02 -5.450000e-02
    endloop
  endfacet
  facet normal 5.877853e-01 8.090170e-01 0.000000e+00
    outer loop
      vertex   -8.467742e-02 3.577652e-02 -4.550000e-02
      vertex   -8.467742e-02 3.577652e-02 -5.450000e-02
      vertex   -8.602305e-02 3.675418e-02 -4.550000e-02
    endloop
  endfacet
  facet normal 5.877853e-01 8.090170e-01 -6.237426e-16
    outer loop
      vertex   -8.602305e-02 3.675418e-02 -4.550000e-02
      vertex   -8.467742e-02 3.577652e-02 -5.450000e-02
      vertex   -8.602305e-02 3.675418e-02 -5.450000e-02
    endloop
  endfacet
  facet normal 0.000000e+00 -0.000000e+00 -1.000000e+00
    outer loop
      vertex   -8.765000e-02 3.710000e-02 -5.450000e-02
      vertex   -8.602305e-02 3.675418e-02 -5.450000e-02
      vertex   -8.927695e-02 3.675418e-02 -5.450000e-02
    endloop
  endfacet
  facet normal 0.000000e+00 -0.000000e+00 -1.000000e+00
    outer loop
      vertex   -8.927695e-02 3.675418e-02 -5.450000e-02
      vertex   -8.602305e-02 3.675418e-02 -5.450000e-02
      vertex   -9.062258e-02 3.577652e-02 -5.450000e-02
    endloop
  endfacet
  facet normal 0.000000e+00 0.000000e+00 -1.000000e+00
    outer loop
      vertex   -9.062258e-02 3.577652e-02 -5.450000e-02
      vertex   -8.602305e-02 3.675418e-02 -5.450000e-02
      vertex   -8.467742e-02 3.577652e-02 -5.450000e-02
    endloop
  endfacet
  facet normal 0.000000e+00 -0.000000e+00 -1.000000e+00
    outer loop
      vertex   -9.062258e-02 3.577652e-02 -5.450000e-02
      vertex   -8.467742e-02 3.577652e-02 -5.450000e-02
      vertex   -9.145423e-02 3.433607e-02 -5.450000e-02
    endloop
  endfacet
  facet normal 0.000000e+00 0.000000e+00 -1.000000e+00
    outer loop
      vertex   -9.145423e-02 3.433607e-02 -5.450000e-02
      vertex   -8.467742e-02 3.577652e-02 -5.450000e-02
      vertex   -8.384577e-02 3.433607e-02 -5.450000e-02
    endloop
  endfacet
  facet normal 0.000000e+00 -0.000000e+00 -1.000000e+00
    outer loop
      vertex   -9.145423e-02 3.433607e-02 -5.450000e-02
      vertex   -8.384577e-02 3.433607e-02 -5.450000e-02
      vertex   -9.162809e-02 3.268189e-02 -5.450000e-02
    endloop
  endfacet
  facet normal 0.000000e+00 0.000000e+00 -1.000000e+00
    outer loop
      vertex   -9.162809e-02 3.268189e-02 -5.450000e-02
      vertex   -8.384577e-02 3.433607e-02 -5.450000e-02
      vertex   -8.367191e-02 3.268189e-02 -5.450000e-02
    endloop
  endfacet
  facet normal 0.000000e+00 0.000000e+00 -1.000000e+00
    outer loop
      vertex   -9.162809e-02 3.268189e-02 -5.450000e-02
      vertex   -8.367191e-02 3.268189e-02 -5.450000e-02
      vertex   -9.111410e-02 3.110000e-02 -5.450000e-02
    endloop
  endfacet
  facet normal 0.000000e+00 0.000000e+00 -1.000000e+00
    outer loop
      vertex   -9.111410e-02 3.110000e-02 -5.450000e-02
      vertex   -8.367191e-02 3.268189e-02 -5.450000e-02
      vertex   -8.418590e-02 3.110000e-02 -5.450000e-02
    endloop
  endfacet
  facet normal 0.000000e+00 0.000000e+00 -1.000000e+00
    outer loop
      vertex   -9.111410e-02 3.110000e-02 -5.450000e-02
      vertex   -8.418590e-02 3.110000e-02 -5.450000e-02
      vertex   -9.000114e-02 2.986393e-02 -5.450000e-02
    endloop
  endfacet
  facet normal 0.000000e+00 0.000000e+00 -1.000000e+00
    outer loop
      vertex   -9.000114e-02 2.986393e-02 -5.450000e-02
      vertex   -8.418590e-02 3.110000e-02 -5.450000e-02
      vertex   -8.529886e-02 2.986393e-02 -5.450000e-02
    endloop
  endfacet
  facet normal 0.000000e+00 0.000000e+00 -1.000000e+00
    outer loop
      vertex   -9.000114e-02 2.986393e-02 -5.450000e-02
      vertex   -8.529886e-02 2.986393e-02 -5.450000e-02
      vertex   -8.848165e-02 2.918741e-02 -5.450000e-02
    endloop
  endfacet
  facet normal 0.000000e+00 0.000000e+00 -1.000000e+00
    outer loop
      vertex   -8.848165e-02 2.918741e-02 -5.450000e-02
      vertex   -8.529886e-02 2.986393e-02 -5.450000e-02
      vertex   -8.681835e-02 2.918741e-02 -5.450000e-02
    endloop
  endfacet
endsolid
